<svg id="Layer_1" data-name="Layer 1" xmlns="http://www.w3.org/2000/svg" viewBox="0 0 100 100"><defs><style>.cls-1{fill:#f5f5f5;}.cls-2{fill:none;stroke:#000;stroke-miterlimit:10;stroke-width:1.5px;}</style></defs><circle class="cls-1" cx="50" cy="50" r="50"/><rect class="cls-2" x="41.21" y="30.91" width="17.55" height="38.19"/><rect class="cls-2" x="38.3" y="30.91" width="2.9" height="38.19"/><rect class="cls-2" x="58.76" y="30.91" width="2.9" height="38.19"/><path class="cls-2" d="M44.49,19.59h11a3.28,3.28,0,0,1,3.28,3.28v2.58a0,0,0,0,1,0,0H41.21a0,0,0,0,1,0,0V22.87A3.28,3.28,0,0,1,44.49,19.59Z"/><path class="cls-2" d="M41.36,25.45H58.67a3.06,3.06,0,0,1,3.06,3.06v2.4a0,0,0,0,1,0,0H38.3a0,0,0,0,1,0,0v-2.4A3.06,3.06,0,0,1,41.36,25.45Z"/><path class="cls-2" d="M44.52,74.55h11a3.28,3.28,0,0,1,3.28,3.28v2.58a0,0,0,0,1,0,0H41.24a0,0,0,0,1,0,0V77.83a3.28,3.28,0,0,1,3.28-3.28Z" transform="translate(100.03 154.96) rotate(180)"/><path class="cls-2" d="M41.33,69.09H58.64a3.06,3.06,0,0,1,3.06,3.06v2.4a0,0,0,0,1,0,0H38.27a0,0,0,0,1,0,0v-2.4a3.06,3.06,0,0,1,3.06-3.06Z" transform="translate(99.97 143.64) rotate(180)"/><rect class="cls-2" x="47.1" y="80.41" width="5.97" height="2.65"/><rect class="cls-2" x="48.88" y="83.06" width="2.55" height="1.94"/><rect class="cls-2" x="47.03" y="16.94" width="5.97" height="2.65" transform="translate(100.03 36.54) rotate(180)"/><rect class="cls-2" x="48.67" y="15" width="2.55" height="1.94" transform="translate(99.88 31.94) rotate(180)"/></svg>