<svg id="Layer_1" data-name="Layer 1" xmlns="http://www.w3.org/2000/svg" viewBox="0 0 100 100"><defs><style>.cls-1{fill:#f5f5f5;}</style></defs><circle class="cls-1" cx="50" cy="50" r="50"/><path d="M74.62,54.17a4.72,4.72,0,0,0-4.72-4.71H64.41V42.08a10.41,10.41,0,0,0-1.53-18.75L60.7,22.5v7l-1.51.93-1.5-.93v-7l-2.19.83a10.42,10.42,0,0,0-1.44,18.8V44.3H47.23l-8.67,7H37.43V48.69h-12V77.5H37.43V74.44l5.88,3.06h23.3v-.09a4.71,4.71,0,0,0,3.21-6.92,4.72,4.72,0,0,0,2.08-3.91,4.65,4.65,0,0,0-.63-2.34,4.74,4.74,0,0,0,2-3.86A4.62,4.62,0,0,0,72.64,58,4.74,4.74,0,0,0,74.62,54.17ZM52,33.07a7.23,7.23,0,0,1,2.46-5.41V31.3l4.73,2.92,4.74-2.92V27.66a7.19,7.19,0,0,1-1.8,12l-1,.43v9.4H57.29V40.08l-1-.42A7.2,7.2,0,0,1,52,33.07ZM34.2,74.27H28.61V51.92H34.2Zm31.5,0H44.1L37.43,70.8V54.5H39.7l8.66-7H54v5.15H69.9a1.49,1.49,0,0,1,0,3H60.5v3.23h8.06a1.49,1.49,0,0,1,0,3H59.12v3.22h8.06a1.49,1.49,0,1,1,0,3H57.64V71.3H65.7a1.49,1.49,0,1,1,0,3Z"/></svg>