<svg id="Layer_1" data-name="Layer 1" xmlns="http://www.w3.org/2000/svg" viewBox="0 0 100 100"><defs><style>.cls-1{fill:#f5f5f5;}.cls-2,.cls-3{fill:none;}.cls-3{stroke:#000;stroke-miterlimit:10;stroke-width:3px;}</style></defs><circle class="cls-1" cx="50" cy="50" r="50"/><path class="cls-2" d="M29.77,37.35H71.7v9.82h2.58V35a1.9,1.9,0,0,0-2.07-1.66H27.79A1.9,1.9,0,0,0,25.72,35V47.17h4.05Z"/><path class="cls-2" d="M76.07,50.49H23.93c-2.58,0-4.68,1.68-4.68,3.75V62h61.5v-7.8C80.75,52.17,78.65,50.49,76.07,50.49Z"/><path d="M78.42,47.42V35c0-2.75-2.79-5-6.21-5H27.79c-3.42,0-6.21,2.23-6.21,5V47.42c-3.73.83-6.48,3.57-6.48,6.82V63.7a1.91,1.91,0,0,0,2.08,1.66h4.4v3A1.9,1.9,0,0,0,23.65,70a1.89,1.89,0,0,0,2.07-1.66v-3H74.28v3a2.12,2.12,0,0,0,4.14,0v-3h4.4A1.91,1.91,0,0,0,84.9,63.7V54.24C84.9,51,82.15,48.25,78.42,47.42ZM25.72,35a1.9,1.9,0,0,1,2.07-1.66H72.21A1.9,1.9,0,0,1,74.28,35V47.17H25.72ZM80.75,62H19.25v-7.8c0-2.07,2.1-3.75,4.68-3.75H76.07c2.58,0,4.68,1.68,4.68,3.75Z"/><path class="cls-3" d="M31.07,40H44.32a2,2,0,0,1,2,2v5.66a0,0,0,0,1,0,0H29.07a0,0,0,0,1,0,0V42A2,2,0,0,1,31.07,40Z"/><path class="cls-3" d="M55.41,40H68.66a2,2,0,0,1,2,2v5.66a0,0,0,0,1,0,0H53.41a0,0,0,0,1,0,0V42A2,2,0,0,1,55.41,40Z"/></svg>