<svg id="Layer_1" data-name="Layer 1" xmlns="http://www.w3.org/2000/svg" viewBox="0 0 100 100"><defs><style>.cls-1{fill:#f5f5f5;}</style></defs><circle class="cls-1" cx="50" cy="50" r="50"/><g id="surface1"><path d="M66.35,37.67a2.22,2.22,0,0,0-2.22-2.13H57.06a9.33,9.33,0,1,0-14.16,0H35.84a2.24,2.24,0,0,0-2.23,2.13l-6.93,35a.67.67,0,0,0,0,.2,2.21,2.21,0,0,0,2.22,2.22H71.1a2.21,2.21,0,0,0,2.22-2.22.67.67,0,0,0,0-.2Zm-23.56-8.1a7.2,7.2,0,1,1,11.1,6H46.08A7.25,7.25,0,0,1,42.79,29.57ZM71.1,73H28.79l6.94-35a.67.67,0,0,0,0-.2.09.09,0,0,1,.1-.09H64.14a.1.1,0,0,1,.1.09.67.67,0,0,0,0,.2l6.93,35Z"/><path d="M50,34.12a4.6,4.6,0,1,0-4.6-4.6v.05A4.6,4.6,0,0,0,50,34.12Zm0-7.07a2.44,2.44,0,1,1-.06,0Z"/></g></svg>