<svg id="Layer_1" data-name="Layer 1" xmlns="http://www.w3.org/2000/svg" viewBox="0 0 100 100"><defs><style>.cls-1{fill:#f5f5f5;}</style></defs><circle class="cls-1" cx="50" cy="50" r="50"/><path d="M50.42,46.57a17.59,17.59,0,0,0-1.67-7.18,8.94,8.94,0,0,0-9.53-5.12,9.94,9.94,0,0,0-6,2.41,10.81,10.81,0,0,0-2.41,3.77c-.37.91-.68,1.86-1,2.78a1.36,1.36,0,0,1-1.69.93,1.27,1.27,0,0,1-1-1.59c1.87-6.35,4.56-10.14,11.29-11,3.7-.46,7.1.15,10,2.71a13.76,13.76,0,0,1,4,6.58A18,18,0,0,1,48.67,58.6a60,60,0,0,1-4.4,4.76,7.72,7.72,0,0,0-2.38,4.41,10,10,0,0,1-2.82,5.56,9.56,9.56,0,0,1-9.82,1.79c-2.49-1.18-3.53-3.32-3.84-5.92a11.88,11.88,0,0,1-.07-2,1.35,1.35,0,0,1,1.35-1.37,1.37,1.37,0,0,1,1.4,1.41,12.46,12.46,0,0,0,.16,2.2A4,4,0,0,0,32.94,73,6.22,6.22,0,0,0,39,67.87c0-.2.11-.4.14-.6a10.29,10.29,0,0,1,3.25-6,41.32,41.32,0,0,0,5.65-6.59A14,14,0,0,0,50.42,46.57Z"/><path d="M47.32,46.34a15.64,15.64,0,0,1-3.75,9.79c-.84,1-1.72,1.95-2.6,2.9a1.19,1.19,0,0,1-1.81.19,1.25,1.25,0,0,1,.09-1.83,22.8,22.8,0,0,0,4.32-5.6,11.51,11.51,0,0,0,1.22-7.1,5.3,5.3,0,0,0-6.39-4.2c-2.1.51-3,2.11-3.5,4a1.78,1.78,0,0,0,.7,2.19,6.36,6.36,0,0,1,2.29,6,10.16,10.16,0,0,1-3.29,6.77,6.25,6.25,0,0,1-3.89,1.76c-.93.08-1.48-.33-1.53-1.09s.4-1.23,1.34-1.3a3.58,3.58,0,0,0,2.21-.92,7.71,7.71,0,0,0,2.74-6.88,3.82,3.82,0,0,0-2.26-3.14,1.46,1.46,0,0,1-.93-1.57,12.55,12.55,0,0,1,.54-3.23c.91-2.72,2.66-4.6,5.56-5a7.42,7.42,0,0,1,7.5,3.24A7.94,7.94,0,0,1,47.32,46.34Z"/><path d="M74.67,37.15a15.8,15.8,0,0,1-3.49,9.94,1.5,1.5,0,0,1-1.68.6,1.42,1.42,0,0,1-1.09-1.24,1.55,1.55,0,0,1,.41-1.26c4.56-5.64,3.44-14.21-2-18.93a13.11,13.11,0,0,0-4.49-2.52,1.51,1.51,0,1,1,1-2.84,15.64,15.64,0,0,1,8,5.81A17.33,17.33,0,0,1,74.67,37.15Z"/><path d="M68.68,37.66a12.22,12.22,0,0,1-2.87,8.08,1.49,1.49,0,0,1-2.27.24,1.45,1.45,0,0,1-.07-2.12,10.17,10.17,0,0,0,.61-11.77,9.41,9.41,0,0,0-5.32-4.21c-1-.32-1.5-1.05-1.25-1.93A1.54,1.54,0,0,1,59.67,25c5,1.69,7.77,5.3,8.82,10.37A11.57,11.57,0,0,1,68.68,37.66Z"/><path d="M62.7,38.64a8.58,8.58,0,0,1-2.23,5.73,1.57,1.57,0,0,1-2.34.33,1.55,1.55,0,0,1,.08-2.34c2.94-3.31,1.21-9.15-3.06-10.35C54,31.69,53.51,31,53.8,30s1.08-1.24,2.18-.93a8.65,8.65,0,0,1,5,3.66A10.25,10.25,0,0,1,62.7,38.64Z"/></svg>