<svg id="Layer_1" data-name="Layer 1" xmlns="http://www.w3.org/2000/svg" viewBox="0 0 100 100"><defs><style>.cls-1{fill:#f5f5f5;}</style></defs><circle class="cls-1" cx="50" cy="50" r="50"/><path d="M68.6,22.85A.55.55,0,0,0,68,22.5H32.16a1,1,0,0,0-.76.35,1.23,1.23,0,0,0-.29.76l4,49.12a5.33,5.33,0,0,0,5.18,4.77H59.69a5.24,5.24,0,0,0,5.18-4.77l4-49.12A.89.89,0,0,0,68.6,22.85ZM59.81,75.52H40.37a3.26,3.26,0,0,1-3.15-2.85H63A3.29,3.29,0,0,1,59.81,75.52Zm3.31-4.89H37.05L33.27,24.54H66.85Z"/><path d="M62.78,40.37a1,1,0,0,0-.94-.18,17.38,17.38,0,0,1-11.52.06,14.29,14.29,0,0,0-4.6-.7,25.79,25.79,0,0,0-8.2,1.52,1,1,0,0,0-.64,1l2,25.15a1,1,0,0,0,1,.93H60.45a1,1,0,0,0,1-.93l1.74-26A1,1,0,0,0,62.78,40.37ZM59.52,66.09H40.78L39,42.7a22.8,22.8,0,0,1,6.75-1.17,13.07,13.07,0,0,1,3.9.58,19.49,19.49,0,0,0,11.41.41Z"/></svg>