<svg id="Layer_1" data-name="Layer 1" xmlns="http://www.w3.org/2000/svg" viewBox="0 0 150 150"><defs><style>.cls-1{fill:#2196f3;}.cls-2{fill:#fafafa;}</style></defs><rect class="cls-1" width="150" height="150" rx="20"/><path class="cls-2" d="M75,35A39.23,39.23,0,0,0,35,73.34a37.63,37.63,0,0,0,13.33,28.53v11.46A1.67,1.67,0,0,0,50,115a1.7,1.7,0,0,0,.88-.25l9.29-5.81A41.32,41.32,0,0,0,75,111.67a39.24,39.24,0,0,0,40-38.33A39.23,39.23,0,0,0,75,35Z"/><path class="cls-1" d="M101.33,64a1.66,1.66,0,0,0-2.13-.46L81.86,73,71.08,63.74a1.66,1.66,0,0,0-2.26.09l-20,20a1.67,1.67,0,0,0,0,2.36,1.65,1.65,0,0,0,2,.28L68.13,77l10.79,9.24a1.66,1.66,0,0,0,2.26-.08l20-20A1.66,1.66,0,0,0,101.33,64Z"/></svg>