<svg id="Layer_1" data-name="Layer 1" xmlns="http://www.w3.org/2000/svg" viewBox="0 0 150 150"><defs><style>.cls-1{fill:#7a3eb5;}.cls-2{fill:#fff;}</style></defs><rect class="cls-1" width="150" height="150" rx="20"/><path class="cls-2" d="M90.37,57.18c-.11-.17-.05-.35-.05-.53,0-5.37,0-10.73,0-16.1,0-.54-.16-.62-.64-.62q-24.39,0-48.78,0c-.48,0-.6.11-.6.6q0,34.47,0,68.93c0,.48.11.6.6.6q24.41,0,48.83,0c.45,0,.57-.11.57-.57,0-6.7,0-13.41,0-20.11a1.46,1.46,0,0,1,.47-1.13c1.53-1.49,3-3,4.54-4.52.08-.08.17-.14.33-.28v28.92a2.71,2.71,0,0,1-3,3H38a2.7,2.7,0,0,1-3-3V37.63a2.7,2.7,0,0,1,3-3H92.63a2.72,2.72,0,0,1,3,3c0,4.63,0,9.27,0,13.9a1,1,0,0,1-.32.79c-1.56,1.53-3.09,3.08-4.64,4.62C90.59,57,90.52,57.16,90.37,57.18Z"/><path class="cls-2" d="M109.59,48.38A5.69,5.69,0,0,1,113.36,58c-3.2,3.23-6.43,6.44-9.65,9.65L83.59,87.8a8.51,8.51,0,0,1-3.81,2.28c-2.37.67-4.72,1.4-7.08,2.1l-.34.1a1,1,0,0,1-1.11-.21,1,1,0,0,1-.2-1.12c.34-1.11.67-2.23,1-3.35.43-1.42.86-2.83,1.27-4.26a7.56,7.56,0,0,1,2-3.35l17-17Q98.69,56.62,105,50.29A6.08,6.08,0,0,1,109.59,48.38Z"/><path class="cls-2" d="M65.32,46.34c5.66,0,11.31,0,17,0a2,2,0,0,1,2.17,2.22,2,2,0,0,1-1.62,1.79,4.12,4.12,0,0,1-.7,0H48.47a2.05,2.05,0,0,1-2.29-1.76,2,2,0,0,1,1.89-2.3c.18,0,.37,0,.55,0Z"/><path class="cls-2" d="M65.29,61.25H48.38a2,2,0,0,1-2.22-1.89A2,2,0,0,1,48,57.22c.23,0,.47,0,.7,0q16.65,0,33.31,0a3.73,3.73,0,0,1,1,.08,2,2,0,0,1-.32,3.95,5.46,5.46,0,0,1-.7,0Z"/><path class="cls-2" d="M79.55,68.07C78.19,69.42,76.9,70.7,75.62,72a.59.59,0,0,1-.46.12H48.35A2,2,0,1,1,48.23,68h31Z"/><path class="cls-2" d="M58.52,78.89H68.81c.45,0,.52.07.29.47a13.75,13.75,0,0,0-1.21,3.22.45.45,0,0,1-.52.39H48.27a2,2,0,0,1-.88-3.9,2.87,2.87,0,0,1,1.13-.16Z"/><path class="cls-2" d="M56.88,93.8c-2.85,0-5.7,0-8.55,0a2,2,0,0,1-.36-4c.24,0,.49,0,.74,0H65.12c.61,0,.61,0,.52.59a5.8,5.8,0,0,0,.24,3c.19.52,0,.53-.4.53C62.61,93.79,59.74,93.8,56.88,93.8Z"/></svg>