<svg id="Layer_1" data-name="Layer 1" xmlns="http://www.w3.org/2000/svg" viewBox="0 0 150 150"><defs><style>.cls-1{fill:#4caf50;}.cls-2{fill:#fff;}</style></defs><rect class="cls-1" width="150" height="150" rx="20"/><path class="cls-2" d="M77.73,67.11c-24.11,12.43-8.07,45.76,22,37.06,2.81,1.09,5.3,2.85,8,4.17-.7-2.37-1.45-4.7-2.25-7,9.32-6.64,11.37-16,7.92-23.77-5.38-12.24-22.56-17.25-35.7-10.43Zm8.43,12.18A3.29,3.29,0,1,1,82,75a3.32,3.32,0,0,1,4.2,4.25Zm15.91.31h.05a3.33,3.33,0,0,1-5.24.9,5,5,0,0,1-1.15-2.44c.35-1.53,1.4-3.12,3.1-3.19a3.35,3.35,0,0,1,3.24,4.73Z"/><path class="cls-2" d="M93,62.55C91.58,55.41,86.58,49.38,80.3,45.9h.09c-22.31-12.61-50.08,5-44.72,25.71,1.45,6.16,5.7,11.31,10.86,14.76-1,2.84-1.94,5.68-2.84,8.54,3.24-1.71,6.49-3.49,9.74-5.22a36.07,36.07,0,0,0,12.19,1.73c-5.13-14.69,8-30.25,27.41-28.87ZM72.8,54a4.09,4.09,0,0,1,5.49,4v0c0,3.21-4.24,5.21-6.64,3A4.13,4.13,0,0,1,72.8,54ZM58.13,58.84a4.11,4.11,0,0,1-6.48,2.27,4.1,4.1,0,1,1,6.48-2.27Z"/></svg>