<svg id="Layer_1" data-name="Layer 1" xmlns="http://www.w3.org/2000/svg" viewBox="0 0 100 100"><defs><style>.cls-1{fill:#f5f5f5;}.cls-2{fill:#30cdff;}</style></defs><polygon class="cls-2" points="73.77 57.95 72.83 54.45 64.6 56.66 53.63 50.32 64.6 43.98 72.83 46.19 73.77 42.68 69.04 41.42 74.72 38.14 72.91 35 67.23 38.28 68.5 33.55 65 32.61 62.79 40.84 51.81 47.18 51.81 34.5 57.84 28.48 55.27 25.91 51.81 29.37 51.81 22.82 48.19 22.82 48.19 29.37 44.73 25.91 42.16 28.48 48.19 34.5 48.19 47.18 37.21 40.84 35.01 32.61 31.5 33.55 32.77 38.28 27.09 35 25.28 38.14 30.96 41.42 26.23 42.68 27.17 46.19 35.4 43.98 46.37 50.32 35.4 56.66 27.17 54.45 26.23 57.95 30.96 59.22 25.28 62.5 27.09 65.64 32.77 62.36 31.5 67.09 35.01 68.03 37.21 59.8 48.19 53.46 48.19 66.14 42.16 72.16 44.73 74.72 48.19 71.26 48.19 77.82 51.81 77.82 51.81 71.26 55.27 74.72 57.84 72.16 51.81 66.14 51.81 53.46 62.79 59.8 65 68.03 68.5 67.09 67.23 62.36 72.91 65.64 74.72 62.5 69.04 59.22 73.77 57.95"/></svg>