<svg id="Layer_1" data-name="Layer 1" xmlns="http://www.w3.org/2000/svg" viewBox="0 0 150 150"><defs><style>.cls-1{fill:#1a73e8;}.cls-2{fill:#fff;}</style></defs><rect class="cls-1" width="150" height="150" rx="20"/><path class="cls-2" d="M92.7,89.36a4,4,0,0,0-4.78-.65A19.56,19.56,0,0,0,86,89.92l-.09.06h0a21.66,21.66,0,0,0-2.27,1.89,12.12,12.12,0,0,0-1.19,1.39,5.66,5.66,0,0,1-7.75,1.29,72.79,72.79,0,0,1-19.27-19.3,5.66,5.66,0,0,1,1.3-7.74,11.84,11.84,0,0,0,1.37-1.18A20.49,20.49,0,0,0,60,64.06h0l0-.06a21.43,21.43,0,0,0,1.22-1.92,4,4,0,0,0-.64-4.78L50.06,46.72a3.92,3.92,0,0,0-2-1.06,4,4,0,0,0-2.79.41,22.21,22.21,0,0,0-1.91,1.23l-.06,0h0l-.51.38A19.46,19.46,0,0,0,41,49.24a12.12,12.12,0,0,0-2.15,14.18c.52,1.39,1.08,2.75,1.67,4.09l.21.43c.53,1.19,1.08,2.37,1.66,3.52l.46.86c.52,1,1,2,1.61,3,.2.35.42.68.62,1,.54.9,1.07,1.79,1.64,2.67.24.37.5.73.75,1.11.56.82,1.11,1.65,1.69,2.45.28.39.58.76.87,1.14.58.77,1.15,1.54,1.76,2.28.31.39.64.77,1,1.15.6.72,1.2,1.43,1.83,2.13.35.39.71.76,1.07,1.15.62.66,1.24,1.33,1.88,2,.39.39.79.76,1.18,1.13.64.62,1.28,1.23,1.93,1.83.42.38.85.74,1.28,1.11.66.57,1.31,1.14,2,1.68.45.37.92.73,1.38,1.08.67.52,1.34,1,2,1.54.49.36,1,.7,1.49,1.05.68.47,1.36.94,2.06,1.39.52.35,1,.67,1.59,1,.69.43,1.38.85,2.08,1.26s1.13.64,1.7,1,1.39.75,2.09,1.11,1.21.6,1.82.9,1.39.66,2.1,1,1.27.56,1.92.83l1.22.52-.37-.18c.71.28,1.4.58,2.12.85A12.07,12.07,0,0,0,100.76,109a19.54,19.54,0,0,0,1.89-2.28h0l0-.09a21,21,0,0,0,1.22-1.89,4,4,0,0,0-.65-4.78Z"/><path class="cls-2" d="M76.09,37.5v4.35a32.09,32.09,0,0,1,32.06,32.06h4.35A36.45,36.45,0,0,0,76.09,37.5Z"/><path class="cls-2" d="M97.83,73.91h4.36a26.13,26.13,0,0,0-26.1-26.1v4.36A21.75,21.75,0,0,1,97.83,73.91Z"/><path class="cls-2" d="M86,73.91h4.35a14.31,14.31,0,0,0-14.3-14.3V64A10,10,0,0,1,86,73.91Z"/></svg>