<svg id="Layer_1" data-name="Layer 1" xmlns="http://www.w3.org/2000/svg" viewBox="0 0 150 150"><defs><style>.cls-1{fill:#4caf50;}.cls-2{fill:#eceff1;}.cls-3{fill:#fafafa;}</style></defs><rect class="cls-1" width="150" height="150" rx="20"/><path class="cls-2" d="M103.4,46.5A40.46,40.46,0,0,0,75.15,35c-30.57,0-49.76,33.12-34.5,59.46L35,115l21.12-5.51c9.2,5,16.73,4.53,19.05,4.83,35.44,0,53.09-42.88,28.18-67.69Z"/><path class="cls-1" d="M75.22,107.5h-.07a33.6,33.6,0,0,1-18.05-5.31l-12.5,3.25L48,93.29,47.15,92a32.93,32.93,0,0,1-5-17.54c0-29.31,35.82-44,56.54-23.25C119.32,71.75,104.8,107.5,75.22,107.5Z"/><path class="cls-3" d="M93.36,82.69l0,.25c-1-.5-5.89-2.89-6.8-3.22-2-.76-1.47-.12-5.39,4.37-.59.65-1.17.7-2.16.25a27.05,27.05,0,0,1-8-5,30.29,30.29,0,0,1-5.53-6.9c-1-1.68,1.07-1.92,2.93-5.44a1.84,1.84,0,0,0-.09-1.75C68,64.8,66,59.9,65.21,58s-1.62-1.7-2.24-1.7c-1.92-.17-3.32-.14-4.56,1.14-5.38,5.92-4,12,.58,18.5,9.05,11.84,13.87,14,22.68,17a13.7,13.7,0,0,0,6.27.4c1.91-.3,5.89-2.4,6.72-4.75s.85-4.3.6-4.75-.9-.7-1.9-1.15Z"/></svg>