<?xml version="1.0" encoding="utf-8"?>
<!-- Generator: Adobe Illustrator 16.0.3, SVG Export Plug-In . SVG Version: 6.00 Build 0)  -->
<!DOCTYPE svg PUBLIC "-//W3C//DTD SVG 1.1 Tiny//EN" "http://www.w3.org/Graphics/SVG/1.1/DTD/svg11-tiny.dtd">
<svg version="1.1" baseProfile="tiny" id="Layer_1" xmlns="http://www.w3.org/2000/svg" xmlns:xlink="http://www.w3.org/1999/xlink"
	 x="0px" y="0px" width="1000px" height="1000px" viewBox="0 0 1000 1000" xml:space="preserve">
<g>
	<path display="none" fill-rule="evenodd" fill="#FFFFFF" d="M503.588,997.003c-163.875,0-327.75-0.078-491.625,0.231
		c-8.193,0.015-9.804-1.61-9.798-9.801C2.432,660.48,2.432,333.527,2.166,6.573C2.159-1.617,3.77-3.23,11.962-3.225
		c327.751,0.268,655.502,0.268,983.252,0.001c8.189-0.007,9.804,1.604,9.798,9.796c-0.268,326.953-0.268,653.906-0.001,980.861
		c0.007,8.19-1.604,9.815-9.796,9.801C831.339,996.925,667.464,997.003,503.588,997.003z M402.29,758.978
		c0,66.973,0.15,133.946-0.192,200.918c-0.043,8.373,2.165,10.682,10.582,10.612c48.633-0.404,97.276-0.582,145.902,0.095
		c11.101,0.154,13.471-2.979,13.44-13.659c-0.379-132.75-0.11-265.503-0.517-398.254c-0.031-10.261,2.786-12.237,12.446-12.07
		c35.868,0.619,71.771-0.391,107.622,0.623c11.254,0.317,12.941-4.303,13.992-13.291c5.634-48.242,11.309-96.485,17.897-144.6
		c1.354-9.879-0.48-11.905-10.12-11.801c-44.246,0.48-88.499,0.248-132.75,0.146c-3.813-0.008-8.993,2.236-8.921-5.545
		c0.394-42.648-0.997-85.37,1.07-127.927c1.675-34.478,17.095-52.494,45.206-59.901c10.023-2.643,20.331-3.602,30.764-3.54
		c27.506,0.16,55.016-0.126,82.52,0.191c6.186,0.071,8.182-1.513,8.145-7.926c-0.261-45.445-0.248-90.893-0.011-136.338
		c0.032-6.233-2.075-8.063-8.093-8.61c-43.275-3.943-86.628-6.192-130.063-5.104c-111.201,2.783-189.067,77.787-197.074,188.972
		c-3.698,51.367-1.116,102.776-1.624,154.163c-0.088,8.912-1.675,12.058-11.459,11.895c-38.659-0.644-77.337-0.072-116.002-0.429
		c-7.577-0.07-10.173,1.613-10.109,9.75c0.394,49.828,0.431,99.663-0.021,149.491c-0.081,8.854,2.928,10.293,10.882,10.208
		c37.867-0.401,75.748,0.173,113.61-0.418c9.958-0.155,13.298,1.571,13.192,12.627C401.969,625.824,402.29,692.401,402.29,758.978z"
		/>
	<path fill-rule="evenodd" fill="#080808" d="M402.29,758.978c0-66.576-0.321-133.153,0.316-199.723
		c0.106-11.056-3.233-12.782-13.192-12.627c-37.863,0.591-75.743,0.017-113.61,0.418c-7.954,0.085-10.963-1.354-10.882-10.208
		c0.452-49.828,0.415-99.664,0.021-149.491c-0.064-8.136,2.532-9.819,10.109-9.75c38.665,0.356,77.343-0.215,116.002,0.429
		c9.784,0.163,11.371-2.983,11.459-11.895c0.508-51.386-2.074-102.796,1.624-154.163c8.007-111.185,85.873-186.189,197.074-188.972
		c43.435-1.087,86.787,1.161,130.063,5.104c6.018,0.548,8.125,2.377,8.093,8.61c-0.237,45.445-0.25,90.893,0.011,136.338
		c0.037,6.413-1.959,7.997-8.145,7.926c-27.504-0.317-55.014-0.031-82.52-0.191c-10.433-0.062-20.74,0.897-30.764,3.54
		c-28.111,7.407-43.531,25.423-45.206,59.901c-2.067,42.558-0.677,85.279-1.07,127.927c-0.072,7.781,5.108,5.537,8.921,5.545
		c44.251,0.102,88.504,0.334,132.75-0.146c9.64-0.104,11.474,1.922,10.12,11.801c-6.589,48.115-12.264,96.358-17.897,144.6
		c-1.051,8.988-2.738,13.608-13.992,13.291c-35.851-1.014-71.754-0.004-107.622-0.623c-9.66-0.167-12.478,1.81-12.446,12.07
		c0.406,132.751,0.138,265.504,0.517,398.254c0.03,10.681-2.34,13.813-13.44,13.659c-48.626-0.677-97.269-0.499-145.902-0.095
		c-8.417,0.069-10.625-2.239-10.582-10.612C402.44,892.924,402.29,825.95,402.29,758.978z"/>
</g>
</svg>
