<?xml version="1.0" encoding="utf-8"?>
<!-- Generator: Adobe Illustrator 16.0.3, SVG Export Plug-In . SVG Version: 6.00 Build 0)  -->
<!DOCTYPE svg PUBLIC "-//W3C//DTD SVG 1.1 Tiny//EN" "http://www.w3.org/Graphics/SVG/1.1/DTD/svg11-tiny.dtd">
<svg version="1.1" baseProfile="tiny" id="Layer_1" xmlns="http://www.w3.org/2000/svg" xmlns:xlink="http://www.w3.org/1999/xlink"
	 x="0px" y="0px"  viewBox="0 0 1000 1000" xml:space="preserve">
<g>
	<path fill-rule="evenodd" fill="#25A7CB" d="M-18.223,779.837c0-265.661,0-531.319,0-796.979c344.231,0,688.461,0,1032.692,0.001
		c1.383,0,2.766,0.019,4.146,0.028c0.022,1.382,0.061,2.763,0.061,4.146c0.002,140.051,0.002,280.103,0.007,420.154
		c0,1.488,0.04,2.977,0.063,4.464c-0.053,0.199-0.096,0.4-0.13,0.602c-2.766,0.396-5.253,1.642-7.853,2.555
		c-16.731,5.884-33.478,11.732-50.215,17.602c-11.727,4.112-23.446,8.246-35.17,12.363c-16.235,5.702-32.471,11.395-48.707,17.095
		c-11.622,4.082-23.242,8.171-34.866,12.251c-20.546,7.212-41.096,14.415-61.639,21.629c-10.923,3.836-21.835,7.699-32.757,11.538
		c-16.232,5.704-32.472,11.394-48.704,17.098c-11.022,3.874-22.035,7.772-33.055,11.646c-16.134,5.669-32.273,11.316-48.403,16.99
		c-18.737,6.59-37.47,13.188-56.196,19.8c-9.715,3.43-19.408,6.91-29.121,10.336c-18.932,6.675-37.875,13.318-56.806,19.994
		c-10.017,3.53-20.014,7.114-30.028,10.65c-18.226,6.438-36.453,12.872-54.687,19.285c-9.318,3.277-18.668,6.465-27.977,9.766
		c-18.316,6.497-36.608,13.063-54.921,19.568c-8.608,3.06-17.254,6.006-25.861,9.066c-18.113,6.438-36.206,12.925-54.315,19.371
		c-7.705,2.743-15.438,5.405-23.139,8.155c-16.6,5.93-33.186,11.9-49.783,17.837c-7.2,2.576-14.427,5.075-21.623,7.663
		c-15.49,5.566-30.967,11.171-46.452,16.753c-8.192,2.955-16.399,5.866-24.579,8.852c-12.171,4.442-24.335,8.901-36.48,13.41
		c-11.248,4.18-22.45,8.482-33.71,12.629C-11.703,777.362-14.731,779.222-18.223,779.837z"/>
	<path fill-rule="evenodd" fill="#50BCD7" d="M-18.223,779.837c3.492-0.615,6.52-2.475,9.793-3.681
		c11.26-4.146,22.462-8.449,33.71-12.629c12.145-4.509,24.309-8.968,36.48-13.41c8.18-2.985,16.387-5.896,24.579-8.852
		c15.484-5.582,30.961-11.187,46.452-16.753c7.196-2.588,14.423-5.087,21.623-7.663c16.598-5.937,33.183-11.907,49.783-17.837
		c7.701-2.75,15.434-5.412,23.139-8.155c18.109-6.446,36.202-12.934,54.315-19.371c8.607-3.061,17.253-6.007,25.861-9.066
		c18.313-6.506,36.605-13.071,54.921-19.568c9.309-3.301,18.659-6.488,27.977-9.766c18.234-6.413,36.461-12.847,54.687-19.285
		c10.014-3.536,20.011-7.12,30.028-10.65c18.931-6.676,37.874-13.319,56.806-19.994c9.713-3.426,19.406-6.906,29.121-10.336
		c18.727-6.611,37.459-13.21,56.196-19.8c16.13-5.674,32.27-11.321,48.403-16.99c11.02-3.874,22.032-7.772,33.055-11.646
		c16.232-5.704,32.472-11.394,48.704-17.098c10.922-3.839,21.834-7.701,32.757-11.538c20.543-7.215,41.093-14.417,61.639-21.629
		c11.624-4.08,23.244-8.17,34.866-12.251c16.236-5.7,32.472-11.394,48.707-17.095c11.724-4.117,23.443-8.25,35.17-12.363
		c16.737-5.87,33.483-11.718,50.215-17.602c2.6-0.914,5.087-2.159,7.853-2.555c0.032,0.865,0.065,1.729,0.096,2.594
		c-0.011,1.595-0.03,3.19-0.03,4.785c-0.003,198.017,0,396.035-0.011,594.053c0,6.162,0.734,5.428-5.438,5.428
		c-343.817,0.01-687.637,0.009-1031.456,0.009C-18.223,939.358-18.223,859.598-18.223,779.837z"/>
	<path fill-rule="evenodd" fill="#8AD1E4" d="M-18.223,1019.121c343.819,0,687.638,0.001,1031.456-0.009
		c6.172,0,5.438,0.734,5.438-5.428c0.011-198.018,0.008-396.036,0.011-594.053c0-1.595,0.02-3.19,0.028-4.785
		c0.203,0,0.405,0,0.607,0c0,201.598,0,403.196,0,604.913c-1.979,0-3.961,0-5.943,0c-342.908,0-685.817,0.001-1028.726-0.041
		C-16.286,1019.719-17.516,1020.455-18.223,1019.121z"/>
	<path fill-rule="evenodd" fill="#48B6D4" d="M1018.615-17.113c-1.381-0.009-2.764-0.028-4.146-0.028
		c-344.23-0.001-688.461-0.001-1032.692-0.001c0.139-0.196-0.323-0.666,0.319-0.645c0.85,0.027,1.702,0.006,2.552,0.006
		c344.677,0,689.355,0,1034.03,0C1018.658-17.559,1018.638-17.335,1018.615-17.113z"/>
	<path fill-rule="evenodd" fill="#92D3E5" d="M1018.615-17.113c0.022-0.222,0.043-0.445,0.063-0.667
		c0.197,0.139,0.666-0.322,0.646,0.32c-0.026,0.85-0.007,1.701-0.007,2.552c0,142.188,0,284.377,0,426.565
		c-0.191,0-0.381-0.002-0.571-0.006c-0.022-1.488-0.063-2.976-0.063-4.464c-0.005-140.051-0.005-280.103-0.007-420.154
		C1018.676-14.35,1018.638-15.731,1018.615-17.113z"/>
	<path fill-rule="evenodd" fill="#8AD1E4" d="M1018.745,411.65c0.19,0.003,0.38,0.005,0.571,0.006c0,1.063,0,2.127,0,3.19
		c-0.202,0-0.404,0-0.607,0c-0.028-0.864-0.062-1.729-0.094-2.594C1018.649,412.05,1018.692,411.85,1018.745,411.65z"/>
</g>
</svg>
