<?xml version="1.0" encoding="utf-8"?>
<!-- Generator: Adobe Illustrator 16.0.3, SVG Export Plug-In . SVG Version: 6.00 Build 0)  -->
<!DOCTYPE svg PUBLIC "-//W3C//DTD SVG 1.1 Tiny//EN" "http://www.w3.org/Graphics/SVG/1.1/DTD/svg11-tiny.dtd">
<svg version="1.1" baseProfile="tiny" id="Layer_1" xmlns="http://www.w3.org/2000/svg" xmlns:xlink="http://www.w3.org/1999/xlink"
	 x="0px" y="0px"  viewBox="0 0 1000 1000" xml:space="preserve">
<g>
	<path display="none" fill-rule="evenodd" fill="#FFFFFF" d="M1002.389,503.585c0,163.077-0.078,326.156,0.231,489.234
		c0.015,8.191-1.61,9.803-9.801,9.796c-326.953-0.267-653.908-0.267-980.861,0c-8.19,0.007-9.803-1.605-9.797-9.796
		C2.429,665.866,2.429,338.913,2.162,11.958c-0.007-8.19,1.604-9.803,9.796-9.797c326.953,0.268,653.906,0.268,980.86,0.001
		c8.189-0.007,9.816,1.602,9.802,9.796C1002.311,175.833,1002.389,339.709,1002.389,503.585z M501.912,975.712
		c151.078,0,302.157,0.008,453.235-0.013c13.699-0.003,20.829-5.624,20.554-15.939c-0.275-10.313-6.438-15.107-19.87-15.193
		c-14.351-0.091-28.758-0.805-43.033,0.232c-11.05,0.803-13.524-2.776-13.513-13.568c0.312-292.99,0.249-585.979,0.248-878.968
		c0-20.579-3.459-23.983-24.358-23.983c-177.389-0.001-354.775-0.001-532.165,0c-21.607,0-24.846,3.221-24.846,24.785
		c-0.003,180.975-0.092,361.951,0.243,542.926c0.018,9.893-2.226,12.377-12.224,12.286c-59.389-0.533-118.787-0.277-178.18-0.256
		c-18.845,0.008-23.164,4.323-23.166,23.035c-0.008,100.452-0.155,200.906,0.231,301.359c0.039,10.003-2.649,12.86-12.517,12.358
		c-16.301-0.832-32.677-0.383-49.019-0.147c-8.844,0.128-14.271,5.083-15.104,13.824c-0.891,9.344,4.057,15.148,13.097,17.015
		c3.448,0.713,7.15,0.241,10.736,0.241C202.146,975.713,352.028,975.712,501.912,975.712z"/>
	<path fill-rule="evenodd" fill="#0B0B0B" d="M501.912,975.712c-149.884,0-299.766,0.001-449.648-0.006
		c-3.586,0-7.288,0.472-10.736-0.241c-9.04-1.866-13.988-7.671-13.097-17.015c0.833-8.741,6.26-13.696,15.104-13.824
		c16.341-0.235,32.717-0.685,49.019,0.147c9.867,0.502,12.555-2.355,12.517-12.358c-0.387-100.453-0.24-200.907-0.231-301.359
		c0.001-18.712,4.321-23.027,23.166-23.035c59.394-0.021,118.791-0.277,178.18,0.256c9.998,0.091,12.241-2.394,12.224-12.286
		c-0.335-180.976-0.247-361.952-0.243-542.926c0-21.564,3.239-24.785,24.846-24.785c177.389-0.001,354.776-0.001,532.165,0
		c20.899,0,24.358,3.404,24.358,23.983c0.001,292.989,0.063,585.978-0.248,878.968c-0.012,10.792,2.463,14.371,13.513,13.568
		c14.275-1.037,28.683-0.323,43.033-0.232c13.433,0.086,19.595,4.88,19.87,15.193c0.275,10.315-6.854,15.937-20.554,15.939
		C804.069,975.72,652.99,975.712,501.912,975.712z M822.541,525.015c0-135.938-0.13-271.877,0.26-407.814
		c0.028-10.233-2.816-12.181-12.506-12.157c-134.342,0.34-268.687,0.347-403.029-0.01c-9.896-0.027-12.381,2.29-12.359,12.303
		c0.353,159.458,0.249,318.915,0.249,478.373c0,1.196,0.15,2.414-0.026,3.585c-0.991,6.604,1.376,9.122,8.417,8.878
		c14.731-0.513,29.494-0.169,44.244-0.152c19.643,0.022,23.912,4.216,23.914,23.605c0.012,100.459,0.146,200.919-0.223,301.376
		c-0.035,9.544,2.568,11.79,11.888,11.761c108.828-0.33,217.66-0.396,326.488,0.074c10.842,0.046,12.952-2.902,12.926-13.204
		C822.418,796.093,822.541,660.553,822.541,525.015z M135.996,790.647c0,47.834,0.076,95.669-0.087,143.502
		c-0.022,6.691,0.076,10.678,9.184,10.641c95.666-0.389,191.335-0.312,287.002-0.091c6.947,0.015,8.605-2.143,8.592-8.795
		c-0.195-96.066-0.199-192.133,0.006-288.199c0.014-6.801-1.934-8.83-8.716-8.68c-19.125,0.427-38.278,0.582-57.392-0.053
		c-8.241-0.273-9.947,2.629-9.853,10.212c0.377,30.689,0.231,61.386,0.125,92.079c-0.056,15.985-4.618,20.631-20.831,20.701
		c-37.469,0.159-74.939,0.155-112.408-0.001c-15.284-0.063-19.895-4.876-19.933-20.143c-0.077-31.091-0.221-62.186,0.125-93.274
		c0.079-7.159-1.679-9.769-9.286-9.549c-18.719,0.541-37.481,0.622-56.193-0.025c-8.438-0.292-10.6,2.237-10.528,10.566
		C136.204,696.572,135.996,743.611,135.996,790.647z M868.403,502.64c0-143.896-0.003-287.793,0.012-431.69
		c0.001-6.201,1.67-11.796-8.914-11.772c-167.016,0.376-334.032,0.31-501.048,0.108c-7.095-0.009-9.359,1.369-9.349,9.014
		c0.243,176.98,0.279,353.963-0.066,530.943c-0.019,9.419,4.312,9.491,10.664,8.709c8.27-1.019,4.067-7.655,4.073-11.314
		c0.256-166.219,0.221-332.439,0.223-498.658c0.001-20.208,4.031-24.233,24.48-24.235c146.688-0.012,293.375-0.01,440.063-0.001
		c21.451,0.001,25.155,3.657,25.155,24.658c0.001,276.632,0.001,553.266,0.001,829.899c0,2.79,0.326,5.626-0.061,8.362
		c-1.085,7.683,3.249,8.228,9.239,7.978c9.59-0.399,5.317-7.586,5.324-11.504C868.441,789.637,868.403,646.139,868.403,502.64z
		 M333.669,685.798c0-12.724-0.352-25.458,0.14-38.162c0.271-7.002-2.329-8.692-8.952-8.6c-24.644,0.348-49.299,0.325-73.944,0.012
		c-6.305-0.081-8.211,1.995-8.145,8.168c0.268,25.044,0.344,50.097-0.037,75.138c-0.107,7.022,2.444,8.651,8.958,8.568
		c24.645-0.311,49.299-0.303,73.944-0.005c6.252,0.076,8.359-1.88,8.151-8.15C333.378,710.456,333.667,698.121,333.669,685.798z"/>
	<path fill-rule="evenodd" fill="#FEFEFE" d="M822.541,525.015c0,135.538-0.123,271.078,0.243,406.617
		c0.026,10.302-2.084,13.25-12.926,13.204c-108.828-0.47-217.66-0.404-326.488-0.074c-9.32,0.029-11.923-2.217-11.888-11.761
		c0.369-100.457,0.235-200.917,0.223-301.376c-0.002-19.39-4.271-23.583-23.914-23.605c-14.75-0.017-29.513-0.36-44.244,0.152
		c-7.041,0.244-9.407-2.273-8.417-8.878c0.176-1.171,0.026-2.389,0.026-3.585c0-159.458,0.104-318.916-0.249-478.373
		c-0.022-10.013,2.462-12.33,12.359-12.303c134.342,0.357,268.687,0.35,403.029,0.01c9.689-0.024,12.534,1.924,12.506,12.157
		C822.411,253.138,822.541,389.076,822.541,525.015z M792.284,501.943c0.074-28.509-18.37-52.549-45.688-59.547
		c-27.406-7.019-56.839,4.601-68.826,29.705c-5.27,11.034-10.769,15.529-22.667,14.154c-6.731-0.779-12.047,3.154-14.8,9.842
		c-2.576,6.258-1.021,11.726,3.09,16.571c4.064,4.791,9.847,5.077,15.416,4.399c8.45-1.028,12.965,1.296,16.599,10.106
		c11.134,26.995,40.951,41.1,69.813,34.597C772.703,555.578,792.208,530.785,792.284,501.943z"/>
	<path fill-rule="evenodd" fill="#FEFEFE" d="M135.996,790.647c0-47.036,0.208-94.075-0.194-141.108
		c-0.071-8.329,2.091-10.858,10.528-10.566c18.712,0.647,37.474,0.566,56.193,0.025c7.607-0.22,9.365,2.39,9.286,9.549
		c-0.346,31.089-0.202,62.184-0.125,93.274c0.039,15.267,4.649,20.079,19.933,20.143c37.469,0.156,74.939,0.16,112.408,0.001
		c16.213-0.07,20.774-4.716,20.831-20.701c0.106-30.693,0.252-61.39-0.125-92.079c-0.094-7.583,1.612-10.485,9.853-10.212
		c19.113,0.635,38.267,0.479,57.392,0.053c6.782-0.15,8.729,1.879,8.716,8.68c-0.205,96.066-0.201,192.133-0.006,288.199
		c0.014,6.652-1.645,8.81-8.592,8.795c-95.667-0.221-191.336-0.298-287.002,0.091c-9.108,0.037-9.206-3.949-9.184-10.641
		C136.072,886.316,135.996,838.481,135.996,790.647z"/>
	<path fill-rule="evenodd" fill="#FEFEFE" d="M868.403,502.64c0,143.499,0.038,286.997-0.202,430.496
		c-0.007,3.918,4.266,11.104-5.324,11.504c-5.99,0.25-10.324-0.295-9.239-7.978c0.387-2.736,0.061-5.572,0.061-8.362
		c0-276.634,0-553.267-0.001-829.899c0-21.001-3.704-24.657-25.155-24.658c-146.688-0.009-293.375-0.011-440.063,0.001
		C368.03,73.746,364,77.77,363.999,97.979c-0.002,166.219,0.033,332.439-0.223,498.658c-0.006,3.659,4.197,10.296-4.073,11.314
		c-6.353,0.782-10.683,0.71-10.664-8.709c0.346-176.98,0.31-353.963,0.066-530.943c-0.01-7.645,2.253-9.023,9.349-9.014
		c167.016,0.201,334.032,0.268,501.048-0.108c10.584-0.023,8.915,5.572,8.914,11.772C868.4,214.846,868.403,358.743,868.403,502.64z
		"/>
	<path fill-rule="evenodd" fill="#FEFEFE" d="M333.668,685.798c-0.001,12.323-0.29,24.658,0.118,36.969
		c0.208,6.271-1.899,8.227-8.151,8.15c-24.645-0.298-49.299-0.306-73.944,0.005c-6.515,0.083-9.066-1.546-8.958-8.568
		c0.381-25.041,0.305-50.094,0.037-75.138c-0.066-6.173,1.84-8.249,8.145-8.168c24.645,0.313,49.3,0.336,73.944-0.012
		c6.623-0.093,9.223,1.598,8.952,8.6C333.317,660.34,333.669,673.074,333.668,685.798z"/>
	<path fill-rule="evenodd" fill="#0B0B0B" d="M792.284,501.943c-0.076,28.842-19.581,53.635-47.063,59.827
		c-28.861,6.503-58.679-7.602-69.813-34.597c-3.634-8.811-8.148-11.135-16.599-10.106c-5.569,0.678-11.352,0.392-15.416-4.399
		c-4.111-4.845-5.666-10.313-3.09-16.571c2.753-6.688,8.068-10.621,14.8-9.842c11.898,1.375,17.397-3.12,22.667-14.154
		c11.987-25.104,41.42-36.724,68.826-29.705C773.914,449.394,792.358,473.434,792.284,501.943z M706.65,486.016
		c8.611,0,16.396-0.39,24.127,0.099c9.6,0.607,15.699,5.646,15.551,15.818c-0.146,10.103-5.9,15.104-15.899,15.21
		c-7.702,0.082-15.406,0.017-24.057,0.017c9.558,13.289,20.715,17.38,33.695,13.402c12.351-3.784,20.99-15.549,21.045-28.656
		c0.054-13.27-8.091-24.373-20.956-28.567C727.129,469.092,716.268,472.902,706.65,486.016z"/>
	<path fill-rule="evenodd" fill="#FEFEFE" d="M706.65,486.016c9.617-13.114,20.479-16.924,33.506-12.677
		c12.865,4.194,21.01,15.297,20.956,28.567c-0.055,13.107-8.694,24.872-21.045,28.656c-12.98,3.978-24.138-0.113-33.695-13.402
		c8.65,0,16.354,0.065,24.057-0.017c9.999-0.105,15.754-5.107,15.899-15.21c0.148-10.173-5.951-15.211-15.551-15.818
		C723.047,485.626,715.262,486.016,706.65,486.016z"/>
</g>
</svg>
