<?xml version="1.0" encoding="utf-8"?>
<!-- Generator: Adobe Illustrator 16.0.3, SVG Export Plug-In . SVG Version: 6.00 Build 0)  -->
<!DOCTYPE svg PUBLIC "-//W3C//DTD SVG 1.1 Tiny//EN" "http://www.w3.org/Graphics/SVG/1.1/DTD/svg11-tiny.dtd">
<svg version="1.1" baseProfile="tiny" id="Layer_1" xmlns="http://www.w3.org/2000/svg" xmlns:xlink="http://www.w3.org/1999/xlink"
	 x="0px" y="0px"  viewBox="0 0 1000 1000" xml:space="preserve">
<g>
	<path display="none" fill-rule="evenodd" fill="#FEFEFE" d="M2.389,502.414c0-163.428,0.066-326.856-0.205-490.284
		c-0.013-7.811,1.051-9.997,9.596-9.989c326.856,0.292,653.712,0.297,980.568-0.01c8.968-0.008,10.25,2.26,10.244,10.547
		c-0.24,326.457-0.238,652.915-0.012,979.371c0.006,8.154-1.078,10.616-10.184,10.608c-326.855-0.32-653.711-0.312-980.566-0.027
		c-8.444,0.009-9.667-2.015-9.653-9.934C2.459,829.27,2.389,665.842,2.389,502.414z M324.601,562.633
		c4.582,8.008,3.442,12.023,3.448,15.813c0.094,55.007-0.003,110.016,0.085,165.023c0.069,42.469,27.973,70.335,70.247,70.342
		c89.289,0.012,178.578,0.063,267.866-0.115c6.756-0.015,11.746,1.461,16.786,6.48c37.546,37.399,75.474,74.414,113.247,111.584
		c16.272,16.014,35.51,20.667,54.46,12.376c20.102-8.795,29.162-24.93,29.257-46.464c0.08-18.335-0.054-36.672,0.047-55.007
		c0.05-9.132-3.058-21.18,1.532-26.637c5.453-6.481,17.943-1.983,27.349-2.101c38.278-0.48,66.926-29.302,66.901-67.647
		c-0.069-107.624-0.088-215.248-0.117-322.87c-0.013-46.354-26.852-72.986-73.612-72.991c-68.562-0.007-137.123-0.166-205.682,0.194
		c-9.112,0.048-12.09-1.96-12.029-11.696c0.449-71.349,0.319-142.701,0.212-214.052c-0.061-40.45-28.718-69.405-69.084-69.431
		c-172.598-0.116-345.196-0.104-517.794-0.009c-40.474,0.022-69.346,28.796-69.392,69.148
		c-0.127,110.814-0.136,221.627,0.005,332.44c0.05,39.722,28.869,68.529,68.462,68.902c18.733,0.177,37.476,0.343,56.199-0.127
		c7.177-0.18,9.598,1.603,9.45,9.203c-0.498,25.501,0.223,51.027-0.314,76.526c-0.466,22.114,8.98,37.832,29.095,46.071
		c19.404,7.946,37.708,4.766,52.636-10.618C270.501,619.519,296.789,591.726,324.601,562.633z"/>
	<path fill-rule="evenodd" fill="#0B0B0B" d="M324.601,562.633c-27.812,29.093-54.1,56.886-80.74,84.339
		c-14.929,15.384-33.232,18.564-52.636,10.618c-20.114-8.239-29.561-23.957-29.095-46.071c0.537-25.499-0.184-51.025,0.314-76.526
		c0.147-7.601-2.273-9.383-9.45-9.203c-18.723,0.47-37.465,0.304-56.199,0.127c-39.593-0.373-68.412-29.18-68.462-68.902
		c-0.141-110.813-0.132-221.626-0.005-332.44c0.046-40.352,28.918-69.125,69.392-69.148c172.598-0.095,345.196-0.106,517.794,0.009
		c40.366,0.026,69.023,28.98,69.084,69.431c0.107,71.351,0.237,142.703-0.212,214.052c-0.061,9.736,2.917,11.744,12.029,11.696
		c68.559-0.36,137.12-0.201,205.682-0.194c46.761,0.005,73.6,26.637,73.612,72.991c0.029,107.622,0.048,215.246,0.117,322.87
		c0.024,38.346-28.623,67.167-66.901,67.647c-9.405,0.117-21.896-4.381-27.349,2.101c-4.59,5.457-1.482,17.505-1.532,26.637
		c-0.101,18.335,0.033,36.672-0.047,55.007c-0.095,21.534-9.155,37.669-29.257,46.464c-18.95,8.291-38.188,3.638-54.46-12.376
		c-37.773-37.17-75.701-74.185-113.247-111.584c-5.04-5.02-10.03-6.495-16.786-6.48c-89.288,0.179-178.577,0.127-267.866,0.115
		c-42.274-0.007-70.178-27.873-70.247-70.342c-0.089-55.008,0.008-110.017-0.085-165.023
		C328.043,574.656,329.182,570.641,324.601,562.633z M818.075,880.096c1.634-1.152,3.27-2.306,4.903-3.458
		c0.115-1.453,0.329-2.905,0.33-4.358c0.021-27.909-0.179-55.819,0.085-83.726c0.185-19.399,11.309-30.116,30.58-30.187
		c15.947-0.059,31.896,0.025,47.843-0.023c15.4-0.048,17.955-2.574,17.96-18.233c0.032-105.256,0.033-210.511-0.002-315.766
		c-0.005-15.539-2.251-17.629-18.213-17.63c-166.255-0.007-332.511-0.007-498.766-0.001c-16.722,0.001-17.986,1.206-17.988,17.48
		c-0.014,105.255-0.013,210.511-0.001,315.766c0.002,16.506,1.903,18.386,18.668,18.39c92.896,0.016,185.793,0.204,278.687-0.218
		c13.035-0.06,22.801,3.907,31.642,13.229C748.359,807.795,783.287,843.881,818.075,880.096z M217.713,591.33
		c1.315,0.977,2.63,1.953,3.944,2.929c34.096-35.104,68.123-70.274,102.39-105.211c3.529-3.599,4.135-7.265,4.108-11.762
		c-0.104-17.941-0.048-35.883-0.041-53.824c0.014-45.477,27.43-73.019,72.78-73.037c72.163-0.026,144.327-0.136,216.49,0.167
		c8.405,0.036,11.68-1.358,11.619-10.892c-0.447-70.168-0.22-140.339-0.259-210.509c-0.009-14.75-2.474-17.111-17.521-17.112
		c-169.843-0.013-339.687-0.014-509.53,0.002c-14.866,0.001-17.523,2.571-17.527,17.173c-0.03,107.647-0.031,215.296,0.001,322.943
		c0.004,14.497,2.696,17.036,17.645,17.054c28.308,0.034,56.616-0.166,84.921,0.07c20.009,0.167,30.927,11.388,30.965,31.243
		C217.753,530.82,217.713,561.074,217.713,591.33z"/>
	<path fill-rule="evenodd" fill="#FFFFFF" d="M818.075,880.096c-34.788-36.215-69.716-72.301-104.272-108.736
		c-8.841-9.322-18.606-13.289-31.642-13.229c-92.894,0.422-185.791,0.233-278.687,0.218c-16.765-0.004-18.666-1.884-18.668-18.39
		c-0.012-105.255-0.013-210.511,0.001-315.766c0.002-16.274,1.266-17.479,17.988-17.48c166.255-0.006,332.511-0.006,498.766,0.001
		c15.962,0.001,18.208,2.092,18.213,17.63c0.035,105.255,0.034,210.51,0.002,315.766c-0.005,15.659-2.56,18.186-17.96,18.233
		c-15.947,0.049-31.896-0.035-47.843,0.023c-19.271,0.07-30.396,10.787-30.58,30.187c-0.264,27.906-0.064,55.816-0.085,83.726
		c-0.001,1.453-0.215,2.905-0.33,4.358C821.345,877.79,819.709,878.943,818.075,880.096z M794.31,610.059
		c15.953-0.009,28.159-11.938,28.285-27.645c0.124-15.582-12.203-27.777-28.116-27.815c-15.785-0.036-28.438,12.228-28.478,27.605
		C765.962,597.357,778.877,610.065,794.31,610.059z M537.907,582.79c0.232-15.973-11.51-27.971-27.589-28.191
		c-16.191-0.222-28.188,11.331-28.319,27.268c-0.133,16.146,11.475,28.077,27.428,28.192
		C525.479,610.174,537.68,598.491,537.907,582.79z M679.842,582.182c-0.071-16.119-11.74-27.643-27.928-27.582
		c-16.005,0.06-27.803,11.915-27.77,27.907c0.033,15.857,12.075,27.667,28.094,27.552
		C668.454,609.941,679.914,598.368,679.842,582.182z"/>
	<path fill-rule="evenodd" fill="#FEFEFE" d="M217.713,591.33c0-30.256,0.041-60.51-0.014-90.766
		c-0.038-19.855-10.956-31.076-30.965-31.243c-28.305-0.236-56.614-0.037-84.921-0.07c-14.949-0.018-17.64-2.557-17.645-17.054
		c-0.033-107.647-0.032-215.295-0.001-322.943c0.003-14.602,2.661-17.171,17.527-17.173c169.844-0.016,339.687-0.015,509.53-0.002
		c15.047,0.001,17.512,2.362,17.521,17.112c0.039,70.17-0.188,140.341,0.259,210.509c0.061,9.533-3.214,10.928-11.619,10.892
		c-72.163-0.303-144.327-0.193-216.49-0.167c-45.35,0.018-72.766,27.56-72.78,73.037c-0.007,17.941-0.063,35.883,0.041,53.824
		c0.027,4.497-0.58,8.163-4.108,11.762c-34.267,34.937-68.294,70.108-102.39,105.211
		C220.343,593.283,219.028,592.307,217.713,591.33z"/>
	<path fill-rule="evenodd" fill="#0B0B0B" d="M794.31,610.059c-15.433,0.007-28.348-12.701-28.309-27.854
		c0.04-15.378,12.692-27.642,28.478-27.605c15.913,0.038,28.24,12.233,28.116,27.815C822.469,598.121,810.263,610.05,794.31,610.059
		z"/>
	<path fill-rule="evenodd" fill="#0B0B0B" d="M537.907,582.79c-0.228,15.701-12.429,27.384-28.48,27.269
		c-15.953-0.115-27.561-12.046-27.428-28.192c0.132-15.937,12.128-27.489,28.319-27.268
		C526.397,554.819,538.14,566.817,537.907,582.79z"/>
	<path fill-rule="evenodd" fill="#0B0B0B" d="M679.842,582.182c0.072,16.187-11.388,27.76-27.604,27.877
		c-16.019,0.115-28.061-11.694-28.094-27.552c-0.033-15.992,11.765-27.848,27.77-27.907
		C668.102,554.539,679.771,566.063,679.842,582.182z"/>
</g>
</svg>
