<?xml version="1.0" encoding="utf-8"?>
<!-- Generator: Adobe Illustrator 16.0.3, SVG Export Plug-In . SVG Version: 6.00 Build 0)  -->
<!DOCTYPE svg PUBLIC "-//W3C//DTD SVG 1.1 Tiny//EN" "http://www.w3.org/Graphics/SVG/1.1/DTD/svg11-tiny.dtd">
<svg version="1.1" baseProfile="tiny" id="Layer_1" xmlns="http://www.w3.org/2000/svg" xmlns:xlink="http://www.w3.org/1999/xlink"
	 x="0px" y="0px"  viewBox="0 0 1000 1000" xml:space="preserve">
<g>
	<path fill-rule="evenodd" fill="#2491C1" d="M456.933,2.389c29.506,0,59.01,0,88.516,0c14.588,5.208,30.115,4.927,45.133,7.682
		c267.334,49.044,446.268,300.802,404.269,569.006c-32.454,207.256-192.628,372.339-399.449,412.142
		c-17.4,3.35-35.282,3.596-52.344,8.775c-28.708,0-57.417,0-86.125,0c-16.425-6.05-33.963-6.06-50.926-9.213
		C202.863,953.001,38.871,782.345,9.011,577.595c-2.029-13.91-1.144-28.343-6.622-41.715c0-23.125,0-46.252,0-69.377
		c5.485-13.778,4.625-28.599,6.767-42.902C39.804,218.871,202.184,50.316,405.948,11.58C422.92,8.354,440.524,8.629,456.933,2.389z
		 M333.591,707.594c0,9.167-0.094,18.336,0.033,27.502c0.087,6.274-1.014,13.149,6.013,16.919
		c7.059,3.787,12.199-1.236,17.449-4.427c14.291-8.684,28.527-17.474,42.48-26.684c6.125-4.043,11.4-4.717,18.702-2.325
		c57.84,18.939,115.914,19.604,173.429-1.044c125.693-45.121,204.323-193.753,137.642-330.254
		c-54.464-111.488-186.385-166.262-309.458-126.003c-159.81,52.276-230.363,252.515-107.618,387.667
		C328.734,667.082,338.195,683.733,333.591,707.594z"/>
	<path display="none" fill-rule="evenodd" fill="#FEFEFF" d="M543.058,999.994c17.062-5.18,34.943-5.426,52.344-8.775
		c206.821-39.803,366.995-204.886,399.449-412.142C1036.85,310.873,857.916,59.115,590.582,10.071
		c-15.018-2.755-30.545-2.474-45.133-7.682c149.92,0,299.841,0.085,449.76-0.231c8.192-0.018,9.803,1.609,9.796,9.801
		c-0.266,326.154-0.266,652.31,0,978.466c0.007,8.189-1.603,9.817-9.796,9.801C844.492,999.908,693.774,999.994,543.058,999.994z"/>
	<path display="none" fill-rule="evenodd" fill="#FEFEFF" d="M2.389,535.88c5.479,13.372,4.593,27.805,6.622,41.715
		c29.86,204.75,193.852,375.406,396.996,413.187c16.962,3.153,34.5,3.163,50.926,9.213c-148.132,0-296.264-0.094-444.396,0.238
		c-8.637,0.019-10.402-1.797-10.383-10.399C2.479,838.516,2.389,687.198,2.389,535.88z"/>
	<path display="none" fill-rule="evenodd" fill="#FEFEFF" d="M456.933,2.389c-16.409,6.24-34.013,5.964-50.985,9.19
		C202.184,50.316,39.804,218.871,9.156,423.601c-2.141,14.303-1.281,29.124-6.767,42.902c0-151.318,0.09-302.635-0.235-453.953
		C2.135,3.947,3.9,2.132,12.538,2.15C160.669,2.482,308.801,2.389,456.933,2.389z"/>
	<path display="none" fill-rule="evenodd" fill="#F9FAFA" d="M333.591,707.594c4.604-23.86-4.857-40.512-21.328-58.648
		c-122.745-135.152-52.192-335.391,107.618-387.667c123.073-40.259,254.994,14.515,309.458,126.003
		c66.682,136.501-11.948,285.133-137.642,330.254c-57.516,20.648-115.589,19.983-173.429,1.044
		c-7.302-2.392-12.578-1.718-18.702,2.325c-13.953,9.21-28.189,18-42.48,26.684c-5.25,3.19-10.39,8.214-17.449,4.427
		c-7.027-3.77-5.926-10.645-6.013-16.919C333.497,725.93,333.591,716.761,333.591,707.594z M669.986,438.738
		c0.355-10.22-8.714-13.869-20.131-7.708c-32.227,17.389-64.446,34.794-96.439,52.607c-6.218,3.462-10.067,3.076-15.452-1.739
		c-18.704-16.73-38.04-32.751-57.03-49.165c-6.655-5.752-13.11-7.265-19.92-0.457c-40.872,40.861-81.74,81.726-122.631,122.568
		c-4.437,4.431-6.3,9.542-2.715,15.021c4.055,6.194,9.969,5.561,15.884,2.764c2.877-1.361,5.669-2.905,8.463-4.432
		c29.343-16.024,58.926-31.636,87.866-48.357c8.594-4.966,13.66-3.633,20.463,2.512c17.733,16.017,36.245,31.171,54.206,46.942
		c7.672,6.737,14.524,7.092,21.88-0.281c39.972-40.071,80.022-80.062,120.045-120.081
		C667.326,446.083,670.045,443.161,669.986,438.738z"/>
	<path fill-rule="evenodd" fill="#2491C1" d="M669.979,438.733c0.066,4.427-2.652,7.349-5.503,10.199
		c-40.022,40.019-80.073,80.01-120.045,120.081c-7.355,7.373-14.208,7.019-21.88,0.281c-17.961-15.771-36.473-30.926-54.206-46.942
		c-6.803-6.145-11.87-7.478-20.463-2.512c-28.939,16.722-58.522,32.333-87.866,48.357c-2.794,1.526-5.586,3.07-8.463,4.432
		c-5.916,2.797-11.83,3.431-15.884-2.764c-3.585-5.479-1.722-10.591,2.715-15.021c40.891-40.843,81.759-81.707,122.631-122.568
		c6.81-6.808,13.265-5.295,19.92,0.457c18.99,16.414,38.326,32.435,57.03,49.165c5.385,4.815,9.234,5.202,15.452,1.739
		c31.993-17.813,64.213-35.218,96.439-52.607C661.272,424.869,670.342,428.518,669.979,438.733z"/>
</g>
</svg>
