<?xml version="1.0" encoding="utf-8"?>
<!-- Generator: Adobe Illustrator 16.0.3, SVG Export Plug-In . SVG Version: 6.00 Build 0)  -->
<!DOCTYPE svg PUBLIC "-//W3C//DTD SVG 1.1 Tiny//EN" "http://www.w3.org/Graphics/SVG/1.1/DTD/svg11-tiny.dtd">
<svg version="1.1" baseProfile="tiny" id="Layer_1" xmlns="http://www.w3.org/2000/svg" xmlns:xlink="http://www.w3.org/1999/xlink"
	 x="0px" y="0px"  viewBox="0 0 1000 1000" xml:space="preserve">
<g>
	<path display="none" fill-rule="evenodd" fill="#F6F5F5" d="M2.389,555.021c0-35.886,0-71.771,0-107.656
		c4.225-0.47,4.484-3.458,4.83-6.88c5.185-51.412,19.549-100.435,41.251-147.057c32.639-70.12,78.703-129.985,139.213-178.794
		c69.584-56.13,148.068-91.361,236.301-105.689c6.739-1.094,16.374,2.78,20.988-6.555c37.479,0,74.96,0,112.439,0
		c0.404,3.375,2.456,4.496,5.69,4.782c40.2,3.544,78.597,14.407,116.303,28.335c56.604,20.911,107.263,51.946,152.104,91.853
		c52.525,46.743,94.781,101.587,123.9,166.105c19.72,43.694,32.852,89.133,40.43,136.47c1.276,7.976-3.452,18.647,6.549,24.607
		c0,31.1,0,62.201,0,93.301c-5.07,0.636-4.763,4.45-4.78,8.078c-0.064,14.346-3.429,28.271-6.161,42.182
		c-10.638,54.151-29.377,105.359-57.248,153.128c-30.081,51.559-67.832,96.738-113.77,134.781
		c-37.146,30.762-77.771,56.188-122.441,74.793c-45.98,19.149-93.509,32.325-143.266,36.788c-3.777,0.339-8.396-1.094-9.271,4.796
		c-29.506,0-59.011,0-88.517,0c-0.481-4.213-3.418-4.901-6.891-4.767c-14.02,0.544-27.671-2.796-41.125-5.526
		c-85.172-17.28-161.868-52.375-228.436-109.144c-52.733-44.969-95.347-97.826-125.918-159.802
		c-22.547-45.708-38.037-93.986-45.695-144.732C7.733,570.895,12.162,560.548,2.389,555.021z M668.507,484.963
		c0-61.77,0.107-123.539-0.047-185.307c-0.075-29.95-15.756-47.007-43.424-47.06c-82.093-0.16-164.188-0.154-246.281,0
		c-25.558,0.049-43.264,17.03-43.313,42.42c-0.246,126.726-0.162,253.453-0.047,380.179c0.014,14.805,5.533,27.834,18.594,35.28
		c9.108,5.193,7.462,12.647,6.531,19.526c-1.07,7.908-8.389,3.489-12.782,3.845c-6.173,0.499-11.896,1.54-12.033,8.549
		c-0.153,7.802,5.78,9.433,12.514,8.886c1.98-0.161,3.983-0.024,5.977-0.024c70.137,0,140.275,0,210.413,0
		c30.287,0,60.575-0.07,90.861,0.055c6.497,0.026,12.775-0.524,12.665-8.698c-0.11-8.099-6.447-8.9-12.901-8.542
		c-0.398,0.021-0.824,0.096-1.191-0.013c-3.415-1.006-9.56,2.674-9.897-2.909c-0.365-6.039-4.467-13.871,3.174-18.429
		c17.234-10.274,21.395-26.166,21.301-44.841C668.316,606.909,668.507,545.936,668.507,484.963z"/>
	<path display="none" fill-rule="evenodd" fill="#FFFFFF" d="M545.451,1002.389c0.875-5.89,5.494-4.457,9.271-4.796
		c49.757-4.463,97.285-17.639,143.266-36.788c44.67-18.604,85.295-44.031,122.441-74.793
		c45.938-38.043,83.688-83.223,113.77-134.781c27.871-47.769,46.61-98.977,57.248-153.128c2.732-13.911,6.097-27.836,6.161-42.182
		c0.018-3.628-0.29-7.442,4.78-8.078c0,148.132-0.093,296.262,0.237,444.393c0.019,8.624-1.778,10.407-10.394,10.389
		C843.306,1002.296,694.378,1002.389,545.451,1002.389z"/>
	<path display="none" fill-rule="evenodd" fill="#FFFFFF" d="M2.389,555.021c9.772,5.527,5.344,15.874,6.479,23.397
		c7.658,50.746,23.148,99.024,45.695,144.732c30.571,61.976,73.185,114.833,125.918,159.802
		c66.568,56.769,143.264,91.863,228.436,109.144c13.455,2.73,27.105,6.07,41.125,5.526c3.473-0.135,6.41,0.554,6.891,4.767
		c-148.129,0-296.258-0.093-444.386,0.235c-8.607,0.019-10.417-1.753-10.398-10.386C2.483,846.499,2.389,700.76,2.389,555.021z"/>
	<path display="none" fill-rule="evenodd" fill="#FFFFFF" d="M1002.389,454.542c-10.001-5.96-5.272-16.631-6.549-24.607
		c-7.578-47.336-20.71-92.776-40.43-136.47c-29.119-64.519-71.375-119.363-123.9-166.105
		c-44.842-39.907-95.501-70.942-152.104-91.853c-37.706-13.929-76.103-24.792-116.303-28.335c-3.234-0.286-5.286-1.408-5.69-4.782
		c145.136,0,290.271,0.087,435.407-0.231c8.193-0.019,9.819,1.607,9.801,9.801C1002.302,159.486,1002.389,307.014,1002.389,454.542z
		"/>
	<path display="none" fill-rule="evenodd" fill="#FFFFFF" d="M444.973,2.389c-4.614,9.335-14.249,5.461-20.988,6.555
		c-88.233,14.329-166.716,49.56-236.301,105.689C127.174,163.442,81.11,223.308,48.471,293.428
		c-21.703,46.622-36.066,95.645-41.251,147.057c-0.346,3.423-0.605,6.411-4.83,6.88c0-144.94,0.094-289.88-0.236-434.82
		C2.133,3.93,3.918,2.132,12.541,2.152C156.685,2.485,300.829,2.389,444.973,2.389z"/>
	<path fill-rule="evenodd" fill="#0E0E0E" d="M668.507,484.963c0,60.972-0.19,121.946,0.113,182.917
		c0.094,18.675-4.066,34.566-21.301,44.841c-7.641,4.558-3.539,12.39-3.174,18.429c0.338,5.583,6.482,1.903,9.897,2.909
		c0.367,0.108,0.793,0.033,1.191,0.013c6.454-0.358,12.791,0.443,12.901,8.542c0.11,8.174-6.168,8.725-12.665,8.698
		c-30.286-0.125-60.574-0.055-90.861-0.055c-70.137,0-140.275,0-210.413,0c-1.993,0-3.997-0.137-5.977,0.024
		c-6.734,0.547-12.667-1.084-12.514-8.886c0.137-7.009,5.86-8.05,12.033-8.549c4.393-0.355,11.711,4.063,12.782-3.845
		c0.931-6.879,2.577-14.333-6.531-19.526c-13.061-7.446-18.581-20.476-18.594-35.28c-0.115-126.726-0.199-253.453,0.047-380.179
		c0.049-25.39,17.755-42.371,43.313-42.42c82.093-0.154,164.188-0.16,246.281,0c27.668,0.053,43.349,17.11,43.424,47.06
		C668.614,361.425,668.507,423.194,668.507,484.963z M617.625,492.81c0-42.644-0.019-85.288,0.01-127.932
		c0.011-17.023,5.082-32.719,21.11-39.833c11.603-5.148,13.565-12.055,12.42-22.54c-0.345-3.154,0.064-6.384-0.196-9.553
		c-1.125-13.673-10.393-22.919-24.161-22.944c-83.295-0.153-166.59-0.148-249.885,0.007c-12.823,0.023-21.814,8.121-23.64,20.778
		c-0.847,5.865-0.015,11.959-0.668,17.869c-0.801,7.246,1.418,11.03,8.649,14.156c15.97,6.905,24.31,19.698,24.298,37.572
		c-0.056,88.875-0.061,177.749,0.005,266.625c0.013,17.447-8.163,30.417-23.575,36.842c-10.361,4.318-10.427,10.169-8.199,18.485
		c3.077,11.495,11.811,18.456,24.656,18.477c82.497,0.136,164.996,0.171,247.494-0.02c15.553-0.036,25.707-11.743,25.294-27.124
		c-0.113-4.202-1.308-6.425-5.3-7.932c-21.306-8.043-28.463-24.754-28.367-46.195C617.759,577.301,617.625,535.056,617.625,492.81z
		 M353.055,649.036c12.358-5.765,15.77-14.798,15.769-25.882c-0.015-86.503-0.003-173.007-0.039-259.51
		c-0.001-2.781,0.071-5.704-0.709-8.316c-2.265-7.573-5.622-14.354-15.021-16.005C353.055,442.514,353.055,544.859,353.055,649.036z
		 M650.409,648.824c0-104.359,0-206.98,0-310.547c-11.063,5.315-15.339,13.702-15.35,24.329
		c-0.091,87.318-0.109,174.636,0.024,261.954C635.101,635.043,639.22,643.57,650.409,648.824z M501.407,734.073
		c38.24,0,76.48-0.03,114.721,0.031c5.708,0.01,10.614,0.942,10.62-8.065c0.008-9.114-5.077-7.988-10.688-7.985
		c-76.081,0.029-152.165,0.035-228.247-0.012c-5.703-0.004-10.563-0.9-10.563,8.064c0.001,9.054,5.021,7.994,10.631,7.988
		C425.724,734.054,463.565,734.073,501.407,734.073z"/>
	<path fill-rule="evenodd" fill="#F6F5F5" d="M617.625,492.81c0,42.246,0.134,84.491-0.056,126.736
		c-0.096,21.441,7.062,38.152,28.367,46.195c3.992,1.507,5.187,3.729,5.3,7.932c0.413,15.381-9.741,27.088-25.294,27.124
		c-82.498,0.19-164.997,0.155-247.494,0.02c-12.845-0.021-21.579-6.981-24.656-18.477c-2.228-8.316-2.162-14.167,8.199-18.485
		c15.412-6.425,23.588-19.395,23.575-36.842c-0.065-88.876-0.061-177.75-0.005-266.625c0.012-17.874-8.329-30.667-24.298-37.572
		c-7.23-3.126-9.45-6.91-8.649-14.156c0.653-5.91-0.179-12.004,0.668-17.869c1.826-12.657,10.817-20.754,23.64-20.778
		c83.295-0.155,166.59-0.16,249.885-0.007c13.769,0.025,23.036,9.271,24.161,22.944c0.261,3.169-0.148,6.399,0.196,9.553
		c1.146,10.485-0.817,17.392-12.42,22.54c-16.028,7.114-21.1,22.81-21.11,39.833C617.606,407.522,617.625,450.166,617.625,492.81z
		 M502.645,385.535c18.55-0.176,33.09-15.078,32.83-33.649c-0.256-18.438-15.398-33.46-33.567-33.3
		c-18.966,0.167-33.794,15.56-33.358,34.627C468.977,371.915,483.536,385.716,502.645,385.535z M418.372,459.765
		c-4.817,1.231-8.018,3.951-7.807,9.137c0.211,5.21,3.374,8.111,8.505,7.988c5.768-0.141,8.933-3.777,8.37-9.31
		C426.943,462.702,423.202,460.232,418.372,459.765z M493.707,468.605c-0.086-5.313-3.24-8.417-8.061-8.542
		c-5.48-0.143-9.067,3.488-8.835,8.985c0.206,4.871,3.48,7.996,8.708,7.856C490.73,476.765,493.418,473.773,493.707,468.605z
		 M427.714,667.612c-1.218-5.038-3.753-8.122-9.108-7.936c-5.406,0.188-8.048,3.248-7.975,8.348c0.084,5.824,3.703,8.829,9.26,8.355
		C424.932,675.951,427.072,672.076,427.714,667.612z M493.704,668.118c-0.31-6.069-3.549-8.433-8.608-8.461
		c-5.368-0.029-8.328,3.485-8.297,8.235c0.036,5.447,3.722,8.924,9.332,8.558C491.229,676.117,493.659,672.569,493.704,668.118z
		 M593.684,566.972c-1.297-4.365-4.053-7.813-9.771-7.09c-4.962,0.629-7.653,3.818-7.315,8.854c0.336,4.965,3.279,8.013,8.311,7.964
		C590.512,576.647,593.241,573.211,593.684,566.972z M526.678,469.15c0.624-5.49-2.537-8.57-7.285-9.063
		c-5.533-0.574-9.162,2.691-9.286,8.405c-0.112,5.147,3.034,8.206,8.126,8.386C523.271,477.057,526.541,474.62,526.678,469.15z
		 M485.356,526.177c-4.847,0.559-8.553,3.475-8.56,8.791c-0.006,4.549,2.75,8.139,7.997,8.408c5.086,0.263,8.256-2.261,8.818-7.286
		C494.23,530.535,491.388,527.293,485.356,526.177z M584.717,592.926c-5.32,0.776-8.501,3.79-8.084,9.383
		c0.374,5.007,3.698,7.754,8.623,7.674c4.987-0.082,8.074-3.071,8.24-8.071C593.682,596.268,590.364,593.424,584.717,592.926z
		 M552.045,459.713c-4.816,0.942-8.815,3.206-8.883,8.862c-0.057,4.972,2.864,8.052,7.959,8.267c4.85,0.206,8.398-1.824,8.967-7.096
		C560.701,464.032,557.405,461.188,552.045,459.713z M427.796,634.421c-1.345-4.064-3.125-7.896-8.641-7.982
		c-5.375-0.085-8.248,2.779-8.495,7.866c-0.28,5.772,3.018,9.116,8.666,9.023C424.445,643.241,426.838,639.538,427.796,634.421z
		 M427.646,502.103c-0.545-4.748-2.81-8.356-7.914-8.73c-4.916-0.362-8.577,1.925-8.997,7.292c-0.437,5.587,1.847,9.041,8.015,9.3
		C424.357,510.202,426.345,506.729,427.646,502.103z M460.419,467.286c0.315-3.607-2.61-6.869-7.432-7.307
		c-4.681-0.425-8.478,1.833-8.916,7.338c-0.452,5.688,1.95,9.412,7.824,9.638C456.999,477.153,459.995,474.3,460.419,467.286z
		 M485.844,493.248c-5.208,0.009-8.581,2.832-8.966,7.693c-0.434,5.479,2.509,8.916,8.513,8.996c5.467,0.071,8.104-2.858,8.28-7.976
		C493.85,496.75,490.861,493.989,485.844,493.248z M518.433,493.205c-5.169,0.776-8.456,3.584-8.285,8.608
		c0.188,5.576,3.592,8.491,9.42,8.111c5.575-0.363,7.379-3.872,7.23-8.804C526.634,495.68,523.056,493.734,518.433,493.205z
		 M418.611,592.983c-5.046,0.158-7.775,3.073-7.928,8.048c-0.169,5.517,2.642,8.989,8.387,8.98c5.139-0.009,8.171-3.527,8.384-8.104
		C427.7,596.621,424.499,593.257,418.611,592.983z M493.722,602.062c-0.228-4.763-1.785-8.424-7.209-8.961
		c-5.79-0.575-9.283,2.605-9.639,7.815c-0.355,5.229,2.873,8.944,8.502,9.087C490.504,610.132,493.081,606.955,493.722,602.062z
		 M419.811,543.474c4.662-0.434,7.898-3.7,7.651-9.017c-0.217-4.677-3.416-8.06-8.428-8.046c-5.659,0.018-8.552,3.558-8.382,9.06
		C410.809,540.486,413.741,543.233,419.811,543.474z M460.31,536.069c0.047-6.199-2.81-9.379-7.765-9.589
		c-5.701-0.241-8.724,3.224-8.531,8.97c0.175,5.201,3.005,8.003,8.302,7.933C457.69,543.313,460.042,540.183,460.31,536.069z
		 M460.278,632.969c-0.493-3.626-2.844-6.647-8.277-6.538c-5.413,0.108-7.934,3.115-7.984,8.199
		c-0.058,5.805,3.33,9.037,8.879,8.665C457.854,642.962,460.465,639.497,460.278,632.969z M493.667,633.618
		c-0.624-4.34-3.139-7.284-8.541-7.188c-5.504,0.1-8.248,3.744-8.301,8.326c-0.062,5.469,3.723,8.925,9.33,8.512
		C491.183,642.898,493.809,639.493,493.667,633.618z M526.799,667.983c0.068-5.035-2.533-7.939-7.738-8.289
		c-5.271-0.354-8.495,2.544-8.912,7.479c-0.473,5.599,2.798,9.257,8.423,9.264C523.464,676.442,526.6,673.498,526.799,667.983z
		 M560.132,501.782c0.028-5.377-3.087-8.267-8.018-8.389c-5.662-0.142-9.067,3.496-8.812,8.992c0.228,4.897,3.438,7.729,8.807,7.566
		C557.517,509.786,560.072,507.079,560.132,501.782z M593.61,534.653c-0.676-4.845-3.354-8.238-8.287-8.191
		c-5.332,0.051-8.899,3.271-8.717,8.896c0.185,5.705,3.817,8.277,9.376,7.934C591.275,542.966,593.309,539.553,593.61,534.653z
		 M552.653,543.388c4.817-0.537,7.579-3.412,7.441-8.63c-0.138-5.231-3.294-8.334-8.271-8.307c-5.674,0.031-8.866,3.899-8.545,9.36
		C543.575,540.836,547.109,543.409,552.653,543.388z M518.865,643.501c4.718-0.862,7.85-3.368,7.871-8.629
		c0.02-5.13-2.286-8.294-7.765-8.422c-5.941-0.138-8.991,3.149-8.783,8.723C510.374,640.145,513.737,642.87,518.865,643.501z
		 M552.141,643.551c5.408-1.182,8.42-4.126,7.939-9.838c-0.449-5.359-3.734-7.444-8.734-7.212c-5.117,0.238-8.086,3.318-8.152,8.167
		C543.113,640.309,547.146,642.657,552.141,643.551z M553.067,610.16c4.562-1.282,7.643-4.201,6.992-9.89
		c-0.596-5.216-3.933-7.467-8.889-7.175c-5.124,0.302-8.032,3.733-7.941,8.436C543.332,606.876,546.869,609.859,553.067,610.16z
		 M552.229,676.8c3.628-1.218,7.583-2.562,7.914-8.01c0.351-5.787-2.562-8.916-8.094-9.232c-5.032-0.287-8.268,2.741-8.771,7.519
		C542.683,672.71,546.422,675.438,552.229,676.8z M584.862,476.962c5.086-0.263,8.289-2.624,8.625-7.953
		c0.34-5.41-2.936-8.516-7.675-8.889c-5.448-0.429-9.116,2.782-9.229,8.551C576.48,474.003,579.933,476.379,584.862,476.962z
		 M460.236,504.482c-0.12-8.655-3.478-11.149-8.332-11.099c-5.891,0.061-8.268,4.013-7.848,9.483c0.406,5.3,3.824,7.334,8.906,7.063
		C458.521,509.635,460.182,506.114,460.236,504.482z M517.759,526.179c-4.153,1.296-7.873,3.733-7.625,8.877
		c0.264,5.498,3.474,8.708,9.4,8.275c5.602-0.41,7.306-3.953,7.193-8.981C526.604,528.775,522.939,527.013,517.759,526.179z
		 M427.766,568.575c-0.847-4.965-3.184-8.682-8.921-8.772c-5.217-0.083-7.947,2.937-8.194,7.935
		c-0.246,4.927,1.993,8.31,7.213,8.896C423.673,577.286,426.362,573.843,427.766,568.575z M460.384,600.366
		c-0.499-3.628-2.498-7.146-7.896-7.284c-5.229-0.134-8.197,2.657-8.458,7.818c-0.29,5.705,2.56,9.127,8.4,9.114
		C457.77,610.003,460.082,606.629,460.384,600.366z M584.603,643.569c4.648-0.614,8.236-2.62,8.772-7.727
		c0.586-5.601-1.97-8.973-7.804-9.359c-5.128-0.34-8.334,2.245-8.951,7.159C575.909,639.311,579.542,642.091,584.603,643.569z
		 M485.523,576.75c4.852-0.216,7.913-2.733,8.104-7.883c0.205-5.51-2.325-9.035-8.209-9.073c-5.9-0.037-8.663,3.964-8.55,8.999
		C476.972,573.406,480.075,576.643,485.523,576.75z M593.571,668.214c-0.308-6.161-3.822-8.806-9.188-8.608
		c-4.994,0.184-7.777,3.341-7.841,8.404c-0.064,5.229,3.187,8.164,7.923,8.373C589.811,676.62,593.176,673.577,593.571,668.214z
		 M460.146,665.257c-0.283-2.839-2.974-5.661-8.205-5.533c-5.244,0.129-7.913,3.097-7.928,8.227
		c-0.017,5.837,3.394,8.888,8.925,8.483C457.906,676.07,460.546,672.733,460.146,665.257z M560.16,567.296
		c-0.2-4.015-2.674-7.195-7.742-7.454c-5.641-0.286-9.161,3.16-9.162,8.4c-0.002,5.187,3.322,8.795,9.082,8.425
		C557.332,576.347,560.071,573.441,560.16,567.296z M452.835,576.732c5.054-0.273,7.382-3.548,7.412-8.509
		c0.031-5.068-2.535-8.329-7.856-8.409c-5.992-0.09-8.573,3.509-8.359,9.107C444.232,574.13,447.27,576.709,452.835,576.732z
		 M526.824,569.165c0.176-5.662-2.3-8.899-7.471-9.318c-5.879-0.476-9.142,3.037-9.164,8.521c-0.02,4.857,2.899,8.225,8.224,8.313
		C523.689,576.767,526.408,573.877,526.824,569.165z M518.605,610.149c5.07-0.379,8.003-3.072,8.184-8.251
		c0.177-5.105-2.253-8.484-7.547-8.777c-5.857-0.324-9.043,3.198-9.064,8.662C510.158,606.77,513.488,609.578,518.605,610.149z
		 M585.496,493.17c-4.892,0.641-8.614,2.636-8.895,7.954c-0.308,5.832,2.793,8.797,8.658,8.795c5.369-0.003,8.127-2.872,8.188-8.062
		C593.509,496.615,590.207,494.143,585.496,493.17z"/>
	<path fill-rule="evenodd" fill="#F6F5F5" d="M353.055,649.036c0-104.177,0-206.522,0-309.712
		c9.399,1.651,12.756,8.432,15.021,16.005c0.78,2.612,0.708,5.535,0.709,8.316c0.035,86.503,0.023,173.007,0.039,259.51
		C368.825,634.238,365.413,643.271,353.055,649.036z"/>
	<path fill-rule="evenodd" fill="#F6F5F5" d="M650.409,648.824c-11.189-5.254-15.309-13.781-15.325-24.265
		c-0.134-87.317-0.115-174.635-0.024-261.954c0.011-10.626,4.287-19.014,15.35-24.329
		C650.409,441.844,650.409,544.465,650.409,648.824z"/>
	<path fill-rule="evenodd" fill="#F6F5F5" d="M501.407,734.073c-37.842,0-75.684-0.02-113.526,0.021
		c-5.61,0.006-10.63,1.065-10.631-7.988c0-8.965,4.861-8.068,10.563-8.064c76.082,0.047,152.166,0.041,228.247,0.012
		c5.611-0.003,10.696-1.129,10.688,7.985c-0.006,9.008-4.912,8.075-10.62,8.065C577.888,734.043,539.647,734.073,501.407,734.073z"
		/>
	<path fill-rule="evenodd" fill="#0E0E0E" d="M502.645,385.535c-19.108,0.181-33.668-13.62-34.096-32.322
		c-0.436-19.067,14.393-34.46,33.358-34.627c18.169-0.16,33.312,14.862,33.567,33.3
		C535.734,370.457,521.194,385.359,502.645,385.535z M502.16,368.346c8.367-0.045,16.127-7.435,16.396-15.614
		c0.284-8.624-7.845-16.768-16.693-16.725c-8.357,0.04-15.85,7.398-16.114,15.823C485.471,360.732,493.084,368.396,502.16,368.346z"
		/>
	<path fill-rule="evenodd" fill="#0E0E0E" d="M418.372,459.765c4.83,0.467,8.572,2.938,9.068,7.815
		c0.563,5.533-2.602,9.169-8.37,9.31c-5.132,0.124-8.294-2.778-8.505-7.988C410.354,463.715,413.554,460.996,418.372,459.765z"/>
	<path fill-rule="evenodd" fill="#0E0E0E" d="M493.707,468.598c-0.289,5.175-2.977,8.167-8.188,8.307
		c-5.228,0.14-8.502-2.985-8.708-7.856c-0.232-5.497,3.355-9.128,8.835-8.985C490.467,460.188,493.621,463.292,493.707,468.598z"/>
	<path fill-rule="evenodd" fill="#0E0E0E" d="M427.714,667.612c-0.643,4.464-2.783,8.339-7.823,8.768
		c-5.557,0.474-9.176-2.531-9.26-8.355c-0.073-5.1,2.569-8.159,7.975-8.348C423.961,659.49,426.496,662.574,427.714,667.612z"/>
	<path fill-rule="evenodd" fill="#0E0E0E" d="M493.704,668.118c-0.044,4.451-2.474,7.999-7.573,8.332
		c-5.61,0.366-9.296-3.11-9.332-8.558c-0.03-4.75,2.93-8.265,8.297-8.235C490.155,659.686,493.394,662.049,493.704,668.118z"/>
	<path fill-rule="evenodd" fill="#0E0E0E" d="M593.684,566.972c-0.442,6.239-3.172,9.676-8.775,9.728
		c-5.031,0.049-7.975-2.999-8.311-7.964c-0.338-5.035,2.354-8.225,7.315-8.854C589.631,559.158,592.387,562.606,593.684,566.972z"/>
	<path fill-rule="evenodd" fill="#0E0E0E" d="M526.693,469.144c-0.152,5.476-3.422,7.913-8.461,7.734
		c-5.092-0.18-8.238-3.239-8.126-8.386c0.124-5.713,3.753-8.979,9.286-8.405C524.141,460.58,527.302,463.66,526.693,469.144z"/>
	<path fill-rule="evenodd" fill="#0E0E0E" d="M485.356,526.177c6.032,1.116,8.875,4.358,8.255,9.913
		c-0.562,5.025-3.732,7.549-8.818,7.286c-5.247-0.27-8.003-3.859-7.997-8.408C476.803,529.651,480.509,526.735,485.356,526.177z"/>
	<path fill-rule="evenodd" fill="#0E0E0E" d="M584.717,592.926c5.647,0.498,8.965,3.342,8.779,8.985
		c-0.166,5-3.253,7.989-8.24,8.071c-4.925,0.08-8.249-2.667-8.623-7.674C576.216,596.716,579.396,593.702,584.717,592.926z"/>
	<path fill-rule="evenodd" fill="#0E0E0E" d="M552.045,459.713c5.36,1.475,8.656,4.319,8.043,10.032
		c-0.568,5.272-4.117,7.302-8.967,7.096c-5.095-0.215-8.016-3.295-7.959-8.267C543.229,462.918,547.229,460.655,552.045,459.713z"/>
	<path fill-rule="evenodd" fill="#0E0E0E" d="M427.796,634.421c-0.958,5.117-3.351,8.82-8.47,8.907
		c-5.648,0.093-8.946-3.251-8.666-9.023c0.247-5.087,3.119-7.951,8.495-7.866C424.671,626.524,426.451,630.356,427.796,634.421z"/>
	<path fill-rule="evenodd" fill="#0E0E0E" d="M427.646,502.103c-1.3,4.627-3.289,8.1-8.896,7.862c-6.168-0.26-8.452-3.713-8.015-9.3
		c0.42-5.368,4.082-7.655,8.997-7.292C424.836,493.747,427.1,497.355,427.646,502.103z"/>
	<path fill-rule="evenodd" fill="#0E0E0E" d="M460.419,467.286c-0.424,7.014-3.42,9.867-8.524,9.67
		c-5.875-0.227-8.276-3.951-7.824-9.638c0.438-5.505,4.235-7.764,8.916-7.338C457.809,460.417,460.734,463.679,460.419,467.286z"/>
	<path fill-rule="evenodd" fill="#0E0E0E" d="M485.844,493.248c5.017,0.741,8.005,3.502,7.827,8.714
		c-0.176,5.117-2.813,8.047-8.28,7.976c-6.004-0.08-8.947-3.517-8.513-8.996C477.263,496.08,480.636,493.257,485.844,493.248z"/>
	<path fill-rule="evenodd" fill="#0E0E0E" d="M518.433,493.205c4.623,0.529,8.201,2.476,8.365,7.916
		c0.148,4.932-1.655,8.44-7.23,8.804c-5.828,0.38-9.231-2.535-9.42-8.111C509.977,496.789,513.264,493.98,518.433,493.205z"/>
	<path fill-rule="evenodd" fill="#0E0E0E" d="M418.611,592.983c5.887,0.273,9.089,3.638,8.843,8.925
		c-0.213,4.576-3.245,8.095-8.384,8.104c-5.745,0.009-8.557-3.464-8.387-8.98C410.836,596.057,413.565,593.142,418.611,592.983z"/>
	<path fill-rule="evenodd" fill="#0E0E0E" d="M493.722,602.062c-0.641,4.894-3.218,8.07-8.346,7.941
		c-5.629-0.143-8.857-3.858-8.502-9.087c0.355-5.21,3.849-8.391,9.639-7.815C491.938,593.638,493.495,597.299,493.722,602.062z"/>
	<path fill-rule="evenodd" fill="#0E0E0E" d="M419.811,543.474c-6.069-0.24-9.001-2.987-9.158-8.003
		c-0.17-5.502,2.723-9.042,8.382-9.06c5.012-0.014,8.21,3.369,8.428,8.046C427.708,539.773,424.473,543.04,419.811,543.474z"/>
	<path fill-rule="evenodd" fill="#0E0E0E" d="M460.31,536.069c-0.269,4.113-2.62,7.243-7.994,7.313
		c-5.296,0.07-8.126-2.731-8.302-7.933c-0.193-5.746,2.83-9.211,8.531-8.97C457.5,526.69,460.357,529.87,460.31,536.069z"/>
	<path fill-rule="evenodd" fill="#0E0E0E" d="M460.278,632.969c0.187,6.528-2.425,9.993-7.382,10.326
		c-5.549,0.372-8.937-2.86-8.879-8.665c0.05-5.084,2.571-8.091,7.984-8.199C457.434,626.321,459.786,629.343,460.278,632.969z"/>
	<path fill-rule="evenodd" fill="#0E0E0E" d="M493.667,633.618c0.141,5.875-2.485,9.28-7.511,9.65
		c-5.607,0.413-9.392-3.043-9.33-8.512c0.053-4.582,2.797-8.227,8.301-8.326C490.529,626.334,493.043,629.278,493.667,633.618z"/>
	<path fill-rule="evenodd" fill="#0E0E0E" d="M526.799,667.983c-0.199,5.515-3.335,8.459-8.228,8.453
		c-5.625-0.007-8.896-3.665-8.423-9.264c0.417-4.935,3.642-7.832,8.912-7.479C524.266,660.044,526.867,662.948,526.799,667.983z"/>
	<path fill-rule="evenodd" fill="#0E0E0E" d="M560.139,501.794c-0.066,5.285-2.622,7.992-8.029,8.157
		c-5.368,0.163-8.579-2.669-8.807-7.566c-0.256-5.496,3.149-9.133,8.812-8.992C557.045,493.516,560.16,496.405,560.139,501.794z"/>
	<path fill-rule="evenodd" fill="#0E0E0E" d="M593.61,534.653c-0.302,4.899-2.335,8.313-7.628,8.639
		c-5.559,0.344-9.191-2.229-9.376-7.934c-0.183-5.625,3.385-8.846,8.717-8.896C590.256,526.415,592.935,529.809,593.61,534.653z"/>
	<path fill-rule="evenodd" fill="#0E0E0E" d="M552.653,543.388c-5.544,0.021-9.078-2.552-9.374-7.576
		c-0.321-5.461,2.871-9.329,8.545-9.36c4.977-0.027,8.133,3.075,8.271,8.307C560.232,539.976,557.471,542.851,552.653,543.388z"/>
	<path fill-rule="evenodd" fill="#0E0E0E" d="M518.865,643.501c-5.128-0.631-8.491-3.356-8.677-8.328
		c-0.208-5.573,2.842-8.86,8.783-8.723c5.479,0.128,7.784,3.292,7.765,8.422C526.715,640.133,523.583,642.639,518.865,643.501z"/>
	<path fill-rule="evenodd" fill="#0E0E0E" d="M552.141,643.551c-4.995-0.894-9.027-3.242-8.947-8.883
		c0.066-4.849,3.035-7.929,8.152-8.167c5-0.232,8.285,1.853,8.734,7.212C560.561,639.425,557.549,642.369,552.141,643.551z"/>
	<path fill-rule="evenodd" fill="#0E0E0E" d="M553.067,610.16c-6.198-0.301-9.735-3.284-9.838-8.629
		c-0.091-4.702,2.817-8.134,7.941-8.436c4.956-0.292,8.293,1.959,8.889,7.175C560.71,605.959,557.629,608.878,553.067,610.16z"/>
	<path fill-rule="evenodd" fill="#0E0E0E" d="M552.229,676.8c-5.807-1.361-9.546-4.09-8.951-9.724
		c0.504-4.777,3.739-7.806,8.771-7.519c5.532,0.316,8.444,3.445,8.094,9.232C559.812,674.238,555.856,675.582,552.229,676.8z"/>
	<path fill-rule="evenodd" fill="#0E0E0E" d="M584.872,476.966c-4.939-0.587-8.392-2.963-8.288-8.295
		c0.112-5.769,3.78-8.979,9.229-8.551c4.739,0.373,8.015,3.479,7.675,8.889C593.151,474.338,589.948,476.699,584.872,476.966z"/>
	<path fill-rule="evenodd" fill="#0E0E0E" d="M460.236,504.482c-0.055,1.632-1.716,5.152-7.274,5.447
		c-5.082,0.271-8.5-1.764-8.906-7.063c-0.42-5.47,1.957-9.422,7.848-9.483C456.759,493.333,460.116,495.827,460.236,504.482z"/>
	<path fill-rule="evenodd" fill="#0E0E0E" d="M517.759,526.179c5.181,0.834,8.846,2.597,8.969,8.171
		c0.112,5.028-1.592,8.571-7.193,8.981c-5.927,0.433-9.137-2.777-9.4-8.275C509.886,529.912,513.605,527.475,517.759,526.179z"/>
	<path fill-rule="evenodd" fill="#0E0E0E" d="M427.766,568.575c-1.404,5.268-4.093,8.711-9.902,8.058
		c-5.22-0.586-7.458-3.969-7.213-8.896c0.248-4.998,2.978-8.018,8.194-7.935C424.582,559.894,426.919,563.61,427.766,568.575z"/>
	<path fill-rule="evenodd" fill="#0E0E0E" d="M460.384,600.366c-0.302,6.263-2.614,9.637-7.954,9.648
		c-5.84,0.013-8.689-3.409-8.4-9.114c0.26-5.161,3.229-7.952,8.458-7.818C457.886,593.22,459.885,596.738,460.384,600.366z"/>
	<path fill-rule="evenodd" fill="#0E0E0E" d="M584.603,643.569c-5.061-1.479-8.693-4.259-7.982-9.927
		c0.617-4.914,3.823-7.499,8.951-7.159c5.834,0.387,8.39,3.759,7.804,9.359C592.839,640.949,589.251,642.955,584.603,643.569z"/>
	<path fill-rule="evenodd" fill="#0E0E0E" d="M485.523,576.75c-5.448-0.107-8.551-3.344-8.656-7.957
		c-0.113-5.035,2.649-9.036,8.55-8.999c5.885,0.038,8.414,3.563,8.209,9.073C493.436,574.017,490.375,576.534,485.523,576.75z"/>
	<path fill-rule="evenodd" fill="#0E0E0E" d="M593.571,668.214c-0.396,5.363-3.761,8.406-9.105,8.169
		c-4.736-0.209-7.987-3.145-7.923-8.373c0.063-5.063,2.847-8.221,7.841-8.404C589.749,659.408,593.264,662.053,593.571,668.214z"/>
	<path fill-rule="evenodd" fill="#0E0E0E" d="M460.146,665.257c0.399,7.477-2.24,10.813-7.208,11.177
		c-5.531,0.404-8.942-2.646-8.925-8.483c0.015-5.13,2.685-8.098,7.928-8.227C457.172,659.596,459.864,662.418,460.146,665.257z"/>
	<path fill-rule="evenodd" fill="#0E0E0E" d="M560.16,567.296c-0.089,6.146-2.828,9.051-7.822,9.371
		c-5.76,0.37-9.084-3.238-9.082-8.425c0.001-5.24,3.521-8.687,9.162-8.4C557.486,560.101,559.96,563.281,560.16,567.296z"/>
	<path fill-rule="evenodd" fill="#0E0E0E" d="M452.835,576.732c-5.565-0.023-8.603-2.603-8.803-7.811
		c-0.214-5.599,2.367-9.197,8.359-9.107c5.321,0.08,7.887,3.341,7.856,8.409C460.217,573.185,457.889,576.459,452.835,576.732z"/>
	<path fill-rule="evenodd" fill="#0E0E0E" d="M526.824,569.165c-0.416,4.712-3.135,7.602-8.411,7.515
		c-5.324-0.088-8.243-3.455-8.224-8.313c0.022-5.483,3.285-8.996,9.164-8.521C524.524,560.266,527,563.503,526.824,569.165z"/>
	<path fill-rule="evenodd" fill="#0E0E0E" d="M518.605,610.149c-5.117-0.571-8.447-3.38-8.428-8.366
		c0.021-5.464,3.207-8.986,9.064-8.662c5.294,0.293,7.724,3.672,7.547,8.777C526.608,607.077,523.676,609.771,518.605,610.149z"/>
	<path fill-rule="evenodd" fill="#0E0E0E" d="M585.496,493.17c4.711,0.973,8.013,3.445,7.952,8.688
		c-0.062,5.189-2.819,8.059-8.188,8.062c-5.865,0.002-8.966-2.963-8.658-8.795C576.882,495.806,580.604,493.811,585.496,493.17z"/>
	<path fill-rule="evenodd" fill="#F6F5F5" d="M502.16,368.346c-9.076,0.049-16.689-7.614-16.412-16.516
		c0.264-8.425,7.756-15.783,16.114-15.823c8.849-0.043,16.978,8.101,16.693,16.725C518.287,360.911,510.527,368.301,502.16,368.346z
		"/>
</g>
</svg>
