<?xml version="1.0" encoding="utf-8"?>
<!-- Generator: Adobe Illustrator 16.0.3, SVG Export Plug-In . SVG Version: 6.00 Build 0)  -->
<!DOCTYPE svg PUBLIC "-//W3C//DTD SVG 1.1 Tiny//EN" "http://www.w3.org/Graphics/SVG/1.1/DTD/svg11-tiny.dtd">
<svg version="1.1" baseProfile="tiny" id="Layer_1" xmlns="http://www.w3.org/2000/svg" xmlns:xlink="http://www.w3.org/1999/xlink"
	 x="0px" y="0px"  viewBox="0 0 1000 1000" xml:space="preserve">
<g>
	<path fill-rule="evenodd" fill="#44567C" d="M458.034,2.398c29.577,0,59.152,0,88.729,0c12.184,5.105,25.393,4.538,38.098,6.644
		c271.467,44.996,456.812,302.314,412.221,572.617C962.596,790.7,804.676,953.217,596.79,993.445
		c-17.401,3.367-34.947,5.986-52.426,8.953c-28.776,0-57.554,0-86.331,0c-11.274-5.48-23.777-4.614-35.685-6.568
		C208.79,960.783,41.046,791.616,9.02,578.975c-2.099-13.939-1.487-28.344-6.622-41.805c0-23.181,0-46.363,0-69.544
		c5.318-13.837,4.553-28.665,6.762-42.995C41.017,218.037,202.05,50.888,406.932,11.574C423.94,8.31,441.569,8.549,458.034,2.398z
		 M633.589,809.977c57.912-0.945,88.781-29.117,108.735-67.854c6.751-13.106,2.783-26.201-7.165-36.375
		c-28.215-28.856-56.7-57.458-85.567-85.66c-13.285-12.979-27.692-13.979-43.764-4.537c-15.978,9.389-29.872,21.251-41.618,35.665
		c-17.418,21.373-42.156,25.152-64.955,9.439c-60.843-41.938-112.425-93.231-154.009-154.379
		c-16.095-23.666-12.18-47.921,10.011-65.652c14.559-11.633,26.054-25.875,35.375-41.835c8.598-14.716,7.421-29.786-4.374-41.894
		c-28.438-29.194-57.369-57.912-86.316-86.605c-10.366-10.276-23.839-13.236-36.395-7.065
		c-30.709,15.09-54.918,37.046-64.434,71.537c-7.596,27.534-1.061,53,9.532,78.931c72.274,176.905,195.43,303.55,371.457,378.276
		C600.563,800.654,621.043,810.446,633.589,809.977z M792.354,494.008c19.775-0.554,19.427,4.294,17.636-19.764
		c-5.955-79.998-38.215-147.795-97.603-201.839c-53.714-48.882-117.477-74.24-190.092-77.072c-3.27-0.128-8.439-2.43-9.406,2.271
		c-2.092,10.169-2.91,21.061,0.234,30.774c2.008,6.202,10.707,3.197,16.307,3.669c89.829,7.584,158.551,49.935,206.563,125.783
		c24.216,38.257,36.183,80.669,37.926,125.801c0.333,8.629,3.224,11.444,11.252,10.419
		C787.528,493.75,789.957,494.005,792.354,494.008z M708.62,494.008c6.071-2.247,18.547,6.33,17.696-11.119
		c-4.995-102.649-85.89-190.621-187.677-201.616c-31.671-3.421-25.935-7.463-26.902,23.864c-0.247,8.008,2.152,10.845,10.698,11.317
		c87.76,4.84,158.522,73.499,166.431,160.907C690.372,494.006,690.372,494.006,708.62,494.008z M608.745,494.008
		c3.587,0,5.22-0.217,6.777,0.034c11.842,1.905,14.72-2.604,13.348-14.485c-5.502-47.631-41.73-89.156-88.885-100.341
		c-27.59-6.544-28.488-5.549-28.355,22.489c0.038,8.294,2.842,10.333,10.698,11.463c36.021,5.185,63.757,30.659,69,65.256
		C593.365,491.861,597.503,497.158,608.745,494.008z"/>
	<path display="none" fill-rule="evenodd" fill="#FEFEFE" d="M544.364,1002.398c17.479-2.967,35.024-5.586,52.426-8.953
		C804.676,953.217,962.596,790.7,997.081,581.659C1041.672,311.356,856.327,54.038,584.86,9.042
		c-12.705-2.106-25.914-1.539-38.098-6.644c150.279,0,300.56,0.085,450.839-0.232c8.212-0.018,9.827,1.614,9.82,9.824
		c-0.268,326.938-0.268,653.877,0,980.815c0.007,8.21-1.607,9.842-9.82,9.824C846.522,1002.313,695.443,1002.398,544.364,1002.398z"
		/>
	<path display="none" fill-rule="evenodd" fill="#FEFEFE" d="M2.398,537.17c5.135,13.461,4.522,27.865,6.622,41.805
		C41.046,791.616,208.79,960.783,422.349,995.83c11.907,1.954,24.411,1.088,35.685,6.568c-148.488,0-296.976-0.094-445.462,0.238
		c-8.658,0.019-10.427-1.801-10.409-10.424C2.488,840.532,2.398,688.852,2.398,537.17z"/>
	<path display="none" fill-rule="evenodd" fill="#FEFEFE" d="M458.034,2.398c-16.465,6.151-34.093,5.912-51.102,9.176
		C202.05,50.888,41.017,218.037,9.16,424.631c-2.209,14.33-1.444,29.158-6.762,42.995c0-151.681,0.09-303.362-0.235-455.043
		C2.144,3.96,3.913,2.141,12.571,2.159C161.058,2.492,309.546,2.398,458.034,2.398z"/>
	<path fill-rule="evenodd" fill="#EC5462" d="M633.589,809.977c-12.546,0.47-33.025-9.322-53.485-18.008
		c-176.027-74.727-299.183-201.371-371.457-378.276c-10.593-25.93-17.128-51.397-9.532-78.931
		c9.516-34.491,33.725-56.447,64.434-71.537c12.556-6.171,26.029-3.211,36.395,7.065c28.947,28.693,57.877,57.411,86.316,86.605
		c11.795,12.107,12.972,27.177,4.374,41.894c-9.322,15.96-20.817,30.202-35.375,41.835c-22.191,17.731-26.106,41.986-10.011,65.652
		c41.583,61.147,93.166,112.441,154.009,154.379c22.798,15.713,47.537,11.934,64.955-9.439
		c11.746-14.414,25.641-26.276,41.618-35.665c16.071-9.441,30.479-8.441,43.764,4.537c28.867,28.202,57.353,56.804,85.567,85.66
		c9.948,10.174,13.916,23.269,7.165,36.375C722.37,780.859,691.501,809.031,633.589,809.977z"/>
	<path fill-rule="evenodd" fill="#EC5462" d="M792.354,494.006c-2.396-0.001-4.825-0.256-7.184,0.044
		c-8.028,1.025-10.919-1.79-11.252-10.419c-1.743-45.131-13.71-87.544-37.926-125.801
		C687.98,281.982,619.259,239.631,529.43,232.047c-5.6-0.472-14.299,2.533-16.307-3.669c-3.145-9.714-2.326-20.605-0.234-30.774
		c0.967-4.701,6.137-2.399,9.406-2.271c72.615,2.833,136.378,28.19,190.092,77.072c59.388,54.044,91.647,121.842,97.603,201.839
		C811.78,498.302,812.129,493.455,792.354,494.006z"/>
	<path fill-rule="evenodd" fill="#EC5462" d="M708.62,494.008c-18.248-0.002-18.248-0.002-19.754-16.647
		c-7.908-87.408-78.671-156.067-166.431-160.907c-8.546-0.472-10.945-3.309-10.698-11.317c0.968-31.327-4.769-27.285,26.902-23.864
		c101.787,10.995,182.682,98.966,187.677,201.616C727.167,500.338,714.691,491.761,708.62,494.008z"/>
	<path fill-rule="evenodd" fill="#EC5462" d="M608.745,494.008c-11.242,3.15-15.38-2.147-17.417-15.583
		c-5.243-34.598-32.979-60.071-69-65.256c-7.856-1.13-10.66-3.169-10.698-11.463c-0.133-28.038,0.766-29.033,28.355-22.489
		c47.154,11.185,83.383,52.709,88.885,100.341c1.372,11.88-1.506,16.39-13.348,14.485
		C613.965,493.792,612.332,494.008,608.745,494.008z"/>
</g>
</svg>
