<?xml version="1.0" encoding="utf-8"?>
<!-- Generator: Adobe Illustrator 16.0.3, SVG Export Plug-In . SVG Version: 6.00 Build 0)  -->
<!DOCTYPE svg PUBLIC "-//W3C//DTD SVG 1.1 Tiny//EN" "http://www.w3.org/Graphics/SVG/1.1/DTD/svg11-tiny.dtd">
<svg version="1.1" baseProfile="tiny" id="Layer_1" xmlns="http://www.w3.org/2000/svg" xmlns:xlink="http://www.w3.org/1999/xlink"
	 x="0px" y="0px"  viewBox="0 0 1000 1000" xml:space="preserve">
<g>
	<path display="none" fill-rule="evenodd" fill="#F5F5F5" d="M2.392,555.021c0-35.885,0-71.77,0-107.655
		c4.225-0.47,4.484-3.458,4.83-6.88c5.185-51.412,19.549-100.435,41.251-147.057c32.639-70.12,78.703-129.985,139.212-178.793
		C257.27,58.506,335.753,23.275,423.986,8.947c6.739-1.094,16.374,2.78,20.988-6.555c37.479,0,74.96,0,112.44,0
		c0.404,3.375,2.455,4.496,5.691,4.782c40.199,3.545,78.597,14.406,116.303,28.336c56.602,20.91,107.261,51.945,152.104,91.852
		c52.523,46.743,94.779,101.587,123.899,166.105c19.719,43.694,32.851,89.133,40.429,136.47c1.276,7.976-3.452,18.647,6.549,24.606
		c0,31.101,0,62.201,0,93.301c-5.07,0.636-4.763,4.449-4.78,8.078c-0.065,14.346-3.429,28.27-6.161,42.181
		c-10.637,54.151-29.377,105.36-57.247,153.129c-30.082,51.559-67.833,96.737-113.77,134.78
		c-37.146,30.762-77.772,56.188-122.441,74.793c-45.98,19.15-93.51,32.325-143.267,36.788c-3.776,0.339-8.396-1.094-9.271,4.796
		c-29.506,0-59.01,0-88.516,0c-0.481-4.213-3.418-4.901-6.891-4.767c-14.021,0.544-27.67-2.796-41.125-5.526
		c-85.172-17.28-161.867-52.377-228.436-109.144c-52.733-44.968-95.347-97.826-125.918-159.802
		C32.019,677.443,16.53,629.166,8.871,578.42C7.735,570.896,12.164,560.55,2.392,555.021z M425.159,473.333
		c-31.494,0-62.993-0.264-94.48,0.184c-7.926,0.113-9.999-2.215-9.933-10.015c0.368-42.653,0.175-85.313,0.175-127.969
		c0-37.872,0-37.872,37.724-37.872c32.061,0,33.406,1.312,33.306,33.877c-0.023,7.309,3.005,16.66-10.351,15.98
		c-2.223-0.113-4.928,3.669-6.944,6.046c-9.711,11.443-16.043,24.505-18.551,39.393c-0.554,3.289,0.343,7.485-4.344,8.893
		c-16.675,5.008-17.774,18.073-17.337,32.458c0.229,7.551,2.821,10.813,10.56,10.788c46.244-0.157,92.49-0.098,138.735-0.042
		c4.223,0.004,7.829-0.53,9.97-4.84c4.343-8.741,0.711-30.179-8.207-33.63c-11.584-4.482-12.07-13.367-14.918-22.551
		c-4.37-14.097-9.544-30.368-23.546-35.542c-10.498-3.878-9.534-8.805-9.634-15.912c-0.078-5.58,0.09-11.165-0.034-16.743
		c-0.833-37.734-26.802-63.149-64.6-63.258c-9.967-0.028-19.933-0.006-29.9-0.004c-42.29,0.013-67.26,25.122-67.292,67.753
		c-0.035,47.441-0.078,94.881,0.075,142.322c0.021,6.4-0.375,10.336-8.337,12.543c-12.821,3.557-14.897,14.78-14.857,26.833
		c0.041,12.075,2.288,22.953,15.198,26.62c7.181,2.04,8.125,5.49,8.034,11.792c-0.312,21.523-0.325,43.057-0.073,64.581
		c0.401,34.261,12.51,63.657,41.177,83.14c12.17,8.271,13.662,14.349,7.788,26.823c-6.293,13.367,0.816,28.272,13.692,33.797
		c13.848,5.941,28.145,0.491,35.027-13.566c2.614-5.34,5.402-10.735,6.948-16.422c2.272-8.355,6.929-10.574,15.46-10.523
		c64.979,0.39,129.987,1.219,194.93-0.365c21.032-0.513,35.002,2.968,39.197,25.371c0.418,2.235,1.96,4.353,3.298,6.309
		c7.879,11.533,22.594,15.051,34.826,8.423c12.377-6.706,17.919-21.138,10.866-34.862c-5.949-11.577-3.44-16.539,7.022-23.843
		c27.384-19.115,41.783-46.21,41.79-80.198c0.006-23.122-0.008-46.244,0.011-69.366c0.004-4.189-0.925-7.957,5.182-10.094
		c15.771-5.519,16.025-10.441,18.967-26.186c4.684-25.067-23.924-27.615-28.186-46.376c-1.495-6.586-9.908-10.796-17.067-11.648
		c-6.365-0.757-8.219-4.436-10.855-8.954c-18.987-32.541-64.37-32.702-83.776-0.432c-6.218,10.339-18.979,13.553-29.116,7.333
		c-21.246-13.035-48.663-2.441-53.657,21.682c-1.553,7.51-4.294,8.44-10.675,8.387C487.351,473.193,456.255,473.333,425.159,473.333
		z"/>
	<path display="none" fill-rule="evenodd" fill="#FFFFFF" d="M545.452,1002.39c0.875-5.89,5.495-4.457,9.271-4.796
		c49.757-4.463,97.286-17.638,143.267-36.788c44.669-18.604,85.295-44.031,122.441-74.793
		c45.937-38.043,83.688-83.222,113.77-134.78c27.87-47.769,46.61-98.978,57.247-153.129c2.732-13.911,6.096-27.835,6.161-42.181
		c0.018-3.629-0.29-7.442,4.78-8.078c0,148.131-0.093,296.261,0.237,444.392c0.019,8.624-1.778,10.408-10.394,10.389
		C843.307,1002.297,694.379,1002.39,545.452,1002.39z"/>
	<path display="none" fill-rule="evenodd" fill="#FFFFFF" d="M2.392,555.021c9.772,5.528,5.344,15.874,6.479,23.398
		c7.659,50.746,23.147,99.023,45.695,144.731c30.571,61.976,73.185,114.834,125.918,159.802
		c66.569,56.767,143.264,91.863,228.436,109.144c13.455,2.73,27.104,6.07,41.125,5.526c3.473-0.135,6.41,0.554,6.891,4.767
		c-148.129,0-296.258-0.093-444.385,0.235c-8.607,0.02-10.417-1.753-10.398-10.386C2.486,846.501,2.392,700.761,2.392,555.021z"/>
	<path display="none" fill-rule="evenodd" fill="#FFFFFF" d="M1002.39,454.543c-10.001-5.959-5.272-16.63-6.549-24.606
		c-7.578-47.336-20.71-92.776-40.429-136.47c-29.12-64.519-71.376-119.362-123.899-166.105
		C786.669,87.455,736.01,56.42,679.408,35.51c-37.706-13.93-76.104-24.791-116.303-28.336c-3.236-0.286-5.287-1.408-5.691-4.782
		c145.135,0,290.271,0.087,435.406-0.231c8.193-0.019,9.819,1.607,9.801,9.801C1002.303,159.488,1002.39,307.016,1002.39,454.543z"
		/>
	<path display="none" fill-rule="evenodd" fill="#FFFFFF" d="M444.974,2.392c-4.614,9.335-14.249,5.461-20.988,6.555
		c-88.233,14.329-166.716,49.56-236.301,105.689C127.176,163.444,81.112,223.31,48.473,293.43
		c-21.703,46.622-36.066,95.645-41.251,147.057c-0.346,3.422-0.605,6.411-4.83,6.88c0-144.94,0.094-289.88-0.236-434.819
		C2.136,3.932,3.92,2.134,12.543,2.154C156.687,2.487,300.831,2.392,444.974,2.392z"/>
	<path fill-rule="evenodd" fill="#0B0B0B" d="M425.159,473.333c31.096,0,62.191-0.14,93.285,0.114
		c6.381,0.053,9.122-0.877,10.675-8.387c4.994-24.123,32.411-34.717,53.657-21.682c10.138,6.219,22.898,3.006,29.116-7.333
		c19.406-32.27,64.789-32.108,83.776,0.432c2.637,4.519,4.49,8.197,10.855,8.954c7.159,0.853,15.572,5.063,17.067,11.648
		c4.262,18.761,32.869,21.309,28.186,46.376c-2.941,15.744-3.195,20.667-18.967,26.186c-6.106,2.137-5.178,5.904-5.182,10.094
		c-0.019,23.122-0.005,46.244-0.011,69.366c-0.007,33.988-14.406,61.083-41.79,80.198c-10.463,7.304-12.972,12.266-7.022,23.843
		c7.053,13.725,1.511,28.156-10.866,34.862c-12.232,6.628-26.947,3.11-34.826-8.423c-1.338-1.956-2.88-4.073-3.298-6.309
		c-4.195-22.403-18.165-25.884-39.197-25.371c-64.942,1.584-129.95,0.755-194.93,0.365c-8.531-0.051-13.188,2.168-15.46,10.523
		c-1.546,5.687-4.334,11.082-6.948,16.422c-6.882,14.058-21.179,19.508-35.027,13.566c-12.875-5.524-19.985-20.43-13.692-33.797
		c5.874-12.475,4.382-18.552-7.788-26.823c-28.667-19.482-40.776-48.879-41.177-83.14c-0.252-21.524-0.239-43.058,0.073-64.581
		c0.091-6.302-0.853-9.752-8.034-11.792c-12.91-3.667-15.157-14.545-15.198-26.62c-0.04-12.052,2.036-23.275,14.857-26.833
		c7.962-2.208,8.358-6.143,8.337-12.543c-0.153-47.44-0.11-94.88-0.075-142.322c0.033-42.631,25.003-67.74,67.292-67.753
		c9.967-0.002,19.933-0.024,29.9,0.004c37.798,0.108,63.767,25.523,64.6,63.258c0.124,5.578-0.044,11.163,0.034,16.743
		c0.1,7.107-0.864,12.033,9.634,15.912c14.001,5.173,19.176,21.444,23.546,35.542c2.848,9.184,3.334,18.069,14.918,22.551
		c8.918,3.452,12.55,24.889,8.207,33.63c-2.141,4.31-5.747,4.844-9.97,4.84c-46.245-0.056-92.491-0.115-138.735,0.042
		c-7.739,0.026-10.331-3.237-10.56-10.788c-0.437-14.385,0.662-27.45,17.337-32.458c4.688-1.408,3.791-5.604,4.344-8.893
		c2.508-14.888,8.84-27.95,18.551-39.393c2.016-2.377,4.721-6.159,6.944-6.046c13.355,0.68,10.328-8.671,10.351-15.98
		c0.101-32.565-1.245-33.877-33.306-33.877c-37.724,0-37.724,0-37.724,37.872c0,42.657,0.193,85.316-0.175,127.969
		c-0.066,7.8,2.007,10.128,9.933,10.015C362.167,473.069,393.665,473.333,425.159,473.333z M503.055,530.669
		c-67.745,0-135.489,0.103-203.233-0.147c-7.406-0.028-10.445,1.294-10.214,9.651c0.625,22.696-0.038,45.425,0.268,68.136
		c0.621,46.061,36.644,83.618,82.612,85.612c20.286,0.88,40.638,0.308,60.96,0.274c66.941-0.109,133.899,0.623,200.815-0.751
		c40.8-0.839,75.023-35.446,78.895-76.062c2.386-25.045,0.186-50.179,1.352-75.226c0.444-9.557-2.572-11.756-11.809-11.701
		C636.153,530.852,569.604,530.669,503.055,530.669z M501.134,487.606c-73.319,0-146.64,0.16-219.958-0.174
		c-10.964-0.05-14.738,3.955-14.841,14.678c-0.117,12.178,5.985,14.428,16.468,14.414c146.24-0.191,292.48-0.129,438.72-0.131
		c1.594,0,3.188,0.017,4.782-0.01c7.292-0.119,10.577-3.827,11.035-11.122c0.924-14.737-1.489-17.64-16.25-17.645
		C647.771,487.592,574.452,487.606,501.134,487.606z M289.823,388.771c0,25.489,0.168,50.98-0.122,76.465
		c-0.07,6.109,1.632,7.865,7.949,8.389c9.374,0.777,9.088-4.236,9.07-10.754c-0.133-48.19-0.198-96.38-0.016-144.569
		c0.086-22.918,11.884-34.474,34.544-34.604c10.355-0.06,20.711-0.077,31.065,0.003c21.416,0.166,33.172,11.498,33.907,32.86
		c0.273,7.956,0.306,15.94-0.034,23.891c-0.249,5.854,2.967,6.631,7.455,6.058c3.805-0.485,9.575,2.248,9.423-5.274
		c-0.232-11.526,0.731-23.253-1.076-34.532c-3.914-24.422-22.763-39.736-47.484-40.122c-11.148-0.174-22.302-0.066-33.453-0.023
		c-31.32,0.121-51.12,20.082-51.217,51.722C289.764,341.775,289.821,365.272,289.823,388.771z M628.721,473.333
		c25.482,0,50.967,0.082,76.448-0.104c3.206-0.023,8.276,2.191,9.367-1.826c1.237-4.55-3.033-7.875-6.845-10.109
		c-2.326-1.365-5.332-2.874-7.769-2.517c-9.197,1.348-11.889-3.822-15.059-11.288c-10.573-24.9-42.656-29.277-58.017-7.563
		c-7.035,9.947-9.8,23.479-26.523,19.648c-0.89-0.203-2.36,0.722-3.114,1.536c-7.689,8.315-12.647,4.728-19.057-2.583
		c-9.48-10.813-26.502-7.837-33.274,4.6c-3.859,7.087-3.336,10.525,6.201,10.359C576.953,473.036,602.84,473.332,628.721,473.333z
		 M414.482,401.561c12.742,0,25.485,0.086,38.225-0.076c2.365-0.03,5.539,1.501,6.548-2.905c3.146-13.722-15.38-37.757-29.35-37.766
		c-11.946-0.008-23.9,0.251-35.835-0.114c-5.411-0.167-8.837,1.65-11.741,6.166c-5.198,8.081-9.433,16.437-11.766,25.85
		c-1.604,6.477-0.802,9.37,6.893,9.004C389.774,401.134,402.138,401.562,414.482,401.561z M413.841,430.575
		c19.508,0,39.017,0.116,58.521-0.126c2.859-0.036,7.828,2.55,8.078-3.639c0.21-5.22-1.429-9.552-7.233-10.687
		c-2.312-0.451-4.758-0.276-7.144-0.277c-34.238-0.014-68.475-0.011-102.711-0.007c-1.991,0-3.981,0.017-5.97,0.07
		c-6.846,0.185-8.663,4.493-8.501,10.409c0.195,7.119,5.708,4.063,8.83,4.112C376.417,430.723,395.13,430.575,413.841,430.575z
		 M368.598,709.392c-24.965-6.794-26.656-6.268-30.974,10.2c-1.755,6.691-0.991,12.96,6.102,16.1
		c7.506,3.322,13.226,0.063,16.641-6.746C363.522,722.651,365.874,715.955,368.598,709.392z M635.08,708.953
		c3.302,7.632,6.087,15.013,9.646,21.998c2.929,5.747,8.643,7.339,14.271,5.239c6.023-2.247,9.325-7.125,8.104-14.109
		c-2.689-15.397-7.068-18.426-22.176-15.247C641.863,707.479,638.807,708.15,635.08,708.953z"/>
	<path fill-rule="evenodd" fill="#F5F5F5" d="M503.055,530.669c66.549,0,133.099,0.183,199.646-0.213
		c9.236-0.055,12.253,2.145,11.809,11.701c-1.166,25.047,1.034,50.181-1.352,75.226c-3.871,40.615-38.095,75.223-78.895,76.062
		c-66.916,1.374-133.875,0.642-200.815,0.751c-20.322,0.033-40.675,0.605-60.96-0.274c-45.968-1.994-81.991-39.552-82.612-85.612
		c-0.306-22.711,0.357-45.439-0.268-68.136c-0.231-8.357,2.809-9.68,10.214-9.651C367.565,530.771,435.31,530.669,503.055,530.669z"
		/>
	<path fill-rule="evenodd" fill="#F5F5F5" d="M501.134,487.606c73.318,0,146.638-0.014,219.957,0.011
		c14.761,0.004,17.174,2.907,16.25,17.645c-0.458,7.295-3.743,11.003-11.035,11.122c-1.594,0.026-3.188,0.01-4.782,0.01
		c-146.24,0.002-292.48-0.061-438.72,0.131c-10.483,0.014-16.585-2.236-16.468-14.414c0.103-10.723,3.877-14.728,14.841-14.678
		C354.494,487.767,427.814,487.606,501.134,487.606z"/>
	<path fill-rule="evenodd" fill="#F5F5F5" d="M289.823,388.771c-0.001-23.498-0.059-46.995,0.014-70.492
		c0.097-31.64,19.897-51.601,51.217-51.722c11.151-0.043,22.305-0.15,33.453,0.023c24.721,0.386,43.57,15.7,47.484,40.122
		c1.807,11.279,0.843,23.006,1.076,34.532c0.152,7.522-5.619,4.79-9.423,5.274c-4.488,0.573-7.704-0.205-7.455-6.058
		c0.34-7.95,0.307-15.935,0.034-23.891c-0.735-21.362-12.492-32.694-33.907-32.86c-10.354-0.081-20.71-0.063-31.065-0.003
		c-22.66,0.13-34.458,11.686-34.544,34.604c-0.182,48.189-0.117,96.379,0.016,144.569c0.018,6.518,0.304,11.531-9.07,10.754
		c-6.317-0.523-8.02-2.279-7.949-8.389C289.991,439.75,289.823,414.259,289.823,388.771z"/>
	<path fill-rule="evenodd" fill="#F5F5F5" d="M628.721,473.333c-25.881-0.001-51.768-0.297-77.641,0.154
		c-9.537,0.166-10.061-3.272-6.201-10.359c6.772-12.437,23.794-15.412,33.274-4.6c6.409,7.311,11.367,10.898,19.057,2.583
		c0.754-0.814,2.225-1.739,3.114-1.536c16.724,3.831,19.488-9.701,26.523-19.648c15.36-21.714,47.443-17.337,58.017,7.563
		c3.17,7.466,5.861,12.636,15.059,11.288c2.437-0.357,5.442,1.152,7.769,2.517c3.812,2.234,8.082,5.559,6.845,10.109
		c-1.091,4.017-6.161,1.802-9.367,1.826C679.688,473.415,654.203,473.333,628.721,473.333z"/>
	<path fill-rule="evenodd" fill="#F5F5F5" d="M414.482,401.562c-12.345,0-24.708-0.427-37.025,0.157
		c-7.695,0.366-8.497-2.527-6.893-9.004c2.333-9.413,6.567-17.769,11.766-25.85c2.904-4.515,6.33-6.333,11.741-6.166
		c11.935,0.366,23.889,0.106,35.835,0.114c13.97,0.009,32.496,24.044,29.35,37.766c-1.009,4.406-4.183,2.875-6.548,2.905
		C439.968,401.647,427.225,401.561,414.482,401.562z"/>
	<path fill-rule="evenodd" fill="#F5F5F5" d="M413.841,430.575c-18.711,0-37.424,0.148-56.13-0.145
		c-3.122-0.049-8.635,3.007-8.83-4.112c-0.162-5.917,1.655-10.225,8.501-10.409c1.989-0.054,3.979-0.07,5.97-0.07
		c34.237-0.003,68.474-0.007,102.711,0.007c2.386,0.001,4.832-0.174,7.144,0.277c5.804,1.135,7.443,5.467,7.233,10.687
		c-0.25,6.189-5.218,3.603-8.078,3.639C452.858,430.69,433.349,430.575,413.841,430.575z"/>
	<path fill-rule="evenodd" fill="#F5F5F5" d="M368.598,709.392c-2.724,6.563-5.076,13.26-8.231,19.554
		c-3.416,6.81-9.135,10.068-16.641,6.746c-7.093-3.14-7.857-9.408-6.102-16.1C341.942,703.124,343.633,702.598,368.598,709.392z"/>
	<path fill-rule="evenodd" fill="#F5F5F5" d="M635.08,708.953c3.727-0.803,6.783-1.475,9.846-2.119
		c15.107-3.179,19.486-0.15,22.176,15.247c1.221,6.984-2.081,11.862-8.104,14.109c-5.628,2.1-11.342,0.508-14.271-5.239
		C641.167,723.966,638.382,716.585,635.08,708.953z"/>
</g>
</svg>
