<?xml version="1.0" encoding="utf-8"?>
<!-- Generator: Adobe Illustrator 16.0.3, SVG Export Plug-In . SVG Version: 6.00 Build 0)  -->
<!DOCTYPE svg PUBLIC "-//W3C//DTD SVG 1.1 Tiny//EN" "http://www.w3.org/Graphics/SVG/1.1/DTD/svg11-tiny.dtd">
<svg version="1.1" baseProfile="tiny" id="Layer_1" xmlns="http://www.w3.org/2000/svg" xmlns:xlink="http://www.w3.org/1999/xlink"
	 x="0px" y="0px"  viewBox="0 0 1000 1000" xml:space="preserve">
<g>
	<path display="none" fill-rule="evenodd" fill="#FEFEFE" d="M1002.389,502.389c0,163.478-0.078,326.953,0.231,490.431
		c0.015,8.191-1.61,9.803-9.801,9.796c-326.953-0.267-653.908-0.267-980.861,0c-8.19,0.007-9.803-1.605-9.797-9.796
		C2.429,665.866,2.429,338.913,2.162,11.958c-0.007-8.19,1.604-9.803,9.796-9.797c326.953,0.268,653.906,0.268,980.86,0.001
		c8.189-0.007,9.816,1.602,9.802,9.796C1002.311,175.434,1002.389,338.912,1002.389,502.389z M502.646,934.285
		c39.468,0,78.938-0.284,118.401,0.106c23.749,0.234,45.41-5.755,65.863-17.725c40.482-23.693,81.256-46.89,121.882-70.337
		c48.545-28.016,97.155-55.919,145.564-84.169c37.808-22.063,46.334-69.064,18.729-101.207
		c-20.294-23.632-54.204-29.616-82.464-13.557c-50.113,28.479-99.962,57.43-149.773,86.435c-6.045,3.52-9.687,4.258-14.636-2.13
		c-8.833-11.398-21.648-17.047-35.39-20.723c-77.544-20.744-155.095-41.47-232.593-62.385c-23.191-6.259-46.183-7.097-69.51-0.608
		c-19.142,5.325-38.507,9.86-57.805,14.615c-21.681,5.345-21.696,5.281-21.871-16.9c-0.135-17.235-4.64-21.711-22.159-21.727
		c-39.467-0.037-78.935-0.034-118.402-0.003c-18.47,0.016-23.137,4.118-22.784,22.116c0.164,8.283-2.105,10.844-10.567,10.722
		c-32.683-0.475-65.378-0.221-98.067-0.182c-17.14,0.021-22.339,5.038-22.348,21.721c-0.036,72.557-0.039,145.111,0.002,217.668
		c0.009,16.692,5.544,22.239,22.164,22.271c33.089,0.063,66.18,0.2,99.265-0.128c7-0.069,9.637,1.329,9.57,9.085
		c-0.165,19.561,4.378,23.699,23.944,23.762c30.696,0.097,61.394,0.031,92.09,0.021c9.568-0.002,19.156,0.345,28.697-0.162
		c13.331-0.709,18.274-6.25,18.591-19.638c0.019-0.796-0.002-1.594,0.004-2.392c0.117-16.714,0.256-16.977,15.566-8.889
		c19.093,10.087,39.253,14.618,60.83,14.433C424.508,934.044,463.579,934.285,502.646,934.285z M683.011,624.422
		c15.546,0,31.092,0.078,46.637-0.022c14.256-0.094,19.449-5.188,19.558-19.306c0.129-16.741-0.009-33.482,0.063-50.223
		c0.015-3.42-1.133-7.509,3.444-9.197c4.466-1.646,6.38,2.129,8.809,4.533c11.327,11.218,22.501,22.592,33.904,33.731
		c11.223,10.961,19.653,10.952,30.666,0.013c20.927-20.788,41.78-41.648,62.598-62.544c11.135-11.177,11.076-19.03-0.234-30.491
		c-11.198-11.349-22.611-22.485-33.761-33.882c-2.284-2.335-6.483-4.022-4.641-8.69c1.806-4.567,5.826-3.301,9.217-3.315
		c16.741-0.073,33.483,0.061,50.225-0.063c13.648-0.101,19.056-5.222,19.118-18.524c0.147-31.09,0.129-62.182,0.011-93.272
		c-0.052-13.899-5.53-19.262-19.655-19.39c-16.739-0.151-33.482-0.005-50.223-0.064c-3.051-0.01-6.54,0.958-8.452-2.738
		c-2.401-4.639,1.771-6.398,4.059-8.723c11.46-11.65,23.137-23.084,34.604-34.727c10.639-10.8,10.682-18.92,0.048-29.628
		c-21.065-21.212-42.212-42.344-63.415-63.418c-10.531-10.469-18.902-10.48-29.754,0.067c-11.429,11.11-22.568,22.517-33.93,33.699
		c-2.652,2.612-4.687,7.029-9.756,4.671c-4.419-2.055-2.816-6.168-2.846-9.477c-0.149-16.74,0.055-33.483-0.108-50.223
		c-0.13-13.178-5.655-18.774-18.981-18.848c-30.691-0.167-61.385-0.16-92.077-0.003c-13.698,0.069-19.555,5.942-19.742,19.716
		c-0.23,16.738,0.002,33.482-0.111,50.223c-0.021,2.977,1.219,6.606-2.482,8.511c-4.313,2.222-6.498-1.152-8.993-3.644
		c-11.281-11.266-22.513-22.58-33.874-33.764c-11.674-11.491-20.027-11.521-31.619-0.011c-20.646,20.503-41.219,41.08-61.742,61.707
		c-11.62,11.678-11.512,19.368,0.415,31.438c11.203,11.335,22.633,22.444,33.78,33.834c2.004,2.047,5.658,3.53,4.235,7.724
		c-1.628,4.797-5.605,3.595-8.996,3.609c-16.742,0.07-33.485-0.101-50.225,0.074c-13.735,0.144-19.713,5.919-19.805,19.653
		c-0.204,30.69-0.212,61.385,0.004,92.076c0.097,13.896,5.899,19.36,19.827,19.454c16.741,0.115,33.482-0.01,50.224,0.06
		c3.382,0.014,7.295-1.179,8.979,3.607c1.495,4.25-2.167,5.698-4.149,7.726c-11.42,11.679-23.167,23.036-34.602,34.701
		c-11.159,11.386-11.07,19.245,0.227,30.598c20.805,20.91,41.671,41.757,62.59,62.552c10.885,10.82,19.355,10.681,30.57-0.397
		c11.342-11.202,22.563-22.524,33.883-33.748c2.422-2.4,4.377-6.27,8.801-4.287c4.336,1.942,2.924,6.115,2.95,9.47
		c0.126,16.739-0.159,33.486,0.131,50.222c0.228,13.17,6.06,18.779,19.157,18.915C652.715,624.542,667.863,624.422,683.011,624.422z
		 M293.039,339.58c1.317-0.682,2.632-1.366,3.949-2.048c4.351,5.088,8.38,10.503,13.122,15.196
		c9.74,9.643,18.323,9.703,27.844,0.336c14.209-13.98,28.301-28.082,42.285-42.289c9.653-9.809,9.582-17.729-0.152-27.804
		c-5.11-5.291-10.595-10.219-18.093-17.403c11.191,0,19.029,0.163,26.859-0.038c11.774-0.299,17.843-5.742,18.073-17.487
		c0.415-21.122,0.397-42.262,0.038-63.385c-0.197-11.641-6.133-17.083-18.05-17.539c-7.767-0.296-15.555-0.056-27.287-0.056
		c7.747-7.302,12.997-11.977,17.935-16.961c10.264-10.362,10.524-18.435,0.486-28.75c-13.623-14-27.455-27.803-41.427-41.455
		c-10.046-9.816-18.343-9.324-28.922,0.543c-4.963,4.629-8.657,10.947-16.579,13.96c0-8.266,0.279-15.419-0.061-22.544
		c-0.637-13.357-6.176-18.753-19.335-18.842c-20.333-0.138-40.667-0.184-60.999,0.019c-12.299,0.122-18.159,6.046-18.55,18.373
		c-0.244,7.699-0.045,15.412-0.045,26.166c-6.955-7.229-11.474-12.15-16.232-16.827c-10.654-10.47-19.294-10.573-29.698-0.271
		c-13.597,13.465-27.121,27.005-40.563,40.625c-10.554,10.694-10.285,18.465,0.294,29.678c4.639,4.917,10.665,8.804,14.276,16.261
		c-9.129,0-16.667-0.265-24.178,0.061c-11.767,0.512-17.623,6.047-17.844,17.891c-0.389,20.725-0.347,41.467-0.026,62.193
		c0.192,12.45,6.191,18.079,18.51,18.354c7.768,0.174,15.543,0.033,23.228,0.033c0,1.767,0.146,2.244-0.022,2.417
		c-4.976,5.155-10.033,10.232-14.977,15.417c-9.046,9.488-9.507,17.995-0.669,27.105c14.156,14.591,28.563,28.945,43.153,43.103
		c9.138,8.869,17.652,8.426,27.122-0.352c5.541-5.135,10.042-11.539,17.626-15.848c0,8.85-0.222,16.428,0.05,23.989
		c0.439,12.225,6.376,18.366,18.623,18.544c20.329,0.295,40.667,0.245,60.999,0.02c12.352-0.137,18.317-5.771,19.146-18.035
		C293.448,354.512,293.039,347.032,293.039,339.58z"/>
	<path fill-rule="evenodd" fill="#0D0D0D" d="M502.646,934.285c-39.068,0-78.139-0.241-117.205,0.095
		c-21.577,0.186-41.736-4.346-60.83-14.433c-15.311-8.088-15.45-7.825-15.566,8.889c-0.006,0.798,0.015,1.596-0.004,2.392
		c-0.316,13.388-5.26,18.929-18.591,19.638c-9.541,0.507-19.129,0.16-28.697,0.162c-30.696,0.01-61.394,0.075-92.09-0.021
		c-19.566-0.063-24.109-4.201-23.944-23.762c0.066-7.756-2.57-9.154-9.57-9.085c-33.085,0.328-66.176,0.19-99.265,0.128
		c-16.62-0.031-22.155-5.578-22.164-22.271c-0.041-72.557-0.039-145.111-0.002-217.668c0.008-16.683,5.208-21.7,22.348-21.721
		c32.689-0.039,65.384-0.293,98.067,0.182c8.462,0.122,10.73-2.438,10.567-10.722c-0.354-17.998,4.314-22.101,22.784-22.116
		c39.468-0.031,78.936-0.034,118.402,0.003c17.52,0.016,22.024,4.491,22.159,21.727c0.175,22.182,0.19,22.245,21.871,16.9
		c19.298-4.755,38.663-9.29,57.805-14.615c23.328-6.488,46.319-5.65,69.51,0.608c77.499,20.915,155.049,41.641,232.593,62.385
		c13.741,3.676,26.557,9.324,35.39,20.723c4.949,6.388,8.591,5.649,14.636,2.13c49.812-29.005,99.66-57.956,149.773-86.435
		c28.26-16.06,62.17-10.075,82.464,13.557c27.604,32.143,19.078,79.144-18.729,101.207c-48.409,28.25-97.02,56.153-145.564,84.169
		c-40.626,23.447-81.399,46.644-121.882,70.337c-20.453,11.97-42.114,17.959-65.863,17.725
		C581.585,934.001,542.114,934.285,502.646,934.285z M502.501,901.483c39.454,0,78.908,0.016,118.362-0.008
		c15.349-0.01,30.005-2.916,43.458-10.677c91.214-52.629,182.476-105.175,273.598-157.963c17.078-9.894,22.491-28.341,13.888-43.833
		c-9.031-16.269-28.071-21.812-45.34-11.966C854,706.95,801.826,737.382,749.457,767.468c-3.814,2.19-5.579,4.438-5.95,9.104
		c-3.819,48.121-39.933,73.776-86.382,61.487c-35.721-9.449-71.379-19.135-107.069-28.703
		c-27.625-7.406-55.313-14.594-82.856-22.289c-10.185-2.846-15.522-12.407-11.958-21.22c3.697-9.142,10.625-13.597,20.923-10.646
		c2.675,0.767,5.404,1.342,8.093,2.063c60.246,16.168,120.478,32.383,180.746,48.462c6.472,1.727,12.94,3.728,19.942,2.019
		c15.031-3.669,25.382-15.544,25.923-30.31c0.602-16.431-8.899-28.586-26.613-33.351c-80.179-21.571-160.383-43.046-240.587-64.521
		c-12.495-3.346-25.175-4.169-37.797-1.083c-29.726,7.27-59.338,15-89.11,22.062c-5.728,1.358-7.87,3.328-7.846,9.355
		c0.209,52.605,0.105,105.211,0.164,157.816c0.003,2.964-1.081,6.338,2.883,8.236c23.507,11.262,45.502,26.134,73.375,25.69
		C424.383,901.019,463.445,901.483,502.501,901.483z M275.466,787.719c0-40.271-0.145-80.543,0.142-120.813
		c0.048-6.81-0.904-9.754-8.867-9.581c-26.303,0.569-52.628,0.396-78.94,0.083c-6.361-0.074-8.917,1.107-8.893,8.297
		c0.26,80.938,0.283,161.88-0.024,242.819c-0.029,7.75,2.535,9.113,9.511,9.008c25.512-0.383,51.05-0.679,76.543,0.119
		c9.665,0.303,10.79-3.255,10.707-11.515C275.249,866.667,275.468,827.191,275.466,787.719z M145.503,788.313
		c0-29.876-0.228-59.757,0.163-89.629c0.096-7.279-1.81-9.571-9.304-9.443c-26.283,0.455-52.583,0.438-78.869,0.009
		c-7.358-0.121-9.424,1.947-9.387,9.353c0.297,58.955,0.288,117.913,0.007,176.869c-0.034,7.271,1.805,9.57,9.299,9.442
		c26.283-0.455,52.583-0.438,78.869-0.009c7.358,0.12,9.5-1.938,9.393-9.354C145.255,846.478,145.503,817.393,145.503,788.313z"/>
	<path fill-rule="evenodd" fill="#0D0D0D" d="M683.011,624.422c-15.147,0-30.296,0.12-45.44-0.036
		c-13.098-0.136-18.93-5.745-19.157-18.915c-0.29-16.735-0.005-33.482-0.131-50.222c-0.026-3.354,1.386-7.527-2.95-9.47
		c-4.424-1.982-6.379,1.887-8.801,4.287c-11.32,11.224-22.541,22.546-33.883,33.748c-11.215,11.078-19.686,11.218-30.57,0.397
		c-20.919-20.795-41.785-41.642-62.59-62.552c-11.297-11.353-11.386-19.212-0.227-30.598c11.434-11.665,23.182-23.021,34.602-34.701
		c1.982-2.028,5.645-3.477,4.149-7.726c-1.685-4.786-5.598-3.593-8.979-3.607c-16.742-0.07-33.483,0.055-50.224-0.06
		c-13.928-0.094-19.73-5.558-19.827-19.454c-0.216-30.69-0.208-61.385-0.004-92.076c0.091-13.734,6.07-19.509,19.805-19.653
		c16.739-0.174,33.482-0.003,50.225-0.074c3.391-0.014,7.368,1.188,8.996-3.609c1.423-4.194-2.231-5.676-4.235-7.724
		c-11.147-11.39-22.578-22.499-33.78-33.834c-11.926-12.07-12.034-19.76-0.415-31.438c20.523-20.627,41.096-41.204,61.742-61.707
		c11.592-11.511,19.945-11.48,31.619,0.011c11.361,11.184,22.593,22.498,33.874,33.764c2.495,2.492,4.68,5.865,8.993,3.644
		c3.701-1.905,2.461-5.535,2.482-8.511c0.113-16.741-0.119-33.485,0.111-50.223c0.188-13.774,6.044-19.647,19.742-19.716
		c30.692-0.157,61.386-0.164,92.077,0.003c13.326,0.074,18.852,5.67,18.981,18.848c0.163,16.74-0.041,33.483,0.108,50.223
		c0.029,3.309-1.573,7.422,2.846,9.477c5.069,2.357,7.104-2.06,9.756-4.671c11.361-11.182,22.501-22.588,33.93-33.699
		c10.852-10.548,19.223-10.536,29.754-0.067c21.203,21.074,42.35,42.206,63.415,63.418c10.634,10.708,10.591,18.828-0.048,29.628
		c-11.468,11.642-23.145,23.077-34.604,34.727c-2.287,2.325-6.46,4.084-4.059,8.723c1.912,3.696,5.401,2.728,8.452,2.738
		c16.74,0.06,33.483-0.086,50.223,0.064c14.125,0.127,19.604,5.49,19.655,19.39c0.118,31.09,0.137,62.183-0.011,93.272
		c-0.063,13.303-5.47,18.424-19.118,18.524c-16.741,0.124-33.483-0.01-50.225,0.063c-3.391,0.014-7.411-1.252-9.217,3.315
		c-1.843,4.668,2.356,6.355,4.641,8.69c11.149,11.396,22.563,22.533,33.761,33.882c11.311,11.46,11.369,19.314,0.234,30.491
		c-20.817,20.896-41.671,41.756-62.598,62.544c-11.013,10.939-19.443,10.948-30.666-0.013
		c-11.403-11.14-22.577-22.514-33.904-33.731c-2.429-2.404-4.343-6.18-8.809-4.533c-4.577,1.688-3.43,5.777-3.444,9.197
		c-0.072,16.74,0.065,33.481-0.063,50.223c-0.108,14.117-5.302,19.212-19.558,19.306C714.103,624.5,698.557,624.422,683.011,624.422
		z M686.574,167.478c-10.219,0-18.624,0.477-26.946-0.15c-6.716-0.506-7.939,2.301-7.758,8.17
		c0.358,11.547-0.039,23.115,0.134,34.67c0.384,25.539-2.311,26.909-22.959,33.801c-3.366,1.124-6.556,2.848-9.712,4.51
		c-9.273,4.886-17.27,3.875-24.729-3.969c-10.156-10.683-21.185-20.551-31.089-31.452c-5.264-5.793-8.17-4.859-12.989,0.322
		c-10.309,11.082-21.033,21.814-32.115,32.122c-5.345,4.972-6.434,8.019-0.342,13.5c10.947,9.85,20.976,20.718,31.427,31.119
		c7.074,7.041,6.447,14.352,4.137,23.875c-6.8,28.031-23.519,37.552-51.185,33.263c-9.499-1.472-22.912-4.694-28.568,1.753
		c-4.792,5.462-1.576,18.284-1.236,27.824c0.405,11.384-5.075,26.543,2.224,33.043c6.322,5.631,21.331,2.959,32.238,1.694
		c22.71-2.632,39.176,2.728,43.526,27.956c0.258,1.501,1.267,2.908,2.068,4.273c6.019,10.235,3.661,18.69-4.739,26.599
		c-10.439,9.828-20.088,20.502-30.647,30.19c-5.208,4.776-4.482,7.496,0.232,11.951c11.582,10.943,22.856,22.234,33.816,33.802
		c4.226,4.461,6.92,5.1,11.299,0.252c6.936-7.68,14.618-14.679,21.855-22.092c21.886-22.414,20.744-20.908,45.577-9.041
		c2.142,1.021,4.364,2.003,6.657,2.559c11.162,2.705,15.311,10.287,15.243,21.113c-0.09,14.745,0.271,29.5-0.154,44.235
		c-0.181,6.28,1.759,8.19,8.03,8.03c15.931-0.408,31.9-0.615,47.813,0.066c7.974,0.343,9.086-2.837,8.891-9.636
		c-0.436-15.132-0.06-30.286-0.165-45.43c-0.053-7.472,2.461-14.043,9.606-16.35c38.939-12.565,28.923-25.771,63.835,10.431
		c0.275,0.287,0.558,0.57,0.845,0.846c6.584,6.316,12.81,17.208,19.846,17.759c8.344,0.653,13.911-11.437,20.746-17.907
		c8.367-7.921,22.916-16.958,22.381-24.648c-0.632-9.065-13.752-18.198-22.879-25.535c-17.196-13.821-24.48-28.684-10.303-48.732
		c1.323-1.87,1.747-4.413,2.432-6.691c2.915-9.715,9.281-14.063,19.525-13.825c15.137,0.354,30.295-0.173,45.429,0.22
		c6.136,0.159,8.305-1.503,8.134-7.928c-0.433-16.329-0.531-32.69,0.034-49.011c0.252-7.274-2.621-8.41-8.914-8.25
		c-15.136,0.386-30.287,0.061-45.431,0.139c-23.392,0.119-18.479-22.538-27.117-34.192c-5.148-6.946-3.331-15.251,3.367-21.618
		c1.444-1.373,2.811-2.826,4.221-4.232c9.592-9.567,19.036-19.288,28.849-28.623c4.163-3.96,4.967-6.579,0.257-11.011
		c-11.892-11.191-23.452-22.76-34.672-34.625c-4.383-4.634-6.937-4.517-11.238,0.051c-10.378,11.019-21.408,21.421-31.988,32.255
		c-5.876,6.016-12.563,8.232-20.551,5.406c-36.393-12.875-36.324-12.902-36.423-51.081c-0.025-10.263,3.333-23.875-1.869-29.875
		C708.986,162.979,694.996,168.297,686.574,167.478z"/>
	<path fill-rule="evenodd" fill="#0D0D0D" d="M293.039,339.58c0,7.453,0.409,14.932-0.092,22.351
		c-0.828,12.264-6.793,17.898-19.146,18.035c-20.332,0.225-40.67,0.275-60.999-0.02c-12.247-0.179-18.183-6.32-18.623-18.544
		c-0.272-7.561-0.05-15.139-0.05-23.989c-7.584,4.31-12.086,10.713-17.626,15.848c-9.47,8.777-17.983,9.22-27.122,0.352
		c-14.59-14.158-28.998-28.512-43.153-43.103c-8.838-9.11-8.376-17.618,0.669-27.105c4.943-5.185,10-10.262,14.977-15.417
		c0.168-0.173,0.022-0.65,0.022-2.417c-7.684,0-15.459,0.142-23.228-0.033c-12.319-0.274-18.318-5.903-18.51-18.354
		c-0.321-20.726-0.363-41.468,0.026-62.193c0.222-11.844,6.078-17.379,17.844-17.891c7.511-0.326,15.049-0.061,24.178-0.061
		c-3.611-7.457-9.637-11.344-14.276-16.261c-10.58-11.213-10.849-18.983-0.294-29.678c13.442-13.62,26.965-27.16,40.563-40.625
		c10.403-10.302,19.044-10.199,29.698,0.271c4.759,4.677,9.277,9.597,16.232,16.827c0-10.754-0.199-18.467,0.045-26.166
		c0.391-12.326,6.25-18.251,18.55-18.373c20.332-0.202,40.667-0.157,60.999-0.019c13.159,0.088,18.698,5.484,19.335,18.842
		c0.34,7.125,0.061,14.278,0.061,22.544c7.921-3.014,11.615-9.331,16.579-13.96c10.579-9.867,18.875-10.359,28.922-0.543
		c13.972,13.652,27.804,27.455,41.427,41.455c10.039,10.316,9.778,18.389-0.486,28.75c-4.938,4.984-10.188,9.659-17.935,16.961
		c11.731,0,19.52-0.24,27.287,0.056c11.917,0.456,17.853,5.898,18.05,17.539c0.36,21.124,0.377,42.263-0.038,63.385
		c-0.23,11.745-6.299,17.188-18.073,17.487c-7.83,0.2-15.668,0.038-26.859,0.038c7.499,7.184,12.983,12.112,18.093,17.403
		c9.734,10.075,9.805,17.995,0.152,27.804c-13.984,14.207-28.076,28.309-42.285,42.289c-9.521,9.366-18.104,9.307-27.844-0.336
		c-4.742-4.693-8.771-10.108-13.122-15.196C295.67,338.214,294.355,338.897,293.039,339.58z M135.733,232.415
		c2.79,0,5.621,0.314,8.36-0.054c13.702-1.835,20.916,4.538,25.971,17.097c6.362,15.803-4.928,22.621-13.282,31.132
		c-17.232,17.556-17.201,17.287,0.623,33.954c4.124,3.857,6.51,4.372,10.454,0.04c6.431-7.063,13.493-13.547,20.192-20.369
		c7.149-7.278,14.796-7.247,23.955-3.51c9.382,3.828,15.951,8.74,15.682,19.75c-0.107,4.38,0.006,8.767,0.006,13.149
		c0.002,24.292-0.008,24.085,24.252,23.008c5.625-0.249,7.845-1.719,7.642-7.504c-0.336-9.552-0.027-19.125-0.096-28.688
		c-0.064-9.019,4.454-14.216,12.367-18.478c16.265-8.761,25.685,0.423,35.838,11.073c16.725,17.543,16.813,17.04,33.917-0.472
		c4.587-4.698,4.024-7.207-0.289-11.187c-7.022-6.479-13.451-13.597-20.39-20.17c-6.005-5.688-6.748-12.372-4.435-19.695
		c5.345-16.924,9.308-19.077,34.074-19.077c23.791,0,23.427,0.003,23.203-23.787c-0.069-7.364-2.849-8.444-9.066-8.147
		c-9.145,0.437-18.328,0.222-27.491,0.077c-8.316-0.131-14.011-3.842-17.534-11.802c-7.341-16.584-6.747-19.439,10.561-36.75
		c17.872-17.874,17.735-17.721-1.129-34.533c-3.95-3.52-6.023-3.509-9.497,0.227c-6.779,7.291-14.1,14.074-21.038,21.219
		c-5.64,5.807-12.117,6.94-19.639,4.543c-17.519-5.583-19.444-8.855-19.444-33.898c0-24.818,0.008-24.607-24.516-23.583
		c-5.661,0.236-7.643,1.68-7.41,7.463c0.401,9.944,0.019,19.919,0.029,29.88c0.008,8.115-4.1,13.292-11.198,16.747
		c-15.896,7.734-19.708,6.808-35.895-9.38c-18.653-18.654-18.504-18.519-35.732,0.396c-3.53,3.876-3.731,5.951,0.08,9.461
		c7.027,6.475,13.428,13.633,20.468,20.095c7.642,7.016,7.963,14.668,4.2,23.776c-3.953,9.568-9.084,16.625-20.74,16.238
		c-9.554-0.316-19.126-0.054-28.691-0.062c-3.246-0.003-5.682-0.095-6.528,4.569C109.42,227.986,112.829,232.415,135.733,232.415z"
		/>
	<path fill-rule="evenodd" fill="#FDFDFD" d="M502.501,901.483c-39.056,0-78.118-0.465-117.164,0.158
		c-27.873,0.443-49.868-14.429-73.375-25.69c-3.963-1.898-2.879-5.272-2.883-8.236c-0.059-52.605,0.045-105.211-0.164-157.816
		c-0.023-6.027,2.119-7.997,7.846-9.355c29.772-7.062,59.385-14.792,89.11-22.062c12.623-3.086,25.303-2.263,37.797,1.083
		c80.204,21.476,160.408,42.95,240.587,64.521c17.714,4.765,27.215,16.92,26.613,33.351c-0.541,14.766-10.892,26.641-25.923,30.31
		c-7.002,1.709-13.471-0.292-19.942-2.019c-60.269-16.079-120.5-32.294-180.746-48.462c-2.689-0.722-5.417-1.297-8.093-2.063
		c-10.298-2.951-17.227,1.504-20.923,10.646c-3.564,8.813,1.773,18.374,11.958,21.22c27.543,7.695,55.231,14.883,82.856,22.289
		c35.69,9.568,71.349,19.254,107.069,28.703c46.449,12.289,82.563-13.366,86.382-61.487c0.371-4.666,2.136-6.914,5.95-9.104
		c52.369-30.086,104.543-60.518,157.01-90.431c17.269-9.846,36.309-4.303,45.34,11.966c8.604,15.492,3.19,33.939-13.888,43.833
		c-91.122,52.788-182.384,105.334-273.598,157.963c-13.453,7.761-28.109,10.667-43.458,10.677
		C581.409,901.499,541.955,901.483,502.501,901.483z"/>
	<path fill-rule="evenodd" fill="#FEFEFE" d="M275.468,787.719c0,39.473-0.219,78.948,0.176,118.418
		c0.083,8.26-1.042,11.817-10.707,11.515c-25.494-0.798-51.031-0.502-76.543-0.119c-6.976,0.105-9.54-1.258-9.511-9.008
		c0.307-80.939,0.285-161.881,0.024-242.819c-0.023-7.189,2.532-8.371,8.893-8.297c26.312,0.313,52.637,0.486,78.94-0.083
		c7.963-0.173,8.915,2.771,8.867,9.581C275.322,707.176,275.466,747.447,275.468,787.719z"/>
	<path fill-rule="evenodd" fill="#FDFDFD" d="M145.503,788.313c0,29.079-0.248,58.164,0.171,87.237
		c0.107,7.417-2.035,9.475-9.393,9.354c-26.286-0.43-52.586-0.446-78.869,0.009c-7.495,0.128-9.333-2.171-9.299-9.442
		c0.28-58.956,0.29-117.914-0.007-176.869c-0.037-7.405,2.029-9.474,9.387-9.353c26.286,0.43,52.586,0.446,78.869-0.009
		c7.495-0.128,9.4,2.164,9.304,9.443C145.275,728.557,145.503,758.438,145.503,788.313z"/>
	<path fill-rule="evenodd" fill="#FDFDFD" d="M686.574,167.478c8.422,0.819,22.412-4.499,27.956,1.896
		c5.202,6,1.844,19.612,1.869,29.875c0.099,38.178,0.03,38.205,36.423,51.081c7.987,2.826,14.675,0.609,20.551-5.406
		c10.58-10.833,21.61-21.236,31.988-32.255c4.302-4.568,6.855-4.685,11.238-0.051c11.22,11.865,22.78,23.434,34.672,34.625
		c4.71,4.432,3.906,7.051-0.257,11.011c-9.813,9.334-19.257,19.056-28.849,28.623c-1.41,1.407-2.776,2.86-4.221,4.232
		c-6.698,6.366-8.516,14.672-3.367,21.618c8.638,11.654,3.726,34.312,27.117,34.192c15.144-0.078,30.295,0.247,45.431-0.139
		c6.293-0.16,9.166,0.976,8.914,8.25c-0.565,16.321-0.467,32.682-0.034,49.011c0.171,6.425-1.998,8.087-8.134,7.928
		c-15.134-0.393-30.292,0.134-45.429-0.22c-10.244-0.238-16.61,4.11-19.525,13.825c-0.685,2.278-1.108,4.821-2.432,6.691
		c-14.178,20.049-6.894,34.911,10.303,48.732c9.127,7.337,22.247,16.47,22.879,25.535c0.535,7.69-14.014,16.728-22.381,24.648
		c-6.835,6.471-12.402,18.561-20.746,17.907c-7.036-0.551-13.262-11.442-19.846-17.759c-0.287-0.275-0.569-0.559-0.845-0.846
		c-34.912-36.202-24.896-22.996-63.835-10.431c-7.146,2.307-9.659,8.878-9.606,16.35c0.105,15.144-0.271,30.298,0.165,45.43
		c0.195,6.799-0.917,9.979-8.891,9.636c-15.912-0.682-31.882-0.475-47.813-0.066c-6.271,0.16-8.211-1.75-8.03-8.03
		c0.426-14.735,0.064-29.49,0.154-44.235c0.067-10.826-4.081-18.408-15.243-21.113c-2.293-0.556-4.516-1.537-6.657-2.559
		c-24.833-11.867-23.691-13.373-45.577,9.041c-7.237,7.413-14.92,14.412-21.855,22.092c-4.379,4.848-7.073,4.209-11.299-0.252
		c-10.96-11.567-22.234-22.858-33.816-33.802c-4.715-4.455-5.44-7.175-0.232-11.951c10.56-9.688,20.208-20.363,30.647-30.19
		c8.4-7.908,10.758-16.363,4.739-26.599c-0.802-1.365-1.811-2.772-2.068-4.273c-4.351-25.228-20.816-30.587-43.526-27.956
		c-10.907,1.265-25.916,3.938-32.238-1.694c-7.299-6.5-1.819-21.659-2.224-33.043c-0.34-9.541-3.556-22.362,1.236-27.824
		c5.656-6.448,19.069-3.225,28.568-1.753c27.666,4.29,44.385-5.232,51.185-33.263c2.311-9.523,2.938-16.835-4.137-23.875
		c-10.451-10.401-20.479-21.269-31.427-31.119c-6.092-5.481-5.003-8.528,0.342-13.5c11.082-10.308,21.807-21.04,32.115-32.122
		c4.819-5.182,7.726-6.115,12.989-0.322c9.904,10.901,20.933,20.77,31.089,31.452c7.459,7.844,15.455,8.855,24.729,3.969
		c3.156-1.662,6.346-3.386,9.712-4.51c20.648-6.892,23.343-8.262,22.959-33.801c-0.173-11.555,0.225-23.123-0.134-34.67
		c-0.182-5.869,1.042-8.676,7.758-8.17C667.95,167.955,676.355,167.478,686.574,167.478z M782.31,379.272
		c-0.091-54.398-45.154-99.067-99.091-98.225c-55.087,0.859-97.204,44.139-97.114,99.792c0.085,53.181,43.819,96.825,97.447,97.248
		C737.456,478.512,782.399,433.542,782.31,379.272z"/>
	<path fill-rule="evenodd" fill="#FDFDFD" d="M135.733,232.415c-22.904,0-26.313-4.429-22.164-27.251
		c0.847-4.664,3.282-4.572,6.528-4.569c9.565,0.008,19.137-0.254,28.691,0.062c11.656,0.387,16.787-6.67,20.74-16.238
		c3.764-9.108,3.442-16.76-4.2-23.776c-7.04-6.462-13.44-13.621-20.468-20.095c-3.811-3.51-3.61-5.585-0.08-9.461
		c17.228-18.915,17.079-19.05,35.732-0.396c16.187,16.188,19.999,17.114,35.895,9.38c7.098-3.454,11.206-8.631,11.198-16.747
		c-0.01-9.96,0.372-19.936-0.029-29.88c-0.233-5.783,1.749-7.227,7.41-7.463c24.524-1.023,24.516-1.235,24.516,23.583
		c0,25.042,1.925,28.314,19.444,33.898c7.521,2.397,13.999,1.264,19.639-4.543c6.938-7.146,14.259-13.929,21.038-21.219
		c3.474-3.735,5.547-3.746,9.497-0.227c18.864,16.812,19.001,16.659,1.129,34.533c-17.308,17.311-17.902,20.166-10.561,36.75
		c3.523,7.959,9.218,11.671,17.534,11.802c9.163,0.145,18.346,0.359,27.491-0.077c6.217-0.297,8.997,0.784,9.066,8.147
		c0.225,23.791,0.588,23.787-23.203,23.787c-24.767,0-28.729,2.153-34.074,19.077c-2.313,7.323-1.57,14.007,4.435,19.695
		c6.939,6.573,13.368,13.69,20.39,20.17c4.313,3.98,4.875,6.488,0.289,11.187c-17.104,17.511-17.192,18.015-33.917,0.472
		c-10.153-10.65-19.573-19.834-35.838-11.073c-7.913,4.261-12.432,9.458-12.367,18.478c0.069,9.563-0.241,19.136,0.096,28.688
		c0.204,5.785-2.017,7.255-7.642,7.504c-24.26,1.077-24.25,1.284-24.252-23.008c0-4.383-0.113-8.769-0.006-13.149
		c0.269-11.01-6.3-15.922-15.682-19.75c-9.159-3.737-16.806-3.769-23.955,3.51c-6.699,6.822-13.762,13.307-20.192,20.369
		c-3.943,4.332-6.33,3.817-10.454-0.04c-17.823-16.667-17.855-16.398-0.623-33.954c8.354-8.511,19.644-15.329,13.282-31.132
		c-5.056-12.559-12.269-18.932-25.971-17.097C141.354,232.729,138.522,232.415,135.733,232.415z M309.034,215.976
		c-0.226-36.741-29.674-65.689-66.405-65.276c-36.089,0.405-64.582,29.599-64.467,66.052c0.114,36.735,29.492,65.572,66.402,65.181
		C280.658,281.55,309.257,252.291,309.034,215.976z"/>
	<path fill-rule="evenodd" fill="#0D0D0D" d="M782.31,379.272c0.09,54.27-44.854,99.24-98.758,98.815
		c-53.628-0.423-97.362-44.067-97.447-97.248c-0.09-55.653,42.027-98.933,97.114-99.792
		C737.155,280.205,782.219,324.874,782.31,379.272z M748.783,379.587c0.026-35.58-28.596-64.579-64.086-64.93
		c-36.036-0.354-65.364,28.651-65.443,64.721c-0.077,35.804,29.728,65.57,65.251,65.166
		C719.873,444.142,748.757,414.955,748.783,379.587z"/>
	<path fill-rule="evenodd" fill="#0D0D0D" d="M309.034,215.976c0.223,36.315-28.376,65.575-64.47,65.957
		c-36.911,0.391-66.288-28.445-66.402-65.181c-0.115-36.453,28.377-65.647,64.467-66.052
		C279.36,150.287,308.809,179.234,309.034,215.976z M275.474,216.031c-0.132-17.741-14.117-31.779-31.687-31.806
		c-17.791-0.027-32.996,15.05-32.794,32.518c0.194,16.757,15.421,31.832,32.352,32.03
		C261.077,248.979,275.608,234.173,275.474,216.031z"/>
	<path fill-rule="evenodd" fill="#FDFDFD" d="M748.783,379.587c-0.026,35.368-28.91,64.555-64.278,64.957
		c-35.523,0.404-65.328-29.362-65.251-65.166c0.079-36.069,29.407-65.074,65.443-64.721
		C720.188,315.008,748.81,344.007,748.783,379.587z"/>
	<path fill-rule="evenodd" fill="#FDFDFD" d="M275.474,216.031c0.134,18.142-14.396,32.948-32.13,32.742
		c-16.931-0.199-32.157-15.273-32.352-32.03c-0.202-17.467,15.004-32.544,32.794-32.518
		C261.356,184.251,275.341,198.29,275.474,216.031z"/>
</g>
</svg>
