<?xml version="1.0" encoding="utf-8"?>
<!-- Generator: Adobe Illustrator 16.0.3, SVG Export Plug-In . SVG Version: 6.00 Build 0)  -->
<!DOCTYPE svg PUBLIC "-//W3C//DTD SVG 1.1 Tiny//EN" "http://www.w3.org/Graphics/SVG/1.1/DTD/svg11-tiny.dtd">
<svg version="1.1" baseProfile="tiny" id="Layer_1" xmlns="http://www.w3.org/2000/svg" xmlns:xlink="http://www.w3.org/1999/xlink"
	 x="0px" y="0px"  viewBox="0 0 1000 1000" xml:space="preserve">
<g>
	<path display="none" fill-rule="evenodd" fill="#F5F5F5" d="M2.389,555.019c0-35.885,0-71.77,0-107.655
		c4.231-0.471,4.484-3.465,4.83-6.887c4.997-49.412,18.25-96.754,38.634-141.818c33.284-73.579,81.048-136.05,144.484-186.765
		C257.972,57.822,334.117,24,419.174,8.958c6.783-1.199,16.388,2.76,21.012-6.569c40.67,0,81.34,0,122.01,0
		c0.404,3.377,2.433,4.842,5.696,4.727c10.068-0.353,19.57,2.723,29.278,4.655c108.75,21.636,200.508,72.978,274.931,155.546
		c39.273,43.57,69.965,92.169,92.231,146.364c19.465,47.372,31.814,96.667,35.061,147.486c2.473,38.727,2.291,77.826-4.085,116.574
		c-8.513,51.741-23.617,101.466-47.542,147.938c-32.5,63.128-75.644,118.053-131.465,162.797
		c-68.772,55.127-146.098,90.372-233.1,104.957c-6.76,1.133-16.383-2.769-21.006,6.562c-40.67,0-81.34,0-122.01,0
		c-0.451-4.248-3.47-4.43-6.873-4.84c-55.397-6.676-107.881-23.605-157.26-48.866c-64.04-32.761-118.874-77.319-163.807-134.006
		C57.471,743.178,23.02,665.501,8.91,578.434C7.683,570.872,12.159,560.555,2.389,555.019z M741.953,477.272
		c0.222,0,0.444,0,0.665,0c0-55.403-0.541-110.815,0.239-166.208c0.364-25.879-6.599-34.656-31.607-34.51
		c-51.401,0.3-102.803,0.528-154.204,0.626c-54.606,0.105-109.214-0.074-163.82,0.082c-18.932,0.052-24.802,4.952-25.146,23.724
		c-0.846,46.144-2.753,92.312-0.218,138.457c1.855,33.752-1.2,37.324-34.356,38.105c-3.975,0.093-7.963,0.394-11.909,0.883
		c-31.087,3.848-55.489,27.903-58.372,58.701c-3.98,42.518-3.667,85.153,0.027,127.648c2.884,33.178,31.584,60.032,65.135,60.165
		c110.405,0.437,220.819,0.669,331.217-0.326c48.59-0.438,80.394-31.313,81.938-79.985
		C743.313,588.899,741.953,533.065,741.953,477.272z"/>
	<path display="none" fill-rule="evenodd" fill="#FFFFFF" d="M562.196,999.994c4.623-9.33,14.246-5.429,21.006-6.562
		c87.002-14.585,164.327-49.83,233.1-104.957c55.821-44.744,98.965-99.669,131.465-162.797
		c23.925-46.472,39.029-96.196,47.542-147.938c6.376-38.748,6.558-77.847,4.085-116.574
		c-3.246-50.818-15.596-100.114-35.061-147.486c-22.267-54.195-52.958-102.793-92.231-146.364
		C797.679,84.75,705.921,33.408,597.171,11.771c-9.708-1.932-19.21-5.008-29.278-4.655c-3.264,0.115-5.292-1.35-5.696-4.727
		c144.338,0,288.676,0.088,433.013-0.231c8.192-0.019,9.803,1.609,9.796,9.801c-0.266,326.154-0.266,652.31,0,978.466
		c0.007,8.189-1.602,9.819-9.796,9.801C850.872,999.905,706.534,999.994,562.196,999.994z"/>
	<path display="none" fill-rule="evenodd" fill="#FFFFFF" d="M2.389,555.019c9.77,5.536,5.294,15.854,6.521,23.415
		c14.11,87.067,48.562,164.744,103.337,233.849c44.933,56.687,99.767,101.245,163.807,134.006
		c49.379,25.261,101.862,42.19,157.26,48.866c3.403,0.41,6.422,0.592,6.873,4.84c-142.549,0-285.099-0.098-427.649,0.238
		c-8.632,0.02-10.404-1.792-10.385-10.397C2.482,844.897,2.389,699.957,2.389,555.019z"/>
	<path display="none" fill-rule="evenodd" fill="#FFFFFF" d="M440.187,2.389c-4.625,9.33-14.229,5.371-21.012,6.569
		C334.117,24,257.972,57.822,190.337,111.893c-63.436,50.715-111.2,113.187-144.484,186.765
		c-20.384,45.064-33.637,92.406-38.634,141.818c-0.346,3.422-0.599,6.417-4.83,6.887c0-144.938,0.093-289.878-0.236-434.815
		C2.133,3.941,3.906,2.131,12.539,2.15C155.087,2.486,297.637,2.389,440.187,2.389z"/>
	<path fill-rule="evenodd" fill="#080707" d="M741.953,477.272c0,55.793,1.359,111.627-0.41,167.362
		c-1.545,48.672-33.349,79.547-81.938,79.985c-110.398,0.995-220.813,0.763-331.217,0.326
		c-33.551-0.133-62.251-26.987-65.135-60.165c-3.694-42.495-4.007-85.131-0.027-127.648c2.883-30.798,27.284-54.854,58.372-58.701
		c3.946-0.49,7.934-0.79,11.909-0.883c33.156-0.781,36.211-4.354,34.356-38.105c-2.535-46.145-0.627-92.313,0.218-138.457
		c0.344-18.772,6.213-23.671,25.146-23.724c54.606-0.156,109.214,0.023,163.82-0.082c51.401-0.098,102.803-0.326,154.204-0.626
		c25.009-0.146,31.972,8.631,31.607,34.51c-0.78,55.393-0.239,110.804-0.239,166.208
		C742.397,477.272,742.175,477.272,741.953,477.272z M400.101,686.432c2.489,0.284,4.046,0.619,5.605,0.617
		c82.093-0.13,164.188,0.065,246.276-0.604c35.932-0.293,52.675-18.205,52.787-54.321c0.302-97.633,0.475-195.267,0.646-292.899
		c0.035-20.343-2.924-23.134-23.665-23.134c-84.063-0.002-168.124-0.003-252.186,0c-20.856,0.001-23.374,2.456-23.343,23.175
		c0.143,97.234,0.309,194.469,0.49,291.702C406.744,649.319,405.579,667.526,400.101,686.432z M366.629,588.188
		c0.297,0,0.595-0.001,0.891-0.001c0-20.678-0.425-41.369,0.226-62.025c0.236-7.488-2.801-11.073-8.999-13.336
		c-26.149-9.544-57.082,11.876-57.259,39.911c-0.208,32.983-0.138,65.97-0.016,98.953c0.077,20.958,11.924,34.611,30.457,35.556
		c19.427,0.99,33.063-10.116,34.382-31.149C367.724,633.542,366.629,610.831,366.629,588.188z"/>
	<path fill-rule="evenodd" fill="#F5F5F5" d="M400.101,686.432c5.478-18.905,6.643-37.112,6.609-55.465
		c-0.181-97.233-0.347-194.468-0.49-291.702c-0.03-20.719,2.487-23.173,23.343-23.175c84.062-0.003,168.124-0.002,252.186,0
		c20.741,0,23.7,2.791,23.665,23.134c-0.171,97.633-0.344,195.267-0.646,292.899c-0.112,36.116-16.855,54.028-52.787,54.321
		c-82.088,0.67-164.184,0.475-246.276,0.604C404.147,687.051,402.59,686.716,400.101,686.432z M556.243,528.189
		c23.479,0,46.958,0.089,70.437-0.069c5.125-0.035,10.305-0.622,15.358-1.524c10.483-1.869,14.155-9.237,14.148-18.98
		c-0.007-9.581-4.366-15.937-14.253-17.536c-4.297-0.695-8.65-1.457-12.981-1.466c-48.946-0.103-97.894-0.117-146.841,0.012
		c-5.115,0.013-10.304,0.722-15.323,1.766c-7.938,1.653-12.103,6.814-12.846,15.005c-1.394,15.374,6.256,22.492,25.895,22.72
		C505.303,528.412,530.774,528.188,556.243,528.189z M532.204,614.313c18.335,0,36.674,0.173,55.007-0.052
		c15.8-0.193,22.975-6.443,23.106-19.429c0.13-12.718-6.409-19.741-21.415-19.945c-37.861-0.517-75.736-0.506-113.598-0.007
		c-14.752,0.193-21.679,7.586-21.488,20.075c0.19,12.367,7.353,18.969,22.234,19.268
		C494.762,614.599,513.486,614.313,532.204,614.313z M532.375,435.379c18.303,0,36.607,0.107,54.91-0.033
		c15.768-0.121,22.965-6.284,23.022-19.279c0.06-13.24-6.771-19.139-22.79-19.18c-36.585-0.092-73.17-0.069-109.754-0.012
		c-16.42,0.025-24.255,6.488-24.043,19.545c0.2,12.366,8.137,18.819,23.743,18.927C495.767,435.477,514.07,435.379,532.375,435.379z
		"/>
	<path fill-rule="evenodd" fill="#F5F5F5" d="M366.629,588.188c0,22.643,1.095,45.354-0.319,67.908
		c-1.319,21.033-14.955,32.14-34.382,31.149c-18.532-0.944-30.379-14.598-30.457-35.556c-0.122-32.983-0.192-65.97,0.016-98.953
		c0.177-28.035,31.11-49.455,57.259-39.911c6.198,2.263,9.235,5.848,8.999,13.336c-0.65,20.656-0.226,41.348-0.226,62.025
		C367.224,588.188,366.926,588.188,366.629,588.188z"/>
	<path fill-rule="evenodd" fill="#080707" d="M556.243,528.189c-25.469-0.001-50.94,0.223-76.405-0.074
		c-19.639-0.228-27.289-7.346-25.895-22.72c0.743-8.191,4.908-13.352,12.846-15.005c5.019-1.044,10.208-1.753,15.323-1.766
		c48.947-0.128,97.895-0.114,146.841-0.012c4.331,0.009,8.685,0.771,12.981,1.466c9.887,1.599,14.246,7.955,14.253,17.536
		c0.007,9.743-3.665,17.111-14.148,18.98c-5.054,0.902-10.233,1.489-15.358,1.524C603.201,528.278,579.722,528.189,556.243,528.189z
		"/>
	<path fill-rule="evenodd" fill="#080707" d="M532.204,614.313c-18.718,0-37.442,0.286-56.153-0.09
		c-14.882-0.299-22.044-6.9-22.234-19.268c-0.191-12.489,6.736-19.882,21.488-20.075c37.862-0.499,75.737-0.51,113.598,0.007
		c15.006,0.204,21.545,7.228,21.415,19.945c-0.132,12.985-7.307,19.235-23.106,19.429
		C568.878,614.485,550.539,614.313,532.204,614.313z"/>
	<path fill-rule="evenodd" fill="#080707" d="M532.375,435.379c-18.305,0-36.608,0.098-54.912-0.031
		c-15.606-0.108-23.543-6.561-23.743-18.927c-0.211-13.057,7.623-19.52,24.043-19.545c36.584-0.057,73.169-0.081,109.754,0.012
		c16.02,0.041,22.85,5.94,22.79,19.18c-0.058,12.995-7.255,19.158-23.022,19.279C568.982,435.486,550.678,435.379,532.375,435.379z"
		/>
</g>
</svg>
