<?xml version="1.0" encoding="utf-8"?>
<!-- Generator: Adobe Illustrator 16.0.3, SVG Export Plug-In . SVG Version: 6.00 Build 0)  -->
<!DOCTYPE svg PUBLIC "-//W3C//DTD SVG 1.1 Tiny//EN" "http://www.w3.org/Graphics/SVG/1.1/DTD/svg11-tiny.dtd">
<svg version="1.1" baseProfile="tiny" id="Layer_1" xmlns="http://www.w3.org/2000/svg" xmlns:xlink="http://www.w3.org/1999/xlink"
	 x="0px" y="0px"  viewBox="0 0 1000 1000" xml:space="preserve">
<g>
	<path display="none" fill-rule="evenodd" fill="#FFFFFF" d="M1002.389,503.585c0,163.077-0.078,326.156,0.231,489.234
		c0.015,8.191-1.61,9.803-9.801,9.796c-326.953-0.267-653.908-0.267-980.861,0c-8.19,0.007-9.803-1.605-9.797-9.796
		C2.429,665.866,2.429,338.913,2.162,11.958c-0.007-8.19,1.604-9.803,9.796-9.797c326.953,0.268,653.906,0.268,980.86,0.001
		c8.19-0.007,9.816,1.603,9.802,9.796C1002.311,175.833,1002.389,339.709,1002.389,503.585z M155.152,153.262
		c-11.153-0.171-22.315-0.7-33.459-0.451c-46.958,1.045-85.217,38.738-85.313,85.776c-0.366,175.405-0.333,350.811-0.012,526.216
		c0.078,42.626,31.501,77.852,73.242,84.964c14.315,2.44,28.637,0.93,42.939,1.622c233.141,0.044,466.284,0.09,699.425,0.134
		c7.165-0.067,14.332-0.189,21.497-0.192c56.629-0.038,94.136-35.968,94.299-92.882c0.492-171.236,0.381-342.476,0.045-513.713
		c-0.093-46.679-27.156-80.958-69.824-90.244c-16.066-3.497-32.519-1.631-48.815-1.415c-29.863,0.01-59.727,0.019-89.59,0.027
		C558.107,153.157,356.63,153.209,155.152,153.262z"/>
	<path fill-rule="evenodd" fill="#EDEFEE" d="M851.975,851.523c-233.142-0.044-466.284-0.09-699.425-0.134
		c0.188-5.169,0.54-10.339,0.541-15.508c0.028-171.36,0.023-342.722,0.023-514.083c0-4.098,0-8.195,0-14.17
		c4.974,3.671,7.846,5.716,10.64,7.864c109.878,84.483,219.8,168.909,329.497,253.628c6.536,5.047,10.619,5.518,17.322,0.336
		c104.944-81.125,210.098-161.979,315.211-242.885c7.669-5.903,15.402-11.725,24.961-18.996c0,7.1,0,11.39,0,15.678
		c0,170.962-0.007,341.925,0.034,512.888C850.779,841.28,849.974,846.522,851.975,851.523z"/>
	<path fill-rule="evenodd" fill="#F14538" d="M851.975,851.523c-2.001-5.001-1.195-10.243-1.196-15.382
		c-0.041-170.963-0.034-341.925-0.034-512.888c0-4.288,0-8.578,0-15.678c-9.559,7.271-17.292,13.093-24.961,18.996
		C720.67,407.478,615.517,488.332,510.572,569.457c-6.703,5.182-10.786,4.711-17.322-0.336
		c-109.696-84.719-219.618-169.146-329.497-253.628c-2.794-2.148-5.667-4.192-10.64-7.864c0,5.975,0,10.073,0,14.17
		c0,171.361,0.004,342.722-0.023,514.083c-0.001,5.169-0.353,10.339-0.541,15.508c-14.303-0.692-28.624,0.818-42.939-1.622
		c-41.741-7.112-73.164-42.338-73.242-84.964c-0.321-175.405-0.354-350.812,0.012-526.216c0.097-47.039,38.356-84.731,85.313-85.776
		c11.144-0.249,22.306,0.279,33.459,0.451c0.773,0.89,1.428,1.931,2.337,2.648C270.056,244.824,382.7,333.637,495.073,422.795
		c6.566,5.211,9.864,2.986,14.997-1.084c55.882-44.319,111.966-88.386,167.883-132.662c57.14-45.242,114.154-90.642,171.224-135.973
		c16.297-0.216,32.749-2.082,48.815,1.415c42.668,9.287,69.731,43.565,69.824,90.244c0.336,171.237,0.447,342.477-0.045,513.713
		c-0.163,56.914-37.67,92.844-94.299,92.882C866.307,851.334,859.14,851.456,851.975,851.523z"/>
	<path fill-rule="evenodd" fill="#EDEFEE" d="M849.176,153.077c-57.069,45.331-114.084,90.73-171.224,135.973
		c-55.917,44.276-112.001,88.342-167.883,132.662c-5.133,4.07-8.431,6.295-14.997,1.084
		C382.7,333.637,270.056,244.824,157.489,155.91c-0.91-0.717-1.564-1.758-2.337-2.648c201.478-0.052,402.956-0.105,604.434-0.158
		C789.449,153.096,819.313,153.087,849.176,153.077z"/>
</g>
</svg>
