<?xml version="1.0" encoding="utf-8"?>
<!-- Generator: Adobe Illustrator 16.0.3, SVG Export Plug-In . SVG Version: 6.00 Build 0)  -->
<!DOCTYPE svg PUBLIC "-//W3C//DTD SVG 1.1 Tiny//EN" "http://www.w3.org/Graphics/SVG/1.1/DTD/svg11-tiny.dtd">
<svg version="1.1" baseProfile="tiny" id="Layer_1" xmlns="http://www.w3.org/2000/svg" xmlns:xlink="http://www.w3.org/1999/xlink"
	 x="0px" y="0px"  viewBox="0 0 1000 1000" xml:space="preserve">
<g>
	<path display="none" fill-rule="evenodd" fill="#F6F5F5" d="M2.399,556.355c0-35.971,0-71.942,0-107.913
		c4.241-0.471,4.496-3.472,4.842-6.904c5.009-49.53,18.292-96.985,38.727-142.158c33.362-73.755,81.242-136.378,144.831-187.214
		C258.596,57.965,334.923,24.063,420.187,8.984c6.798-1.203,16.426,2.768,21.062-6.585c40.768,0,81.535,0,122.302,0
		c0.405,3.385,2.438,4.854,5.711,4.739c10.093-0.354,19.617,2.729,29.349,4.667C707.62,33.491,799.599,84.957,874.2,167.724
		c39.367,43.675,70.132,92.392,92.452,146.715c19.513,47.486,31.891,96.9,35.145,147.84c2.479,38.82,2.297,78.013-4.094,116.854
		c-8.533,51.864-23.675,101.708-47.656,148.292c-32.578,63.28-75.826,118.337-131.781,163.188
		c-68.938,55.258-146.448,90.589-233.658,105.208c-6.776,1.136-16.423-2.776-21.058,6.577c-40.767,0-81.534,0-122.302,0
		c-0.451-4.259-3.478-4.44-6.89-4.852c-55.53-6.692-108.14-23.662-157.638-48.983c-64.193-32.838-119.16-77.504-164.2-134.328
		C57.613,744.966,23.079,667.104,8.934,579.826C7.706,572.245,12.193,561.905,2.399,556.355z M402.085,538.091
		c1.224,0.871,2.446,1.743,3.668,2.614c0,31.539-0.034,63.078,0.01,94.616c0.039,27.617,14.349,41.854,42.161,41.881
		c47.541,0.049,95.082,0.156,142.622-0.136c7.362-0.045,12.67,1.992,17.878,7.264c20.205,20.455,40.759,40.57,61.382,60.606
		c8.633,8.386,19.135,9.939,29.823,4.896c10.19-4.808,15.409-13.268,15.083-25.003c-0.322-11.577,0.636-23.226-0.281-34.738
		c-0.813-10.18,1.764-13.509,12.709-13.192c27.25,0.788,41.17-13.718,41.19-40.947c0.041-58.727,0.021-117.454,0.008-176.183
		c-0.006-28.186-14.327-42.457-42.776-42.501c-36.355-0.056-72.718-0.419-109.061,0.254c-9.851,0.183-11.527-3.082-11.422-11.95
		c0.453-38.348,0.338-76.705,0.138-115.056c-0.117-22.309-15.108-38.057-37.37-38.12c-97.479-0.274-194.959-0.239-292.438-0.023
		c-21.394,0.047-37.614,15.424-37.791,36.881c-0.521,63.119-0.518,126.245-0.006,189.362c0.174,21.513,16.046,36.319,37.522,37.147
		c8.776,0.34,17.654,0.857,26.343-0.064c9.556-1.013,11.481,2.833,10.926,11.426c-0.721,11.14-0.126,22.36-0.189,33.547
		c-0.073,12.947,3.875,23.827,16.666,29.056c12.566,5.137,23.347,1.385,32.425-8.321
		C374.854,566.924,388.488,552.524,402.085,538.091z"/>
	<path display="none" fill-rule="evenodd" fill="#FFFFFF" d="M563.55,1002.399c4.635-9.354,14.281-5.441,21.058-6.577
		c87.21-14.619,164.721-49.95,233.658-105.208c55.955-44.852,99.203-99.908,131.781-163.188
		c23.981-46.584,39.123-96.428,47.656-148.292c6.391-38.842,6.573-78.034,4.094-116.854c-3.254-50.94-15.632-100.354-35.145-147.84
		c-22.32-54.323-53.085-103.041-92.452-146.715C799.599,84.957,707.62,33.491,598.609,11.804c-9.731-1.937-19.256-5.02-29.349-4.667
		c-3.272,0.115-5.306-1.354-5.711-4.739c144.685,0,289.37,0.089,434.053-0.232c8.212-0.019,9.827,1.614,9.819,9.824
		c-0.267,326.938-0.267,653.877,0,980.815c0.008,8.21-1.604,9.843-9.819,9.824C852.92,1002.311,708.234,1002.399,563.55,1002.399z"
		/>
	<path display="none" fill-rule="evenodd" fill="#FFFFFF" d="M2.399,556.355c9.794,5.55,5.307,15.89,6.535,23.471
		c14.145,87.277,48.679,165.14,103.587,234.41c45.04,56.824,100.006,101.49,164.2,134.328
		c49.498,25.321,102.108,42.291,157.638,48.983c3.412,0.411,6.439,0.593,6.89,4.852c-142.892,0-285.784-0.098-428.676,0.238
		c-8.653,0.021-10.43-1.796-10.41-10.422C2.493,846.93,2.399,701.643,2.399,556.355z"/>
	<path display="none" fill-rule="evenodd" fill="#FFFFFF" d="M441.248,2.399c-4.636,9.354-14.263,5.383-21.062,6.585
		c-85.263,15.078-161.591,48.98-229.388,103.182C127.209,163.002,79.33,225.625,45.967,299.381
		C25.533,344.553,12.25,392.009,7.241,441.539c-0.346,3.432-0.601,6.433-4.842,6.904c0-145.287,0.094-290.574-0.236-435.86
		C2.143,3.955,3.92,2.14,12.573,2.16C155.464,2.496,298.356,2.399,441.248,2.399z"/>
	<path fill-rule="evenodd" fill="#080808" d="M402.085,538.091c-13.597,14.434-27.231,28.833-40.778,43.313
		c-9.078,9.706-19.859,13.458-32.425,8.321c-12.791-5.229-16.739-16.108-16.666-29.056c0.063-11.187-0.532-22.407,0.189-33.547
		c0.555-8.593-1.37-12.438-10.926-11.426c-8.688,0.922-17.566,0.404-26.343,0.064c-21.476-0.828-37.348-15.634-37.522-37.147
		c-0.512-63.117-0.515-126.243,0.006-189.362c0.177-21.457,16.396-36.834,37.791-36.881c97.479-0.215,194.959-0.25,292.438,0.023
		c22.262,0.063,37.253,15.811,37.37,38.12c0.2,38.352,0.315,76.708-0.138,115.056c-0.105,8.868,1.571,12.132,11.422,11.95
		c36.343-0.673,72.705-0.311,109.061-0.254c28.449,0.044,42.771,14.316,42.776,42.501c0.013,58.729,0.033,117.456-0.008,176.183
		c-0.021,27.229-13.94,41.735-41.19,40.947c-10.945-0.316-13.521,3.013-12.709,13.192c0.917,11.513-0.041,23.161,0.281,34.738
		c0.326,11.735-4.893,20.195-15.083,25.003c-10.688,5.044-21.19,3.49-29.823-4.896c-20.623-20.036-41.177-40.151-61.382-60.606
		c-5.208-5.271-10.516-7.309-17.878-7.264c-47.54,0.292-95.081,0.185-142.622,0.136c-27.813-0.026-42.122-14.264-42.161-41.881
		c-0.044-31.538-0.01-63.077-0.01-94.616C404.531,539.834,403.309,538.962,402.085,538.091z M683.441,713.831
		c0-18.043-0.087-33.455,0.025-48.865c0.098-13.346,5.33-18.794,18.766-19.344c7.582-0.31,15.23-0.576,22.77,0.07
		c9.372,0.804,12.817-2.801,12.779-12.177c-0.238-57.152-0.229-114.307-0.01-171.459c0.036-9.5-2.942-13.51-13.155-13.476
		c-91.524,0.296-183.051,0.268-274.576,0.025c-9.18-0.024-12.839,2.704-12.789,12.289c0.297,57.552,0.313,115.106-0.018,172.658
		c-0.054,9.44,3.013,12.281,12.436,12.203c49.556-0.414,99.119,0.019,148.676-0.361c10.746-0.084,18.83,2.919,26.448,10.778
		C643.266,675.23,662.599,693.455,683.441,713.831z M343.874,550.46c1.26,0.877,2.519,1.754,3.778,2.63
		c11.982-12.761,22.84-26.881,36.226-37.946c17.517-14.481,23.906-31.037,22.371-53.726c-1.995-29.497,13.918-44.112,43.46-44.151
		c38.338-0.052,76.676-0.104,115.014,0.08c6.268,0.029,10.207,0.059,10.091-8.514c-0.512-37.532-0.37-75.076-0.116-112.614
		c0.063-9.296-3.532-12.469-12.836-12.444c-93.446,0.245-186.896,0.235-280.343,0.011c-9.206-0.022-12.806,2.922-12.761,12.415
		c0.279,58.704,0.284,117.41-0.003,176.113c-0.048,9.653,3.843,12.567,12.912,12.219c13.159-0.507,26.352-0.136,39.531-0.129
		c19.328,0.009,22.657,3.418,22.675,23.24C343.884,521.914,343.874,536.188,343.874,550.46z"/>
	<path fill-rule="evenodd" fill="#F6F5F5" d="M683.441,713.831c-20.843-20.376-40.176-38.601-58.647-57.658
		c-7.618-7.859-15.702-10.862-26.448-10.778c-49.558,0.38-99.12-0.053-148.676,0.361c-9.422,0.078-12.489-2.763-12.436-12.203
		c0.331-57.552,0.315-115.105,0.018-172.658c-0.05-9.585,3.609-12.313,12.789-12.289c91.525,0.243,183.051,0.271,274.576-0.025
		c10.213-0.034,13.191,3.977,13.155,13.476c-0.22,57.152-0.229,114.307,0.01,171.459c0.038,9.376-3.407,12.98-12.779,12.177
		c-7.539-0.646-15.188-0.38-22.77-0.07c-13.436,0.55-18.668,5.998-18.766,19.344C683.354,680.376,683.441,695.788,683.441,713.831z
		 M507.263,532.068c-8.971,0.154-16.321,7.431-15.521,16.073c0.853,9.202,6.535,14.483,15.554,15.27
		c8.661,0.755,15.752-6.785,15.787-15.841C523.119,538.298,516.599,531.909,507.263,532.068z M602.84,547.348
		c-0.121-9.06-6.969-15.558-16.12-15.27c-9.765,0.307-14.341,6.342-15.251,15.127c-0.859,8.283,7.328,16.236,15.746,16.292
		C595.932,563.556,602.959,556.291,602.84,547.348z M651.422,547.49c-0.009,8.84,7.283,16.219,15.824,16.017
		c8.434-0.201,16.473-8.158,15.557-16.432c-0.972-8.776-5.61-14.772-15.37-14.995C658.241,531.87,651.431,538.447,651.422,547.49z"
		/>
	<path fill-rule="evenodd" fill="#F6F5F5" d="M343.874,550.46c0-14.272,0.01-28.546-0.002-42.818
		c-0.019-19.822-3.348-23.23-22.675-23.24c-13.179-0.007-26.372-0.378-39.531,0.129c-9.069,0.349-12.96-2.566-12.912-12.219
		c0.287-58.703,0.282-117.409,0.003-176.113c-0.044-9.493,3.555-12.437,12.761-12.415c93.448,0.224,186.897,0.233,280.343-0.011
		c9.304-0.025,12.899,3.148,12.836,12.444c-0.254,37.538-0.396,75.082,0.116,112.614c0.116,8.573-3.823,8.543-10.091,8.514
		c-38.338-0.184-76.676-0.131-115.014-0.08c-29.542,0.04-45.456,14.654-43.46,44.151c1.535,22.689-4.854,39.245-22.371,53.726
		c-13.385,11.065-24.243,25.186-36.226,37.946C346.393,552.214,345.134,551.337,343.874,550.46z"/>
	<path fill-rule="evenodd" fill="#080808" d="M507.263,532.068c9.336-0.159,15.856,6.229,15.819,15.502
		c-0.035,9.056-7.126,16.596-15.787,15.841c-9.019-0.786-14.701-6.067-15.554-15.27
		C490.941,539.499,498.292,532.223,507.263,532.068z"/>
	<path fill-rule="evenodd" fill="#080808" d="M602.84,547.348c0.119,8.943-6.908,16.208-15.625,16.149
		c-8.418-0.056-16.605-8.009-15.746-16.292c0.91-8.785,5.486-14.82,15.251-15.127C595.871,531.79,602.719,538.288,602.84,547.348z"
		/>
	<path fill-rule="evenodd" fill="#080808" d="M651.422,547.49c0.009-9.043,6.819-15.62,16.011-15.41
		c9.76,0.223,14.398,6.219,15.37,14.995c0.916,8.273-7.123,16.23-15.557,16.432C658.705,563.709,651.413,556.33,651.422,547.49z"/>
</g>
</svg>
