<?xml version="1.0" encoding="utf-8"?>
<!-- Generator: Adobe Illustrator 16.0.3, SVG Export Plug-In . SVG Version: 6.00 Build 0)  -->
<!DOCTYPE svg PUBLIC "-//W3C//DTD SVG 1.1 Tiny//EN" "http://www.w3.org/Graphics/SVG/1.1/DTD/svg11-tiny.dtd">
<svg version="1.1" baseProfile="tiny" id="Layer_1" xmlns="http://www.w3.org/2000/svg" xmlns:xlink="http://www.w3.org/1999/xlink"
	 x="0px" y="0px"  viewBox="0 0 1000 1000" xml:space="preserve">
<g>
	<path display="none" fill-rule="evenodd" fill="#FFFFFF" d="M505.427,2.376c161.97,0,323.938,0.065,485.908-0.187
		c8.286-0.013,11.32,0.858,11.312,10.532c-0.328,324.334-0.318,648.668-0.026,973.002c0.009,8.77-2.045,10.247-10.416,10.24
		c-323.938-0.253-647.877-0.277-971.814,0.07c-10.285,0.012-11.624-2.828-11.616-12.166C9.047,660.327,9.039,336.785,8.797,13.243
		C8.792,4.653,10.213,2.102,19.521,2.121C181.488,2.475,343.459,2.376,505.427,2.376z M720.454,969.396
		c16.201-0.14,31.006-2.421,45.453-6.859c50.421-15.488,82.414-51.798,105.3-96.667c10.219-20.037,4.395-40.196-11.756-56.386
		c-43.342-43.448-86.711-86.869-130.192-130.177c-18.715-18.64-42.231-21.814-64.903-8.263
		c-25.271,15.106-47.913,33.327-66.187,56.847c-23.038,29.656-62.91,37.389-93.38,16.932
		c-97.759-65.63-179.568-147.516-245.098-245.345c-20.72-30.934-13.362-70.6,15.987-93.521
		c23.427-18.295,41.775-40.831,56.793-66.191c13.481-22.762,10.903-46.332-7.637-65.06c-43.73-44.174-87.7-88.112-131.843-131.873
		c-16.558-16.414-39.898-19.037-60.9-7.921c-18.989,10.051-36.21,22.766-51.333,37.806c-33.373,33.19-49.077,73.269-46.136,120.846
		c1.477,23.89,10.766,44.833,19.228,66.498c56.681,145.114,141.104,271.463,254.353,378.523
		C413.642,838.26,534.96,911.94,671.486,960.752C687.637,966.527,704.384,969.141,720.454,969.396z M948.083,484.815
		c6.334,0,12.703-0.429,18.99,0.113c7.344,0.634,9.284-1.876,9.116-9.334c-0.584-25.771-2.825-51.417-8.161-76.531
		C936.426,250.345,852.87,141.123,716.822,73.031C659.16,44.17,597.481,29.985,532.905,27.91
		c-12.329-0.396-16.012,3.191-14.806,15.096c1.031,10.186,0.59,20.579,0.087,30.845c-0.353,7.191,2.008,9.471,9.357,9.513
		c30.153,0.17,59.807,4.642,89.073,11.819c168.348,41.286,294.33,193.042,302.993,365.007
		C920.851,484.818,920.851,484.818,948.083,484.815z M818.989,484.089c0.001,0.241,0.002,0.482,0.003,0.725
		c6.726,0,13.473-0.327,20.173,0.095c6.333,0.398,8.598-2.086,7.931-8.251c-1.654-15.306-1.986-30.843-4.818-45.918
		c-20.021-106.562-77.695-186.057-173.38-237.222c-43.526-23.274-90.572-34.439-139.87-36.507
		c-8.352-0.351-11.259,2.45-10.853,10.755c0.559,11.447,0.595,22.966-0.012,34.408c-0.45,8.501,3.08,11.208,11.036,11.052
		c13.869-0.273,27.62,1.318,41.189,4.201c121.622,25.83,206.049,118.856,220.11,242.323c0.924,8.107-3.183,19.58,3.031,23.483
		C799.745,487.135,810.323,484.089,818.989,484.089z M671.148,484.053c29.705,0.765,29.702,0.765,24.967-29.266
		c-0.308-1.952-0.385-3.942-0.744-5.882c-14.497-78.115-87.333-140.885-166.825-144.038c-7.646-0.303-10.729,2.062-10.365,10.009
		c0.524,11.44,0.563,22.943-0.009,34.379c-0.425,8.496,2.13,11.5,11.18,11.981c53.152,2.833,101.869,46.274,111.638,98.738
		c1.492,8.01,0.194,19.878,4.896,23.109C651.756,487.118,662.506,484.053,671.148,484.053z"/>
	<path fill-rule="evenodd" fill="#43577C" d="M720.454,969.396c-16.07-0.256-32.817-2.869-48.968-8.645
		C534.96,911.94,413.642,838.26,308.204,738.585C194.955,631.524,110.531,505.176,53.851,360.062
		c-8.461-21.665-17.75-42.607-19.228-66.498c-2.94-47.578,12.763-87.656,46.136-120.846c15.122-15.04,32.344-27.754,51.333-37.806
		c21.002-11.116,44.342-8.493,60.9,7.921c44.143,43.761,88.112,87.699,131.843,131.873c18.54,18.728,21.118,42.298,7.637,65.06
		c-15.018,25.36-33.366,47.896-56.793,66.191c-29.349,22.921-36.707,62.587-15.987,93.521
		c65.53,97.829,147.339,179.715,245.098,245.345c30.47,20.457,70.342,12.725,93.38-16.932c18.273-23.52,40.916-41.74,66.187-56.847
		c22.672-13.552,46.188-10.377,64.903,8.263c43.481,43.308,86.851,86.729,130.192,130.177c16.15,16.189,21.975,36.349,11.756,56.386
		c-22.886,44.869-54.879,81.179-105.3,96.667C751.46,966.976,736.655,969.257,720.454,969.396z"/>
	<path fill-rule="evenodd" fill="#ED5664" d="M948.083,484.817c-27.232,0.001-27.232,0.001-28.473-24.628
		c-8.663-171.965-134.646-323.721-302.993-365.007c-29.267-7.177-58.92-11.648-89.073-11.819c-7.35-0.042-9.71-2.322-9.357-9.513
		c0.503-10.266,0.944-20.659-0.087-30.845c-1.206-11.904,2.477-15.491,14.806-15.096c64.576,2.075,126.255,16.261,183.917,45.121
		c136.048,68.092,219.604,177.314,251.206,326.033c5.336,25.113,7.577,50.759,8.161,76.531c0.168,7.458-1.772,9.968-9.116,9.334
		C960.786,484.386,954.417,484.815,948.083,484.817z"/>
	<path fill-rule="evenodd" fill="#ED5664" d="M818.989,484.089c-8.666,0-19.244,3.046-25.459-0.857
		c-6.214-3.903-2.107-15.375-3.031-23.483c-14.062-123.467-98.488-216.493-220.11-242.323c-13.569-2.882-27.32-4.474-41.189-4.201
		c-7.956,0.157-11.486-2.551-11.036-11.052c0.606-11.441,0.57-22.96,0.012-34.408c-0.406-8.305,2.501-11.105,10.853-10.755
		c49.298,2.068,96.344,13.233,139.87,36.507c95.685,51.166,153.358,130.661,173.38,237.222c2.832,15.075,3.164,30.612,4.818,45.918
		c0.667,6.165-1.598,8.649-7.931,8.251c-6.7-0.422-13.447-0.095-20.173-0.095C818.991,484.572,818.99,484.331,818.989,484.089z"/>
	<path fill-rule="evenodd" fill="#ED5664" d="M671.148,484.053c-8.643,0-19.393,3.065-25.263-0.97
		c-4.702-3.23-3.404-15.099-4.896-23.109c-9.769-52.464-58.485-95.906-111.638-98.738c-9.05-0.481-11.604-3.485-11.18-11.981
		c0.572-11.436,0.533-22.939,0.009-34.379c-0.363-7.947,2.72-10.312,10.365-10.009c79.492,3.153,152.328,65.922,166.825,144.038
		c0.359,1.94,0.437,3.93,0.744,5.882C700.851,484.818,700.854,484.818,671.148,484.053z"/>
</g>
</svg>
