<?xml version="1.0" encoding="utf-8"?>
<!-- Generator: Adobe Illustrator 16.0.3, SVG Export Plug-In . SVG Version: 6.00 Build 0)  -->
<!DOCTYPE svg PUBLIC "-//W3C//DTD SVG 1.1 Tiny//EN" "http://www.w3.org/Graphics/SVG/1.1/DTD/svg11-tiny.dtd">
<svg version="1.1" baseProfile="tiny" id="Layer_1" xmlns="http://www.w3.org/2000/svg" xmlns:xlink="http://www.w3.org/1999/xlink"
	 x="0px" y="0px"  viewBox="0 0 1000 1000" xml:space="preserve">
<g>
	<path display="none" fill-rule="evenodd" fill="#FFFFFF" d="M502.389,1002.389c-163.477,0-326.953-0.078-490.43,0.231
		c-8.192,0.015-9.803-1.61-9.796-9.801c0.267-326.953,0.267-653.907,0-980.861c-0.007-8.19,1.604-9.803,9.796-9.797
		c326.953,0.268,653.906,0.268,980.86,0.001c8.19-0.007,9.804,1.604,9.798,9.796c-0.268,326.953-0.268,653.906-0.001,980.86
		c0.007,8.189-1.602,9.816-9.796,9.802C829.343,1002.311,665.866,1002.389,502.389,1002.389z M499.833,265.968
		c0-0.135,0-0.272,0-0.409c128.32,0,256.642-0.015,384.964,0.034c9.189,0.003,18.274-0.509,27.316-2.303
		c29.699-5.891,42.979-23.565,40.01-53.508c-2.379-24.003-16.617-38.711-41.294-42.139c-7.07-0.982-14.275-1.377-21.417-1.378
		c-255.447-0.068-510.894-0.07-766.341,0.001c-8.34,0.002-16.725,0.455-25.011,1.391c-29.25,3.31-46.024,19.039-46.682,43.34
		c-0.811,29.97,13.325,47.783,43.326,53.15c9.713,1.738,19.818,1.742,29.745,1.751C249.577,266.006,374.704,265.968,499.833,265.968
		z M352.89,416.258c0-0.135,0-0.271,0.001-0.406c-78.932,0-157.863,0.013-236.795-0.014c-11.997-0.004-23.854,0.576-35.255,4.963
		c-19.884,7.651-29.068,22.696-28.622,47.304c0.411,22.655,10.283,37.155,29.866,43.973c12.639,4.4,25.731,4.715,38.917,4.698
		c134.347-0.172,268.695-0.283,403.043-0.404c24.318-0.021,48.64,0.218,72.956-0.063c26.989-0.313,46.025-11.358,51.275-30.979
		c8.837-33.028,0.565-68.237-49.041-68.813C517.131,415.563,435.006,416.258,352.89,416.258z M202.043,765.959
		c0-0.128,0-0.256,0-0.384c34.25,0,68.515,0.617,102.747-0.187c29.582-0.696,46.376-18.754,46.506-47.787
		c0.131-29.41-17.287-49.776-46.044-50.107c-69.295-0.794-138.612-0.823-207.906,0.024c-28.007,0.343-44.728,19.755-45.126,48.262
		c-0.404,29.006,15.181,46.874,43.492,49.64c5.14,0.503,10.34,0.51,15.514,0.517C141.498,765.982,171.77,765.959,202.043,765.959z"
		/>
	<g>
		<path fill-rule="evenodd" fill="#0A0A0A" d="M499.833,299.879c-125.129,0-250.256,0.038-375.383-0.07
			c-9.927-0.009-20.032-0.013-29.745-1.751c-30.001-5.368-44.137-23.181-43.326-53.15c0.658-24.302,17.432-40.031,46.682-43.34
			c8.286-0.937,16.67-1.389,25.011-1.391c255.447-0.071,510.894-0.069,766.341-0.001c7.142,0.001,14.347,0.396,21.417,1.378
			c24.677,3.428,38.915,18.136,41.294,42.139c2.969,29.943-10.311,47.617-40.01,53.508c-9.042,1.794-18.127,2.307-27.316,2.303
			c-128.322-0.049-256.644-0.034-384.964-0.034C499.833,299.607,499.833,299.744,499.833,299.879z"/>
		<path fill-rule="evenodd" fill="#090909" d="M352.032,450.169c82.116,0,164.241-0.695,246.346,0.259
			c49.606,0.576,57.878,35.785,49.041,68.813c-5.25,19.619-24.286,30.664-51.275,30.979c-24.316,0.279-48.638,0.041-72.956,0.063
			c-134.349,0.121-268.696,0.232-403.043,0.404c-13.186,0.016-26.278-0.299-38.917-4.699c-19.583-6.818-29.455-21.318-29.866-43.973
			c-0.446-24.607,8.737-39.652,28.622-47.303c11.401-4.387,23.259-4.968,35.255-4.963c78.932,0.027,157.863,0.014,236.795,0.014
			C352.032,449.898,352.032,450.034,352.032,450.169z"/>
		<path fill-rule="evenodd" fill="#090909" d="M201.177,799.869c-30.273,0-60.545,0.023-90.817-0.021
			c-5.174-0.008-10.375-0.014-15.514-0.518c-28.311-2.766-43.896-20.633-43.492-49.639c0.398-28.508,17.119-47.92,45.126-48.262
			c69.294-0.848,138.61-0.818,207.905-0.025c28.758,0.332,46.176,20.697,46.045,50.107c-0.13,29.033-16.924,47.092-46.506,47.787
			c-34.232,0.805-68.497,0.188-102.747,0.188C201.177,799.613,201.177,799.742,201.177,799.869z"/>
	</g>
</g>
</svg>
