<?xml version="1.0" encoding="utf-8"?>
<!-- Generator: Adobe Illustrator 16.0.3, SVG Export Plug-In . SVG Version: 6.00 Build 0)  -->
<!DOCTYPE svg PUBLIC "-//W3C//DTD SVG 1.1 Tiny//EN" "http://www.w3.org/Graphics/SVG/1.1/DTD/svg11-tiny.dtd">
<svg version="1.1" baseProfile="tiny" id="Layer_1" xmlns="http://www.w3.org/2000/svg" xmlns:xlink="http://www.w3.org/1999/xlink"
	 x="0px" y="0px"  viewBox="0 0 1000 1000" xml:space="preserve">
<g>
	<path display="none" fill-rule="evenodd" fill="#FFFEFF" d="M2.39,503.045c0-163.256,0.059-326.514-0.187-489.771
		C2.192,5.695,2.912,3.17,11.666,3.178c326.912,0.307,653.824,0.29,980.736,0.069c7.508-0.005,9.129,1.749,9.124,9.167
		c-0.213,326.912-0.203,653.824-0.051,980.736c0.004,6.796-0.656,9.479-8.813,9.473c-327.31-0.274-654.62-0.264-981.929-0.035
		c-7.177,0.005-8.546-1.506-8.536-8.579C2.447,830.354,2.39,666.7,2.39,503.045z M682.535,292.487
		c1.515-0.935,2.947-1.49,3.946-2.483c17.511-17.411,34.885-34.959,52.5-52.264c4.196-4.123,4.633-8.931,4.629-14.198
		c-0.032-52.168,0.202-104.338-0.128-156.504c-0.176-27.789-10.783-37.662-38.864-37.665c-211.094-0.01-422.188-0.012-633.281,0.001
		c-27.834,0.001-38.065,9.8-39.383,37.624c-0.15,3.179-0.038,6.371-0.038,9.558c-0.001,283.581-0.001,567.164,0.004,850.746
		c0,3.982-0.182,7.983,0.133,11.943c2.147,26.918,12.575,36.521,39.668,36.521c211.091,0.014,422.184,0.016,633.276-0.002
		c27.246-0.004,38.249-11.119,38.251-38.5c0.011-107.538,0.005-215.076,0.005-322.614c0-3.818,0-7.637,0-14.779
		c-18.947,18.956-35.417,35.998-52.568,52.326c-7.199,6.854-10.187,14.044-10.136,24.068c0.369,73.283,0.202,146.569,0.196,219.854
		c-0.001,16.284-0.014,16.3-16.379,16.3c-184.009,0.003-368.019,0.003-552.028,0.001c-17.248,0-17.228-0.008-16.788-17.906
		c0.107-4.379,0.056-8.763,0.055-13.143c-0.111-258.089-0.158-516.178-0.552-774.265c-0.019-11.7,2.812-15.55,15.242-15.522
		c185.203,0.417,370.409,0.416,555.611,0.003c12.534-0.028,15.211,3.925,15.096,15.645c-0.563,56.95-0.289,113.908-0.188,170.863
		C680.822,282.649,679.565,287.476,682.535,292.487z M970.218,266.007c0.256-34.368-16.135-60.596-39.396-70.52
		c-25.609-10.927-55.314-5.336-76.011,15.324C737.067,328.343,619.477,446.029,501.864,563.693
		c-8.875,8.878-15.227,19.521-18.904,31.419c-9.498,30.729-18.675,61.561-27.654,92.446c-4.024,13.844,3.138,20.826,17.199,16.763
		c30.514-8.816,60.953-17.896,91.346-27.12c13.16-3.993,24.712-11.173,34.386-20.834c118-117.835,235.916-235.754,353.773-353.731
		C964.053,290.582,969.892,275.657,970.218,266.007z M388.307,292.879c-64.064,0-128.129,0.001-192.193-0.001
		c-5.571,0-11.094-0.016-16.514,1.804c-10.828,3.637-16.23,11.732-16.536,22.417c-0.312,10.881,5.279,19.002,15.898,22.79
		c5.269,1.879,10.8,2.32,16.44,2.316c128.527-0.068,257.054-0.066,385.581-0.005c5.628,0.002,11.215-0.188,16.444-2.221
		c8.896-3.456,14.113-9.753,14.729-19.713c1.072-17.386-8.658-27.297-28.074-27.336C518.824,292.8,453.566,292.881,388.307,292.879z
		 M388.231,214.017c39.792,0,79.583,0.005,119.374-0.001c27.059-0.005,54.119,0.183,81.174-0.128
		c13.301-0.154,22.295-8.656,23.252-20.777c1.119-14.176-6.096-24.043-19.848-26.586c-3.869-0.715-7.928-0.557-11.899-0.558
		c-128.129-0.024-256.257-0.024-384.387-0.001c-3.974,0.001-8.011-0.112-11.907,0.521c-8.818,1.432-15.417,6.131-18.931,14.562
		c-7.253,17.408,4.205,32.837,25.011,32.894C256.123,214.124,322.177,214.01,388.231,214.017z M553.038,421.371
		c-2.256-2.521-5.238-1.401-7.833-1.402c-117.819-0.066-235.638-0.092-353.456-0.02c-17.521,0.012-28.934,10.116-28.924,24.973
		c0.008,14.41,11.649,24.203,29.625,24.218c101.499,0.09,202.999,0.035,304.498,0.075c4.448,0.001,9.401,0.385,12.536-2.767
		C524.199,451.651,538.526,436.466,553.038,421.371z M305.369,548.048c-38.569,0-77.137-0.056-115.705,0.026
		c-15.986,0.033-26.196,8.769-26.799,22.557c-0.605,13.85,10.397,25.056,25.998,25.119c72.759,0.297,145.52,0.159,218.279,0.524
		c8.123,0.04,11.163-3.691,13.186-10.578c2.455-8.352,5.287-16.639,8.626-24.675c5.412-13.032,5.642-12.964-9.075-12.97
		C381.709,548.036,343.539,548.046,305.369,548.048z M286.877,722.778c32.235,0,64.472-0.26,96.701,0.161
		c9.464,0.124,14.712-0.725,9.849-12.028c-3.375-7.839-2.385-16.615-1.439-24.798c1.078-9.319-2.113-11.365-10.968-11.315
		c-63.273,0.347-126.549,0.169-189.825,0.194c-16.556,0.007-28.292,9.992-28.32,23.939c-0.028,13.848,11.759,23.797,28.491,23.828
		C223.203,722.822,255.04,722.778,286.877,722.778z"/>
	<path fill-rule="evenodd" fill="#7C409B" d="M682.535,292.487c-2.97-5.012-1.713-9.838-1.721-14.39
		c-0.102-56.955-0.375-113.913,0.188-170.863c0.115-11.72-2.562-15.673-15.096-15.645c-185.203,0.412-370.408,0.413-555.611-0.003
		c-12.43-0.028-15.261,3.822-15.242,15.522c0.394,258.087,0.441,516.176,0.552,774.265c0.001,4.38,0.053,8.764-0.055,13.143
		c-0.44,17.898-0.46,17.906,16.788,17.906c184.01,0.002,368.019,0.002,552.028-0.001c16.365,0,16.378-0.016,16.379-16.3
		c0.006-73.285,0.173-146.571-0.196-219.854c-0.051-10.024,2.937-17.214,10.136-24.068c17.151-16.328,33.621-33.37,52.568-52.326
		c0,7.143,0,10.961,0,14.779c0,107.538,0.006,215.076-0.005,322.614c-0.002,27.381-11.005,38.496-38.251,38.5
		c-211.092,0.018-422.185,0.016-633.276,0.002c-27.093-0.001-37.521-9.604-39.668-36.521c-0.315-3.96-0.133-7.961-0.133-11.943
		c-0.005-283.582-0.005-567.165-0.004-850.746c0-3.187-0.113-6.379,0.038-9.558c1.318-27.824,11.549-37.623,39.383-37.624
		c211.093-0.013,422.187-0.012,633.281-0.001c28.081,0.002,38.688,9.876,38.864,37.665c0.33,52.166,0.096,104.336,0.128,156.504
		c0.004,5.267-0.433,10.075-4.629,14.198c-17.615,17.304-34.989,34.853-52.5,52.264C685.482,290.998,684.05,291.553,682.535,292.487
		z"/>
	<path fill-rule="evenodd" fill="#A35FAC" d="M970.218,266.007c-0.326,9.65-6.165,24.575-18.207,36.629
		C834.153,420.613,716.237,538.532,598.237,656.367c-9.674,9.661-21.226,16.841-34.386,20.834
		c-30.393,9.224-60.832,18.304-91.346,27.12c-14.061,4.063-21.224-2.919-17.199-16.763c8.979-30.886,18.156-61.717,27.654-92.446
		c3.677-11.897,10.029-22.541,18.904-31.419c117.612-117.665,235.203-235.35,352.947-352.883
		c20.696-20.66,50.401-26.251,76.011-15.324C954.083,205.411,970.474,231.639,970.218,266.007z"/>
	<path fill-rule="evenodd" fill="#A35FAC" d="M388.307,292.881c65.259,0,130.517-0.081,195.775,0.049
		c19.416,0.04,29.146,9.95,28.074,27.336c-0.615,9.96-5.833,16.257-14.729,19.713c-5.229,2.033-10.816,2.223-16.444,2.221
		c-128.527-0.062-257.054-0.063-385.581,0.005c-5.641,0.003-11.172-0.438-16.44-2.316c-10.619-3.788-16.209-11.908-15.898-22.79
		c0.306-10.685,5.708-18.779,16.536-22.417c5.42-1.82,10.943-1.804,16.514-1.804C260.178,292.881,324.243,292.879,388.307,292.881z"
		/>
	<path fill-rule="evenodd" fill="#A35FAC" d="M388.231,214.014c-66.054-0.003-132.108,0.11-198.162-0.07
		c-20.806-0.057-32.264-15.486-25.011-32.894c3.514-8.431,10.113-13.13,18.931-14.562c3.896-0.634,7.934-0.521,11.907-0.521
		c128.129-0.023,256.257-0.023,384.387,0.001c3.972,0.001,8.03-0.158,11.899,0.558c13.752,2.543,20.967,12.41,19.848,26.586
		c-0.957,12.121-9.951,20.623-23.252,20.777c-27.055,0.312-54.115,0.124-81.174,0.128
		C467.815,214.022,428.023,214.017,388.231,214.014z"/>
	<path fill-rule="evenodd" fill="#A35FAC" d="M553.038,421.371c-14.512,15.095-28.839,30.28-43.556,45.077
		c-3.135,3.152-8.088,2.768-12.536,2.767c-101.499-0.04-202.999,0.015-304.498-0.075c-17.975-0.015-29.616-9.808-29.625-24.218
		c-0.009-14.857,11.403-24.961,28.924-24.973c117.818-0.072,235.637-0.046,353.456,0.02
		C547.8,419.969,550.782,418.849,553.038,421.371z"/>
	<path fill-rule="evenodd" fill="#A35FAC" d="M305.369,548.048c38.169-0.002,76.34-0.012,114.51,0.004
		c14.717,0.006,14.487-0.063,9.075,12.97c-3.339,8.036-6.171,16.323-8.626,24.675c-2.023,6.887-5.063,10.618-13.186,10.578
		c-72.76-0.365-145.52-0.228-218.279-0.524c-15.601-0.063-26.604-11.27-25.998-25.119c0.604-13.788,10.813-22.523,26.799-22.557
		C228.232,547.992,266.8,548.048,305.369,548.048z"/>
	<path fill-rule="evenodd" fill="#A35FAC" d="M286.877,722.778c-31.837,0-63.674,0.044-95.511-0.019
		c-16.732-0.031-28.52-9.98-28.491-23.828c0.028-13.947,11.764-23.933,28.32-23.939c63.276-0.025,126.552,0.152,189.825-0.194
		c8.854-0.05,12.046,1.996,10.968,11.315c-0.946,8.183-1.936,16.959,1.439,24.798c4.863,11.304-0.385,12.152-9.849,12.028
		C351.349,722.519,319.112,722.778,286.877,722.778z"/>
</g>
</svg>
