<?xml version="1.0" encoding="utf-8"?>
<!-- Generator: Adobe Illustrator 16.0.3, SVG Export Plug-In . SVG Version: 6.00 Build 0)  -->
<!DOCTYPE svg PUBLIC "-//W3C//DTD SVG 1.1 Tiny//EN" "http://www.w3.org/Graphics/SVG/1.1/DTD/svg11-tiny.dtd">
<svg version="1.1" baseProfile="tiny" id="Layer_1" xmlns="http://www.w3.org/2000/svg" xmlns:xlink="http://www.w3.org/1999/xlink"
	 x="0px" y="0px"  viewBox="0 0 1000 1000" xml:space="preserve">
<g>
	<path display="none" fill-rule="evenodd" fill="#FEFEFE" d="M501.091,1002.389c-163.028,0-326.059-0.075-489.087,0.223
		c-8.085,0.016-9.854-1.454-9.849-9.741c0.274-326.855,0.29-653.712-0.05-980.567C2.095,2.977,4.874,2.211,12.804,2.216
		c326.458,0.202,652.915,0.213,979.372-0.049c8.494-0.007,10.463,1.582,10.456,10.339c-0.288,326.457-0.296,652.914,0.019,979.372
		c0.009,9.53-2.773,10.723-11.275,10.709C827.947,1002.318,664.519,1002.389,501.091,1002.389z M27.439,803.687
		c0.198,2.766,0.565,7.527,0.875,12.292c5.663,87.34,81.929,159.233,169.459,159.736c92.208,0.53,163.829-62.039,176.829-154.484
		c-5.854-33.017,13.809-53.208,36.165-72.085c2.427-2.05,4.876-4.233,6.724-6.783c5.141-7.094,8.935-5.572,14.645,0.185
		c53.895,54.349,108.005,108.486,162.385,162.348c6.407,6.347,7.518,9.89,0.277,16.472c-10.658,9.692-10.054,18.216-0.006,28.514
		c5.008,5.133,9.94,10.339,14.966,15.453c9.624,9.792,19.729,11.386,27.102,4.336c7.336-7.016,6.414-17.536-3.779-26.724
		c-6.445-5.809-5.536-8.938,0.212-14.657c77.147-76.761,154.08-153.736,230.862-230.861c5.33-5.354,8.313-5.768,13.795-0.12
		c22.207,22.876,44.924,45.262,67.495,67.785c3.06,3.054,5.745,6.721,10.436,7.556c7.773,1.385,14.484-0.239,18.338-7.698
		c3.95-7.647,2.241-14.491-3.841-20.549c-27.4-27.285-54.725-54.643-82.078-81.975c-14.029-14.021-19.587-14.475-33.697-0.983
		c-5.05,4.827-7.267,3.766-10.82-1.189c-8.86-12.355-16.311-25.345-21.115-39.847c-10.01-30.215-10.631-61.881-13.76-93.04
		c-4.544-45.276-9.982-89.708-45.009-123.676c-2.04-1.978-3.896-3.892-0.843-6.819c11.25-10.792,20.229-22.029,39.634-21.846
		c118.396,1.118,202.264-117.297,163.58-229.243c-7.013-20.293-19.034-23.227-34.173-8.156
		c-28.25,28.126-56.547,56.21-84.459,84.671c-5.319,5.425-10.031,7.298-17.678,5.706c-12.826-2.67-25.941-4.183-39.008-5.365
		c-6.263-0.566-9.126-2.694-9.873-9.031c-1.584-13.436-3.431-26.86-5.813-40.173c-1.408-7.871,1.037-13.171,6.7-18.722
		c28.466-27.903,56.51-56.239,84.659-84.463c13.787-13.823,11.294-25.786-6.871-32.111c-40.686-14.167-81.29-13.71-121.494,1.799
		c-66.688,25.725-110.245,89.571-110.395,161.097c-0.017,8.155,1.53,16.448-5.665,23.42c-19.753,19.136-39.203,38.599-58.304,58.385
		c-4.871,5.046-7.23,3.317-11.053-0.623c-11.659-12.015-23.59-23.766-35.457-35.577c-38.918-38.729-95.99-23.784-109.876,28.992
		c-1.35,5.131-2.124,6.995-8.055,6.462c-48.575-4.368-81.917,35.478-68.153,81.677c2.031,6.821,0.911,8.288-5.451,10.486
		c-28.967,10.015-45.084,35.584-41.68,65.86c0.761,6.765-0.207,8.953-7.527,10.632c-37.015,8.486-57.644,45.227-46.323,80.829
		c5.2,16.35,17.134,27.717,29.395,38.43c7.793,6.809,7.062,10.869-0.229,17.269c-10.165,8.921-19.86,18.527-28.73,28.732
		c-8.023,9.229-17.092,12.2-29.235,12.161C105.168,627.859,27.471,705.614,27.439,803.687z"/>
	<path fill-rule="evenodd" fill="#0C0C0C" d="M27.439,803.687c0.032-98.072,77.729-175.827,174.083-175.517
		c12.143,0.039,21.212-2.933,29.235-12.161c8.87-10.205,18.565-19.812,28.73-28.732c7.291-6.399,8.022-10.46,0.229-17.269
		c-12.261-10.713-24.195-22.08-29.395-38.43c-11.321-35.603,9.308-72.343,46.323-80.829c7.321-1.68,8.288-3.868,7.527-10.632
		c-3.404-30.276,12.713-55.845,41.68-65.86c6.362-2.198,7.482-3.666,5.451-10.486c-13.764-46.2,19.578-86.045,68.153-81.677
		c5.932,0.533,6.705-1.331,8.055-6.462c13.887-52.776,70.958-67.722,109.876-28.992c11.867,11.811,23.798,23.562,35.457,35.577
		c3.822,3.94,6.182,5.669,11.053,0.623c19.101-19.786,38.551-39.249,58.304-58.385c7.195-6.972,5.648-15.265,5.665-23.42
		c0.149-71.525,43.707-135.372,110.395-161.097c40.204-15.509,80.809-15.966,121.494-1.799c18.165,6.325,20.658,18.288,6.871,32.111
		c-28.149,28.225-56.193,56.56-84.659,84.463c-5.663,5.551-8.108,10.851-6.7,18.722c2.382,13.313,4.229,26.737,5.813,40.173
		c0.747,6.337,3.61,8.464,9.873,9.031c13.066,1.182,26.182,2.695,39.008,5.365c7.646,1.592,12.358-0.281,17.678-5.706
		c27.912-28.461,56.209-56.545,84.459-84.671c15.139-15.071,27.16-12.137,34.173,8.156
		c38.684,111.946-45.185,230.361-163.58,229.243c-19.404-0.183-28.384,11.054-39.634,21.846c-3.054,2.927-1.197,4.842,0.843,6.819
		c35.026,33.967,40.465,78.399,45.009,123.676c3.129,31.159,3.75,62.825,13.76,93.04c4.805,14.502,12.255,27.491,21.115,39.847
		c3.554,4.955,5.771,6.017,10.82,1.189c14.11-13.491,19.668-13.037,33.697,0.983c27.354,27.332,54.678,54.689,82.078,81.975
		c6.082,6.058,7.791,12.901,3.841,20.549c-3.854,7.459-10.564,9.083-18.338,7.698c-4.69-0.835-7.376-4.502-10.436-7.556
		c-22.571-22.523-45.288-44.909-67.495-67.785c-5.482-5.647-8.465-5.234-13.795,0.12
		c-76.782,77.125-153.715,154.101-230.862,230.861c-5.748,5.719-6.657,8.849-0.212,14.657c10.193,9.188,11.115,19.708,3.779,26.724
		c-7.372,7.05-17.478,5.456-27.102-4.336c-5.025-5.114-9.958-10.32-14.966-15.453c-10.048-10.298-10.652-18.821,0.006-28.514
		c7.24-6.582,6.13-10.125-0.277-16.472c-54.38-53.861-108.49-107.999-162.385-162.348c-5.71-5.757-9.504-7.278-14.645-0.185
		c-1.848,2.55-4.296,4.733-6.724,6.783c-22.356,18.877-42.018,39.068-36.165,72.085c-13,92.445-84.621,155.015-176.829,154.484
		c-87.531-0.503-163.796-72.396-169.459-159.736C28.005,811.214,27.637,806.452,27.439,803.687z M625.514,890.308
		c65.691-65.714,130.706-130.924,196.047-195.806c5.547-5.508,1.836-7.911-1.037-11.521c-18.721-23.538-31.066-50.141-35.415-79.82
		c-4.214-28.745-7.328-57.688-9.854-86.637c-2.858-32.738-8.915-64.032-33.077-88.567c-23.218-23.576-46.569-47.025-70.204-70.182
		c-15.374-15.061-33.038-14.669-48.436,0.595c-24.063,23.858-47.99,47.854-71.907,71.86c-12.118,12.163-11.175,21.301,2.976,31.002
		c18.787,12.881,40.401,10.442,61.045-6.886c20.295-17.036,49.351-15.959,67.048,2.484c17.848,18.599,17.238,47.13-1.478,66.755
		c-3.85,4.038-7.991,7.802-11.806,11.871c-29.574,31.552-28.974,79.039,1.319,109.876c4.186,4.262,8.867,8.195,12.285,13.014
		c5.29,7.458,4.562,15.245-2.223,21.544c-6.453,5.991-14.127,6.117-20.639,0.557c-26.522-22.646-43.698-50.474-44.897-86.261
		c-1.192-35.637,12.835-64.889,38.432-89.172c10.415-9.88,12.063-18.658,5.717-25.661c-6.85-7.559-14.599-6.633-25.898,2.725
		c-19.833,16.425-42.957,25.013-67.698,17.363c-19.321-5.974-35.391-8.25-52.89,4.542c-5.977,4.367-7.438,5.735-5.376,12.478
		c10.689,34.957-10.014,70.729-45.759,78.989c-6.214,1.437-8.277,2.697-7.728,9.798c2.309,29.859-11.544,53.523-36.81,64.89
		c-25.132,11.307-51.88,5.724-73.157-15.389c-14.998-14.885-30.185-29.595-44.692-44.945c-6.033-6.386-9.859-7.953-16.392-0.41
		c-9.113,10.521-20.009,19.48-29.305,29.857c-13.693,15.286-29.894,22.576-50.731,21.246c-24.402-1.558-47.18,5.337-68.695,16.68
		C73.305,709.32,44.741,783.3,67.979,849.014c23.223,65.67,92.097,105.286,159.624,91.812
		c68.842-13.736,116.032-70.646,115.354-140.784c-0.195-20.237,6.338-35.539,20.727-49.706
		c61.074-60.138,121.415-121.019,182.024-181.628c14.94-14.94,29.777-29.986,44.868-44.774c7.822-7.665,17.807-7.899,24.385-1.143
		c6.356,6.529,5.908,15.595-1.229,23.402c-1.882,2.058-3.934,3.958-5.907,5.931c-50.745,50.739-101.379,101.591-152.374,152.076
		c-6.299,6.238-7.403,9.538-0.392,16.383c40.214,39.263,79.888,79.077,119.695,118.756
		C591.636,856.165,608.398,873.114,625.514,890.308z M828.835,63.919c-88.681-18.688-171.939,52.748-168.555,142.147
		c0.665,17.591-4.825,31.729-17.333,43.854c-16.308,15.81-32.186,32.063-48.245,48.127c-13.034,13.036-12.861,12.872,0.375,26.462
		c5.206,5.345,8.301,7.804,16.182,2.051c25.063-18.295,59.813-14.717,82.076,6.979c10.56,10.29,20.871,20.834,31.296,31.262
		c12.492,12.493,13.165,13.082,24.455,0.214c14.253-16.244,31.305-21.976,52.762-22.15c58.787-0.475,101.351-28.708,127.597-80.866
		c13.379-26.586,16.63-55.068,10.956-85.967c-3.942,3.686-6.858,6.26-9.605,9.003c-23.125,23.089-46.275,46.154-69.279,69.364
		c-5.279,5.328-10.807,9.382-18.793,8.199c-25.186-3.731-50.358-7.56-75.568-11.117c-8.711-1.229-13.933-6.035-15.18-14.39
		c-3.759-25.182-7.078-50.429-10.643-75.639c-1.104-7.805,1.83-13.54,7.429-19.013c21.083-20.615,41.743-41.664,62.662-62.45
		C816.677,74.767,822.305,69.922,828.835,63.919z M444.413,565.004c15.067,0.26,24.9-5.723,30.701-17.349
		c6.124-12.273,4.488-24.627-4.983-34.269c-34.028-34.64-68.257-69.098-103.123-102.89c-12.763-12.369-30.983-10.638-42.761,1.791
		c-11.771,12.421-11.944,30.253,0.454,42.863c32.926,33.493,66.14,66.703,99.308,99.956
		C430.078,561.192,437.172,565.365,444.413,565.004z M422.209,609.639c0.123-7.409-4.341-15.083-11.064-21.797
		c-32.104-32.063-64.082-64.255-96.294-96.209c-14.591-14.474-33.484-14.762-46.439-1.254
		c-12.584,13.119-11.524,31.015,2.845,45.435c23.318,23.401,46.715,46.724,70.074,70.082c10.122,10.122,19.81,20.731,30.478,30.24
		c9.808,8.741,21.567,9.898,33.327,3.828C416.272,634.213,422.209,624.836,422.209,609.639z M493.061,475.747
		c6.24-0.301,13.258-2.644,19.205-7.774c5.606-4.836-0.23-9.536-0.384-14.299c-0.229-7.169-1.653-14.619,1.082-21.293
		c2.882-7.031,0.003-10.902-4.618-15.445c-31.237-30.709-62.246-61.651-93.395-92.45c-14.239-14.08-32.526-14.793-45.653-1.976
		c-12.507,12.215-12.525,31.086,0.945,44.749c32.437,32.898,65.26,65.417,97.929,98.087
		C474.62,471.795,482.284,475.497,493.061,475.747z M438.144,286.95c0.007,8.955,2.266,16.33,7.678,21.819
		c28.518,28.925,57.361,57.527,86.013,86.32c2.933,2.946,4.97,4.185,8.543,0.469c11.593-12.052,23.47-23.833,35.427-35.525
		c3.161-3.091,3.79-5.102,0.271-8.581c-28.881-28.563-57.37-57.525-86.447-85.885c-9.448-9.213-21.415-9.924-33.369-4.787
		C444.456,265.853,439.313,275.692,438.144,286.95z"/>
	<path fill-rule="evenodd" fill="#FDFDFD" d="M625.514,890.308c-17.115-17.193-33.878-34.143-50.762-50.97
		c-39.807-39.679-79.481-79.493-119.695-118.756c-7.011-6.845-5.907-10.145,0.392-16.383
		c50.995-50.485,101.629-101.337,152.374-152.076c1.974-1.973,4.025-3.873,5.907-5.931c7.138-7.808,7.586-16.873,1.229-23.402
		c-6.578-6.757-16.563-6.522-24.385,1.143c-15.091,14.788-29.928,29.834-44.868,44.774
		c-60.609,60.609-120.95,121.49-182.024,181.628c-14.388,14.167-20.921,29.469-20.727,49.706
		c0.678,70.138-46.513,127.048-115.354,140.784C160.076,954.3,91.201,914.684,67.979,849.014
		c-23.238-65.714,5.327-139.693,66.3-171.837c21.515-11.343,44.292-18.237,68.695-16.68c20.837,1.33,37.038-5.96,50.731-21.246
		c9.296-10.377,20.192-19.337,29.305-29.857c6.533-7.543,10.359-5.976,16.392,0.41c14.507,15.351,29.694,30.061,44.692,44.945
		c21.276,21.112,48.024,26.695,73.157,15.389c25.266-11.366,39.119-35.03,36.81-64.89c-0.549-7.101,1.514-8.361,7.728-9.798
		c35.745-8.261,56.449-44.032,45.759-78.989c-2.062-6.742-0.601-8.11,5.376-12.478c17.499-12.792,33.568-10.516,52.89-4.542
		c24.741,7.649,47.865-0.938,67.698-17.363c11.3-9.358,19.049-10.284,25.898-2.725c6.347,7.003,4.698,15.78-5.717,25.661
		c-25.597,24.283-39.624,53.535-38.432,89.172c1.199,35.787,18.375,63.615,44.897,86.261c6.512,5.561,14.186,5.435,20.639-0.557
		c6.784-6.299,7.513-14.086,2.223-21.544c-3.418-4.818-8.1-8.752-12.285-13.014c-30.293-30.837-30.894-78.324-1.319-109.876
		c3.814-4.069,7.956-7.833,11.806-11.871c18.716-19.625,19.325-48.156,1.478-66.755c-17.697-18.443-46.753-19.521-67.048-2.484
		c-20.644,17.328-42.258,19.767-61.045,6.886c-14.15-9.702-15.094-18.84-2.976-31.002c23.917-24.006,47.844-48.002,71.907-71.86
		c15.397-15.264,33.062-15.655,48.436-0.595c23.635,23.156,46.986,46.605,70.204,70.182c24.162,24.536,30.219,55.829,33.077,88.567
		c2.526,28.948,5.641,57.892,9.854,86.637c4.349,29.68,16.694,56.282,35.415,79.82c2.873,3.61,6.584,6.014,1.037,11.521
		C756.22,759.384,691.205,824.594,625.514,890.308z M179.464,697.917c-7.323-0.955-12.035,3.373-16.596,7.97
		c-19.633,19.796-39.107,39.752-58.966,59.318c-5.858,5.772-7.33,12.133-5.349,19.523c7.509,28.011,15.344,55.935,22.717,83.979
		c1.959,7.455,6.462,11.752,13.451,13.628c28.01,7.519,56.096,14.748,84.08,22.361c8.261,2.246,14.513,0.06,20.38-5.9
		c19.845-20.154,39.843-40.158,59.964-60.035c5.988-5.917,7.73-12.021,5.356-20.401c-7.689-27.134-14.976-54.39-21.813-81.75
		c-2.353-9.417-7.855-13.945-16.751-16.249c-26.147-6.771-52.205-13.895-78.311-20.83
		C184.951,698.82,182.188,698.446,179.464,697.917z"/>
	<path fill-rule="evenodd" fill="#FDFDFD" d="M828.835,63.919c-6.53,6.003-12.158,10.847-17.412,16.069
		c-20.919,20.786-41.579,41.834-62.662,62.45c-5.599,5.473-8.532,11.208-7.429,19.013c3.564,25.21,6.884,50.458,10.643,75.639
		c1.247,8.355,6.469,13.161,15.18,14.39c25.21,3.557,50.383,7.386,75.568,11.117c7.986,1.183,13.514-2.871,18.793-8.199
		c23.004-23.209,46.154-46.274,69.279-69.364c2.747-2.743,5.663-5.317,9.605-9.003c5.674,30.898,2.423,59.381-10.956,85.967
		c-26.246,52.158-68.81,80.391-127.597,80.866c-21.457,0.174-38.509,5.906-52.762,22.15c-11.29,12.868-11.963,12.279-24.455-0.214
		c-10.425-10.428-20.736-20.972-31.296-31.262c-22.264-21.696-57.013-25.273-82.076-6.979c-7.881,5.753-10.976,3.294-16.182-2.051
		c-13.236-13.59-13.409-13.426-0.375-26.462c16.06-16.064,31.938-32.318,48.245-48.127c12.508-12.125,17.998-26.263,17.333-43.854
		C656.896,116.667,740.154,45.231,828.835,63.919z"/>
	<path fill-rule="evenodd" fill="#FDFDFD" d="M444.413,565.004c-7.241,0.361-14.335-3.812-20.405-9.896
		c-33.168-33.253-66.382-66.463-99.308-99.956c-12.397-12.61-12.225-30.442-0.454-42.863c11.777-12.429,29.998-14.16,42.761-1.791
		c34.866,33.792,69.095,68.25,103.123,102.89c9.472,9.642,11.107,21.995,4.983,34.269
		C469.313,559.281,459.48,565.264,444.413,565.004z"/>
	<path fill-rule="evenodd" fill="#FDFDFD" d="M422.209,609.639c0,15.197-5.937,24.574-17.074,30.324
		c-11.759,6.07-23.519,4.913-33.327-3.828c-10.668-9.509-20.356-20.118-30.478-30.24c-23.359-23.358-46.756-46.681-70.074-70.082
		c-14.369-14.42-15.43-32.315-2.845-45.435c12.955-13.507,31.848-13.22,46.439,1.254c32.212,31.955,64.19,64.146,96.294,96.209
		C417.868,594.556,422.332,602.229,422.209,609.639z"/>
	<path fill-rule="evenodd" fill="#FDFDFD" d="M493.061,475.747c-10.777-0.25-18.441-3.952-24.889-10.4
		c-32.668-32.67-65.492-65.189-97.929-98.087c-13.47-13.663-13.452-32.534-0.945-44.749c13.126-12.818,31.414-12.104,45.653,1.976
		c31.148,30.799,62.158,61.741,93.395,92.45c4.621,4.543,7.5,8.414,4.618,15.445c-2.735,6.674-1.311,14.124-1.082,21.293
		c0.153,4.764,5.99,9.463,0.384,14.299C506.319,473.104,499.301,475.446,493.061,475.747z"/>
	<path fill-rule="evenodd" fill="#FDFDFD" d="M438.144,286.95c1.169-11.258,6.313-21.098,18.117-26.171
		c11.954-5.137,23.921-4.426,33.369,4.787c29.077,28.36,57.566,57.322,86.447,85.885c3.519,3.479,2.89,5.49-0.271,8.581
		c-11.957,11.692-23.834,23.474-35.427,35.525c-3.573,3.716-5.61,2.478-8.543-0.469c-28.652-28.793-57.496-57.395-86.013-86.32
		C440.41,303.28,438.15,295.905,438.144,286.95z"/>
	<path fill-rule="evenodd" fill="#0C0C0C" d="M179.464,697.917c2.723,0.529,5.487,0.903,8.163,1.614
		c26.105,6.936,52.163,14.059,78.311,20.83c8.896,2.304,14.398,6.832,16.751,16.249c6.837,27.36,14.124,54.616,21.813,81.75
		c2.375,8.38,0.632,14.484-5.356,20.401c-20.122,19.877-40.12,39.881-59.964,60.035c-5.867,5.96-12.119,8.146-20.38,5.9
		c-27.984-7.613-56.07-14.843-84.08-22.361c-6.989-1.876-11.492-6.173-13.451-13.628c-7.373-28.045-15.208-55.969-22.717-83.979
		c-1.981-7.391-0.509-13.751,5.349-19.523c19.859-19.566,39.333-39.522,58.966-59.318
		C167.429,701.29,172.141,696.962,179.464,697.917z M270.848,817.467c-5.773-21.441-11.472-42.902-17.388-64.303
		c-1.006-3.639-4.803-3.582-7.828-4.384c-18.399-4.876-36.915-9.38-55.104-14.947c-6.062-1.856-9.358-0.446-13.347,3.669
		c-13.009,13.422-26.112,26.775-39.707,39.596c-4.827,4.553-5.34,8.579-3.607,14.562c5.182,17.89,9.877,35.925,14.502,53.97
		c1.311,5.111,3.565,7.813,9.135,9.182c18.866,4.633,37.555,9.996,56.259,15.262c4.23,1.19,7.434,0.784,10.706-2.518
		c14.27-14.399,28.762-28.58,43.168-42.846C269.634,822.732,271.654,820.75,270.848,817.467z"/>
	<path fill-rule="evenodd" fill="#FDFDFD" d="M270.848,817.467c0.806,3.283-1.214,5.266-3.21,7.242
		c-14.407,14.266-28.898,28.446-43.168,42.846c-3.272,3.302-6.476,3.708-10.706,2.518c-18.704-5.266-37.393-10.629-56.259-15.262
		c-5.569-1.369-7.824-4.07-9.135-9.182c-4.625-18.045-9.32-36.08-14.502-53.97c-1.732-5.982-1.219-10.009,3.607-14.562
		c13.595-12.82,26.698-26.174,39.707-39.596c3.989-4.115,7.286-5.525,13.347-3.669c18.189,5.567,36.704,10.071,55.104,14.947
		c3.024,0.802,6.822,0.745,7.828,4.384C259.375,774.564,265.075,796.025,270.848,817.467z"/>
</g>
</svg>
