<?xml version="1.0" encoding="utf-8"?>
<!-- Generator: Adobe Illustrator 16.0.3, SVG Export Plug-In . SVG Version: 6.00 Build 0)  -->
<!DOCTYPE svg PUBLIC "-//W3C//DTD SVG 1.1 Tiny//EN" "http://www.w3.org/Graphics/SVG/1.1/DTD/svg11-tiny.dtd">
<svg version="1.1" baseProfile="tiny" id="Layer_1" xmlns="http://www.w3.org/2000/svg" xmlns:xlink="http://www.w3.org/1999/xlink"
	 x="0px" y="0px"  viewBox="0 0 1000 1000" xml:space="preserve">
<g>
	<path display="none" fill-rule="evenodd" fill="#F6F5F5" d="M2.39,555.021c0-35.886,0-71.771,0-107.656
		c4.225-0.468,4.484-3.457,4.83-6.879c5.185-51.414,19.549-100.437,41.25-147.058c32.64-70.12,78.704-129.985,139.214-178.794
		c69.586-56.13,148.068-91.362,236.301-105.689c6.739-1.094,16.374,2.782,20.988-6.555c37.479,0,74.96,0,112.439,0
		c0.404,3.375,2.455,4.496,5.69,4.782c40.2,3.544,78.597,14.407,116.303,28.335c56.603,20.911,107.262,51.946,152.104,91.853
		c52.525,46.743,94.781,101.587,123.901,166.106c19.72,43.693,32.851,89.132,40.429,136.47c1.276,7.975-3.452,18.646,6.549,24.606
		c0,31.1,0,62.201,0,93.301c-5.071,0.636-4.763,4.45-4.78,8.078c-0.064,14.346-3.429,28.27-6.161,42.182
		c-10.637,54.151-29.376,105.361-57.248,153.128c-30.081,51.56-67.832,96.738-113.769,134.781
		c-37.147,30.762-77.773,56.188-122.442,74.793c-45.98,19.15-93.509,32.326-143.266,36.788c-3.777,0.339-8.396-1.094-9.271,4.796
		c-29.506,0-59.011,0-88.517,0c-0.481-4.213-3.418-4.901-6.89-4.767c-14.021,0.544-27.671-2.795-41.126-5.525
		c-85.172-17.281-161.868-52.377-228.436-109.145c-52.733-44.969-95.347-97.826-125.919-159.802
		c-22.547-45.71-38.036-93.986-45.694-144.732C7.734,570.895,12.164,560.549,2.39,555.021z M441.787,591.489
		c73.542-14.433,145.642-28.625,217.764-42.712c27.147-5.302,38.467-28.903,24.974-52.915
		c-10.511-18.705-21.181-37.325-32.18-55.744c-2.947-4.937-4.679-9.016-0.003-13.561c25.485-24.77,22.74-49.931,1.078-75.39
		c-1.016-1.195-1.774-2.649-2.472-4.072c-2.766-5.649-7.134-8.081-13.487-7.547c-10.7,0.901-21.446,1.282-32.135,2.29
		c-6.572,0.621-10.715-1.105-14.172-7.417c-11.448-20.9-23.559-41.442-35.644-61.986c-14.878-25.29-42.256-26.617-60.518-3.319
		c-47.395,60.468-94.958,120.804-142.292,181.318c-3.546,4.533-7.629,7.934-12.501,10.735c-29.268,16.826-58.62,33.511-87.715,50.63
		c-35.338,20.793-49.662,61.986-34.807,98.89c15.058,37.408,54.643,57.419,94.665,46.795c7.813-2.074,10.134,0.296,13.445,6.155
		c16.617,29.398,33.559,58.615,50.557,87.797c13.874,23.815,40.589,31.554,63.534,18.647c22.33-12.56,29.088-40.418,15.488-64.26
		c-9.254-16.225-18.403-32.519-28.117-48.466c-3.551-5.83-4.419-9.265,2.96-12.449c6.513-2.81,12.279-7.302,18.63-10.554
		c9.676-4.954,10.62-11.948,5.634-20.705C450.566,606.788,446.629,599.943,441.787,591.489z M718.044,333.402
		c0.27-0.049,2.036,0.047,3.353-0.678c22.25-12.237,44.604-24.303,66.519-37.119c4.573-2.675,5.63-8.625,2.569-13.899
		c-3.226-5.562-8.633-8.177-14.167-5.23c-22.059,11.753-43.84,24.038-65.57,36.395c-4.583,2.605-6.09,7.488-4.596,12.499
		C707.628,330.322,711.193,333.386,718.044,333.402z M680.361,242.686c0.36-9.36-2.629-13.8-8.896-15.066
		c-6.276-1.268-11.32,1.817-13.097,7.71c-4.456,14.792-8.472,29.733-12.104,44.748c-1.626,6.723,1.816,11.866,8.367,13.791
		c6.206,1.825,11.493-0.917,13.346-6.963C672.732,271.382,676.777,255.642,680.361,242.686z M764.196,417.128
		c6.17-0.009,10.163-2.8,12.053-8.318c1.93-5.634,0.101-11.394-4.994-13.185c-16.038-5.64-32.442-10.353-49.281-13.047
		c-5.777-0.924-10.033,2.186-11.426,8.047c-1.33,5.599,0.173,11.278,5.634,13.012C732.02,408.664,748.169,412.703,764.196,417.128z"
		/>
	<path display="none" fill-rule="evenodd" fill="#FFFFFF" d="M545.452,1002.39c0.875-5.89,5.494-4.457,9.271-4.796
		c49.757-4.462,97.285-17.638,143.266-36.788c44.669-18.604,85.295-44.031,122.442-74.793
		c45.937-38.043,83.688-83.222,113.769-134.781c27.872-47.767,46.611-98.977,57.248-153.128c2.732-13.912,6.097-27.836,6.161-42.182
		c0.018-3.628-0.291-7.442,4.78-8.078c0,148.132-0.093,296.262,0.237,444.393c0.019,8.624-1.778,10.408-10.394,10.389
		C843.307,1002.297,694.379,1002.39,545.452,1002.39z"/>
	<path display="none" fill-rule="evenodd" fill="#FFFFFF" d="M2.39,555.021c9.773,5.527,5.344,15.873,6.479,23.397
		c7.658,50.746,23.146,99.022,45.694,144.732c30.573,61.976,73.186,114.833,125.919,159.802
		c66.568,56.768,143.264,91.863,228.436,109.145c13.456,2.73,27.105,6.069,41.126,5.525c3.472-0.135,6.409,0.554,6.89,4.767
		c-148.129,0-296.258-0.093-444.386,0.235c-8.607,0.02-10.417-1.753-10.398-10.386C2.484,846.5,2.39,700.76,2.39,555.021z"/>
	<path display="none" fill-rule="evenodd" fill="#FFFFFF" d="M1002.39,454.543c-10.001-5.96-5.272-16.631-6.549-24.606
		c-7.578-47.337-20.709-92.777-40.429-136.47c-29.12-64.52-71.376-119.364-123.901-166.106
		c-44.843-39.907-95.502-70.942-152.104-91.853C641.7,21.579,603.304,10.716,563.104,7.172c-3.235-0.286-5.286-1.408-5.69-4.782
		c145.136,0,290.271,0.087,435.407-0.231c8.193-0.019,9.819,1.607,9.801,9.801C1002.303,159.487,1002.39,307.015,1002.39,454.543z"
		/>
	<path display="none" fill-rule="evenodd" fill="#FFFFFF" d="M444.974,2.39c-4.614,9.337-14.249,5.461-20.988,6.555
		c-88.233,14.327-166.715,49.56-236.301,105.689c-60.51,48.809-106.574,108.674-139.214,178.794
		C26.769,340.05,12.405,389.073,7.22,440.487c-0.346,3.422-0.605,6.411-4.83,6.879c0-144.94,0.094-289.88-0.236-434.82
		C2.134,3.931,3.919,2.133,12.542,2.153C156.686,2.486,300.83,2.39,444.974,2.39z"/>
	<path fill-rule="evenodd" fill="#090909" d="M441.787,591.489c4.842,8.454,8.78,15.299,12.687,22.161
		c4.986,8.757,4.042,15.751-5.634,20.705c-6.351,3.252-12.117,7.744-18.63,10.554c-7.379,3.185-6.511,6.619-2.96,12.449
		c9.714,15.947,18.863,32.241,28.117,48.466c13.6,23.842,6.842,51.7-15.488,64.26c-22.944,12.906-49.66,5.168-63.534-18.647
		c-16.999-29.182-33.94-58.398-50.557-87.797c-3.312-5.859-5.633-8.229-13.445-6.155c-40.021,10.624-79.607-9.387-94.665-46.795
		c-14.855-36.903-0.531-78.097,34.807-98.89c29.096-17.12,58.448-33.804,87.715-50.63c4.873-2.801,8.955-6.202,12.501-10.735
		c47.334-60.514,94.897-120.851,142.292-181.318c18.262-23.298,45.64-21.971,60.518,3.319
		c12.085,20.544,24.195,41.085,35.644,61.986c3.457,6.312,7.6,8.037,14.172,7.417c10.688-1.008,21.435-1.389,32.135-2.29
		c6.354-0.534,10.722,1.898,13.487,7.547c0.697,1.423,1.456,2.877,2.472,4.072c21.662,25.459,24.407,50.62-1.078,75.39
		c-4.676,4.545-2.944,8.625,0.003,13.561c10.999,18.419,21.669,37.039,32.18,55.744c13.493,24.012,2.174,47.613-24.974,52.915
		C587.429,562.864,515.328,577.057,441.787,591.489z M433.011,569.604c2.712-0.469,4.288-0.707,5.849-1.016
		c59.266-11.715,118.487-23.655,177.84-34.915c8.563-1.625,8.614-3.72,4.787-10.308c-40.512-69.734-80.905-139.537-121.066-209.472
		c-3.419-5.954-5.129-7.69-10.032-1.399c-38.667,49.603-77.519,99.062-116.405,148.492c-3.011,3.829-3.936,6.729-1.098,11.538
		c17.961,30.444,35.504,61.135,53.111,91.789C427.876,567.589,429.594,570.625,433.011,569.604z M290.79,637.576
		c8.287-0.9,15.722-0.994,22.036-4.56c30.08-16.981,59.959-34.317,90.011-51.351c3.644-2.064,4.182-3.669,2.037-7.345
		c-17.01-29.146-33.889-58.368-50.609-87.681c-2.378-4.17-4.362-4.354-8.333-2.022c-28.757,16.889-58.065,32.877-86.365,50.493
		c-21.022,13.086-29.167,39.437-21.76,63.02C244.975,620.953,268.264,637.901,290.79,637.576z M667.209,513.301
		c-1.246-2.428-2.734-5.653-4.502-8.719c-41.898-72.645-83.814-145.28-125.794-217.878c-1.769-3.058-3.777-6.213-6.396-8.492
		c-4.7-4.09-9.732-2.867-13.904,1.106c-3.56,3.39-5.518,6.744-2.263,12.347c44.301,76.298,88.38,152.727,132.259,229.27
		c3.081,5.377,6.745,6.225,11.674,4.718C663.719,523.988,666.917,520.19,667.209,513.301z M439.83,730.381
		c-0.828-5.381-2.918-10.021-5.541-14.548c-14.928-25.763-29.764-51.577-44.595-77.396c-9.507-16.549-9.479-16.565-25.751-7.272
		c-22.533,12.868-22.572,12.891-9.962,34.796c14.456,25.114,28.819,50.284,43.574,75.222c5.545,9.37,13.949,14.146,25.171,10.968
		C433.645,749.058,438.579,741.005,439.83,730.381z M634.606,409.204c15.601-18.099,15.399-17.979,2.598-39.467
		c-7.517-12.618-17.751-3.274-28.972-6.387C618.027,380.379,626.271,394.711,634.606,409.204z M428.75,616.053
		c-3.456-4.795-4.382-12.065-10.635-15.451c-2.278-1.233-17.634,9.344-16.699,11.005c3.197,5.677,4.952,12.491,10.712,16.313
		C413.963,629.137,428.633,618.79,428.75,616.053z"/>
	<path fill-rule="evenodd" fill="#090909" d="M718.044,333.402c-6.851-0.016-10.416-3.081-11.893-8.032
		c-1.494-5.011,0.013-9.894,4.596-12.499c21.73-12.356,43.512-24.642,65.57-36.395c5.534-2.947,10.941-0.332,14.167,5.23
		c3.061,5.274,2.004,11.225-2.569,13.899c-21.914,12.816-44.269,24.881-66.519,37.119
		C720.08,333.449,718.313,333.354,718.044,333.402z"/>
	<path fill-rule="evenodd" fill="#090909" d="M680.361,242.686c-3.584,12.956-7.629,28.696-12.384,44.22
		c-1.853,6.046-7.14,8.788-13.346,6.963c-6.551-1.925-9.993-7.068-8.367-13.791c3.632-15.015,7.647-29.956,12.104-44.748
		c1.776-5.893,6.82-8.978,13.097-7.71C677.732,228.886,680.722,233.326,680.361,242.686z"/>
	<path fill-rule="evenodd" fill="#090909" d="M764.196,417.128c-16.027-4.426-32.177-8.464-48.015-13.491
		c-5.461-1.733-6.964-7.413-5.634-13.012c1.393-5.862,5.648-8.971,11.426-8.047c16.839,2.694,33.243,7.407,49.281,13.047
		c5.095,1.791,6.924,7.551,4.994,13.185C774.359,414.329,770.366,417.119,764.196,417.128z"/>
	<path fill-rule="evenodd" fill="#F6F5F5" d="M433.011,569.604c-3.417,1.021-5.134-2.016-7.015-5.291
		c-17.606-30.653-35.149-61.345-53.111-91.789c-2.837-4.808-1.913-7.708,1.098-11.538c38.886-49.431,77.737-98.89,116.405-148.492
		c4.903-6.291,6.613-4.555,10.032,1.399c40.161,69.935,80.555,139.737,121.066,209.472c3.827,6.588,3.776,8.683-4.787,10.308
		c-59.353,11.26-118.574,23.2-177.84,34.915C437.299,568.897,435.723,569.136,433.011,569.604z"/>
	<path fill-rule="evenodd" fill="#F6F5F5" d="M290.79,637.576c-22.526,0.325-45.815-16.623-52.983-39.445
		c-7.407-23.583,0.738-49.934,21.76-63.02c28.299-17.615,57.608-33.604,86.365-50.493c3.971-2.332,5.954-2.148,8.333,2.022
		c16.721,29.313,33.599,58.535,50.609,87.681c2.145,3.676,1.606,5.28-2.037,7.345c-30.051,17.033-59.931,34.369-90.011,51.351
		C306.512,636.582,299.077,636.676,290.79,637.576z M290.79,615.194c14.729,0.646,25.061-9.255,36.819-15.507
		c6.58-3.499,8.182-9.859,4.566-16.362c-3.551-6.389-9.776-6.449-15.7-3.908c-4.709,2.02-9.115,4.867-13.397,7.732
		c-8.206,5.491-15.537,7.254-22.607-2.117c-4.276-5.671-10.543-5.688-15.861-1.399c-5.454,4.397-5.46,10.148-1.773,16
		C269.335,609.941,278.955,614.546,290.79,615.194z M361.96,578.538c5.658-1.258,10.794-4.177,11.131-11.262
		c0.368-7.753-4.502-11.976-11.742-12.07c-6.975-0.09-11.168,4.811-11.272,11.446C349.971,573.428,354.46,577.383,361.96,578.538z"
		/>
	<path fill-rule="evenodd" fill="#F6F5F5" d="M667.209,513.301c-0.292,6.89-3.49,10.688-8.926,12.352
		c-4.929,1.507-8.593,0.659-11.674-4.718c-43.879-76.543-87.958-152.972-132.259-229.27c-3.255-5.604-1.297-8.958,2.263-12.347
		c4.172-3.973,9.204-5.196,13.904-1.106c2.618,2.279,4.627,5.434,6.396,8.492c41.979,72.599,83.896,145.233,125.794,217.878
		C664.475,507.647,665.963,510.873,667.209,513.301z"/>
	<path fill-rule="evenodd" fill="#F6F5F5" d="M439.83,730.381c-1.251,10.624-6.185,18.677-17.104,21.77
		c-11.222,3.178-19.625-1.598-25.171-10.968c-14.755-24.938-29.118-50.107-43.574-75.222c-12.61-21.905-12.571-21.928,9.962-34.796
		c16.272-9.293,16.244-9.276,25.751,7.272c14.831,25.818,29.667,51.633,44.595,77.396C436.912,720.359,439.002,725,439.83,730.381z"
		/>
	<path fill-rule="evenodd" fill="#F6F5F5" d="M634.606,409.204c-8.336-14.493-16.579-28.825-26.374-45.854
		c11.221,3.113,21.455-6.231,28.972,6.387C650.006,391.225,650.207,391.105,634.606,409.204z"/>
	<path fill-rule="evenodd" fill="#F6F5F5" d="M428.75,616.053c-0.117,2.737-14.788,13.084-16.622,11.867
		c-5.76-3.822-7.515-10.637-10.712-16.313c-0.936-1.661,14.421-12.238,16.699-11.005
		C424.369,603.987,425.295,611.258,428.75,616.053z"/>
	<path fill-rule="evenodd" fill="#090909" d="M290.79,615.194c-11.835-0.648-21.455-5.253-27.953-15.562
		c-3.687-5.852-3.681-11.603,1.773-16c5.317-4.289,11.584-4.271,15.861,1.399c7.07,9.371,14.401,7.608,22.607,2.117
		c4.283-2.865,8.688-5.713,13.397-7.732c5.924-2.541,12.148-2.48,15.7,3.908c3.615,6.503,2.014,12.863-4.566,16.362
		C315.851,605.939,305.519,615.84,290.79,615.194z"/>
	<path fill-rule="evenodd" fill="#090909" d="M361.96,578.538c-7.5-1.155-11.989-5.11-11.884-11.886
		c0.104-6.636,4.298-11.536,11.272-11.446c7.24,0.095,12.11,4.317,11.742,12.07C372.754,574.361,367.618,577.28,361.96,578.538z"/>
</g>
</svg>
