<?xml version="1.0" encoding="utf-8"?>
<!-- Generator: Adobe Illustrator 16.0.3, SVG Export Plug-In . SVG Version: 6.00 Build 0)  -->
<!DOCTYPE svg PUBLIC "-//W3C//DTD SVG 1.1 Tiny//EN" "http://www.w3.org/Graphics/SVG/1.1/DTD/svg11-tiny.dtd">
<svg version="1.1" baseProfile="tiny" id="Layer_1" xmlns="http://www.w3.org/2000/svg" xmlns:xlink="http://www.w3.org/1999/xlink"
	 x="0px" y="0px"  viewBox="0 0 1000 1000" xml:space="preserve">
<g>
	<path fill-rule="evenodd" fill="#B8B8B8" d="M543.059,999.995c-26.316,0-52.632,0-78.947,0c-9.563-4.756-20.185-3.173-30.242-4.553
		c-56.564-7.76-110.21-24.763-160.734-50.893c-64.469-33.341-119.407-78.731-164.003-136.123
		c-49.938-64.266-82.855-136.251-97.467-216.594c-3.387-18.618-3.691-37.726-9.275-55.952c0-19.937,0-39.872,0-59.808
		c2.997-2.847,2.354-6.619,2.416-10.123c0.383-21.974,3.666-43.744,8.281-65.005C38.934,281.876,98.96,183.586,194.994,108.086
		c66.337-52.153,141.328-85.027,224.717-98.923c15.571-2.595,31.57-2.015,46.792-6.772c26.316,0,52.631,0,78.947,0
		c1.908,2.672,4.846,2.286,7.577,2.601c34.876,4.02,69.176,10.611,102.594,21.698c109.763,36.416,197.087,102.359,261.51,198.409
		c39.392,58.73,64.634,123.002,76.32,192.887c10.033,60.008,9.819,119.841-2.089,179.252
		c-21.653,108.028-73.278,199.444-155.117,273.685c-68.407,62.057-148.021,101.308-238.329,119.73
		C579.703,994.367,560.863,994.113,543.059,999.995z M713.891,287.5c-4.546-3.483-9.885-2.539-14.988-2.54
		c-131.86-0.038-263.721-0.039-395.582,0.01c-4.693,0.002-9.623-1.049-13.927,1.966c-0.779-0.165-1.551-0.377-2.339-0.487
		c-40.895-5.702-71.647,15.635-71.829,51.781c-0.545,108.816-0.41,217.638-0.009,326.455c0.098,26.708,19.668,47.532,46.249,51.163
		c8.246,1.125,16.683,0.853,25.033,1.221c45.436,0.129,90.872,0.377,136.308,0.359c98.449-0.037,196.898-0.211,295.346-0.329
		c2.383-0.121,4.764-0.326,7.146-0.351c44.006-0.448,64.152-20.614,64.164-64.408c0.029-102.277,0.177-204.554-0.073-306.832
		C789.284,302.214,756.369,277.256,713.891,287.5z"/>
	<path display="none" fill-rule="evenodd" fill="#EDEEEE" d="M543.059,999.995c17.805-5.882,36.645-5.628,54.857-9.343
		c90.309-18.423,169.922-57.674,238.329-119.73c81.839-74.24,133.464-165.656,155.117-273.685
		c11.908-59.411,12.122-119.244,2.089-179.252c-11.687-69.885-36.929-134.157-76.32-192.887
		c-64.423-96.05-151.747-161.993-261.51-198.409C622.203,15.603,587.903,9.011,553.027,4.991c-2.731-0.315-5.669,0.071-7.577-2.601
		c149.92,0,299.841,0.085,449.76-0.231c8.192-0.018,9.804,1.609,9.796,9.801c-0.266,326.154-0.266,652.31,0,978.466
		c0.008,8.189-1.603,9.818-9.796,9.801C844.493,999.909,693.775,999.995,543.059,999.995z"/>
	<path display="none" fill-rule="evenodd" fill="#EDEEEE" d="M2.39,535.881c5.583,18.227,5.888,37.334,9.275,55.952
		c14.612,80.343,47.529,152.328,97.467,216.594c44.597,57.392,99.534,102.782,164.003,136.123
		c50.524,26.13,104.169,43.133,160.734,50.893c10.058,1.38,20.679-0.203,30.242,4.553c-150.523,0-301.046-0.092-451.568,0.237
		c-8.625,0.019-10.408-1.778-10.39-10.395C2.48,838.521,2.39,687.2,2.39,535.881z"/>
	<path display="none" fill-rule="evenodd" fill="#EDEEEE" d="M466.503,2.39c-15.222,4.758-31.221,4.177-46.792,6.772
		c-83.39,13.896-158.38,46.77-224.717,98.923C98.96,183.586,38.934,281.876,13.086,400.944c-4.615,21.261-7.897,43.032-8.281,65.005
		c-0.061,3.504,0.582,7.276-2.416,10.123c0-154.508,0.087-309.015-0.235-463.522C2.136,3.948,3.903,2.133,12.539,2.151
		C163.86,2.481,315.182,2.39,466.503,2.39z"/>
	<path fill-rule="evenodd" fill="#EDEEEE" d="M718.152,717.1c-98.448,0.118-196.897,0.292-295.346,0.329
		c-45.436,0.018-90.872-0.23-136.311-0.355c0.194-4.764,0.56-9.531,0.561-14.298c0.033-102.376,0.002-204.752,0.112-307.128
		c0.003-3.977-1.573-8.479,1.771-12.373c2.719,1.932,5.042,3.469,7.245,5.163C361.521,438.68,426.968,488.78,492.012,539.4
		c7.753,6.034,12.412,6.188,20.183,0.14c64.104-49.895,128.569-99.324,192.993-148.808c3.305-2.537,6.027-6.312,12.054-6.775
		c0,4.521,0,8.739,0,12.956c0,101.579-0.013,203.158,0.039,304.738C717.283,706.801,717.85,711.949,718.152,717.1z"/>
	<path fill-rule="evenodd" fill="#F14437" d="M718.152,717.1c-0.303-5.15-0.869-10.299-0.871-15.448
		c-0.052-101.58-0.039-203.16-0.039-304.738c0-4.217,0-8.434,0-12.956c-6.026,0.463-8.749,4.238-12.054,6.775
		c-64.424,49.483-128.89,98.913-192.993,148.808c-7.771,6.049-12.43,5.895-20.183-0.14
		C426.968,488.78,361.521,438.68,296.184,388.437c-2.203-1.694-4.525-3.231-7.245-5.163c-3.344,3.895-1.768,8.396-1.771,12.373
		c-0.11,102.376-0.079,204.752-0.112,307.128c-0.001,4.767-0.367,9.534-0.561,14.298c-8.346-0.372-16.784-0.1-25.029-1.225
		c-26.581-3.631-46.151-24.455-46.249-51.163c-0.4-108.817-0.536-217.639,0.009-326.455c0.181-36.146,30.934-57.482,71.829-51.781
		c0.788,0.11,1.56,0.322,2.34,0.487C358.291,341.556,427.223,396.129,496,450.896c4.693,3.737,7.678,3.525,12.202-0.166
		c16.339-13.33,33.07-26.178,49.591-39.287c52.048-41.296,104.066-82.626,156.098-123.943
		c42.479-10.244,75.394,14.714,75.499,58.009c0.25,102.277,0.103,204.554,0.073,306.832c-0.012,43.794-20.158,63.96-64.164,64.408
		C722.916,716.773,720.535,716.979,718.152,717.1z"/>
	<path fill-rule="evenodd" fill="#EDEEEE" d="M713.891,287.5c-52.031,41.317-104.05,82.647-156.098,123.943
		c-16.521,13.109-33.252,25.957-49.591,39.287c-4.524,3.691-7.509,3.903-12.202,0.166
		c-68.777-54.767-137.709-109.34-206.605-163.959c4.303-3.015,9.233-1.963,13.926-1.966c131.86-0.049,263.721-0.048,395.582-0.01
		C704.006,284.961,709.345,284.017,713.891,287.5z"/>
</g>
</svg>
