<?xml version="1.0" encoding="utf-8"?>
<!-- Generator: Adobe Illustrator 16.0.3, SVG Export Plug-In . SVG Version: 6.00 Build 0)  -->
<!DOCTYPE svg PUBLIC "-//W3C//DTD SVG 1.1 Tiny//EN" "http://www.w3.org/Graphics/SVG/1.1/DTD/svg11-tiny.dtd">
<svg version="1.1" baseProfile="tiny" id="Layer_1" xmlns="http://www.w3.org/2000/svg" xmlns:xlink="http://www.w3.org/1999/xlink"
	 x="0px" y="0px"  viewBox="0 0 1000 1000" xml:space="preserve">
<g>
	<path fill-rule="evenodd" fill="#4CAE50" d="M458.035,2.399c29.577,0,59.152,0,88.729,0c1.418,3.674,4.7,2.188,7.214,2.453
		c61.779,6.5,120.788,22.935,175.823,51.757c203.463,106.552,306.339,320.636,263.123,546.305
		C955.757,796.99,793.592,957.481,598.994,993.26c-17.391,3.198-35.258,3.64-52.23,9.14c-29.577,0-59.152,0-88.729,0
		c-16.412-6.083-33.953-6.047-50.907-9.205C203.224,955.22,39.09,784.438,9.026,578.861c-2.033-13.903-1.292-28.303-6.627-41.69
		c0-23.181,0-46.363,0-69.544c5.412-13.783,4.615-28.585,6.766-42.881C40.111,219.102,202.504,50.553,407.063,11.583
		C424.03,8.35,441.634,8.651,458.035,2.399z M242.76,762.904c44.074-11.535,85.704-22.326,127.253-33.413
		c6.885-1.838,12.604-1.445,19.254,1.835c50.257,24.794,103.784,33.001,158.487,23.223
		c104.375-18.657,173.515-80.979,204.002-181.465c30.547-100.679,4.956-190.402-71.204-262.405
		c-60.724-57.41-135.716-78.365-218.165-65.167C294.13,272.448,198.092,451.296,268.612,606.188
		c8.378,18.401,8.639,33.748,3.091,51.974C261.394,692.026,252.743,726.397,242.76,762.904z"/>
	<path display="none" fill-rule="evenodd" fill="#FEFFFE" d="M546.764,1002.399c16.973-5.5,34.84-5.941,52.23-9.14
		c194.598-35.778,356.763-196.27,393.93-390.346c43.216-225.669-59.66-439.753-263.123-546.305
		C674.766,27.787,615.757,11.352,553.978,4.852c-2.514-0.265-5.796,1.221-7.214-2.453c150.279,0,300.56,0.085,450.839-0.232
		c8.212-0.018,9.827,1.614,9.819,9.824c-0.267,326.938-0.267,653.877,0,980.815c0.008,8.21-1.606,9.842-9.819,9.824
		C847.323,1002.313,697.043,1002.399,546.764,1002.399z"/>
	<path display="none" fill-rule="evenodd" fill="#FEFFFE" d="M2.399,537.171c5.336,13.388,4.595,27.787,6.627,41.69
		C39.09,784.438,203.224,955.22,407.128,993.194c16.954,3.158,34.495,3.122,50.907,9.205c-148.488,0-296.976-0.094-445.462,0.238
		c-8.658,0.019-10.427-1.801-10.409-10.424C2.489,840.533,2.399,688.853,2.399,537.171z"/>
	<path display="none" fill-rule="evenodd" fill="#FEFFFE" d="M458.035,2.399c-16.4,6.252-34.004,5.951-50.972,9.184
		C202.504,50.553,40.111,219.102,9.165,424.746c-2.151,14.296-1.354,29.098-6.766,42.881c0-151.681,0.09-303.362-0.235-455.043
		C2.145,3.961,3.914,2.142,12.572,2.16C161.059,2.493,309.547,2.399,458.035,2.399z"/>
	<path fill-rule="evenodd" fill="#EAEEEC" d="M242.76,762.904c9.983-36.507,18.634-70.878,28.943-104.742
		c5.548-18.226,5.287-33.572-3.091-51.974c-70.52-154.893,25.518-333.741,193.775-360.676
		c82.449-13.199,157.441,7.756,218.165,65.167c76.16,72.003,101.751,161.726,71.204,262.405
		c-30.487,100.486-99.627,162.808-204.002,181.465c-54.704,9.778-108.23,1.571-158.487-23.223c-6.65-3.28-12.369-3.673-19.254-1.835
		C328.463,740.578,286.834,751.369,242.76,762.904z M305.491,700.374c25.191-6.551,47.923-12.237,70.505-18.464
		c7.39-2.038,13.349-1.359,20.179,2.646c37.868,22.211,78.939,31.44,122.737,28.585c106.867-6.963,190.72-88.855,200.303-195.622
		c8.185-91.195-43.314-177.771-127.888-214.994c-82.657-36.378-186.322-14.385-246.243,52.245
		c-64.886,72.153-74.386,174.479-23.538,257.342c4.162,6.782,4.974,12.531,2.72,20.097
		C317.793,653.926,312.164,675.895,305.491,700.374z"/>
	<path fill-rule="evenodd" fill="#4CAE50" d="M305.491,700.374c6.673-24.479,12.303-46.448,18.776-68.166
		c2.254-7.565,1.441-13.314-2.72-20.097c-50.848-82.862-41.348-185.188,23.538-257.342c59.92-66.63,163.585-88.624,246.243-52.245
		c84.573,37.223,136.072,123.799,127.888,214.994c-9.583,106.767-93.436,188.659-200.303,195.622
		c-43.798,2.855-84.869-6.374-122.737-28.585c-6.83-4.005-12.789-4.684-20.179-2.646
		C353.414,688.137,330.682,693.823,305.491,700.374z M570.465,623.942c7.492-1.043,13.913-1.429,20.081-2.882
		c27.83-6.556,44.839-26.518,45.38-52.7c0.112-5.388,0.023-11.014-6.083-12.946c-18.324-5.797-34.586-16.186-52.416-23.049
		c-6.067-2.336-10.779-0.859-14.749,4.205c-5.661,7.225-11.694,14.165-17.229,21.483c-4.531,5.99-9.552,7.33-16.639,4.452
		c-36.42-14.794-64.322-39.326-84.969-72.598c-4.599-7.411-3.86-12.923,2.158-19.059c4.698-4.789,8.286-10.679,12.276-16.146
		c3.584-4.91,4.083-10.125,1.67-15.799c-6.705-15.766-13.179-31.63-19.922-47.38c-1.865-4.356-3.86-8.771-8.875-10.735
		c-11.678-4.575-29.884-0.099-38.417,9.577c-24.088,27.31-27.591,60.101-7.681,95.392c23.016,40.8,53.472,75.706,92.309,102.183
		C505.624,607.212,537.37,618.882,570.465,623.942z"/>
	<path display="none" fill-rule="evenodd" fill="#FEFFFE" d="M570.465,623.942c-33.095-5.061-64.841-16.73-93.108-36.002
		c-38.837-26.477-69.293-61.383-92.309-102.183c-19.91-35.291-16.407-68.082,7.681-95.392c8.534-9.676,26.74-14.152,38.417-9.577
		c5.015,1.963,7.01,6.379,8.875,10.735c6.744,15.75,13.218,31.614,19.922,47.38c2.413,5.674,1.915,10.89-1.67,15.799
		c-3.99,5.467-7.578,11.357-12.276,16.146c-6.019,6.136-6.757,11.647-2.158,19.059c20.647,33.272,48.549,57.804,84.969,72.598
		c7.087,2.878,12.107,1.538,16.639-4.452c5.535-7.318,11.568-14.259,17.229-21.483c3.97-5.064,8.682-6.541,14.749-4.205
		c17.83,6.863,34.092,17.252,52.416,23.049c6.106,1.933,6.195,7.559,6.083,12.946c-0.541,26.183-17.55,46.145-45.38,52.7
		C584.378,622.514,577.957,622.899,570.465,623.942z"/>
</g>
</svg>
