<?xml version="1.0" encoding="utf-8"?>
<!-- Generator: Adobe Illustrator 16.0.3, SVG Export Plug-In . SVG Version: 6.00 Build 0)  -->
<!DOCTYPE svg PUBLIC "-//W3C//DTD SVG 1.1 Tiny//EN" "http://www.w3.org/Graphics/SVG/1.1/DTD/svg11-tiny.dtd">
<svg version="1.1" baseProfile="tiny" id="Layer_1" xmlns="http://www.w3.org/2000/svg" xmlns:xlink="http://www.w3.org/1999/xlink"
	 x="0px" y="0px"  viewBox="0 0 1000 1000" xml:space="preserve">
<g>
	<path display="none" fill-rule="evenodd" fill="#FFFFFF" d="M1002.389,502.389c0,163.478-0.078,326.953,0.231,490.431
		c0.015,8.191-1.61,9.803-9.801,9.796c-326.953-0.267-653.908-0.267-980.861,0c-8.19,0.007-9.803-1.605-9.797-9.796
		C2.429,665.866,2.429,338.913,2.162,11.958c-0.007-8.19,1.604-9.803,9.796-9.797c326.953,0.268,653.906,0.268,980.86,0.001
		c8.189-0.007,9.816,1.602,9.802,9.796C1002.311,175.434,1002.389,338.912,1002.389,502.389z M361.221,926.371
		c0,8.064-0.018,16.018,0.003,23.971c0.049,19.499,6.014,25.369,25.874,25.37c108.417,0.011,216.835,0.009,325.253,0.001
		c20.16-0.001,25.738-5.444,25.745-25.271c0.024-70.152,0.009-140.306,0.011-210.458c0-2.791,0.052-5.582,0.013-8.371
		c-0.039-2.773,0.86-4.827,4.032-4.309c15.441,2.526,21.588-7.814,25.805-19.48c11.381-31.486,30.851-54.578,63.873-64.551
		c3.359-1.015,6.294-3.369,9.529-4.883c7.466-3.494,12.122-9.007,12.294-17.463c0.182-8.993-4.595-14.672-12.503-18.548
		c-14.621-7.168-28.966-14.9-43.607-22.026c-5.289-2.576-8.742-6.032-11.306-11.428c-6.986-14.702-14.777-29.021-21.981-43.623
		c-3.46-7.012-8.706-12.791-16.372-11.706c-10.905,1.545-9.852-4.443-9.84-11.395c0.106-62.182,0.044-124.362,0.08-186.543
		c0.006-9.65-1.099-18.993-5.157-27.93c-13.555-29.848-41.104-41.301-79.841-32.529c0-8.064,0.001-15.968,0-23.873
		c-0.008-45.357-34.702-72.657-79.012-61.761c-5.667,1.394-7.393-0.073-9.321-4.982c-10.037-25.555-28.892-39.622-56.443-40.048
		c-28.716-0.444-48.104,14.019-58.532,40.462c-1.801,4.567-3.448,6.15-8.49,4.701c-47.202-13.569-81.006,23.339-80.56,64.513
		c1.284,118.368,0.453,236.76,0.453,355.144c0,4.313,0,8.625,0,13.627c-11.753-2.425-21.851-6.858-31.998-11.255
		c-5.669-2.457-8.435-5.943-9-12.5c-1.706-19.816-4.417-39.543-6.388-59.339c-3.474-34.883-29.979-59.017-63.828-57.81
		c-32.833,1.169-58.208,28.707-58.252,63.381c-0.06,45.839,0.01,91.678-0.024,137.516c-0.019,24.032,9.006,44.177,26.287,60.604
		c17.603,16.731,35.473,33.182,53.219,49.764c15.012,14.025,15.006,14.026-3.97,23.521c-2.489,1.245-4.894,2.669-7.421,3.826
		c-8.603,3.941-16.11,8.363-16.381,19.654c-0.287,11.921,7.269,17.642,16.55,20.687c35.659,11.702,58.095,35.635,70.807,70.66
		C336.85,928.306,343.634,930.224,361.221,926.371z M676.628,135.177c-0.87,7.693,3.13,13.248,9.887,17.055
		c4.492,2.532,9.01,5.299,13.872,6.841c31.148,9.875,49.401,31.968,60.529,61.64c3.837,10.234,8.163,21.708,22.192,21.844
		c14.604,0.14,19.385-11.572,23.073-22.276c10.651-30.915,31.044-51.201,61.765-62.191c10.491-3.753,22.393-7.718,22.484-22.78
		c0.093-15.217-12.048-19.021-22.455-22.784c-30.157-10.909-50.977-30.457-61.227-61.031c-1.001-2.987-2.868-5.671-4.126-8.585
		c-3.721-8.615-8.991-14.805-19.486-14.702c-10.519,0.103-15.342,6.854-19.368,15.084c-5.584,11.415-11.684,22.591-16.93,34.156
		c-4.439,9.786-10.598,16.821-20.917,21.147c-13.15,5.512-25.589,12.726-38.329,19.216
		C680.701,121.32,676.281,126.458,676.628,135.177z M221.51,64.911c-8.244,0.233-13.85,3.588-17.837,10.392
		c-2.603,4.439-5.312,8.969-6.926,13.808c-9.919,29.728-29.602,49.141-59.271,59.518c-10.871,3.802-23.872,8.23-24.284,23.05
		c-0.437,15.711,13.131,20.023,24.283,24.22c28.591,10.762,49.232,28.718,58.778,58.392c1.439,4.473,4.32,8.468,6.359,12.768
		c3.731,7.864,9.549,12.665,18.546,12.439c8.455-0.212,13.778-5.007,17.425-12.351c7.23-14.563,14.896-28.914,21.928-43.57
		c2.559-5.337,6.021-8.877,11.335-11.422c14.672-7.027,29.138-14.481,43.686-21.763c7.725-3.867,12.497-9.664,12.227-18.737
		c-0.254-8.529-4.934-13.674-12.367-17.312c-14.608-7.146-28.907-14.925-43.56-21.975c-5.342-2.571-8.746-6.065-11.299-11.388
		c-7.03-14.662-14.737-28.999-21.911-43.595C234.742,69.485,228.84,65.146,221.51,64.911z"/>
	<path fill-rule="evenodd" fill="#0C0C0C" d="M361.221,926.371c-17.586,3.853-24.371,1.935-30.401-14.681
		c-12.711-35.025-35.148-58.958-70.807-70.66c-9.282-3.045-16.837-8.766-16.55-20.687c0.271-11.291,7.778-15.713,16.381-19.654
		c2.528-1.157,4.932-2.581,7.421-3.826c18.976-9.495,18.982-9.496,3.97-23.521c-17.746-16.582-35.616-33.032-53.219-49.764
		c-17.28-16.427-26.306-36.571-26.287-60.604c0.035-45.838-0.035-91.677,0.024-137.516c0.044-34.675,25.42-62.212,58.252-63.381
		c33.849-1.207,60.354,22.927,63.828,57.81c1.971,19.796,4.682,39.522,6.388,59.339c0.565,6.557,3.332,10.043,9,12.5
		c10.146,4.396,20.245,8.83,31.998,11.255c0-5.002,0-9.314,0-13.627c0-118.384,0.831-236.776-0.453-355.144
		c-0.446-41.173,33.358-78.082,80.56-64.513c5.042,1.45,6.689-0.133,8.49-4.701c10.428-26.443,29.815-40.906,58.532-40.462
		c27.552,0.426,46.406,14.493,56.443,40.048c1.929,4.909,3.654,6.375,9.321,4.982c44.31-10.896,79.004,16.403,79.012,61.761
		c0.001,7.905,0,15.809,0,23.873c38.736-8.771,66.286,2.681,79.841,32.529c4.059,8.938,5.163,18.28,5.157,27.93
		c-0.036,62.181,0.026,124.362-0.08,186.543c-0.012,6.951-1.065,12.939,9.84,11.395c7.666-1.085,12.912,4.694,16.372,11.706
		c7.204,14.602,14.995,28.921,21.981,43.623c2.563,5.396,6.017,8.852,11.306,11.428c14.642,7.126,28.986,14.858,43.607,22.026
		c7.908,3.876,12.685,9.555,12.503,18.548c-0.172,8.456-4.828,13.969-12.294,17.463c-3.235,1.514-6.17,3.868-9.529,4.883
		c-33.022,9.973-52.492,33.064-63.873,64.551c-4.217,11.666-10.363,22.007-25.805,19.48c-3.172-0.519-4.071,1.535-4.032,4.309
		c0.039,2.789-0.013,5.58-0.013,8.371c-0.002,70.152,0.014,140.306-0.011,210.458c-0.007,19.826-5.585,25.27-25.745,25.271
		c-108.418,0.008-216.836,0.01-325.253-0.001c-19.86-0.001-25.825-5.871-25.874-25.37
		C361.203,942.389,361.221,934.436,361.221,926.371z M531.076,340.811c0-50.632,0.071-101.264-0.038-151.894
		c-0.037-17.908-11.433-28.662-27.535-26.487c-12.521,1.691-19.8,11.945-19.807,28.253c-0.035,70.963-0.012,141.927-0.026,212.892
		c-0.001,3.584,0.195,7.219-0.308,10.744c-1.399,9.803-8.201,14.789-17.165,15.385c-8.986,0.597-16.401-3.613-18.935-13.061
		c-1.111-4.146-1.115-8.666-1.121-13.018c-0.066-56.611-0.086-113.224,0-169.835c0.013-9.022-0.737-17.651-8.37-23.807
		c-7.399-5.967-15.849-7.735-24.53-3.627c-10.465,4.954-14.21,13.797-14.193,25.336c0.181,123.587,0.24,247.178-0.125,370.765
		c-0.029,10.026,2.694,14.273,12.572,17.216c37.413,11.146,73.992,24.686,105.699,48.299c30.146,22.452,49.403,51.417,51.462,90.15
		c0.726,13.646-5.813,23.257-17.245,24.153c-11.747,0.922-19.454-7.116-20.384-21.02c-0.265-3.952-0.809-7.916-1.598-11.799
		c-6.594-32.469-30.064-50.399-56.878-65.08c-29.82-16.325-62.269-25.964-94.557-35.9c-21.618-6.652-43.366-12.844-64.102-22.122
		c-19.558-8.75-30.47-22.798-31.729-44.806c-1.137-19.842-3.403-39.665-6.191-59.354c-2.179-15.377-12.75-23.618-25.992-22.118
		c-12.624,1.43-20.269,11.273-20.284,26.434c-0.044,45.05,0.161,90.102-0.123,135.151c-0.086,13.65,4.454,24.744,14.33,34.016
		c21.49,20.176,42.946,40.39,64.186,60.827c4.52,4.349,6.871,5.307,9.84-1.416c4.326-9.794,9.83-19.063,14.363-28.774
		c3.745-8.021,9.667-12.971,18.398-12.834c8.695,0.138,15.163,4.941,18.017,13.317c12.8,37.585,37.286,63.201,75.482,75.531
		c8.502,2.745,13.492,9.215,13.283,19.114c-0.198,9.42-5.674,14.348-13.208,18.103c-12.803,6.38-25.489,13.007-38.442,19.064
		c-5.044,2.358-6.875,5.378-6.786,10.947c0.315,19.928,0.411,39.872-0.036,59.796c-0.152,6.779,1.813,8.583,8.566,8.567
		c94.884-0.216,189.768-0.224,284.653,0.01c7.074,0.018,8.45-2.317,8.435-8.853c-0.202-86.112-0.214-172.227,0.029-258.34
		c0.018-6.313-2.487-9.004-7.68-11.482c-13.979-6.678-27.666-13.961-41.542-20.857c-7.351-3.653-12.131-9.05-12.299-17.514
		c-0.179-9,4.627-14.679,12.542-18.528c12.865-6.255,25.32-13.395,38.366-19.228c7.949-3.552,10.749-8.063,10.696-17.057
		c-0.437-74.949-0.247-149.9-0.247-224.852c0-9.568,0.312-19.149-0.083-28.701c-0.542-13.116-10.216-22.873-22.524-23.377
		c-12.22-0.502-22.65,8.542-24.426,21.513c-0.536,3.923-0.349,7.955-0.351,11.938c-0.019,55.813,0.008,111.628-0.051,167.443
		c-0.005,4.301,0.721,8.675-1.751,12.798c-4.904,8.176-11.896,11.563-21.139,9.442c-10.075-2.311-14.243-9.331-14.242-19.271
		c0.004-29.901-0.001-59.802-0.002-89.703c0-55.415,0.042-110.832-0.064-166.247c-0.011-5.542-0.143-11.292-1.571-16.578
		c-2.817-10.422-14.483-17.445-24.951-15.925c-12.779,1.855-20.306,10.907-20.316,25.122c-0.064,86.511,0.008,173.022-0.07,259.533
		c-0.014,15.217-7.196,23.837-19.213,23.855c-11.811,0.018-18.677-8.727-18.684-23.946
		C531.064,439.682,531.077,390.247,531.076,340.811z M396.164,821.019c-23.45-7.632-37.881-23.12-45.875-46.083
		c-7.563,23.339-22.233,38.297-45.445,46.088c24.021,7.236,37.505,23.269,45.653,45.784
		C358.383,844.127,372.179,828.399,396.164,821.019z M744.719,572.686c-5.544,26.389-21.936,39.586-44.236,48.059
		c23.116,7.113,37.719,21.93,45.914,44.819c8.389-22.622,22.548-37.976,47.473-43.92c-11.533-6.421-21.673-10.557-29.93-17.074
		C755.14,597.623,753.665,585.206,744.719,572.686z"/>
	<path fill-rule="evenodd" fill="#0C0C0C" d="M676.628,135.177c-0.347-8.719,4.073-13.856,10.965-17.368
		c12.74-6.49,25.179-13.704,38.329-19.216c10.319-4.326,16.478-11.361,20.917-21.147c5.246-11.565,11.346-22.741,16.93-34.156
		c4.026-8.23,8.85-14.981,19.368-15.084c10.495-0.103,15.766,6.087,19.486,14.702c1.258,2.915,3.125,5.599,4.126,8.585
		c10.25,30.574,31.069,50.122,61.227,61.031c10.407,3.764,22.548,7.567,22.455,22.784c-0.092,15.062-11.993,19.027-22.484,22.78
		c-30.721,10.991-51.113,31.277-61.765,62.191c-3.688,10.705-8.47,22.417-23.073,22.276c-14.029-0.136-18.355-11.61-22.192-21.844
		c-11.128-29.672-29.381-51.765-60.529-61.64c-4.862-1.542-9.38-4.309-13.872-6.841C679.758,148.425,675.758,142.87,676.628,135.177
		z M828.543,135.265c-10.359-5.921-21.204-9.636-28.421-16.938c-7.332-7.42-11.087-18.376-16.673-28.25
		c-6.961,9.803-8.603,22.205-17.255,29.186c-8.229,6.639-18.606,10.614-30.747,17.237c25.703,5.996,39.76,21.536,47.113,45.672
		c6.351-11.49,9.827-22.377,17.018-29.527C807.138,145.127,818.253,141.187,828.543,135.265z"/>
	<path fill-rule="evenodd" fill="#0C0C0C" d="M221.51,64.911c7.33,0.235,13.231,4.574,17.113,12.472
		c7.173,14.596,14.881,28.933,21.911,43.595c2.554,5.323,5.958,8.817,11.299,11.388c14.653,7.05,28.952,14.83,43.56,21.975
		c7.433,3.638,12.112,8.782,12.367,17.312c0.27,9.073-4.502,14.871-12.227,18.737c-14.548,7.282-29.014,14.736-43.686,21.763
		c-5.314,2.545-8.776,6.085-11.335,11.422c-7.032,14.656-14.698,29.007-21.928,43.57c-3.647,7.344-8.97,12.138-17.425,12.351
		c-8.997,0.226-14.815-4.576-18.546-12.439c-2.04-4.3-4.92-8.295-6.359-12.768c-9.546-29.673-30.187-47.63-58.778-58.392
		c-11.152-4.197-24.72-8.509-24.283-24.22c0.412-14.819,13.414-19.248,24.284-23.05c29.669-10.376,49.353-29.79,59.271-59.518
		c1.614-4.838,4.323-9.369,6.926-13.808C207.661,68.5,213.267,65.145,221.51,64.911z M220.958,218.526
		c6.559-24.392,22.713-38.067,45.138-46.57c-23.467-7.429-37.093-22.721-45.666-45.055c-7.641,22.961-22.474,37.549-45.117,45.526
		C198.876,180.136,212.801,195.736,220.958,218.526z"/>
	<path fill-rule="evenodd" fill="#FFFFFF" d="M531.077,340.811c0,49.436-0.013,98.871,0.007,148.307
		c0.007,15.219,6.873,23.963,18.684,23.946c12.017-0.018,19.199-8.638,19.213-23.855c0.078-86.511,0.006-173.022,0.07-259.533
		c0.011-14.215,7.537-23.267,20.316-25.122c10.468-1.52,22.134,5.503,24.951,15.925c1.429,5.287,1.561,11.036,1.571,16.578
		c0.106,55.415,0.064,110.832,0.064,166.247c0.001,29.901,0.006,59.802,0.002,89.703c-0.001,9.94,4.167,16.96,14.242,19.271
		c9.243,2.12,16.234-1.267,21.139-9.442c2.472-4.124,1.746-8.497,1.751-12.798c0.059-55.814,0.032-111.629,0.051-167.443
		c0.002-3.983-0.186-8.016,0.351-11.938c1.775-12.971,12.206-22.016,24.426-21.513c12.309,0.504,21.982,10.262,22.524,23.377
		c0.395,9.552,0.083,19.133,0.083,28.701c0,74.951-0.189,149.902,0.247,224.852c0.053,8.993-2.747,13.505-10.696,17.057
		c-13.046,5.833-25.501,12.973-38.366,19.228c-7.915,3.85-12.721,9.528-12.542,18.528c0.168,8.464,4.948,13.86,12.299,17.514
		c13.876,6.896,27.563,14.18,41.542,20.857c5.192,2.479,7.697,5.169,7.68,11.482c-0.243,86.113-0.231,172.228-0.029,258.34
		c0.016,6.535-1.36,8.87-8.435,8.853c-94.885-0.233-189.769-0.226-284.653-0.01c-6.753,0.016-8.718-1.788-8.566-8.567
		c0.447-19.924,0.352-39.868,0.036-59.796c-0.089-5.569,1.742-8.589,6.786-10.947c12.954-6.058,25.639-12.685,38.442-19.064
		c7.534-3.755,13.01-8.683,13.208-18.103c0.209-9.899-4.781-16.369-13.283-19.114c-38.197-12.33-62.682-37.946-75.482-75.531
		c-2.854-8.376-9.322-13.18-18.017-13.317c-8.732-0.137-14.653,4.813-18.398,12.834c-4.534,9.712-10.038,18.98-14.363,28.774
		c-2.97,6.723-5.321,5.765-9.84,1.416c-21.239-20.438-42.695-40.651-64.186-60.827c-9.875-9.271-14.416-20.365-14.33-34.016
		c0.284-45.05,0.078-90.102,0.123-135.151c0.015-15.16,7.66-25.004,20.284-26.434c13.242-1.5,23.813,6.741,25.992,22.118
		c2.788,19.688,5.054,39.512,6.191,59.354c1.259,22.008,12.171,36.056,31.729,44.806c20.735,9.278,42.484,15.47,64.102,22.122
		c32.288,9.937,64.737,19.575,94.557,35.9c26.814,14.681,50.285,32.611,56.878,65.08c0.789,3.883,1.333,7.847,1.598,11.799
		c0.93,13.903,8.637,21.941,20.384,21.02c11.432-0.896,17.971-10.508,17.245-24.153c-2.059-38.733-21.316-67.698-51.462-90.15
		c-31.707-23.613-68.286-37.152-105.699-48.299c-9.878-2.942-12.601-7.189-12.572-17.216c0.365-123.587,0.306-247.178,0.125-370.765
		c-0.018-11.539,3.728-20.382,14.193-25.336c8.681-4.108,17.131-2.34,24.53,3.627c7.633,6.155,8.383,14.784,8.37,23.807
		c-0.086,56.612-0.066,113.224,0,169.835c0.006,4.352,0.009,8.872,1.121,13.018c2.534,9.448,9.949,13.658,18.935,13.061
		c8.964-0.597,15.766-5.583,17.165-15.385c0.503-3.524,0.307-7.16,0.308-10.744c0.014-70.964-0.009-141.928,0.026-212.892
		c0.007-16.308,7.286-26.562,19.807-28.253c16.103-2.174,27.498,8.58,27.535,26.487
		C531.147,239.547,531.076,290.179,531.077,340.811z M483.666,494.245c-0.02-10.681-8.014-18.607-18.751-18.595
		c-10.605,0.012-18.908,8.246-18.794,18.639c0.116,10.577,8.42,18.854,18.895,18.83C475.58,513.097,483.686,504.895,483.666,494.245
		z"/>
	<path fill-rule="evenodd" fill="#FAFAFA" d="M396.164,821.019c-23.985,7.381-37.781,23.108-45.667,45.789
		c-8.148-22.516-21.633-38.548-45.653-45.784c23.212-7.791,37.882-22.749,45.445-46.088
		C358.283,797.898,372.714,813.387,396.164,821.019z"/>
	<path fill-rule="evenodd" fill="#FAFAFA" d="M744.719,572.686c8.946,12.521,10.421,24.938,19.221,31.884
		c8.257,6.518,18.396,10.653,29.93,17.074c-24.925,5.944-39.084,21.298-47.473,43.92c-8.195-22.89-22.798-37.706-45.914-44.819
		C722.783,612.271,739.175,599.074,744.719,572.686z"/>
	<path fill-rule="evenodd" fill="#FAFAFA" d="M828.543,135.265c-10.29,5.922-21.405,9.862-28.965,17.379
		c-7.19,7.15-10.667,18.037-17.018,29.527c-7.354-24.136-21.41-39.676-47.113-45.672c12.141-6.623,22.518-10.598,30.747-17.237
		c8.652-6.981,10.294-19.383,17.255-29.186c5.586,9.875,9.341,20.83,16.673,28.25C807.339,125.628,818.184,129.343,828.543,135.265z
		"/>
	<path fill-rule="evenodd" fill="#FAFAFA" d="M220.958,218.526c-8.157-22.79-22.081-38.39-45.645-46.1
		c22.643-7.977,37.476-22.565,45.117-45.526c8.573,22.334,22.199,37.626,45.666,45.055
		C243.671,180.458,227.517,194.134,220.958,218.526z"/>
	<path fill-rule="evenodd" fill="#0C0C0C" d="M483.666,494.245c0.02,10.65-8.086,18.852-18.651,18.875
		c-10.475,0.023-18.779-8.253-18.895-18.83c-0.113-10.393,8.189-18.627,18.794-18.639
		C475.652,475.637,483.646,483.564,483.666,494.245z"/>
</g>
</svg>
