<?xml version="1.0" encoding="utf-8"?>
<!-- Generator: Adobe Illustrator 16.0.3, SVG Export Plug-In . SVG Version: 6.00 Build 0)  -->
<!DOCTYPE svg PUBLIC "-//W3C//DTD SVG 1.1 Tiny//EN" "http://www.w3.org/Graphics/SVG/1.1/DTD/svg11-tiny.dtd">
<svg version="1.1" baseProfile="tiny" id="Layer_1" xmlns="http://www.w3.org/2000/svg" xmlns:xlink="http://www.w3.org/1999/xlink"
	 x="0px" y="0px"  viewBox="0 0 1000 1000" xml:space="preserve">
<g>
	<path display="none" fill-rule="evenodd" fill="#F5F5F5" d="M0.763,552.633c0-35.887,0-71.771,0-107.656
		c4.225-0.471,4.484-3.458,4.83-6.88c5.185-51.413,19.55-100.437,41.251-147.058c32.64-70.12,78.695-129.995,139.215-178.789
		C255.649,56.14,334.07,20.758,422.358,6.555c6.736-1.084,16.374,2.781,20.988-6.554c37.479,0,74.96,0,112.439,0
		c0.407,3.374,2.457,4.496,5.692,4.781c40.203,3.547,78.587,14.455,116.315,28.33C734.452,53.949,785.09,85.029,829.89,124.99
		c52.456,46.791,94.964,101.457,123.911,166.112c19.578,43.726,33.123,89.028,40.42,136.445c1.226,7.96-3.458,18.645,6.542,24.606
		c0,31.1,0,62.202,0,93.301c-5.07,0.637-4.763,4.451-4.78,8.078c-0.065,14.346-3.389,28.281-6.17,42.18
		c-10.502,52.482-28.377,102.232-54.989,148.926c-30.408,53.355-68.841,99.908-116.036,138.963
		c-42.767,35.389-89.973,63.455-142.387,82.584c-40.382,14.736-81.563,25.516-124.5,28.998c-3.606,0.293-7.438-0.252-8.075,4.816
		c-29.506,0-59.012,0-88.518,0c-0.48-4.213-3.418-4.9-6.889-4.766c-14.021,0.541-27.672-2.797-41.126-5.527
		c-85.172-17.279-161.866-52.375-228.435-109.141C126.126,835.6,83.407,782.791,52.975,720.752
		C30.548,675.031,14.747,626.828,7.24,576.029C6.129,568.514,10.536,558.16,0.763,552.633z M500.407,274.804
		c-69.34,0-138.681-0.044-208.021,0.02c-31.414,0.029-47.128,15.727-47.134,46.802c-0.008,52.205-0.018,104.411,0.021,156.616
		c0.003,5.592,0.875,10.26-7.441,11.925c-22.166,4.436-33.369,19.714-33.286,42.728c0.083,23.111-0.093,46.227,0.118,69.34
		c0.054,5.898-0.285,10.102-8.057,9.354c-9.375-0.902-12.668,4.727-12.609,13.293c0.08,11.555,0.015,23.113,0.027,34.67
		c0.008,8.568,3.457,14.018,12.873,12.938c6.757-0.777,7.98,2.395,7.781,8.244c-0.354,10.352-0.097,20.721-0.093,31.082
		c0.001,7.813,3.756,11.752,11.723,11.66c9.165-0.107,18.342-0.307,27.493,0.057c8.124,0.32,11.441-4.096,12.753-11.199
		c1.731-9.371,4.018-18.676,5.123-28.119c1.068-9.121,4.758-11.938,14.388-11.914c149.042,0.381,298.086,0.371,447.128,0.037
		c10.123-0.021,15.821,2.064,15.838,12.967c0.004,2.352,0.607,4.732,1.15,7.051c8.486,36.242,0.125,30.584,38.071,31.096
		c1.593,0.021,3.195-0.107,4.779,0.02c9.114,0.729,13.278-3.35,13.01-12.566c-0.278-9.557,0.274-19.143-0.171-28.688
		c-0.316-6.773,0.944-10.605,8.978-9.775c7.877,0.816,11.74-3.547,11.725-11.42c-0.024-12.752-0.006-25.504-0.008-38.256
		c-0.003-7.309-3.838-11.703-10.948-11.053c-9.79,0.896-9.818-4.525-9.735-11.668c0.271-23.51,0.333-47.027,0.029-70.535
		c-0.259-20.09-12.372-35.6-31.707-39.105c-8.22-1.488-9.014-5.246-8.991-12.009c0.184-51.806,0.109-103.613,0.099-155.418
		c-0.006-33.087-14.987-48.142-48.077-48.16C638.293,274.777,569.351,274.804,500.407,274.804z"/>
	<path display="none" fill-rule="evenodd" fill="#FFFFFF" d="M543.825,1000c0.637-5.068,4.469-4.523,8.075-4.816
		c42.937-3.482,84.118-14.262,124.5-28.998c52.414-19.129,99.62-47.195,142.387-82.584c47.195-39.055,85.628-85.607,116.036-138.963
		c26.612-46.693,44.487-96.443,54.989-148.926c2.781-13.898,6.104-27.834,6.17-42.18c0.018-3.627-0.29-7.441,4.78-8.078
		c0,148.131-0.093,296.262,0.237,444.393c0.019,8.623-1.778,10.406-10.394,10.389C841.68,999.908,692.752,1000,543.825,1000z"/>
	<path display="none" fill-rule="evenodd" fill="#FFFFFF" d="M0.763,552.633c9.772,5.527,5.366,15.881,6.477,23.396
		c7.506,50.799,23.308,99.002,45.735,144.723c30.432,62.039,73.151,114.848,125.883,159.814
		c66.568,56.766,143.262,91.861,228.435,109.141c13.454,2.73,27.104,6.068,41.126,5.527c3.471-0.135,6.408,0.553,6.889,4.766
		c-148.128,0-296.257-0.092-444.385,0.236c-8.607,0.018-10.417-1.754-10.398-10.387C0.857,844.111,0.763,698.371,0.763,552.633z"/>
	<path display="none" fill-rule="evenodd" fill="#FFFFFF" d="M1000.763,452.154c-10-5.961-5.316-16.646-6.542-24.606
		c-7.297-47.417-20.842-92.72-40.42-136.445c-28.947-64.655-71.455-119.321-123.911-166.112
		c-44.8-39.961-95.438-71.042-152.096-91.879c-37.729-13.875-76.112-24.783-116.315-28.33c-3.235-0.285-5.285-1.407-5.692-4.781
		c145.136,0,290.271,0.087,435.407-0.231c8.193-0.019,9.819,1.607,9.801,9.801C1000.676,157.098,1000.763,304.626,1000.763,452.154z
		"/>
	<path display="none" fill-rule="evenodd" fill="#FFFFFF" d="M443.347,0.001c-4.614,9.335-14.252,5.47-20.988,6.554
		C334.07,20.758,255.649,56.14,186.06,112.25C125.54,161.043,79.485,220.918,46.845,291.039
		C25.143,337.66,10.778,386.683,5.593,438.096c-0.346,3.423-0.605,6.41-4.83,6.88c0-144.94,0.094-289.88-0.236-434.82
		C0.507,1.542,2.292-0.256,10.915-0.236C155.059,0.097,299.203,0.001,443.347,0.001z"/>
	<g>
		<path fill-rule="evenodd" fill="#090808" d="M500.407,274.804c68.943,0,137.886-0.027,206.828,0.012
			c33.09,0.018,48.071,15.072,48.077,48.16c0.011,51.806,0.085,103.613-0.099,155.418c-0.022,6.763,0.771,10.521,8.991,12.009
			c19.335,3.506,31.448,19.016,31.707,39.105c0.304,23.508,0.242,47.025-0.029,70.535c-0.083,7.143-0.055,12.564,9.735,11.668
			c7.11-0.65,10.945,3.744,10.948,11.053c0.002,12.752-0.017,25.504,0.008,38.256c0.016,7.873-3.848,12.236-11.725,11.42
			c-8.033-0.83-9.294,3.002-8.978,9.775c0.445,9.545-0.107,19.131,0.171,28.688c0.269,9.217-3.896,13.295-13.01,12.566
			c-1.584-0.127-3.187,0.002-4.779-0.02c-37.946-0.512-29.585,5.146-38.071-31.096c-0.543-2.318-1.146-4.699-1.15-7.051
			c-0.017-10.902-5.715-12.988-15.838-12.967c-149.042,0.334-298.086,0.344-447.128-0.037c-9.63-0.023-13.32,2.793-14.388,11.914
			c-1.105,9.443-3.392,18.748-5.123,28.119c-1.312,7.104-4.629,11.52-12.753,11.199c-9.151-0.363-18.328-0.164-27.493-0.057
			c-7.967,0.092-11.722-3.848-11.723-11.66c-0.004-10.361-0.261-20.73,0.093-31.082c0.2-5.85-1.023-9.021-7.781-8.244
			c-9.417,1.08-12.865-4.369-12.873-12.938c-0.012-11.557,0.053-23.115-0.027-34.67c-0.06-8.566,3.233-14.195,12.609-13.293
			c7.771,0.748,8.11-3.455,8.057-9.354c-0.211-23.113-0.035-46.229-0.118-69.34c-0.083-23.014,11.121-38.292,33.286-42.728
			c8.316-1.665,7.444-6.333,7.441-11.925c-0.039-52.205-0.029-104.411-0.021-156.616c0.006-31.076,15.721-46.773,47.134-46.802
			C361.727,274.759,431.067,274.804,500.407,274.804z M500.729,296.184c-70.557,0-141.115-0.039-211.673,0.032
			c-14.7,0.015-22.587,6.756-22.637,20.095c-0.203,55.011,0.126,110.024-0.301,165.033c-0.069,8.908,5.029,7.117,9.888,7.125
			c4.842,0.008,10.646,1.902,10.061-6.985c-0.653-9.923-0.197-19.923-0.139-29.888c0.16-27.07,16.888-44.241,43.778-44.377
			c39.066-0.199,78.133-0.235,117.199,0.014c26.286,0.167,43.123,17.086,43.785,43.414c0.221,8.765,0.371,17.556-0.066,26.304
			c-0.381,7.617-0.062,12.207,10.27,12.014c9.662-0.18,9.846-4.356,9.521-11.457c-0.418-9.149-0.165-18.333-0.09-27.501
			c0.201-24.372,16.369-42.267,40.51-42.654c41.048-0.658,82.122-0.638,123.172,0.002c23.721,0.369,39.725,17.415,40.569,41.365
			c0.351,9.954,0.547,19.961-0.085,29.885c-0.49,7.681,1.74,10.256,9.756,10.189c7.879-0.066,10.941-1.494,10.867-10.337
			c-0.444-52.217-0.181-104.44-0.238-156.66c-0.021-18.875-6.938-25.601-26.059-25.605
			C639.454,296.173,570.093,296.184,500.729,296.184z M499.535,611.486c88.049,0,176.099-0.117,264.148,0.182
			c8.92,0.029,12.528-1.559,12.146-11.574c-0.848-22.279-0.121-44.613-0.313-66.924c-0.135-15.582-8.002-23.254-23.732-23.256
			c-167.732-0.043-335.465-0.047-503.197,0.006c-15.828,0.006-22.869,7.463-22.911,23.719c-0.056,21.912,0.556,43.846-0.269,65.729
			c-0.378,10.012,2.393,12.418,12.371,12.369C325.028,611.303,412.282,611.486,499.535,611.486z M500.897,631.896
			c-94.837,0-189.674,0.053-284.511-0.107c-7.152-0.012-11.669,0.002-11.695,9.646c-0.027,9.539,3.437,10.898,11.846,10.891
			c189.274-0.221,378.549-0.201,567.826-0.055c7.301,0.006,11.464-0.266,11.529-9.787c0.065-9.568-3.328-10.791-11.682-10.766
			C689.774,631.998,595.335,631.896,500.897,631.896z M388.28,488.506c14.746,0,29.499,0.309,44.232-0.094
			c12.163-0.334,29.32,5.449,35.152-2.322c6.165-8.22,2.128-24.393,1.835-37.074c-0.279-12.087-8.377-20.55-20.239-20.636
			c-40.646-0.294-81.299-0.304-121.945,0.006c-12.15,0.092-19.906,8.42-20.251,20.544c-0.293,10.353,0.326,20.741-0.201,31.076
			c-0.34,6.665,1.6,8.783,8.49,8.664C339.657,488.249,363.97,488.506,388.28,488.506z M612.795,488.506
			c15.538,0,31.086,0.355,46.607-0.117c11.364-0.346,28.319,5.315,32.743-2.275c5.735-9.841,2.451-25.407,1.693-38.429
			c-0.695-11.991-9.322-19.304-21.602-19.363c-39.837-0.187-79.677-0.223-119.514,0.015c-13.571,0.081-21.001,8.053-21.287,21.86
			c-0.205,9.955,0.369,19.941-0.182,29.871c-0.38,6.83,1.93,8.69,8.64,8.587C564.188,488.277,588.494,488.506,612.795,488.506z
			 M775.558,687.936c0-3.145,0.023-6.293-0.004-9.438c-0.089-10.064-7.767-4.938-12.166-5.801c-6.085-1.191-4.787,3.359-4.18,6.703
			c1.191,6.549,2.698,13.039,3.939,19.58c0.985,5.193,4.939,3.936,8.295,4.006c3.991,0.082,4.115-2.73,4.112-5.611
			C775.554,694.229,775.555,691.084,775.558,687.936z M225.662,687.855c0,1.986-0.319,4.035,0.069,5.941
			c0.719,3.537-2.885,9.09,5.048,9.398c6.471,0.252,6.744-3.621,7.536-8.07c0.972-5.451,2.393-10.822,3.535-16.246
			c0.69-3.277,1.093-7.125-3.883-6.135c-4.199,0.834-10.997-4.209-12.207,4.402C225.267,680.65,225.678,684.281,225.662,687.855z"/>
		<path fill-rule="evenodd" fill="#F5F5F5" d="M500.729,296.184c69.363,0,138.725-0.011,208.088,0.006
			c19.12,0.005,26.037,6.731,26.059,25.605c0.058,52.22-0.206,104.443,0.238,156.66c0.074,8.843-2.988,10.271-10.867,10.337
			c-8.016,0.066-10.246-2.509-9.756-10.189c0.632-9.924,0.436-19.932,0.085-29.885c-0.845-23.95-16.849-40.996-40.569-41.365
			c-41.05-0.64-82.124-0.66-123.172-0.002c-24.141,0.388-40.309,18.282-40.51,42.654c-0.075,9.169-0.328,18.353,0.09,27.501
			c0.324,7.101,0.141,11.277-9.521,11.457c-10.331,0.192-10.65-4.397-10.27-12.014c0.438-8.748,0.287-17.54,0.066-26.304
			c-0.662-26.328-17.499-43.247-43.785-43.414c-39.065-0.249-78.133-0.213-117.199-0.014c-26.891,0.137-43.618,17.307-43.778,44.377
			c-0.058,9.965-0.514,19.965,0.139,29.888c0.585,8.888-5.219,6.993-10.061,6.985c-4.859-0.008-9.958,1.783-9.888-7.125
			c0.427-55.008,0.098-110.021,0.301-165.033c0.05-13.339,7.938-20.08,22.637-20.095
			C359.614,296.146,430.173,296.184,500.729,296.184z"/>
		<path fill-rule="evenodd" fill="#F5F5F5" d="M499.535,611.486c-87.253,0-174.507-0.184-261.757,0.25
			c-9.978,0.049-12.749-2.357-12.371-12.369c0.825-21.883,0.212-43.816,0.269-65.729c0.042-16.256,7.083-23.713,22.911-23.719
			c167.732-0.053,335.464-0.049,503.197-0.006c15.73,0.002,23.598,7.674,23.732,23.256c0.192,22.311-0.534,44.645,0.313,66.924
			c0.383,10.016-3.226,11.604-12.146,11.574C675.634,611.369,587.584,611.486,499.535,611.486z"/>
		<path fill-rule="evenodd" fill="#F5F5F5" d="M500.897,631.896c94.438,0,188.877,0.102,283.313-0.178
			c8.354-0.025,11.747,1.197,11.682,10.766c-0.065,9.521-4.229,9.793-11.529,9.787c-189.276-0.146-378.552-0.166-567.826,0.055
			c-8.41,0.008-11.873-1.352-11.846-10.891c0.026-9.645,4.543-9.658,11.695-9.646C311.223,631.949,406.061,631.896,500.897,631.896z
			"/>
		<path fill-rule="evenodd" fill="#F5F5F5" d="M388.28,488.506c-24.31,0-48.624-0.257-72.927,0.164
			c-6.89,0.119-8.83-1.999-8.49-8.664c0.527-10.335-0.092-20.723,0.201-31.076c0.345-12.124,8.101-20.452,20.251-20.544
			c40.646-0.31,81.299-0.3,121.945-0.006c11.862,0.086,19.96,8.549,20.239,20.636c0.293,12.681,4.33,28.854-1.835,37.074
			c-5.832,7.771-22.989,1.988-35.152,2.322C417.779,488.814,403.026,488.506,388.28,488.506z"/>
		<path fill-rule="evenodd" fill="#F5F5F5" d="M612.795,488.506c-24.301,0-48.606-0.229-72.9,0.148
			c-6.71,0.104-9.02-1.757-8.64-8.587c0.551-9.929-0.023-19.916,0.182-29.871c0.286-13.807,7.716-21.78,21.287-21.86
			c39.837-0.238,79.677-0.202,119.514-0.015c12.279,0.059,20.906,7.372,21.602,19.363c0.758,13.022,4.042,28.588-1.693,38.429
			c-4.424,7.591-21.379,1.93-32.743,2.275C643.881,488.861,628.333,488.506,612.795,488.506z"/>
		<path fill-rule="evenodd" fill="#F5F5F5" d="M775.557,687.936c-0.002,3.148-0.003,6.293-0.002,9.439
			c0.003,2.881-0.121,5.693-4.112,5.611c-3.355-0.07-7.31,1.188-8.295-4.006c-1.241-6.541-2.748-13.031-3.939-19.58
			c-0.607-3.344-1.905-7.895,4.18-6.703c4.399,0.863,12.077-4.264,12.166,5.801C775.581,681.643,775.558,684.791,775.557,687.936z"
			/>
		<path fill-rule="evenodd" fill="#F5F5F5" d="M225.67,687.855c0.008-3.574-0.403-7.205,0.09-10.709
			c1.21-8.611,8.008-3.568,12.207-4.402c4.976-0.99,4.573,2.857,3.883,6.135c-1.143,5.424-2.563,10.795-3.535,16.246
			c-0.792,4.449-1.065,8.322-7.536,8.07c-7.934-0.309-4.329-5.861-5.048-9.398C225.343,691.891,225.662,689.842,225.67,687.855z"/>
	</g>
</g>
</svg>
