<?xml version="1.0" encoding="utf-8"?>
<!-- Generator: Adobe Illustrator 16.0.3, SVG Export Plug-In . SVG Version: 6.00 Build 0)  -->
<!DOCTYPE svg PUBLIC "-//W3C//DTD SVG 1.1 Tiny//EN" "http://www.w3.org/Graphics/SVG/1.1/DTD/svg11-tiny.dtd">
<svg version="1.1" baseProfile="tiny" id="Layer_1" xmlns="http://www.w3.org/2000/svg" xmlns:xlink="http://www.w3.org/1999/xlink"
	 x="0px" y="0px"  viewBox="0 0 1000 1000" xml:space="preserve">
<g>
	<path display="none" fill-rule="evenodd" fill="#FFFFFF" d="M2.389,502.417c0-163.428,0.066-326.856-0.204-490.285
		c-0.013-7.808,1.043-9.999,9.593-9.991c326.856,0.292,653.713,0.297,980.567-0.01c8.963-0.008,10.254,2.253,10.248,10.544
		c-0.241,326.458-0.238,652.915-0.013,979.373c0.006,8.146-1.07,10.618-10.182,10.609c-326.854-0.32-653.711-0.312-980.567-0.027
		c-8.438,0.007-9.668-2.008-9.656-9.931C2.459,829.271,2.389,665.844,2.389,502.417z M495.812,28.57
		c-28.988-1.74-64.334,3.285-99.127,11.291c-68.742,15.817-130.649,45.891-186.091,89.915
		c-53.513,42.495-95.372,94.314-126.439,154.659c-23.17,45.005-38.558,92.754-46.564,143.136
		c-7.421,46.689-8.377,93.143-1.056,139.569c8.648,54.841,25.488,107.177,53.317,155.588c3.572,6.213,4.093,12.422,2.147,19.46
		c-19.977,72.223-39.736,144.504-59.522,216.779c-1.214,4.435-4.511,9.891-1.579,13.316c3.416,3.99,8.933,0.269,13.416-0.89
		c74.835-19.346,149.687-38.631,224.434-58.317c6.783-1.786,12.213-1.09,18.237,1.832c12.873,6.243,25.781,12.498,39.031,17.868
		c44.041,17.851,89.831,27.823,137.266,31.638c39.353,3.164,78.393,3.239,117.475-2.671c47.49-7.182,93.025-21.146,135.604-42.892
		c51.947-26.53,98.252-60.798,136.892-105.378c34.688-40.021,63.292-83.449,83.693-132.277
		c33.223-79.513,46.104-161.643,34.784-247.676c-6.821-51.839-22.349-100.542-45.173-147.152
		c-24.209-49.433-58.767-91.522-97.313-130.066c-35.929-35.927-78.616-62.737-124.759-84.087
		C640.464,42.593,573.343,27.755,495.812,28.57z"/>
	<path fill-rule="evenodd" fill="#ECEEEE" d="M495.812,28.57c77.531-0.815,144.652,14.022,208.671,43.645
		c46.143,21.35,88.83,48.16,124.759,84.087c38.547,38.543,73.104,80.633,97.313,130.066c22.824,46.61,38.352,95.313,45.173,147.152
		c11.32,86.034-1.562,168.164-34.784,247.676c-20.401,48.828-49.005,92.256-83.693,132.277
		c-38.64,44.58-84.944,78.848-136.892,105.378c-42.578,21.746-88.113,35.71-135.604,42.892c-39.082,5.91-78.122,5.835-117.475,2.671
		c-47.435-3.814-93.225-13.787-137.266-31.638c-13.25-5.37-26.158-11.625-39.031-17.868c-6.024-2.922-11.454-3.618-18.237-1.832
		C194,932.764,119.149,952.049,44.313,971.395c-4.483,1.158-10,4.88-13.416,0.89c-2.932-3.426,0.365-8.882,1.579-13.316
		c19.786-72.275,39.546-144.557,59.522-216.779c1.946-7.038,1.425-13.247-2.147-19.46c-27.83-48.411-44.669-100.747-53.317-155.588
		c-7.321-46.426-6.365-92.879,1.056-139.569c8.006-50.382,23.394-98.131,46.564-143.136
		c31.068-60.345,72.927-112.165,126.439-154.659c55.442-44.024,117.349-74.098,186.091-89.915
		C431.478,31.855,466.824,26.83,495.812,28.57z M897.123,490.131c-0.72-44.58-8.134-90.351-25.641-134.11
		C786.201,142.855,537.925,34.973,316.524,154.939c-133.722,72.457-201.589,188.153-203.896,340.72
		c-1.157,76.441,20.537,146.864,61.718,211.169c5.084,7.938,6.664,14.639,3.889,24.104c-11.751,40.073-22.346,80.486-33.636,120.698
		c-2.295,8.177-1.738,10.687,7.843,8.093c40.685-11.012,81.655-20.979,122.311-32.095c10.85-2.966,19.175-1.507,28.999,4.159
		c105.714,60.956,217.56,72.592,332.337,32.899C793.596,810.219,897.261,659.823,897.123,490.131z"/>
	<path fill-rule="evenodd" fill="#4DAE50" d="M897.123,490.131c0.138,169.692-103.527,320.087-261.034,374.556
		c-114.777,39.692-226.623,28.057-332.337-32.899c-9.824-5.666-18.149-7.125-28.999-4.159
		c-40.656,11.116-81.626,21.083-122.311,32.095c-9.581,2.594-10.138,0.084-7.843-8.093c11.29-40.212,21.885-80.625,33.636-120.698
		c2.775-9.466,1.195-16.167-3.889-24.104c-41.181-64.305-62.875-134.728-61.718-211.169
		c2.307-152.567,70.174-268.263,203.896-340.72c221.4-119.966,469.677-12.084,554.958,201.082
		C888.989,399.781,896.403,445.552,897.123,490.131z M627.313,721.897c7.926-0.657,16.071-0.358,23.743-2.123
		c57.392-13.208,91.3-42.936,92.983-99.781c0.32-10.808-3.095-17.922-13.427-22.621c-9.014-4.1-18.823-5.014-27.781-9.689
		c-20.779-10.847-42.179-20.561-63.641-30.021c-14.119-6.224-19.37-4.409-28.943,7.335c-11.323,13.894-22.676,27.766-33.859,41.771
		c-6.984,8.746-15.064,10.124-25.392,6.011c-69.159-27.55-121.867-73.982-159.906-137.69c-5.761-9.649-5.606-17.467,2.063-25.822
		c10.762-11.725,21.212-23.738,28.892-37.898c3.409-6.285,5.571-12.927,2.886-19.436c-13.794-33.447-27.882-66.776-42.32-99.95
		c-2.875-6.606-7.949-12.017-16.251-12.399c-7.548-0.347-15.095-1.14-22.64-1.117c-14.332,0.043-27.685,3.118-37.972,14.194
		c-15.9,17.124-28.497,36.255-35.703,58.667c-14.25,44.313-2.223,84.723,18.462,123.813c17.468,33.008,41.621,61.16,65.433,89.528
		c47.522,56.615,102.355,103.616,172.63,130.015C559.246,706.959,591.174,722.15,627.313,721.897z"/>
	<path fill-rule="evenodd" fill="#FFFFFF" d="M627.313,721.897c-36.14,0.253-68.067-14.938-100.741-27.213
		c-70.275-26.398-125.108-73.399-172.63-130.015c-23.813-28.368-47.965-56.52-65.433-89.528
		c-20.686-39.091-32.712-79.5-18.462-123.813c7.206-22.412,19.802-41.543,35.703-58.667c10.287-11.077,23.64-14.151,37.972-14.194
		c7.545-0.023,15.091,0.77,22.64,1.117c8.302,0.382,13.376,5.793,16.251,12.399c14.438,33.174,28.526,66.503,42.32,99.95
		c2.685,6.509,0.522,13.151-2.886,19.436c-7.679,14.16-18.129,26.173-28.892,37.898c-7.669,8.354-7.824,16.173-2.063,25.822
		c38.04,63.708,90.747,110.14,159.906,137.69c10.327,4.113,18.407,2.735,25.392-6.011c11.184-14.006,22.536-27.878,33.859-41.771
		c9.573-11.744,14.824-13.559,28.943-7.335c21.462,9.461,42.861,19.175,63.641,30.021c8.958,4.676,18.768,5.59,27.781,9.689
		c10.332,4.699,13.747,11.813,13.427,22.621c-1.684,56.846-35.592,86.573-92.983,99.781
		C643.385,721.539,635.239,721.24,627.313,721.897z"/>
</g>
</svg>
