<?xml version="1.0" encoding="utf-8"?>
<!-- Generator: Adobe Illustrator 16.0.3, SVG Export Plug-In . SVG Version: 6.00 Build 0)  -->
<!DOCTYPE svg PUBLIC "-//W3C//DTD SVG 1.1 Tiny//EN" "http://www.w3.org/Graphics/SVG/1.1/DTD/svg11-tiny.dtd">
<svg version="1.1" baseProfile="tiny" id="Layer_1" xmlns="http://www.w3.org/2000/svg" xmlns:xlink="http://www.w3.org/1999/xlink"
	 x="0px" y="0px"  viewBox="0 0 1000 1000" xml:space="preserve">
<g>
	<path display="none" fill-rule="evenodd" fill="#FFFFFE" d="M496.448,998.484c-161.596,0-323.192-0.088-484.787,0.248
		c-8.437,0.018-9.5-2.134-9.494-9.873C2.401,665.668,2.411,342.477,2.124,19.287c-0.008-8.434,2.129-9.5,9.868-9.494
		c323.19,0.233,646.382,0.244,969.573-0.044c8.435-0.008,9.5,2.129,9.494,9.868c-0.233,323.19-0.243,646.382,0.044,969.573
		c0.008,8.435-2.128,9.511-9.869,9.498C819.639,998.418,658.043,998.484,496.448,998.484z M673.712,386.061
		c-9.45,0-18.911-0.278-28.348,0.095c-6.667,0.263-13.319,1.268-19.945,2.181c-72.722,10.031-137.229,37.531-188.341,91.5
		c-46.889,49.511-68.144,108.286-56.113,176.424c10.872,61.567,46.271,108.058,96.711,142.781
		c83.043,57.169,174.972,70.918,272.697,51.188c9.775-1.974,17.743-1.429,26.721,3.323c26.761,14.164,54.079,27.275,81.165,40.827
		c9.187,4.598,18.405,5.548,26.341-1.882c7.511-7.033,7.449-15.827,3.692-25.011c-7.589-18.555-14.784-37.273-22.55-55.752
		c-2.366-5.63-1.892-8.717,3.691-12.217c16.421-10.294,31.072-22.88,43.79-37.553c37.029-42.72,57.655-92.192,55.819-148.928
		c-1.879-58.123-28.242-105.934-70.438-144.692C835.182,410.087,758.612,386.195,673.712,386.061z M389.565,109.314
		c-126.205-0.001-218.881,37.081-289.169,109.407C55.314,265.11,27.347,320.712,24.04,385.814
		c-5.047,99.322,34.341,178.977,113.147,239.149c6.166,4.709,6.254,7.822,3.013,14.066c-11.777,22.689-22.725,45.809-34.454,68.522
		c-5.292,10.249-6.192,19.853,2.707,27.946c8.493,7.724,17.719,5.916,27.189,0.398c29.911-17.432,60.173-34.261,90.035-51.776
		c6.98-4.096,12.991-5.327,20.9-2.507c22.671,8.082,46.271,12.625,70.055,16.02c22.227,3.174,32.047-7.58,27.402-29.369
		c-3.703-17.368-6.116-35.011-5.307-52.714c2.996-65.529,29.07-121.201,75.286-167.029
		c70.846-70.252,158.393-100.534,256.518-101.825c23.142-0.305,35.527-11.472,24.769-36.785
		c-15.294-35.986-35.502-68.546-63.16-96.059C559.535,141.627,470.056,111.226,389.565,109.314z"/>
	<path fill-rule="evenodd" fill="#4DAE50" d="M673.712,386.061c84.9,0.134,161.47,24.026,224.894,82.285
		c42.195,38.759,68.559,86.569,70.438,144.692c1.836,56.735-18.79,106.208-55.819,148.928
		c-12.718,14.673-27.369,27.259-43.79,37.553c-5.583,3.5-6.058,6.587-3.691,12.217c7.766,18.479,14.961,37.197,22.55,55.752
		c3.757,9.184,3.818,17.978-3.692,25.011c-7.936,7.43-17.154,6.479-26.341,1.882c-27.086-13.552-54.404-26.663-81.165-40.827
		c-8.978-4.752-16.945-5.297-26.721-3.323c-97.725,19.73-189.653,5.981-272.697-51.188c-50.44-34.724-85.84-81.214-96.711-142.781
		c-12.031-68.138,9.225-126.913,56.113-176.424c51.111-53.969,115.619-81.469,188.341-91.5c6.626-0.914,13.278-1.918,19.945-2.181
		C654.801,385.783,664.262,386.061,673.712,386.061z M575.578,503.77c-22.955-0.115-40.737,17.25-40.614,39.661
		c0.121,21.902,17.877,39.298,40.11,39.299c22.198,0,39.677-17.3,39.779-39.374C614.959,521,597.977,503.883,575.578,503.77z
		 M732.628,542.894c-0.108,22.54,16.857,39.739,39.292,39.834c22.512,0.095,39.655-16.946,39.681-39.444
		c0.026-22.891-16.459-39.463-39.306-39.514C749.342,503.72,732.737,520.097,732.628,542.894z"/>
	<path fill-rule="evenodd" fill="#4DAE50" d="M389.565,109.314c80.491,1.911,169.97,32.313,242.575,104.537
		c27.658,27.513,47.866,60.073,63.16,96.059c10.759,25.313-1.627,36.48-24.769,36.785c-98.125,1.291-185.672,31.573-256.518,101.825
		c-46.216,45.829-72.291,101.5-75.286,167.029c-0.809,17.703,1.604,35.346,5.307,52.714c4.646,21.789-5.175,32.543-27.402,29.369
		c-23.785-3.395-47.384-7.938-70.055-16.02c-7.91-2.82-13.92-1.589-20.9,2.507c-29.861,17.516-60.124,34.345-90.035,51.776
		c-9.471,5.518-18.697,7.325-27.189-0.398c-8.899-8.094-7.999-17.697-2.707-27.946c11.729-22.714,22.677-45.833,34.454-68.522
		c3.241-6.244,3.153-9.357-3.013-14.066C58.38,564.791,18.993,485.136,24.04,385.814c3.307-65.102,31.275-120.704,76.356-167.092
		C170.684,146.395,263.36,109.313,389.565,109.314z M240.236,346.256c33.012-0.102,59.282-26.24,59.286-58.987
		c0.002-33.603-26.173-59.779-59.722-59.721c-33.3,0.056-60.015,27.057-59.519,60.153
		C180.772,320.406,207.344,346.357,240.236,346.256z M477.421,227.548c-33.667-0.228-60.277,25.661-60.658,59.014
		c-0.372,32.475,26.025,59.264,58.815,59.688c33.564,0.434,60.443-25.82,60.425-59.02
		C535.983,254.105,510.134,227.77,477.421,227.548z"/>
	<path display="none" fill-rule="evenodd" fill="#F8F9F8" d="M575.578,503.77c22.398,0.113,39.381,17.23,39.275,39.586
		c-0.103,22.074-17.581,39.374-39.779,39.374c-22.233-0.001-39.989-17.396-40.11-39.299
		C534.841,521.02,552.623,503.654,575.578,503.77z"/>
	<path display="none" fill-rule="evenodd" fill="#F8F9F8" d="M732.628,542.894c0.109-22.797,16.714-39.174,39.667-39.124
		c22.847,0.051,39.332,16.623,39.306,39.514c-0.025,22.498-17.169,39.539-39.681,39.444
		C749.485,582.633,732.52,565.434,732.628,542.894z"/>
	<path display="none" fill-rule="evenodd" fill="#F8F9F8" d="M240.236,346.256c-32.893,0.101-59.464-25.85-59.955-58.555
		c-0.497-33.097,26.219-60.097,59.519-60.153c33.549-0.058,59.725,26.118,59.722,59.721
		C299.519,320.016,273.248,346.155,240.236,346.256z"/>
	<path display="none" fill-rule="evenodd" fill="#F8F9F8" d="M477.421,227.548c32.713,0.222,58.563,26.557,58.582,59.683
		c0.019,33.2-26.86,59.454-60.425,59.02c-32.79-0.425-59.188-27.214-58.815-59.688C417.144,253.209,443.753,227.321,477.421,227.548
		z"/>
</g>
</svg>
