<?xml version="1.0" encoding="utf-8"?>
<!-- Generator: Adobe Illustrator 16.0.3, SVG Export Plug-In . SVG Version: 6.00 Build 0)  -->
<!DOCTYPE svg PUBLIC "-//W3C//DTD SVG 1.1 Tiny//EN" "http://www.w3.org/Graphics/SVG/1.1/DTD/svg11-tiny.dtd">
<svg version="1.1" baseProfile="tiny" id="Layer_1" xmlns="http://www.w3.org/2000/svg" xmlns:xlink="http://www.w3.org/1999/xlink"
	 x="0px" y="0px"  viewBox="0 0 1000 1000" xml:space="preserve">
<g>
	<path fill-rule="evenodd" fill="#4CAE50" d="M2.399,537.171c0-23.181,0-46.363,0-69.544c5.412-13.783,4.615-28.585,6.766-42.881
		C40.113,219.101,202.503,50.553,407.063,11.583c16.968-3.233,34.571-2.932,50.972-9.184c29.577,0,59.152,0,88.729,0
		c1.418,3.674,4.7,2.188,7.214,2.452c61.779,6.501,120.788,22.936,175.823,51.758c203.463,106.552,306.34,320.638,263.123,546.305
		c-37.168,194.079-199.329,354.565-393.93,390.347c-17.39,3.197-35.258,3.64-52.23,9.139c-29.577,0-59.152,0-88.729,0
		c-16.412-6.081-33.953-6.047-50.907-9.205C203.224,955.221,39.092,784.439,9.026,578.861
		C6.994,564.958,7.734,550.559,2.399,537.171z M305.606,629.396c21.057-11.294,39.648-20.906,57.85-31.204
		c7.397-4.185,13.938-5.214,22.392-2.687c20.709,6.193,42.057,8.907,63.784,9.004c8.056,0.035,9.889-1.546,7.771-9.777
		c-14.168-55.045,1.668-101.924,41.616-140.619c39.439-38.203,88.235-53,142.348-51.316c8.919,0.277,9.927-2.258,7.74-9.862
		c-7.536-26.194-20.343-49.411-39.016-69.187c-73.528-77.872-198.587-90.114-288.087-27.549
		c-46.216,32.306-76.334,75.103-76.22,133.706c0.113,56.588,27.453,99.671,71.608,132.848c6.85,5.146,7.652,9.114,4.878,16.567
		C316.478,594.883,311.709,610.827,305.606,629.396z M754.342,723.177c-3.851-12.517-5.629-22.074-9.666-30.557
		c-6.345-13.333-4.133-21.207,8.053-31.37c73.289-61.133,67.675-161.649-10.983-215.963
		c-65.581-45.285-159.494-43.406-223.496,4.472c-70.167,52.489-75.557,147.04-11.1,206.699
		c51.62,47.777,113.046,54.893,178.834,39.831c9.266-2.121,16.935-1.441,24.924,3.065
		C724.403,706.967,738.07,714.275,754.342,723.177z"/>
	<path display="none" fill-rule="evenodd" fill="#FEFFFE" d="M546.764,1002.399c16.973-5.499,34.841-5.941,52.23-9.139
		c194.601-35.781,356.762-196.268,393.93-390.347c43.217-225.667-59.66-439.753-263.123-546.305
		C674.766,27.787,615.757,11.352,553.978,4.851c-2.514-0.264-5.796,1.222-7.214-2.452c150.279,0,300.56,0.085,450.839-0.232
		c8.212-0.018,9.827,1.614,9.819,9.824c-0.267,326.938-0.267,653.877,0,980.815c0.008,8.21-1.606,9.842-9.819,9.824
		C847.323,1002.313,697.043,1002.399,546.764,1002.399z"/>
	<path display="none" fill-rule="evenodd" fill="#FEFFFE" d="M2.399,537.171c5.335,13.388,4.595,27.787,6.627,41.69
		c30.065,205.578,194.198,376.359,398.102,414.333c16.954,3.158,34.495,3.124,50.907,9.205c-148.488,0-296.976-0.094-445.462,0.238
		c-8.658,0.019-10.427-1.801-10.409-10.424C2.489,840.533,2.399,688.853,2.399,537.171z"/>
	<path display="none" fill-rule="evenodd" fill="#FEFFFE" d="M458.035,2.399c-16.401,6.252-34.004,5.951-50.972,9.184
		C202.503,50.553,40.113,219.101,9.165,424.746c-2.151,14.296-1.354,29.098-6.766,42.881c0-151.681,0.09-303.362-0.235-455.043
		C2.145,3.961,3.914,2.142,12.572,2.16C161.059,2.493,309.547,2.399,458.035,2.399z"/>
	<path display="none" fill-rule="evenodd" fill="#FEFFFE" d="M305.606,629.396c6.103-18.569,10.871-34.514,16.664-50.076
		c2.774-7.453,1.972-11.421-4.878-16.567c-44.155-33.177-71.495-76.26-71.608-132.848c-0.114-58.604,30.004-101.4,76.22-133.706
		c89.5-62.565,214.559-50.323,288.087,27.549c18.673,19.776,31.479,42.993,39.016,69.187c2.187,7.604,1.179,10.139-7.74,9.862
		c-54.112-1.684-102.908,13.113-142.348,51.316c-39.948,38.695-55.785,85.574-41.616,140.619c2.118,8.231,0.286,9.813-7.771,9.777
		c-21.728-0.097-43.075-2.811-63.784-9.004c-8.454-2.527-14.995-1.498-22.392,2.687C345.254,608.49,326.664,618.103,305.606,629.396
		z M351.914,370.463c-0.007,15.197,11.982,27.501,26.914,27.624c16.004,0.132,28.986-12.729,28.879-28.606
		c-0.1-14.664-13.777-27.954-28.666-27.854C363.622,341.729,351.922,354.167,351.914,370.463z M547.445,369.733
		c-0.083-15.523-12.547-27.771-28.25-27.761c-15.77,0.012-27.531,12.041-27.595,28.219c-0.059,15.229,11.938,27.738,26.751,27.892
		C534.473,398.25,547.528,385.528,547.445,369.733z"/>
	<path display="none" fill-rule="evenodd" fill="#FEFFFE" d="M754.342,723.177c-16.271-8.901-29.938-16.21-43.435-23.823
		c-7.989-4.507-15.658-5.187-24.924-3.065c-65.788,15.062-127.214,7.946-178.834-39.831c-64.458-59.659-59.068-154.21,11.1-206.699
		c64.002-47.877,157.915-49.757,223.496-4.472c78.658,54.314,84.272,154.831,10.983,215.963
		c-12.186,10.163-14.397,18.037-8.053,31.37C748.713,701.103,750.491,710.66,754.342,723.177z M604.224,511.57
		c-0.053-11.58-11.537-22.756-23.286-22.663c-11.901,0.095-21.737,10.001-22.009,22.167c-0.277,12.481,10.069,22.556,22.847,22.244
		C593.909,533.023,604.275,522.979,604.224,511.57z M693.262,533.335c13.178,0.05,22.302-8.694,22.312-21.381
		c0.009-12.423-10.651-23.212-22.752-23.025c-10.691,0.164-21.724,10.83-22.123,21.387
		C670.228,522.791,680.517,533.288,693.262,533.335z"/>
	<path fill-rule="evenodd" fill="#4FAF52" d="M351.914,370.463c0.008-16.296,11.708-28.735,27.127-28.836
		c14.889-0.1,28.566,13.19,28.666,27.854c0.107,15.878-12.875,28.739-28.879,28.606C363.896,397.964,351.907,385.66,351.914,370.463
		z"/>
	<path fill-rule="evenodd" fill="#4FAF52" d="M547.445,369.733c0.083,15.795-12.973,28.517-29.094,28.35
		c-14.813-0.153-26.81-12.663-26.751-27.892c0.063-16.178,11.825-28.207,27.595-28.219
		C534.898,341.962,547.362,354.21,547.445,369.733z"/>
	<path fill-rule="evenodd" fill="#4FAF52" d="M604.224,511.57c0.052,11.409-10.314,21.453-22.448,21.748
		c-12.777,0.312-23.124-9.763-22.847-22.244c0.271-12.166,10.107-22.072,22.009-22.167
		C592.687,488.814,604.171,499.99,604.224,511.57z"/>
	<path fill-rule="evenodd" fill="#4FAF52" d="M693.262,533.335c-12.745-0.047-23.034-10.544-22.563-23.02
		c0.399-10.557,11.432-21.223,22.123-21.387c12.101-0.187,22.761,10.603,22.752,23.025
		C715.563,524.641,706.439,533.385,693.262,533.335z"/>
</g>
</svg>
