<?xml version="1.0" encoding="utf-8"?>
<!-- Generator: Adobe Illustrator 16.0.3, SVG Export Plug-In . SVG Version: 6.00 Build 0)  -->
<!DOCTYPE svg PUBLIC "-//W3C//DTD SVG 1.1 Tiny//EN" "http://www.w3.org/Graphics/SVG/1.1/DTD/svg11-tiny.dtd">
<svg version="1.1" baseProfile="tiny" id="Layer_1" xmlns="http://www.w3.org/2000/svg" xmlns:xlink="http://www.w3.org/1999/xlink"
	 x="0px" y="0px"  viewBox="0 0 1000 1000" xml:space="preserve">
<g>
	<path display="none" fill-rule="evenodd" fill="#F6F5F5" d="M1002.395,454.549c0,31.1,0,62.201,0,93.301
		c-5.07,0.635-4.763,4.449-4.78,8.077c-0.065,14.346-3.429,28.271-6.161,42.182c-10.637,54.151-29.377,105.359-57.247,153.128
		c-30.082,51.56-67.833,96.738-113.77,134.78c-37.146,30.762-77.772,56.188-122.441,74.793
		c-45.98,19.149-93.509,32.325-143.266,36.788c-3.776,0.339-8.396-1.094-9.271,4.796c-29.506,0-59.011,0-88.517,0
		c-0.481-4.213-3.418-4.901-6.891-4.767c-14.021,0.544-27.671-2.796-41.125-5.526c-85.172-17.28-161.867-52.377-228.435-109.144
		c-52.733-44.968-95.347-97.826-125.918-159.802c-22.547-45.707-38.036-93.985-45.695-144.731
		c-1.136-7.523,3.294-17.87-6.479-23.397c0-35.885,0-71.77,0-107.655c4.225-0.469,4.484-3.458,4.83-6.88
		c5.185-51.412,19.549-100.435,41.251-147.056c32.639-70.119,78.703-129.985,139.212-178.793
		c69.585-56.13,148.068-91.361,236.301-105.689c6.739-1.094,16.374,2.78,20.988-6.555c37.479,0,74.96,0,112.44,0
		c0.404,3.375,2.455,4.496,5.689,4.782c40.2,3.544,78.597,14.406,116.303,28.336c56.604,20.91,107.262,51.944,152.104,91.852
		c52.524,46.743,94.78,101.586,123.9,166.105c19.719,43.694,32.851,89.133,40.429,136.469
		C997.122,437.918,992.394,448.589,1002.395,454.549z M504.506,736.372c51.015,0,102.03,0,153.046,0
		c25.509,0,51.018,0.125,76.523-0.04c20.772-0.135,29.042-8.494,29.1-28.838c0.009-3.587,0.012-7.175,0-10.761
		c-0.066-19.736-7.389-27.829-27.333-27.577c-9.768,0.124-10.781-3.224-10.049-11.777c4.146-48.376,7.835-96.792,11.345-145.219
		c1.046-14.408-4.224-19.583-18.571-19.629c-26.306-0.083-52.611-0.025-78.916-0.023c-22.385,0.001-26.039,4.208-24.374,27.083
		c3.408,46.832,6.461,93.69,10.167,140.497c0.59,7.456-1.938,8.963-8.383,8.858c-14.344-0.232-28.709-0.444-43.037,0.084
		c-7.593,0.279-9.326-2.627-9.248-9.695c0.333-29.89,0.142-59.783,0.141-89.676c0-62.972,0.165-125.945-0.192-188.916
		c-0.05-8.662,1.751-11.936,11.09-11.561c18.702,0.751,37.459,0.443,56.186,0.106c6.593-0.118,9.326,1.742,8.963,8.735
		c-0.516,9.938,0.026,19.924-0.168,29.885c-0.215,10.97,5.359,16.249,15.907,16.446c11.954,0.225,23.917,0.211,35.869,0.005
		c10.659-0.186,15.982-5.827,15.895-16.564c-0.068-8.37,0.803-16.839-0.205-25.086c-1.404-11.484,3.319-13.974,13.901-13.542
		c17.628,0.72,24.128-6.446,24.245-24.571c0.109-17.138,0.102-34.276,0.002-51.414c-0.107-18.492-6.861-25.241-25.113-25.245
		c-76.923-0.015-153.845-0.006-230.767-0.006c-72.936,0-145.873-0.049-218.809,0.034c-18.241,0.021-30.31,10.903-30.327,28.022
		c-0.138,137.104-0.05,274.208-0.129,411.313c-0.006,10.07,4.252,17.674,12.112,23.341c7.859,5.667,17.141,5.729,26.343,5.729
		C354.646,736.371,429.576,736.371,504.506,736.372z"/>
	<path display="none" fill-rule="evenodd" fill="#FFFFFF" d="M545.458,1002.395c0.875-5.89,5.495-4.457,9.271-4.796
		c49.757-4.463,97.285-17.639,143.266-36.788c44.669-18.604,85.295-44.031,122.441-74.793
		c45.937-38.042,83.688-83.221,113.77-134.78c27.87-47.769,46.61-98.977,57.247-153.128c2.732-13.911,6.096-27.836,6.161-42.182
		c0.018-3.628-0.29-7.442,4.78-8.077c0,148.131-0.093,296.261,0.236,444.391c0.02,8.624-1.777,10.407-10.393,10.389
		C843.313,1002.302,694.385,1002.395,545.458,1002.395z"/>
	<path display="none" fill-rule="evenodd" fill="#FFFFFF" d="M2.398,555.027c9.773,5.527,5.344,15.874,6.479,23.397
		c7.659,50.746,23.147,99.024,45.695,144.731c30.571,61.976,73.185,114.834,125.918,159.802
		c66.568,56.767,143.263,91.863,228.435,109.144c13.455,2.73,27.104,6.07,41.125,5.526c3.473-0.135,6.41,0.554,6.891,4.767
		c-148.128,0-296.257-0.093-444.384,0.235c-8.607,0.019-10.417-1.753-10.398-10.386C2.492,846.506,2.398,700.766,2.398,555.027z"/>
	<path display="none" fill-rule="evenodd" fill="#FFFFFF" d="M1002.395,454.549c-10.001-5.96-5.272-16.631-6.549-24.607
		c-7.578-47.336-20.71-92.775-40.429-136.469c-29.12-64.519-71.376-119.362-123.9-166.105
		c-44.843-39.907-95.501-70.942-152.104-91.852C641.706,21.586,603.31,10.724,563.109,7.18c-3.234-0.286-5.285-1.408-5.689-4.782
		c145.135,0,290.271,0.087,435.405-0.231c8.193-0.019,9.819,1.607,9.8,9.801C1002.308,159.494,1002.395,307.022,1002.395,454.549z"
		/>
	<path display="none" fill-rule="evenodd" fill="#FFFFFF" d="M444.98,2.398c-4.614,9.335-14.249,5.461-20.988,6.555
		c-88.233,14.329-166.716,49.56-236.301,105.689C127.182,163.451,81.118,223.316,48.479,293.436
		C26.777,340.057,12.413,389.08,7.228,440.492c-0.346,3.423-0.605,6.411-4.83,6.88c0-144.939,0.094-289.879-0.236-434.819
		C2.142,3.938,3.927,2.141,12.55,2.161C156.693,2.494,300.837,2.398,444.98,2.398z"/>
	<path fill-rule="evenodd" fill="#262223" d="M504.506,736.371c-74.93,0-149.86,0-224.789,0.001c-9.202,0-18.483-0.063-26.343-5.729
		c-7.86-5.667-12.118-13.271-12.112-23.341c0.08-137.105-0.008-274.21,0.129-411.313c0.018-17.119,12.086-28.001,30.327-28.022
		c72.936-0.083,145.873-0.034,218.809-0.034c76.922,0,153.844-0.009,230.767,0.006c18.252,0.004,25.006,6.753,25.113,25.245
		c0.1,17.138,0.107,34.276-0.002,51.414c-0.117,18.125-6.617,25.291-24.245,24.571c-10.582-0.432-15.306,2.058-13.901,13.542
		c1.008,8.247,0.137,16.716,0.205,25.086c0.088,10.737-5.235,16.378-15.895,16.564c-11.952,0.207-23.915,0.22-35.869-0.005
		c-10.548-0.197-16.122-5.476-15.907-16.446c0.194-9.961-0.348-19.947,0.168-29.885c0.363-6.993-2.37-8.853-8.963-8.735
		c-18.727,0.336-37.483,0.645-56.186-0.106c-9.339-0.375-11.14,2.899-11.09,11.561c0.357,62.971,0.192,125.944,0.192,188.916
		c0.001,29.893,0.192,59.786-0.141,89.676c-0.078,7.068,1.655,9.975,9.248,9.695c14.328-0.528,28.693-0.316,43.037-0.084
		c6.445,0.104,8.973-1.402,8.383-8.858c-3.706-46.807-6.759-93.665-10.167-140.497c-1.665-22.875,1.989-27.082,24.374-27.083
		c26.305-0.001,52.61-0.06,78.916,0.023c14.348,0.045,19.617,5.221,18.571,19.629c-3.51,48.427-7.199,96.843-11.345,145.219
		c-0.732,8.554,0.281,11.901,10.049,11.777c19.944-0.252,27.267,7.841,27.333,27.577c0.012,3.586,0.009,7.174,0,10.761
		c-0.058,20.344-8.327,28.703-29.1,28.838c-25.506,0.165-51.015,0.04-76.523,0.04C606.536,736.372,555.521,736.372,504.506,736.371z
		 M504.503,716.728c74.92,0,149.84-0.229,224.757,0.233c11.956,0.073,14.806-4.186,14.808-15.395
		c0.004-11.019-4.247-13.279-14.197-13.217c-56.976,0.363-113.956-0.099-170.93,0.422c-10.594,0.097-13.821-2.209-13.78-13.437
		c0.448-125.131,0.114-250.264,0.577-375.393c0.04-10.927-3.047-12.829-13.184-12.777c-84.88,0.422-169.763,0.234-254.645,0.246
		c-16.062,0.002-17.118,1.046-17.119,16.85c-0.008,130.71-0.005,261.421-0.004,392.132c0,18.968,1.299,20.322,20.154,20.326
		C355.461,716.739,429.982,716.728,504.503,716.728z M645.898,349.76c23.899,0,47.803-0.241,71.695,0.147
		c7.078,0.114,9.865-1.508,9.542-9.19c-0.619-14.715-0.602-29.49-0.006-44.207c0.308-7.606-2.351-9.299-9.521-9.255
		c-47.406,0.291-94.817,0.319-142.226-0.02c-7.691-0.054-10.563,1.804-10.226,9.872c0.601,14.318,0.661,28.701-0.021,43.011
		c-0.394,8.271,2.73,9.935,10.263,9.798C598.893,349.49,622.398,349.76,645.898,349.76z M675.425,576.577
		c-9.95,0-19.907,0.198-29.851-0.081c-5.304-0.149-6.693,1.66-6.239,6.966c2.203,25.73,4.169,51.485,5.81,77.259
		c0.355,5.582,1.945,7.502,7.718,7.352c15.114-0.396,30.263-0.542,45.365,0.049c6.897,0.271,7.562-3.01,7.964-8.355
		c1.85-24.571,3.593-49.164,6.216-73.659c0.914-8.529-2.076-10.089-9.524-9.658C693.757,576.976,684.58,576.573,675.425,576.577z
		 M677.035,511.982c-11.941,0-23.888,0.202-35.822-0.096c-5.084-0.127-6.933,1.283-6.378,6.619
		c1.028,9.878,1.828,19.813,1.979,29.736c0.112,7.392,3.184,9.306,10.23,9.019c13.511-0.553,27.061-0.16,40.595-0.16
		c25.657,0,25.666,0.001,28.466-24.838c0.49-4.341,0.621-8.735,1.35-13.031c0.99-5.836-1.204-7.58-6.988-7.369
		C699.337,512.271,688.181,511.981,677.035,511.982z M660.177,386.146c0.927,9.03-4.775,21.011,13.207,19
		c15.444-1.728,15.6-0.347,15.6-15.981c0-4.378,0.051-8.757-0.033-13.134c-0.043-2.251,0.589-5.353-2.866-5.439
		c-7.947-0.2-16.529-1.807-23.645,0.654C657.316,373.017,661.457,381.315,660.177,386.146z"/>
	<path fill-rule="evenodd" fill="#F6F5F5" d="M504.503,716.728c-74.521,0-149.042,0.012-223.563-0.009
		c-18.854-0.004-20.154-1.358-20.154-20.326c-0.001-130.711-0.004-261.421,0.004-392.132c0.001-15.804,1.057-16.848,17.119-16.85
		c84.882-0.012,169.765,0.176,254.645-0.246c10.137-0.051,13.224,1.851,13.184,12.777c-0.463,125.129-0.129,250.262-0.577,375.393
		c-0.041,11.228,3.187,13.533,13.78,13.437c56.974-0.521,113.954-0.059,170.93-0.422c9.95-0.063,14.201,2.198,14.197,13.217
		c-0.002,11.209-2.852,15.468-14.808,15.395C654.343,716.498,579.423,716.728,504.503,716.728z"/>
	<path fill-rule="evenodd" fill="#F6F5F5" d="M645.898,349.76c-23.5,0-47.006-0.27-70.499,0.156
		c-7.532,0.137-10.656-1.527-10.263-9.798c0.682-14.31,0.621-28.693,0.021-43.011c-0.337-8.068,2.534-9.925,10.226-9.872
		c47.408,0.339,94.819,0.311,142.226,0.02c7.171-0.044,9.829,1.649,9.521,9.255c-0.596,14.716-0.613,29.492,0.006,44.207
		c0.323,7.682-2.464,9.304-9.542,9.19C693.701,349.519,669.798,349.76,645.898,349.76z"/>
	<path fill-rule="evenodd" fill="#F6F5F5" d="M675.425,576.574c9.155-0.001,18.332,0.401,27.458-0.126
		c7.448-0.431,10.438,1.129,9.524,9.658c-2.623,24.495-4.366,49.088-6.216,73.659c-0.402,5.346-1.066,8.627-7.964,8.355
		c-15.103-0.591-30.251-0.445-45.365-0.049c-5.772,0.15-7.362-1.77-7.718-7.352c-1.641-25.773-3.606-51.528-5.81-77.259
		c-0.454-5.306,0.936-7.115,6.239-6.966C655.518,576.775,665.475,576.577,675.425,576.574z"/>
	<path fill-rule="evenodd" fill="#F6F5F5" d="M677.035,511.982c11.146-0.001,22.302,0.289,33.432-0.12
		c5.784-0.211,7.979,1.533,6.988,7.369c-0.729,4.296-0.859,8.69-1.35,13.031c-2.8,24.839-2.809,24.838-28.466,24.838
		c-13.534,0-27.084-0.393-40.595,0.16c-7.047,0.287-10.118-1.627-10.23-9.019c-0.151-9.923-0.951-19.858-1.979-29.736
		c-0.555-5.336,1.294-6.746,6.378-6.619C653.147,512.185,665.094,511.982,677.035,511.982z"/>
	<path fill-rule="evenodd" fill="#F6F5F5" d="M660.177,386.146c1.28-4.83-2.86-13.128,2.263-14.9
		c7.115-2.461,15.697-0.854,23.645-0.654c3.455,0.086,2.823,3.188,2.866,5.439c0.084,4.377,0.033,8.756,0.033,13.134
		c0,15.634-0.155,14.254-15.6,15.981C655.401,407.157,661.104,395.175,660.177,386.146z"/>
</g>
</svg>
