<?xml version="1.0" encoding="utf-8"?>
<!-- Generator: Adobe Illustrator 16.0.3, SVG Export Plug-In . SVG Version: 6.00 Build 0)  -->
<!DOCTYPE svg PUBLIC "-//W3C//DTD SVG 1.1 Tiny//EN" "http://www.w3.org/Graphics/SVG/1.1/DTD/svg11-tiny.dtd">
<svg version="1.1" baseProfile="tiny" id="Layer_1" xmlns="http://www.w3.org/2000/svg" xmlns:xlink="http://www.w3.org/1999/xlink"
	 x="0px" y="0px"  viewBox="0 0 1000 1000" xml:space="preserve">
<g>
	<path display="none" fill-rule="evenodd" fill="#FEFFFF" d="M502.197,1000.157c-162.666,0-325.332-0.075-487.997,0.224
		c-8.082,0.016-9.826-1.474-9.818-9.729c0.272-326.126,0.288-652.254-0.053-978.38C4.319,2.946,7.118,2.211,15.013,2.216
		c325.73,0.2,651.459,0.212,977.189-0.051c8.494-0.007,10.431,1.606,10.422,10.324c-0.284,325.729-0.292,651.458,0.022,977.188
		c0.009,9.525-2.788,10.691-11.259,10.678C828.324,1000.089,665.261,1000.157,502.197,1000.157z M188.071,889.639
		c0,19.493,0.192,38.989-0.084,58.479c-0.132,9.233,0.964,17.562,9.886,22.626c9.321,5.29,17.308,1.879,25.521-3.316
		c30.564-19.331,61.64-37.87,91.838-57.751c9.453-6.223,17.094-6.405,27.293-2.732c74.785,26.927,152.128,32.897,230.352,23.155
		c93.179-11.604,176.297-48.435,245.633-111.855c113.652-103.956,169.924-232.24,152.793-387.708
		c-10.881-98.739-52.746-184.669-121.18-256.268C731.315,49.966,583.717,9.081,417.024,34.768
		c-119.842,18.466-217.954,78.381-290.968,175.173C42.765,320.357,11.292,444.1,42.528,580.863
		c20.817,91.144,67.529,167.364,136.792,229.806c6.598,5.948,9.196,11.799,8.934,20.496
		C187.667,850.64,188.071,870.146,188.071,889.639z"/>
	<path fill-rule="evenodd" fill="#2491C1" d="M188.071,889.639c0-19.493-0.403-38.999,0.183-58.474
		c0.262-8.697-2.336-14.548-8.934-20.496C110.057,748.228,63.346,672.007,42.528,580.863
		C11.292,444.1,42.765,320.357,126.056,209.941c73.015-96.792,171.126-156.707,290.968-175.173
		c166.692-25.688,314.291,15.198,433.1,139.499c68.434,71.599,110.299,157.529,121.18,256.268
		c17.131,155.468-39.141,283.752-152.793,387.708c-69.336,63.421-152.454,100.251-245.633,111.855
		c-78.224,9.742-155.567,3.771-230.352-23.155c-10.2-3.673-17.841-3.49-27.293,2.732c-30.198,19.881-61.274,38.42-91.838,57.751
		c-8.213,5.195-16.201,8.606-25.521,3.316c-8.922-5.064-10.018-13.393-9.886-22.626
		C188.263,928.628,188.071,909.132,188.071,889.639z M562.984,618.473c8.831,1.019,13.712-5.204,19.021-10.51
		C657.111,532.894,732.193,457.8,807.27,382.7c2.244-2.246,4.544-4.484,6.473-6.991c6.011-7.813,6.525-16.012,0.944-24.27
		c-5.463-8.084-13.615-9.31-22.228-7.404c-4.137,0.915-7.949,3.508-11.773,5.591c-62.075,33.808-124.231,67.467-186.06,101.721
		c-8.06,4.465-12.771,3.689-19.456-2.15c-37.719-32.941-75.841-65.421-113.888-97.985c-12.798-10.955-22.493-11.339-33.524-0.34
		c-77.451,77.22-154.742,154.6-232.047,231.965c-3.649,3.653-6.859,7.548-7.447,13.178c-0.867,8.296,1.532,15.09,8.553,19.592
		c8.3,5.319,16.495,3.447,24.693-1.033c63.41-34.653,126.959-69.054,190.228-103.965c7.917-4.369,12.576-3.636,19.393,2.337
		c37.959,33.251,76.518,65.816,114.779,98.723C550.926,615.979,556.051,619.347,562.984,618.473z"/>
	<path fill-rule="evenodd" fill="#F9FAFA" d="M562.984,618.473c-6.934,0.874-12.059-2.493-17.074-6.806
		c-38.262-32.906-76.82-65.472-114.779-98.723c-6.817-5.973-11.476-6.706-19.393-2.337
		c-63.269,34.911-126.818,69.312-190.228,103.965c-8.198,4.48-16.393,6.353-24.693,1.033c-7.021-4.502-9.42-11.296-8.553-19.592
		c0.587-5.63,3.797-9.524,7.447-13.178c77.305-77.365,154.596-154.745,232.047-231.965c11.032-10.999,20.727-10.614,33.524,0.34
		c38.046,32.564,76.169,65.044,113.888,97.985c6.686,5.839,11.396,6.616,19.456,2.15c61.828-34.254,123.984-67.913,186.06-101.721
		c3.824-2.083,7.637-4.676,11.773-5.591c8.612-1.906,16.765-0.68,22.228,7.404c5.581,8.258,5.066,16.458-0.944,24.27
		c-1.929,2.507-4.229,4.745-6.473,6.991c-75.076,75.1-150.158,150.193-225.265,225.263
		C576.696,613.269,571.815,619.491,562.984,618.473z"/>
</g>
</svg>
