<?xml version="1.0" encoding="utf-8"?>
<!-- Generator: Adobe Illustrator 16.0.3, SVG Export Plug-In . SVG Version: 6.00 Build 0)  -->
<!DOCTYPE svg PUBLIC "-//W3C//DTD SVG 1.1 Tiny//EN" "http://www.w3.org/Graphics/SVG/1.1/DTD/svg11-tiny.dtd">
<svg version="1.1" baseProfile="tiny" id="Layer_1" xmlns="http://www.w3.org/2000/svg" xmlns:xlink="http://www.w3.org/1999/xlink"
	 x="0px" y="0px" width="1000px" height="1000px" viewBox="0 0 1000 1000" xml:space="preserve">
<g>
	<path display="none" fill-rule="evenodd" fill="#FEFEFE" d="M2.393,501.12c0-163.03,0.073-326.059-0.22-489.087
		c-0.014-8.029,1.374-9.884,9.712-9.877c326.856,0.278,653.713,0.291,980.568-0.043c9.255-0.009,10.124,2.67,10.118,10.668
		c-0.209,326.458-0.218,652.915,0.037,979.373c0.007,8.425-1.479,10.494-10.308,10.485c-326.457-0.294-652.915-0.299-979.372,0.011
		c-9.477,0.01-10.752-2.698-10.738-11.247C2.463,827.977,2.393,664.549,2.393,501.12z M502.785,28.684c0-0.128,0-0.257,0-0.385
		c-59.406,0-118.813,0.148-178.218-0.074c-23.237-0.088-46.069,2.561-68.69,7.657C129.466,64.358,31.471,180.453,29.156,309.683
		c-2.257,125.945-0.813,251.958-0.765,377.94c0.009,24.805,4.192,49.15,11.009,72.988
		c36.542,127.782,152.635,215.088,285.908,215.088c118.812,0,237.625,0.016,356.437-0.014c18.774-0.005,37.391-1.95,55.755-5.779
		c141.104-29.421,238.2-148.767,238.2-292.655c0-116.021-0.08-232.043,0.081-348.064c0.026-19.191-1.479-38.169-4.475-57.096
		C950.518,140.73,830.812,33.323,697.724,29.044C632.807,26.958,567.769,28.684,502.785,28.684z"/>
	<path fill-rule="evenodd" fill="#0A0A0A" d="M502.785,28.684c64.983,0,130.021-1.725,194.938,0.361
		c133.088,4.279,252.794,111.686,273.582,243.046c2.995,18.927,4.501,37.905,4.475,57.096
		c-0.161,116.021-0.081,232.042-0.081,348.064c0,143.889-97.097,263.234-238.2,292.655c-18.364,3.829-36.98,5.774-55.755,5.779
		c-118.812,0.029-237.625,0.014-356.437,0.014c-133.273,0-249.366-87.306-285.908-215.088c-6.817-23.838-11-48.184-11.009-72.988
		c-0.048-125.982-1.492-251.996,0.765-377.94c2.315-129.23,100.31-245.324,226.721-273.801c22.621-5.097,45.453-7.745,68.69-7.657
		c59.406,0.222,118.813,0.074,178.218,0.074C502.785,28.427,502.785,28.555,502.785,28.684z M886.32,501.196
		c0-59.011,0.079-118.021-0.08-177.032c-0.026-9.535-0.371-19.184-1.838-28.58C868.034,190.738,782.12,117.28,676.035,117.241
		c-116.026-0.043-232.054,0.013-348.081-0.039c-13.992-0.007-27.871,1.129-41.567,3.843
		c-99.689,19.755-168.75,103.923-168.75,205.519c0,116.426,0,232.851,0,349.276c0,118.265,91.017,210.12,209.074,210.415
		c117.223,0.294,234.448,0.417,351.667-0.035c116.797-0.45,207.923-92.52,207.94-209.189
		C886.327,618.419,886.32,559.808,886.32,501.196z"/>
	<path display="none" fill-rule="evenodd" fill="#FEFEFE" d="M886.32,501.196c0,58.611,0.007,117.223-0.001,175.835
		c-0.018,116.67-91.144,208.739-207.94,209.189c-117.22,0.452-234.445,0.329-351.667,0.035
		c-118.058-0.295-209.074-92.15-209.074-210.415c0-116.426,0-232.851,0-349.276c0-101.595,69.062-185.763,168.75-205.519
		c13.696-2.714,27.575-3.85,41.567-3.843c116.026,0.051,232.054-0.004,348.081,0.039c106.085,0.039,191.999,73.497,208.367,178.343
		c1.467,9.396,1.812,19.045,1.838,28.58C886.399,383.175,886.32,442.186,886.32,501.196z M502.526,265.138
		c-131.947-0.002-237.331,104.727-237.389,235.911C265.08,631.776,370.095,738.8,498.487,738.86
		c134.211,0.064,240.608-104.607,240.753-236.85C739.385,371.058,633.538,265.139,502.526,265.138z M724.875,247.096
		c-0.073,17.774,13.477,31.906,31.073,32.41c17.423,0.499,32.54-14.709,32.359-32.555c-0.176-17.543-14.448-31.687-31.923-31.636
		C738.709,215.367,724.947,229.247,724.875,247.096z"/>
	<path fill-rule="evenodd" fill="#0A0A0A" d="M502.526,265.138c131.012,0.001,236.858,105.92,236.714,236.873
		c-0.145,132.242-106.542,236.914-240.753,236.85C370.095,738.8,265.08,631.776,265.138,501.049
		C265.195,369.865,370.58,265.136,502.526,265.138z M496.971,649.451C575,653.76,644.396,590.087,649.438,509.557
		c5.006-79.931-58.532-150.657-139.454-155.232c-80.547-4.555-151.181,58.649-155.507,139.153
		C350.044,575.932,412.975,644.813,496.971,649.451z"/>
	<path fill-rule="evenodd" fill="#0A0A0A" d="M724.875,247.096c0.072-17.849,13.834-31.729,31.51-31.781
		c17.475-0.051,31.747,14.093,31.923,31.636c0.181,17.846-14.937,33.054-32.359,32.555
		C738.352,279.002,724.802,264.871,724.875,247.096z"/>
	<path display="none" fill-rule="evenodd" fill="#FEFEFE" d="M496.971,649.451c-83.996-4.638-146.927-73.52-142.494-155.974
		c4.327-80.503,74.96-143.708,155.507-139.153c80.922,4.575,144.46,75.301,139.454,155.232
		C644.396,590.087,575,653.76,496.971,649.451z"/>
</g>
</svg>
