<?xml version="1.0" encoding="utf-8"?>
<!-- Generator: Adobe Illustrator 16.0.3, SVG Export Plug-In . SVG Version: 6.00 Build 0)  -->
<!DOCTYPE svg PUBLIC "-//W3C//DTD SVG 1.1 Tiny//EN" "http://www.w3.org/Graphics/SVG/1.1/DTD/svg11-tiny.dtd">
<svg version="1.1" baseProfile="tiny" id="Layer_1" xmlns="http://www.w3.org/2000/svg" xmlns:xlink="http://www.w3.org/1999/xlink"
	 x="0px" y="0px" width="1000px" height="1000px" viewBox="0 0 1000 1000" xml:space="preserve">
<g>
	<path display="none" fill-rule="evenodd" fill="#FFFFFF" d="M505.784,995.561c-162.363,0-324.726-0.078-487.088,0.229
		c-8.137,0.016-9.736-1.599-9.729-9.733c0.265-324.726,0.265-649.45,0-974.176c-0.007-8.134,1.593-9.736,9.729-9.73
		c324.725,0.266,649.45,0.266,974.175,0.001c8.135-0.007,9.737,1.593,9.731,9.729c-0.266,324.725-0.266,649.45-0.001,974.175
		c0.007,8.134-1.591,9.75-9.729,9.734C830.51,995.482,668.146,995.561,505.784,995.561z M81.331,769.015
		c12.837,7.253,25.65,14.551,38.528,21.732c3.44,1.919,7.067,3.505,10.626,5.206c88.986,42.557,182.501,56.897,280.302,45.55
		c100.244-11.632,189.612-48.729,264.285-116.873c114.322-104.331,170.141-235.119,169.877-389.772
		c-0.013-7.662,2.246-11.981,8.205-16.422c30.652-22.845,56.23-50.56,79.049-84.502c-32.217,11.962-62.18,23.353-96.844,25.311
		c32.098-20.92,53.652-46.875,67.448-79.356c1.44-3.391,5.171-7.463,1.445-10.691c-3.147-2.728-6.523,1.223-9.498,2.794
		c-28.074,14.814-57.516,25.777-88.465,33.007c-6.768,1.582-10.71,0.299-15.457-4.34c-64.095-62.631-167.868-66.006-235.233-6.965
		c-52.101,45.662-68.966,103.975-57.829,172.959c-145.929-10.148-265.062-71.533-359.79-183.16
		c-22.278,40.01-29.212,81.369-19.947,125.406c9.327,44.331,33.714,78.987,71.063,107.646c-28.636-0.462-52.374-9.272-76.35-20.604
		c0.093,42.073,12.431,78.374,37.354,110.263c25.095,32.107,57.92,52.585,99.669,63.335c-26.287,7.439-50.497,6.181-76.5,3.104
		c29.228,74.521,82.314,114.856,162.249,122.695C258.896,752.792,174.44,775.046,81.331,769.015z"/>
	<path fill-rule="evenodd" fill="#080808" d="M81.331,769.015c93.109,6.031,177.565-16.223,254.188-73.679
		c-79.935-7.839-133.021-48.174-162.249-122.695c26.004,3.077,50.213,4.336,76.5-3.104c-41.749-10.75-74.575-31.228-99.669-63.335
		c-24.923-31.89-37.261-68.19-37.354-110.263c23.976,11.332,47.713,20.142,76.35,20.604
		c-37.349-28.659-61.736-63.314-71.063-107.646c-9.265-44.037-2.331-85.396,19.947-125.406
		c94.728,111.627,213.861,173.012,359.79,183.16c-11.137-68.984,5.729-127.297,57.829-172.959
		c67.365-59.041,171.139-55.667,235.233,6.965c4.747,4.639,8.689,5.921,15.457,4.34c30.949-7.23,60.391-18.192,88.465-33.007
		c2.975-1.571,6.351-5.521,9.498-2.794c3.726,3.228-0.005,7.3-1.445,10.691c-13.796,32.481-35.351,58.436-67.448,79.356
		c34.664-1.958,64.627-13.348,96.844-25.311c-22.818,33.942-48.396,61.658-79.049,84.502c-5.959,4.441-8.218,8.761-8.205,16.422
		c0.264,154.653-55.555,285.441-169.877,389.772c-74.673,68.145-164.041,105.241-264.285,116.873
		c-97.801,11.348-191.316-2.993-280.302-45.55c-3.559-1.701-7.186-3.287-10.626-5.206
		C106.981,783.565,94.168,776.268,81.331,769.015z"/>
</g>
</svg>
