<?xml version="1.0" encoding="utf-8"?>
<!-- Generator: Adobe Illustrator 16.0.3, SVG Export Plug-In . SVG Version: 6.00 Build 0)  -->
<!DOCTYPE svg PUBLIC "-//W3C//DTD SVG 1.1 Tiny//EN" "http://www.w3.org/Graphics/SVG/1.1/DTD/svg11-tiny.dtd">
<svg version="1.1" baseProfile="tiny" id="Layer_1" xmlns="http://www.w3.org/2000/svg" xmlns:xlink="http://www.w3.org/1999/xlink"
	 x="0px" y="0px"  viewBox="0 0 1000 1000" xml:space="preserve">
<g>
	<path display="none" fill-rule="evenodd" fill="#F6F6F5" d="M2.399,544.365c0-27.977,0-55.956,0-83.933
		c4.218-0.482,4.588-3.44,4.828-6.897c2.854-41.069,12.742-80.549,26.35-119.294c31.703-90.273,85.958-164.752,160.259-224.039
		c67.09-53.532,143.58-87.438,228.786-101.236c6.748-1.092,16.406,2.794,21.024-6.568c40.768,0,81.535,0,122.302,0
		c4.624,9.361,14.267,5.437,21.037,6.579c95.151,16.053,178.77,56.314,250.448,120.291c52.194,46.584,93.727,101.67,122.121,166.196
		c23.736,53.943,39.994,109.664,42.829,168.846c0.173,3.637-0.254,7.457,4.812,8.113c0,19.984,0,39.968,0,59.952
		c-5.889,0.896-4.722,5.51-4.76,9.313c-0.08,7.96-1.036,15.768-2.047,23.687c-7.891,61.845-26.594,120.03-56.242,174.896
		c-32.637,60.394-76.093,111.416-129.71,154.152c-67.114,53.494-143.009,86.691-227.45,101.396
		c-6.783,1.182-16.415-2.778-21.038,6.581c-40.768,0-81.535,0-122.302,0c-0.605-5.118-4.494-4.447-8.076-4.847
		c-19.735-2.2-39.117-6.4-58.265-11.475c-61.844-16.387-118.736-43.2-170.142-81.485c-36.514-27.193-68.8-58.702-97.009-94.396
		c-28.825-36.473-51.773-76.494-69.147-119.486c-17.771-43.973-29.914-89.55-33.806-137.051
		C6.891,549.872,8.307,545.241,2.399,544.365z M504.479,777.27c0-0.091,0-0.182,0-0.271c27.559,0,55.117,0.223,82.673-0.061
		c29.603-0.305,50.944-23.563,48.693-52.93c-0.821-10.725-2.239-21.422-3.817-32.066c-6.96-46.986-14.928-94.044-10.616-141.687
		c3.808-42.07,10.202-83.903,15.175-125.874c2.187-18.45-2.283-33.954-20.673-42.821c-9.186-4.429-14.202-12.388-16.703-22.165
		c-2.759-10.778-5.429-21.605-8.84-32.183c-3.225-10.002-9.071-17.485-20.799-18.703c-10.976-1.141-16.007-7.744-15.343-18.833
		c0.284-4.755,0.247-9.551,0.019-14.313c-1.211-25.257-20.849-46.021-45.005-47.717c-27.613-1.94-49.218,14.56-54.347,41.265
		c-1.595,8.308-2.191,16.688-1.534,25.02c0.635,8.07-2.677,11.516-10.354,12.822c-14.515,2.469-22.98,11.789-26.822,25.628
		c-2.662,9.587-5.869,19.102-7.52,28.871c-1.55,9.174-5.683,14.633-14.28,18.669c-15.979,7.502-23.604,21.045-22.604,38.754
		c0.627,11.132,2.05,22.228,3.375,33.31c4.824,40.367,12.591,80.467,12.884,121.256c0.343,48.035-7.775,95.292-15.122,142.561
		c-5.336,34.333,18.093,61.867,52.534,61.521C451.792,777.057,478.137,777.27,504.479,777.27z"/>
	<path display="none" fill-rule="evenodd" fill="#FFFFFF" d="M565.948,1002.399c4.623-9.359,14.255-5.399,21.038-6.581
		c84.441-14.705,160.336-47.902,227.45-101.396c53.617-42.736,97.073-93.759,129.71-154.152
		c29.648-54.865,48.352-113.051,56.242-174.896c1.011-7.919,1.967-15.727,2.047-23.687c0.038-3.803-1.129-8.417,4.76-9.313
		c0,153.275-0.088,306.552,0.232,459.826c0.018,8.589-1.701,10.46-10.393,10.439C853.34,1002.301,709.644,1002.399,565.948,1002.399
		z"/>
	<path display="none" fill-rule="evenodd" fill="#FFFFFF" d="M1007.195,472.423c-5.065-0.657-4.639-4.477-4.812-8.113
		c-2.835-59.182-19.093-114.903-42.829-168.846c-28.395-64.526-69.927-119.611-122.121-166.196
		C765.755,65.292,682.137,25.031,586.985,8.978c-6.771-1.142-16.413,2.782-21.037-6.579c143.885,0,287.77,0.089,431.654-0.232
		c8.213-0.019,9.841,1.613,9.824,9.824C1007.111,165.469,1007.195,318.946,1007.195,472.423z"/>
	<path display="none" fill-rule="evenodd" fill="#FFFFFF" d="M2.399,544.365c5.908,0.876,4.492,5.507,4.802,9.295
		c3.892,47.501,16.035,93.078,33.806,137.051c17.375,42.992,40.322,83.014,69.147,119.486
		c28.209,35.693,60.495,67.202,97.009,94.396c51.405,38.285,108.297,65.099,170.142,81.485c19.148,5.074,38.53,9.274,58.265,11.475
		c3.582,0.399,7.47-0.271,8.076,4.847c-143.693,0-287.387-0.098-431.08,0.239c-8.671,0.021-10.42-1.82-10.401-10.429
		C2.49,842.929,2.399,693.647,2.399,544.365z"/>
	<path display="none" fill-rule="evenodd" fill="#FFFFFF" d="M443.646,2.399c-4.618,9.362-14.276,5.476-21.024,6.568
		c-85.206,13.797-161.696,47.704-228.786,101.236C119.535,169.49,65.28,243.968,33.577,334.242
		c-13.608,38.745-23.495,78.225-26.35,119.294c-0.24,3.457-0.61,6.415-4.828,6.897c0-149.282,0.091-298.563-0.234-447.844
		C2.146,3.98,3.896,2.139,12.566,2.159C156.259,2.496,299.953,2.399,443.646,2.399z"/>
	<path fill-rule="evenodd" fill="#090808" d="M504.479,777.27c-26.341,0-52.686-0.213-79.025,0.053
		c-34.441,0.347-57.87-27.188-52.534-61.521c7.347-47.269,15.465-94.525,15.122-142.561c-0.292-40.789-8.06-80.889-12.884-121.256
		c-1.324-11.082-2.747-22.177-3.375-33.31c-1-17.709,6.624-31.252,22.604-38.754c8.597-4.036,12.729-9.495,14.28-18.669
		c1.651-9.769,4.858-19.283,7.52-28.871c3.842-13.839,12.307-23.159,26.822-25.628c7.678-1.306,10.989-4.752,10.354-12.822
		c-0.657-8.332-0.061-16.712,1.534-25.02c5.128-26.706,26.733-43.205,54.347-41.265c24.156,1.696,43.794,22.46,45.005,47.717
		c0.229,4.761,0.266,9.558-0.019,14.313c-0.664,11.089,4.367,17.692,15.343,18.833c11.728,1.218,17.574,8.701,20.799,18.703
		c3.411,10.578,6.081,21.405,8.84,32.183c2.501,9.777,7.518,17.736,16.703,22.165c18.39,8.867,22.859,24.372,20.673,42.821
		c-4.973,41.971-11.367,83.804-15.175,125.874c-4.312,47.643,3.656,94.7,10.616,141.687c1.578,10.645,2.996,21.342,3.817,32.066
		c2.251,29.366-19.091,52.625-48.693,52.93c-27.556,0.283-55.114,0.061-82.673,0.061
		C504.479,777.088,504.479,777.179,504.479,777.27z M504.803,407.208c-27.964,0-55.928-0.102-83.893,0.041
		c-14.651,0.074-17.725,3.664-16.078,17.877c1.331,11.493,2.911,22.959,4.045,34.472c0.633,6.436,3.627,8.67,10.097,8.644
		c11.544-0.044,23.108-0.924,34.664,0.748c9.83,1.424,15.854,6.906,15.524,16.462c-0.351,10.264-7.539,15.398-17.623,15.773
		c-9.177,0.344-18.394,0.64-27.55,0.146c-7.983-0.431-9.65,2.89-8.468,10.044c1.559,9.434,3.636,19.03,3.274,28.472
		c-0.498,12.964,5.479,15.06,16.706,14.807c15.498-0.351,31.204-2.16,46.557,1.304c12.13,2.737,16.93,17.68,8.567,25.923
		c-4.853,4.783-11.435,5.498-17.859,5.563c-14.379,0.146-28.767,0.215-43.139-0.165c-6.011-0.159-8.968,2.068-9.431,7.937
		c-0.972,12.326-1.685,24.685-3.078,36.965c-0.757,6.656,1.801,8.423,7.939,8.139c7.973-0.37,15.977-0.177,23.965-0.069
		c13.093,0.176,19.614,5.919,19.709,17.179c0.078,9.372-6.365,15.196-18.666,15.812c-9.962,0.498-19.969,0.161-29.956,0.1
		c-4.283-0.026-8.193,0.478-8.855,5.73c-2.086,16.595-4.727,33.159-5.825,49.823c-0.617,9.341,5.741,14.626,15.163,14.88
		c49.464,1.33,98.959,2.422,148.391-0.049c36.604-1.83,36.993-3.724,31.813-40.204c-6.052-42.617-13.827-85.129-13.221-128.416
		c0.689-49.216,9.894-97.563,15.747-146.245c2.181-18.128-0.202-21.534-18.222-21.648
		C558.337,407.081,531.569,407.208,504.803,407.208z M501.795,374.082c0.001-0.098,0.001-0.193,0.001-0.291
		c17.576,0,35.153,0.047,52.729-0.033c4.333-0.02,9.112,0.278,11.349-4.64c3.937-8.658-6.152-29.637-15.354-32.258
		c-19.739-5.622-27.646-15.736-28.033-36.046c-0.144-7.587,0.562-15.252-0.28-22.752c-1.139-10.151-7.081-17.108-17.522-18.267
		c-9.183-1.019-17.08,7.42-17.929,18.646c-0.599,7.95,0.13,16.001-0.511,23.944c-1.102,13.665-4.622,28.358-19.234,31.388
		c-17.845,3.702-22.648,14.67-25.478,29.725c-1.51,8.04,0.443,10.896,8.744,10.703C467.439,373.803,484.621,374.082,501.795,374.082
		z"/>
	<path fill-rule="evenodd" fill="#F6F6F5" d="M504.803,407.208c26.767,0,53.534-0.126,80.299,0.043
		c18.02,0.115,20.402,3.52,18.222,21.648c-5.854,48.683-15.058,97.029-15.747,146.245c-0.606,43.287,7.169,85.799,13.221,128.416
		c5.18,36.48,4.791,38.374-31.813,40.204c-49.432,2.471-98.927,1.379-148.391,0.049c-9.421-0.254-15.78-5.539-15.163-14.88
		c1.098-16.664,3.739-33.229,5.825-49.823c0.662-5.253,4.572-5.757,8.855-5.73c9.987,0.062,19.994,0.398,29.956-0.1
		c12.301-0.615,18.744-6.439,18.666-15.812c-0.095-11.26-6.616-17.003-19.709-17.179c-7.988-0.107-15.993-0.301-23.965,0.069
		c-6.138,0.284-8.696-1.482-7.939-8.139c1.393-12.28,2.106-24.639,3.078-36.965c0.462-5.868,3.419-8.096,9.431-7.937
		c14.372,0.38,28.76,0.312,43.139,0.165c6.425-0.065,13.007-0.78,17.859-5.563c8.363-8.243,3.563-23.186-8.567-25.923
		c-15.353-3.464-31.059-1.654-46.557-1.304c-11.227,0.253-17.203-1.843-16.706-14.807c0.362-9.441-1.715-19.038-3.274-28.472
		c-1.182-7.154,0.485-10.475,8.468-10.044c9.156,0.493,18.373,0.197,27.55-0.146c10.084-0.375,17.271-5.509,17.623-15.773
		c0.329-9.556-5.694-15.039-15.524-16.462c-11.556-1.672-23.12-0.792-34.664-0.748c-6.47,0.026-9.464-2.208-10.097-8.644
		c-1.135-11.513-2.714-22.979-4.045-34.472c-1.646-14.213,1.427-17.803,16.078-17.877
		C448.875,407.106,476.839,407.208,504.803,407.208z"/>
	<path fill-rule="evenodd" fill="#F6F6F5" d="M501.795,374.082c-17.174,0-34.355-0.279-51.52,0.12
		c-8.301,0.193-10.254-2.664-8.744-10.703c2.829-15.055,7.632-26.023,25.478-29.725c14.612-3.03,18.132-17.723,19.234-31.388
		c0.642-7.943-0.088-15.995,0.511-23.944c0.849-11.226,8.746-19.665,17.929-18.646c10.441,1.158,16.384,8.116,17.522,18.267
		c0.842,7.5,0.137,15.165,0.28,22.752c0.388,20.31,8.294,30.424,28.033,36.046c9.202,2.621,19.291,23.6,15.354,32.258
		c-2.236,4.918-7.016,4.62-11.349,4.64c-17.575,0.08-35.152,0.033-52.729,0.033C501.796,373.889,501.796,373.984,501.795,374.082z"
		/>
</g>
</svg>
