<svg id="Layer_1" data-name="Layer 1" xmlns="http://www.w3.org/2000/svg" viewBox="0 0 100 100"><defs><style>.cls-1{fill:#f5f5f5;}</style></defs><circle class="cls-1" cx="50" cy="50" r="50"/><path d="M83.75,71h-1V62.83a4.1,4.1,0,0,0-4.09-4.09V41.35a4.1,4.1,0,0,0-4.09-4.09h-43a4.09,4.09,0,0,0-4.09,4.09V58.74a4.09,4.09,0,0,0-4.09,4.09V71h-1a1,1,0,0,0-1,1v4.09a1,1,0,0,0,1,1h1v4.1a1,1,0,0,0,1,1H27.5a1,1,0,0,0,1-.82l.86-4.3H76.78l.85,4.3a1,1,0,0,0,1,.82H81.7a1,1,0,0,0,1-1v-4.1h1a1,1,0,0,0,1-1V72A1,1,0,0,0,83.75,71ZM29.55,41.35a2,2,0,0,1,2-2.05h43a2.05,2.05,0,0,1,2,2.05V58.74h-2v-4.1a4.12,4.12,0,0,0-4.1-4.09H58.18a4.1,4.1,0,0,0-4.09,4.09v4.1h-2v-4.1A4.12,4.12,0,0,0,48,50.55H35.68a4.1,4.1,0,0,0-4.09,4.09v4.1h-2Zm43,13.29v4.1H56.14v-4.1a2,2,0,0,1,2-2H70.45A2.05,2.05,0,0,1,72.5,54.64Zm-22.5,0v4.1H33.64v-4.1a2,2,0,0,1,2-2H48A2.05,2.05,0,0,1,50,54.64ZM25.45,62.83a2.06,2.06,0,0,1,2.05-2H78.64a2,2,0,0,1,2,2V71H25.45Zm1.21,17.38H25.45V77.14h1.83Zm54,0H79.47l-.61-3.07h1.82Zm2-5.11H23.41v-2H82.73Z"/></svg>