<svg id="Layer_1" data-name="Layer 1" xmlns="http://www.w3.org/2000/svg" viewBox="0 0 100 100"><defs><style>.cls-1{fill:#f5f5f5;}</style></defs><circle class="cls-1" cx="50" cy="50" r="50"/><path d="M37.25,27.5A9.75,9.75,0,1,0,47,37.25,9.76,9.76,0,0,0,37.25,27.5Zm0,18a8.25,8.25,0,1,1,8.25-8.25A8.25,8.25,0,0,1,37.25,45.5Z"/><path d="M42.5,37.25a5.25,5.25,0,0,1-5.25,5.25V44A6.75,6.75,0,0,0,44,37.25Z"/><path d="M64.25,30.5a8.25,8.25,0,1,0,8.25,8.25A8.25,8.25,0,0,0,64.25,30.5Zm0,15A6.75,6.75,0,1,1,71,38.75,6.75,6.75,0,0,1,64.25,45.5Z"/><path d="M59,38.75h1.5A3.75,3.75,0,0,1,64.25,35V33.5A5.25,5.25,0,0,0,59,38.75Z"/><path d="M44,56a8.25,8.25,0,1,0,8.25,8.25A8.25,8.25,0,0,0,44,56Zm0,15a6.75,6.75,0,1,1,6.75-6.75A6.75,6.75,0,0,1,44,71Z"/><path d="M40.25,64.25h-1.5A5.25,5.25,0,0,0,44,69.5V68A3.75,3.75,0,0,1,40.25,64.25Z"/><path d="M50,45.5A4.5,4.5,0,1,0,54.5,50,4.49,4.49,0,0,0,50,45.5ZM50,53a3,3,0,1,1,3-3A3,3,0,0,1,50,53Z"/><path d="M65,53a4.5,4.5,0,1,0,4.5,4.5A4.49,4.49,0,0,0,65,53Zm0,7.5a3,3,0,1,1,3-3A3,3,0,0,1,65,60.5Z"/><path d="M32,50.75A2.25,2.25,0,1,0,34.25,53,2.25,2.25,0,0,0,32,50.75Zm0,3a.75.75,0,1,1,.75-.75A.76.76,0,0,1,32,53.75Z"/><path d="M50,29.75A2.25,2.25,0,1,0,52.25,32,2.25,2.25,0,0,0,50,29.75Zm0,3a.75.75,0,1,1,.75-.75A.76.76,0,0,1,50,32.75Z"/><path d="M59.75,65.75A2.25,2.25,0,1,0,62,68,2.25,2.25,0,0,0,59.75,65.75Zm0,3A.75.75,0,1,1,60.5,68,.76.76,0,0,1,59.75,68.75Z"/></svg>