<svg id="Layer_1" data-name="Layer 1" xmlns="http://www.w3.org/2000/svg" viewBox="0 0 100 100"><defs><style>.cls-1{fill:#f5f5f5;}</style></defs><circle class="cls-1" cx="50" cy="50" r="50"/><path d="M71.22,48a1.92,1.92,0,0,0-1.91,1.9v19.3H30.69V49.93a1.9,1.9,0,0,0-3.8,0v21.2a1.91,1.91,0,0,0,1.9,1.9h42.4a1.91,1.91,0,0,0,1.9-1.9V49.93A1.85,1.85,0,0,0,71.22,48Z"/><path d="M81.33,48.56l-30-30a1.93,1.93,0,0,0-2.69,0l-30,30a1.91,1.91,0,0,0,0,2.69,1.88,1.88,0,0,0,1.34.56,1.9,1.9,0,0,0,1.35-.56L50,22.62,78.62,51.25a1.93,1.93,0,0,0,2.69,0A1.89,1.89,0,0,0,81.33,48.56Z"/><path d="M36.42,52.31c1.65,1.42,3.52,3,7.15,3s5.5-1.6,7.15-3,2.92-2.51,5.73-2.51,4.16,1.17,5.74,2.51a1.11,1.11,0,0,0,1.54-.12,1.12,1.12,0,0,0-.12-1.55c-1.65-1.42-3.53-3-7.16-3s-5.5,1.6-7.15,3-2.91,2.51-5.73,2.51S39.41,52,37.84,50.64a1.12,1.12,0,0,0-1.55.13A1.1,1.1,0,0,0,36.42,52.31Z"/><path d="M36.42,46.35c1.65,1.42,3.52,3,7.15,3s5.5-1.6,7.15-3,2.92-2.51,5.73-2.51,4.16,1.17,5.74,2.51a1.11,1.11,0,0,0,1.54-.12,1.12,1.12,0,0,0-.12-1.55c-1.65-1.42-3.53-3-7.16-3s-5.5,1.6-7.15,3-2.91,2.51-5.73,2.51S39.41,46,37.84,44.68a1.12,1.12,0,0,0-1.55.13A1.1,1.1,0,0,0,36.42,46.35Z"/><path d="M63.58,56.62c-1.65-1.42-3.52-3-7.15-3s-5.5,1.59-7.15,3-2.92,2.51-5.73,2.51S39.39,58,37.81,56.62h0a1.1,1.1,0,0,0-1.54.13,1.12,1.12,0,0,0,.12,1.55c1.65,1.42,3.53,3,7.16,3s5.5-1.6,7.15-3,2.91-2.51,5.73-2.51S60.59,57,62.16,58.3a1.1,1.1,0,1,0,1.42-1.68Z"/></svg>