<svg id="Layer_1" data-name="Layer 1" xmlns="http://www.w3.org/2000/svg" viewBox="0 0 100 100"><defs><style>.cls-1{fill:#f5f5f5;}</style></defs><circle class="cls-1" cx="50" cy="50" r="50"/><path d="M81.57,75.41a.8.8,0,0,0,0-.26l-1.6-5.6a.92.92,0,0,0-1.78.5l1,3.36L65.11,65V49a.92.92,0,0,0-.49-.81L50.93,40.92V25.78l2.36,2.54a.92.92,0,0,0,1.35-1.26l-4-4.27a.94.94,0,0,0-1.34,0l0,0-4,4.27a.93.93,0,0,0,1.36,1.26l2.36-2.55V40.91L35.39,48.19a.93.93,0,0,0-.5.82V65l-14,8.41,1-3.36a.92.92,0,0,0-1.78-.5l-1.6,5.6a.94.94,0,0,0,.68,1.16l.09,0,5.64,1.15a.92.92,0,0,0,.37-1.81L21.86,75,35.8,66.61l13.77,7.32a.93.93,0,0,0,.86,0l8.88-4.73a.93.93,0,0,0-.87-1.64l-7.52,4V57.11l12.33-6.56V65L58,67.79a.92.92,0,0,0,.87,1.63l5.26-2.83,14,8.39-3.38.69a.93.93,0,0,0,.37,1.81l5.65-1.15A.94.94,0,0,0,81.57,75.41ZM50,55.51l-5.59-3a.92.92,0,0,0-.87,1.63l5.54,3V71.57L36.75,65V50.55l7.69,4.1A.92.92,0,0,0,45.31,53l-7.52-4L50,42.52,62.21,49Z"/></svg>