<svg id="Layer_1" data-name="Layer 1" xmlns="http://www.w3.org/2000/svg" viewBox="0 0 100 100"><defs><style>.cls-1{fill:#f5f5f5;}</style></defs><circle class="cls-1" cx="50" cy="50" r="50"/><path d="M76.27,45.32l-6.43-1.56a20.86,20.86,0,0,0-1.36-3.27l3.3-5.5a1.62,1.62,0,0,0-.24-2L67,28.46a1.6,1.6,0,0,0-2-.24l-5.51,3.3a20.86,20.86,0,0,0-3.27-1.36l-1.56-6.43a1.6,1.6,0,0,0-1.56-1.23H46.67a1.62,1.62,0,0,0-1.57,1.23l-1.56,6.43a21.27,21.27,0,0,0-3.27,1.36l-5.5-3.3a1.62,1.62,0,0,0-2,.24L28.24,33A1.6,1.6,0,0,0,28,35l3.3,5.51A20.82,20.82,0,0,0,30,43.76l-6.23,1.56a1.61,1.61,0,0,0-1.22,1.56v6.45a1.6,1.6,0,0,0,1.22,1.56L30,56.45a21.34,21.34,0,0,0,1.35,3.28L28,65.23a1.62,1.62,0,0,0,.24,2l4.56,4.56a1.62,1.62,0,0,0,2,.24l5.5-3.3a21.34,21.34,0,0,0,3.28,1.35l1.56,6.23a1.6,1.6,0,0,0,1.56,1.22h6.45a1.61,1.61,0,0,0,1.56-1.22l1.56-6.23a20.82,20.82,0,0,0,3.27-1.35L65,72a1.62,1.62,0,0,0,2-.24l4.56-4.56a1.62,1.62,0,0,0,.24-2l-3.3-5.5a21.27,21.27,0,0,0,1.36-3.27l6.43-1.56a1.62,1.62,0,0,0,1.23-1.57V46.88A1.6,1.6,0,0,0,76.27,45.32Zm-2,6.74-6.11,1.48A1.63,1.63,0,0,0,67,54.69,17.39,17.39,0,0,1,65.23,59a1.63,1.63,0,0,0,0,1.64l3.13,5.21-2.78,2.78-5.21-3.13a1.61,1.61,0,0,0-1.64,0,17.72,17.72,0,0,1-4.26,1.76,1.61,1.61,0,0,0-1.15,1.17l-1.47,5.9H47.93l-1.48-5.9a1.61,1.61,0,0,0-1.14-1.17A17.79,17.79,0,0,1,41,65.45a1.61,1.61,0,0,0-1.64,0l-5.21,3.13-2.78-2.78,3.13-5.21a1.61,1.61,0,0,0,0-1.64,17.79,17.79,0,0,1-1.76-4.27,1.61,1.61,0,0,0-1.17-1.14l-5.9-1.48V48.14l5.9-1.47a1.61,1.61,0,0,0,1.17-1.15,17.72,17.72,0,0,1,1.76-4.26,1.61,1.61,0,0,0,0-1.64l-3.13-5.21,2.78-2.78,5.21,3.13a1.63,1.63,0,0,0,1.64,0A17.39,17.39,0,0,1,45.31,33a1.63,1.63,0,0,0,1.15-1.18l1.48-6.11h3.91l1.48,6.11A1.63,1.63,0,0,0,54.48,33a17.32,17.32,0,0,1,4.26,1.76,1.63,1.63,0,0,0,1.64,0l5.21-3.13,2.78,2.78-3.13,5.21a1.63,1.63,0,0,0,0,1.64A17.32,17.32,0,0,1,67,45.52a1.63,1.63,0,0,0,1.18,1.15l6.11,1.48Z"/><path d="M49.89,38.83A11.28,11.28,0,1,0,61.17,50.11,11.29,11.29,0,0,0,49.89,38.83Zm0,19.33a8.06,8.06,0,1,1,8.06-8A8.06,8.06,0,0,1,49.89,58.16Z"/></svg>