<svg id="Layer_1" data-name="Layer 1" xmlns="http://www.w3.org/2000/svg" viewBox="0 0 100 100"><defs><style>.cls-1{fill:#f5f5f5;}</style></defs><circle class="cls-1" cx="50" cy="50" r="50"/><g id="Layer_32" data-name="Layer 32"><path d="M77.41,47.39l-4.69-2.34,4.69-2.34a.9.9,0,0,0,0-1.61l-27-13.51a.93.93,0,0,0-.8,0l-27,13.51a.9.9,0,0,0-.4,1.2.93.93,0,0,0,.4.41l4.69,2.34-4.69,2.34a.93.93,0,0,0-.5.81v3.6a.92.92,0,0,0,.5.81L27.28,55l-4.69,2.34a.9.9,0,0,0,0,1.61l27,13.51a.93.93,0,0,0,.8,0l27-13.51a.9.9,0,0,0,.4-1.2.93.93,0,0,0-.4-.41L72.72,55l4.69-2.34a.92.92,0,0,0,.5-.81V48.2A.93.93,0,0,0,77.41,47.39ZM50,29.4,75,41.9,50,54.39,25,41.9Zm-.4,26.81a.87.87,0,0,0,.8,0L70.7,46.06,75,48.2,50,60.7,25,48.2l4.29-2.14ZM23.9,49.66l25.2,12.6v1.59L23.9,51.24ZM75,58.1,50,70.6,25,58.1,29.3,56,49.6,66.11a.87.87,0,0,0,.8,0L70.7,56ZM50.9,63.85V62.26l25.2-12.6v1.58Z"/></g></svg>