<?xml version="1.0" encoding="utf-8"?>
<!-- Generator: Adobe Illustrator 16.0.3, SVG Export Plug-In . SVG Version: 6.00 Build 0)  -->
<!DOCTYPE svg PUBLIC "-//W3C//DTD SVG 1.1 Tiny//EN" "http://www.w3.org/Graphics/SVG/1.1/DTD/svg11-tiny.dtd">
<svg version="1.1" baseProfile="tiny" id="Layer_1" xmlns="http://www.w3.org/2000/svg" xmlns:xlink="http://www.w3.org/1999/xlink"
	 x="0px" y="0px"  viewBox="0 0 1000 1000" xml:space="preserve">
<g>
	<path display="none" fill-rule="evenodd" fill="#F5F5F4" d="M545.451,1002.389c-29.506,0-59.011,0-88.517,0
		c-0.482-4.213-3.419-4.901-6.891-4.768c-14.021,0.542-27.671-2.797-41.125-5.525c-85.172-17.279-161.865-52.377-228.434-109.143
		c-52.732-44.967-95.45-97.773-125.883-159.813c-22.427-45.719-38.227-93.923-45.735-144.723
		c-1.111-7.516,3.294-17.869-6.477-23.396c0-35.886,0-71.771,0-107.656c4.224-0.471,4.484-3.459,4.83-6.881
		c5.187-51.412,19.55-100.436,41.252-147.058c32.639-70.119,78.694-129.994,139.213-178.788
		c69.59-56.109,148.01-91.49,236.299-105.694c6.737-1.084,16.374,2.78,20.989-6.554c37.479,0,74.96,0,112.439,0
		c0.407,3.375,2.458,4.496,5.694,4.781c40.202,3.547,78.586,14.455,116.314,28.33c56.658,20.838,107.295,51.919,152.095,91.88
		c52.456,46.79,94.963,101.456,123.911,166.11c19.578,43.727,33.123,89.028,40.42,136.445c1.226,7.961-3.456,18.645,6.542,24.607
		c0,31.1,0,62.201,0,93.301c-5.068,0.637-4.763,4.451-4.78,8.079c-0.066,14.346-3.389,28.282-6.17,42.18
		c-10.501,52.481-28.378,102.232-54.989,148.925c-30.408,53.355-68.841,99.909-116.036,138.963
		c-42.767,35.389-89.973,63.456-142.386,82.583c-40.383,14.737-81.564,25.516-124.501,29
		C549.921,997.865,546.089,997.321,545.451,1002.389z M800.138,519.396c7.933,0.945,13.899-2.753,17.563-9.548
		c3.905-7.243,3.26-14.604-2.058-21.185c-1.496-1.85-3.247-3.502-4.935-5.19c-96.929-96.941-193.854-193.885-290.808-290.799
		c-13.119-13.113-22.635-13.148-35.57-0.217c-96.949,96.92-193.879,193.859-290.802,290.807c-2.25,2.25-4.761,4.398-6.42,7.049
		c-4.105,6.567-4.5,13.5-0.439,20.318c3.792,6.369,9.509,9.121,16.918,9.188c7.652,0.07,12.291-4.621,17.146-9.479
		c91.263-91.336,182.636-182.562,273.719-274.074c5.869-5.897,8.804-6.239,14.54-0.064c13.011,14.005,26.889,27.204,40.414,40.729
		c77.492,77.491,154.981,154.983,232.481,232.466C786.94,514.448,791.643,520.195,800.138,519.396z M501.555,731.59
		c68.939,0,137.88,0.022,206.819-0.017c17.295-0.009,23.91-6.496,23.974-23.569c0.098-25.504,0.026-51.008,0.026-76.512
		c0-42.638,0.074-85.277-0.045-127.917c-0.039-14.368-7.164-21.772-19.776-21.278c-12.171,0.478-18.281,8.031-18.293,23.047
		c-0.047,59.377-0.138,118.753,0.13,178.128c0.032,7.425-1.352,10.205-9.658,10.186c-121.939-0.292-243.88-0.262-365.82-0.051
		c-7.292,0.013-9.68-1.907-9.493-9.344c0.48-19.115,0.16-38.252,0.16-57.38c-0.001-41.045,0.087-82.09-0.05-123.135
		c-0.048-13.968-6.593-21.23-18.518-21.455c-12.688-0.239-19.207,6.896-19.223,21.717c-0.075,67.346-0.042,134.691-0.028,202.038
		c0.005,20.187,5.319,25.534,25.366,25.537C365.27,731.598,433.413,731.59,501.555,731.59z M374.015,446.42
		c-5.33,0.134-9.076,1.766-10.564,6.778c-1.828,6.161,0.656,10.425,5.224,14.606c39.15,35.848,90.874,37.854,132.521,4.837
		c6.548-5.191,12.701-10.885,19.271-16.045c18.289-14.368,38.771-18.895,61.691-14.408c16.01,3.133,27.996,12.592,40.008,22.483
		c5.585,4.598,11.785,5.561,16.849-0.559c4.553-5.5,3.237-11.359-1.722-15.972c-18.247-16.976-38.949-28.233-64.632-29.663
		c-30.637-1.706-55.308,9.941-77.824,29.768c-38.705,34.08-70.282,34.437-110.737,2.763
		C380.904,448.507,377.833,446.051,374.015,446.42z M434.073,614.854c26.291,0.252,46.856-6.911,64.809-21.551
		c8.015-6.538,15.754-13.456,24.104-19.534c26.541-19.318,59.951-19.142,86.58,0.188c4.501,3.269,8.538,7.183,13.076,10.393
		c5.502,3.893,11.294,4.217,15.966-1.25c4.698-5.499,3.471-11.27-1.371-15.931c-25.913-24.939-56.716-34.115-92.062-27.738
		c-22.538,4.064-39.48,17.97-55.898,32.603c-20.109,17.924-43.193,24.516-69.628,18.646c-14.893-3.307-26.409-12.449-37.678-21.984
		c-5.743-4.859-11.998-5.591-16.833,0.354c-4.633,5.696-3.316,11.887,2.252,16.901C387.248,603.837,409.713,615.415,434.073,614.854
		z M566.349,499.457c5.49,0.782,10.999,1.445,16.466,2.366c15.6,2.625,27.301,12.219,38.941,21.927
		c5.646,4.709,11.866,5.599,16.959-0.146c5.1-5.754,3.307-11.543-1.969-16.779c-35.374-35.106-89.846-39.005-129.636-8.998
		c-7.618,5.745-14.652,12.256-22.114,18.215c-18.092,14.448-38.317,19.756-61.415,15.596c-16.516-2.976-29.037-12.219-41.225-22.567
		c-5.676-4.819-11.972-5.638-16.891,0.143c-4.744,5.575-3.434,11.616,1.889,16.919c35.896,35.771,91.958,39.081,131.486,7.608
		c7.782-6.196,15.345-12.667,23.129-18.861C534.915,504.576,549.787,499.854,566.349,499.457z"/>
	<path display="none" fill-rule="evenodd" fill="#FFFFFF" d="M545.451,1002.389c0.638-5.067,4.47-4.523,8.075-4.816
		c42.937-3.484,84.118-14.263,124.501-29c52.413-19.127,99.619-47.194,142.386-82.583c47.195-39.054,85.628-85.607,116.036-138.963
		c26.611-46.692,44.488-96.443,54.989-148.925c2.781-13.897,6.104-27.834,6.17-42.18c0.018-3.628-0.288-7.442,4.78-8.079
		c0,148.132-0.093,296.262,0.237,444.393c0.019,8.624-1.778,10.407-10.394,10.389
		C843.306,1002.296,694.378,1002.389,545.451,1002.389z"/>
	<path display="none" fill-rule="evenodd" fill="#FFFFFF" d="M2.389,555.021c9.771,5.527,5.366,15.881,6.477,23.396
		c7.508,50.8,23.308,99.004,45.735,144.723c30.434,62.04,73.151,114.847,125.883,159.813
		c66.568,56.766,143.261,91.863,228.434,109.143c13.455,2.729,27.104,6.067,41.125,5.525c3.472-0.134,6.408,0.555,6.891,4.768
		c-148.129,0-296.258-0.093-444.386,0.235c-8.607,0.019-10.417-1.753-10.398-10.386C2.483,846.499,2.389,700.76,2.389,555.021z"/>
	<path display="none" fill-rule="evenodd" fill="#FFFFFF" d="M1002.389,454.542c-9.998-5.962-5.316-16.646-6.542-24.607
		c-7.297-47.417-20.842-92.719-40.42-136.445c-28.948-64.654-71.455-119.32-123.911-166.11c-44.8-39.96-95.437-71.042-152.095-91.88
		c-37.729-13.875-76.112-24.783-116.314-28.33c-3.236-0.285-5.287-1.406-5.694-4.781c145.136,0,290.271,0.087,435.407-0.231
		c8.193-0.019,9.819,1.607,9.801,9.801C1002.302,159.486,1002.389,307.014,1002.389,454.542z"/>
	<path display="none" fill-rule="evenodd" fill="#FFFFFF" d="M444.973,2.389c-4.616,9.334-14.252,5.47-20.989,6.554
		c-88.289,14.205-166.708,49.585-236.299,105.694C127.166,163.432,81.111,223.307,48.472,293.425
		c-21.703,46.623-36.066,95.646-41.252,147.058c-0.346,3.422-0.606,6.411-4.83,6.881c0-144.94,0.094-289.88-0.236-434.82
		C2.133,3.93,3.918,2.132,12.541,2.152C156.685,2.485,300.829,2.389,444.973,2.389z"/>
	<path fill-rule="evenodd" fill="#0A0909" d="M800.138,519.396c-8.495,0.799-13.197-4.948-18.249-9.998
		c-77.5-77.482-154.989-154.975-232.481-232.466c-13.525-13.526-27.403-26.725-40.414-40.729c-5.735-6.175-8.671-5.833-14.54,0.064
		c-91.083,91.513-182.456,182.738-273.719,274.074c-4.855,4.857-9.494,9.549-17.146,9.479c-7.41-0.067-13.126-2.819-16.918-9.188
		c-4.06-6.818-3.666-13.751,0.439-20.318c1.659-2.651,4.17-4.8,6.42-7.049c96.923-96.947,193.853-193.886,290.802-290.807
		c12.935-12.931,22.451-12.896,35.57,0.217c96.954,96.915,193.879,193.858,290.808,290.799c1.688,1.688,3.438,3.34,4.935,5.19
		c5.317,6.58,5.963,13.941,2.058,21.185C814.037,516.644,808.07,520.342,800.138,519.396z"/>
	<path fill-rule="evenodd" fill="#0A0909" d="M501.555,731.59c-68.142,0-136.285,0.008-204.429-0.005
		c-20.047-0.003-25.361-5.351-25.366-25.537c-0.014-67.347-0.046-134.692,0.028-202.038c0.016-14.821,6.535-21.956,19.223-21.717
		c11.924,0.225,18.47,7.487,18.518,21.455c0.138,41.045,0.049,82.09,0.05,123.135c0,19.128,0.32,38.265-0.16,57.38
		c-0.187,7.437,2.201,9.356,9.493,9.344c121.939-0.211,243.88-0.241,365.82,0.051c8.307,0.02,9.69-2.761,9.658-10.186
		c-0.268-59.375-0.177-118.751-0.13-178.128c0.012-15.016,6.122-22.569,18.293-23.047c12.612-0.494,19.737,6.911,19.776,21.278
		c0.119,42.64,0.045,85.279,0.045,127.917c0,25.504,0.071,51.008-0.026,76.512c-0.063,17.073-6.679,23.561-23.974,23.569
		C639.435,731.612,570.494,731.59,501.555,731.59z"/>
	<path fill-rule="evenodd" fill="#0A0909" d="M374.015,446.42c3.817-0.369,6.889,2.087,10.084,4.589
		c40.455,31.674,72.032,31.317,110.737-2.763c22.517-19.827,47.188-31.473,77.824-29.768c25.683,1.43,46.385,12.687,64.632,29.663
		c4.959,4.613,6.274,10.471,1.722,15.972c-5.063,6.119-11.264,5.156-16.849,0.559c-12.012-9.891-23.998-19.35-40.008-22.483
		c-22.92-4.487-43.402,0.04-61.691,14.408c-6.57,5.161-12.724,10.854-19.271,16.045c-41.647,33.016-93.371,31.01-132.521-4.837
		c-4.567-4.182-7.052-8.445-5.224-14.606C364.939,448.186,368.685,446.554,374.015,446.42z"/>
	<path fill-rule="evenodd" fill="#0A0909" d="M434.073,614.854c-24.359,0.561-46.825-11.018-66.683-28.904
		c-5.569-5.015-6.885-11.205-2.252-16.901c4.835-5.945,11.09-5.214,16.833-0.354c11.269,9.535,22.786,18.678,37.678,21.984
		c26.435,5.87,49.519-0.722,69.628-18.646c16.418-14.633,33.36-28.538,55.898-32.603c35.346-6.377,66.148,2.799,92.062,27.738
		c4.842,4.661,6.069,10.432,1.371,15.931c-4.672,5.467-10.464,5.143-15.966,1.25c-4.538-3.21-8.575-7.124-13.076-10.393
		c-26.629-19.329-60.039-19.506-86.58-0.188c-8.35,6.078-16.089,12.996-24.104,19.534
		C480.929,607.943,460.364,615.106,434.073,614.854z"/>
	<path fill-rule="evenodd" fill="#0A0909" d="M566.349,499.457c-16.562,0.397-31.434,5.12-44.379,15.421
		c-7.784,6.194-15.347,12.665-23.129,18.861c-39.528,31.473-95.591,28.162-131.486-7.608c-5.322-5.303-6.633-11.344-1.889-16.919
		c4.919-5.78,11.215-4.962,16.891-0.143c12.188,10.349,24.708,19.592,41.225,22.567c23.098,4.16,43.323-1.147,61.415-15.596
		c7.462-5.959,14.497-12.47,22.114-18.215c39.79-30.007,94.262-26.108,129.636,8.998c5.275,5.236,7.068,11.025,1.969,16.779
		c-5.093,5.744-11.313,4.854-16.959,0.146c-11.641-9.708-23.342-19.302-38.941-21.927
		C577.348,500.902,571.839,500.238,566.349,499.457z"/>
</g>
</svg>
