<?xml version="1.0" encoding="utf-8"?>
<!-- Generator: Adobe Illustrator 16.0.3, SVG Export Plug-In . SVG Version: 6.00 Build 0)  -->
<!DOCTYPE svg PUBLIC "-//W3C//DTD SVG 1.1 Tiny//EN" "http://www.w3.org/Graphics/SVG/1.1/DTD/svg11-tiny.dtd">
<svg version="1.1" baseProfile="tiny" id="Layer_1" xmlns="http://www.w3.org/2000/svg" xmlns:xlink="http://www.w3.org/1999/xlink"
	 x="0px" y="0px"  viewBox="0 0 1000 1000" xml:space="preserve">
<g>
	<path display="none" fill-rule="evenodd" fill="#F6F6F5" d="M2.389,555.021c0-35.886,0-71.771,0-107.656
		c4.226-0.468,4.484-3.457,4.83-6.879c5.184-51.414,19.549-100.437,41.25-147.058c32.64-70.12,78.695-129.996,139.216-178.792
		c69.591-56.109,148.01-91.491,236.3-105.694c6.734-1.083,16.374,2.786,20.987-6.553c37.479,0,74.96,0,112.439,0
		c0.404,3.375,2.456,4.496,5.691,4.782c40.203,3.544,78.587,14.452,116.315,28.328c56.657,20.837,107.297,51.918,152.097,91.879
		c52.458,46.791,94.965,101.457,123.912,166.114c19.578,43.726,33.122,89.028,40.419,136.444c1.226,7.96-3.459,18.645,6.542,24.606
		c0,31.1,0,62.201,0,93.301c-5.071,0.635-4.763,4.45-4.779,8.078c-0.065,14.346-3.389,28.28-6.17,42.179
		c-10.503,52.481-28.376,102.234-54.989,148.927c-30.411,53.355-68.842,99.91-116.037,138.966
		c-42.767,35.389-89.974,63.455-142.388,82.581c-40.382,14.736-81.563,25.521-124.5,28.999c-3.605,0.292-7.44-0.255-8.074,4.816
		c-29.506,0-59.011,0-88.517,0c-0.48-4.214-3.417-4.901-6.89-4.767c-14.02,0.545-27.669-2.795-41.125-5.525
		c-85.171-17.28-161.865-52.375-228.435-109.142C127.751,837.986,85.032,785.18,54.6,723.139
		c-22.426-45.72-38.229-93.923-45.735-144.723C7.755,570.901,12.163,560.547,2.389,555.021z M501.238,655.025
		c71.366,0,142.73-0.057,214.096,0.072c9.063,0.017,20.506-3.775,26.543,1.718c5.631,5.124,1.334,16.575,1.791,25.228
		c0.627,11.848,7.514,18.67,19.754,19.176c13.062,0.539,21.218-5.933,22.047-18.03c0.462-6.749,0.543-13.577,0.063-20.319
		c-0.459-6.455,2.109-8.164,8.207-7.959c11.948,0.399,23.927,0.412,35.876,0.036c13.742-0.432,19.941-7.135,19.962-20.888
		c0.045-30.3-0.18-60.603,0.106-90.9c0.118-12.508-3.842-23.446-10.713-33.498c-10.782-15.772-25.994-25.789-44.03-30.915
		c-7.854-2.233-9.525-5.945-9.453-13.374c0.348-35.48,0.307-70.967,0.107-106.449c-0.158-28.234-13.068-45.122-40.169-53.412
		c-8.833-2.701-17.878-3.633-27.09-3.629c-90.104,0.038-180.208,0.023-270.311,0.023c-55.02,0-110.039-0.029-165.058,0.011
		c-32.315,0.023-68.29,17.152-65.209,64.428c2.148,32.951,0.193,66.158,0.583,99.245c0.088,7.491-1.789,10.691-9.474,13.144
		c-31.139,9.943-57.799,33.99-55.474,76.511c1.086,19.875,0.186,39.859,0.186,59.794c0,39.707,0.279,39.987,39.927,39.987
		c24.197,0,24.197,0,24.667,24.563c0.274,14.36,7.336,21.623,21.059,21.661c13.885,0.037,20.902-7.101,21.05-21.455
		c0.046-4.386,0.485-8.836-0.091-13.145c-1.215-9.082,1.732-11.928,11.403-11.871C348.141,655.223,424.69,655.025,501.238,655.025z"
		/>
	<path display="none" fill-rule="evenodd" fill="#FFFFFF" d="M545.451,1002.389c0.634-5.071,4.469-4.524,8.074-4.816
		c42.937-3.479,84.118-14.263,124.5-28.999c52.414-19.126,99.621-47.192,142.388-82.581c47.195-39.056,85.626-85.61,116.037-138.966
		c26.613-46.692,44.486-96.445,54.989-148.927c2.781-13.898,6.104-27.833,6.17-42.179c0.017-3.628-0.292-7.443,4.779-8.078
		c0,148.132-0.093,296.262,0.237,444.393c0.019,8.624-1.778,10.407-10.394,10.389
		C843.306,1002.296,694.378,1002.389,545.451,1002.389z"/>
	<path display="none" fill-rule="evenodd" fill="#FFFFFF" d="M2.389,555.021c9.773,5.526,5.366,15.881,6.476,23.396
		c7.506,50.8,23.309,99.003,45.735,144.723c30.432,62.041,73.151,114.848,125.884,159.816
		c66.569,56.767,143.264,91.861,228.435,109.142c13.456,2.73,27.105,6.07,41.125,5.525c3.473-0.135,6.41,0.553,6.89,4.767
		c-148.129,0-296.258-0.093-444.386,0.235c-8.607,0.019-10.417-1.753-10.398-10.386C2.483,846.499,2.389,700.76,2.389,555.021z"/>
	<path display="none" fill-rule="evenodd" fill="#FFFFFF" d="M1002.389,454.542c-10.001-5.961-5.316-16.646-6.542-24.606
		c-7.297-47.416-20.841-92.718-40.419-136.444c-28.947-64.657-71.454-119.323-123.912-166.114
		c-44.8-39.961-95.439-71.042-152.097-91.879C641.69,21.624,603.307,10.715,563.104,7.171c-3.235-0.286-5.287-1.408-5.691-4.782
		c145.136,0,290.271,0.087,435.407-0.231c8.193-0.019,9.819,1.607,9.801,9.801C1002.302,159.486,1002.389,307.014,1002.389,454.542z
		"/>
	<path display="none" fill-rule="evenodd" fill="#FFFFFF" d="M444.973,2.389c-4.613,9.339-14.252,5.47-20.987,6.553
		c-88.29,14.203-166.709,49.585-236.3,105.694C127.165,163.432,81.11,223.308,48.47,293.428
		c-21.702,46.622-36.066,95.645-41.25,147.058c-0.346,3.422-0.604,6.411-4.83,6.879c0-144.94,0.094-289.88-0.236-434.82
		C2.133,3.93,3.918,2.132,12.541,2.152C156.685,2.485,300.829,2.389,444.973,2.389z"/>
	<path fill-rule="evenodd" fill="#080808" d="M501.238,655.025c-76.548,0-153.097,0.197-229.644-0.247
		c-9.671-0.057-12.618,2.789-11.403,11.871c0.576,4.309,0.137,8.759,0.091,13.145c-0.148,14.354-7.165,21.492-21.05,21.455
		c-13.723-0.038-20.785-7.301-21.059-21.661c-0.47-24.563-0.47-24.563-24.667-24.563c-39.647,0-39.927-0.28-39.927-39.987
		c0-19.935,0.901-39.919-0.186-59.794c-2.326-42.521,24.334-66.568,55.474-76.511c7.685-2.453,9.562-5.653,9.474-13.144
		c-0.39-33.087,1.565-66.294-0.583-99.245c-3.081-47.276,32.894-64.405,65.209-64.428c55.019-0.04,110.038-0.011,165.058-0.011
		c90.103,0,180.208,0.014,270.311-0.023c9.212-0.003,18.257,0.929,27.09,3.629c27.101,8.291,40.011,25.178,40.169,53.412
		c0.199,35.482,0.24,70.969-0.107,106.449c-0.072,7.429,1.599,11.141,9.453,13.374c18.036,5.126,33.248,15.143,44.03,30.915
		c6.871,10.052,10.831,20.99,10.713,33.498c-0.286,30.298-0.062,60.601-0.106,90.9c-0.021,13.753-6.22,20.456-19.962,20.888
		c-11.949,0.376-23.928,0.363-35.876-0.036c-6.098-0.205-8.666,1.504-8.207,7.959c0.479,6.742,0.398,13.57-0.063,20.319
		c-0.829,12.098-8.985,18.569-22.047,18.03c-12.24-0.506-19.127-7.328-19.754-19.176c-0.457-8.652,3.84-20.104-1.791-25.228
		c-6.037-5.493-17.479-1.701-26.543-1.718C643.969,654.969,572.604,655.025,501.238,655.025z M501.449,621.694
		c3.19,0,6.381,0,9.569,0c95.293,0,190.587-0.039,285.881,0.079c6.878,0.008,11.999,0.565,11.647-9.464
		c-0.798-22.699-0.23-45.445-0.266-68.173c-0.012-7.896-2.793-14.837-8.036-20.654c-10.185-11.298-22.979-16.353-38.197-16.346
		c-173.441,0.082-346.883,0.052-520.325,0.053c-1.595,0-3.194-0.067-4.784,0.018c-25.121,1.364-41.153,18.082-41.23,43.087
		c-0.062,19.936,0.491,39.89-0.234,59.799c-0.34,9.335,2.22,11.866,11.724,11.83C305.281,621.549,403.366,621.694,501.449,621.694z
		 M501.938,335.236c-70.545,0-141.09-0.008-211.635,0.019c-5.154,0.002-10.28-0.209-15.401,1.258
		c-9.621,2.756-14.738,8.347-14.684,18.832c0.194,36.667,0.271,73.337-0.093,110.001c-0.074,7.463,3.147,8.049,9.216,8.229
		c6.744,0.202,9.051-1.751,8.786-8.658c-0.504-13.133-0.437-26.308-0.08-39.45c0.632-23.301,13.818-37.816,35.516-38.016
		c43.838-0.404,87.683-0.398,131.521-0.029c20.478,0.172,34.203,14.112,35.238,34.525c0.342,6.759,0.062,13.548,0.062,20.324
		c0.001,32.445-0.007,32.172,32.647,31.305c7.326-0.195,8.472-2.924,8.299-9.198c-0.374-13.541-0.238-27.101-0.087-40.65
		c0.248-22,13.623-36.155,35.566-36.346c43.439-0.381,86.886-0.376,130.327-0.007c21.74,0.185,35.277,14.459,35.616,36.409
		c0.216,13.946,0.546,27.923-0.131,41.839c-0.454,9.368,5.383,7.654,10.79,7.767c5.708,0.119,10.631,0.997,10.505-8.088
		c-0.517-37.06-0.27-74.13-0.175-111.196c0.022-8.884-4.731-13.948-12.467-16.854c-5.704-2.142-11.702-2.043-17.701-2.04
		C643.029,335.25,572.484,335.236,501.938,335.236z M621.623,463.799c12.345,0,24.703,0.374,37.029-0.11
		c11.368-0.447,26.891,5.3,32.945-2.432c5.669-7.24,1.44-22.089,1.934-33.573c0.32-7.482-2.598-11.147-10.292-11.135
		c-41.016,0.071-82.032,0.072-123.049-0.003c-7.197-0.014-9.909,3.452-9.7,10.371c0.251,8.354,0.621,16.772-0.095,25.073
		c-0.778,9.018,1.57,12.505,11.505,12.068C581.774,463.185,601.712,463.799,621.623,463.799z M378.21,463.799
		c12.355,0,24.724,0.343,37.063-0.102c11.412-0.41,27.416,5.258,33.001-2.241c5.792-7.776,1.466-22.914,2.047-34.808
		c0.354-7.241-2.687-10.117-9.685-10.104c-41.051,0.075-82.103,0.057-123.154,0.02c-6.356-0.006-9.533,2.676-9.388,9.333
		c0.209,9.56,0.489,19.156-0.1,28.686c-0.448,7.265,1.708,9.602,9.242,9.401C337.548,463.442,357.883,463.798,378.21,463.799z"/>
	<path fill-rule="evenodd" fill="#F6F6F5" d="M501.449,621.694c-98.083,0-196.168-0.146-294.251,0.229
		c-9.504,0.036-12.063-2.495-11.724-11.83c0.725-19.909,0.172-39.863,0.234-59.799c0.077-25.005,16.11-41.723,41.23-43.087
		c1.59-0.085,3.189-0.018,4.784-0.018c173.442-0.001,346.884,0.029,520.325-0.053c15.219-0.007,28.013,5.048,38.197,16.346
		c5.243,5.817,8.024,12.758,8.036,20.654c0.035,22.728-0.532,45.474,0.266,68.173c0.352,10.029-4.77,9.472-11.647,9.464
		c-95.294-0.118-190.588-0.079-285.881-0.079C507.83,621.694,504.64,621.694,501.449,621.694z"/>
	<path fill-rule="evenodd" fill="#F6F6F5" d="M501.938,335.236c70.546,0,141.091,0.014,211.636-0.024
		c5.999-0.003,11.997-0.103,17.701,2.04c7.735,2.906,12.489,7.97,12.467,16.854c-0.095,37.066-0.342,74.137,0.175,111.196
		c0.126,9.084-4.797,8.207-10.505,8.088c-5.407-0.113-11.244,1.601-10.79-7.767c0.677-13.916,0.347-27.893,0.131-41.839
		c-0.339-21.949-13.876-36.224-35.616-36.409c-43.441-0.369-86.888-0.374-130.327,0.007c-21.943,0.191-35.318,14.346-35.566,36.346
		c-0.151,13.549-0.287,27.109,0.087,40.65c0.173,6.274-0.973,9.002-8.299,9.198c-32.654,0.867-32.646,1.14-32.647-31.305
		c0-6.776,0.281-13.565-0.062-20.324c-1.035-20.413-14.761-34.354-35.238-34.525c-43.838-0.369-87.683-0.375-131.521,0.029
		c-21.698,0.2-34.884,14.715-35.516,38.016c-0.357,13.143-0.425,26.317,0.08,39.45c0.265,6.907-2.042,8.86-8.786,8.658
		c-6.069-0.181-9.29-0.766-9.216-8.229c0.364-36.664,0.287-73.334,0.093-110.001c-0.055-10.485,5.063-16.076,14.684-18.832
		c5.121-1.467,10.247-1.255,15.401-1.258C360.848,335.229,431.393,335.236,501.938,335.236z"/>
	<path fill-rule="evenodd" fill="#F6F6F5" d="M621.623,463.799c-19.911,0-39.849-0.614-59.723,0.258
		c-9.935,0.437-12.283-3.05-11.505-12.068c0.716-8.301,0.346-16.718,0.095-25.073c-0.209-6.919,2.503-10.385,9.7-10.371
		c41.017,0.076,82.033,0.075,123.049,0.003c7.694-0.013,10.612,3.653,10.292,11.135c-0.493,11.484,3.735,26.333-1.934,33.573
		c-6.055,7.732-21.577,1.985-32.945,2.432C646.326,464.173,633.968,463.799,621.623,463.799z"/>
	<path fill-rule="evenodd" fill="#F6F6F5" d="M378.21,463.798c-20.327,0-40.662-0.356-60.975,0.186
		c-7.534,0.201-9.69-2.137-9.242-9.401c0.589-9.529,0.309-19.125,0.1-28.686c-0.145-6.656,3.032-9.338,9.388-9.333
		c41.052,0.038,82.104,0.055,123.154-0.02c6.998-0.013,10.039,2.863,9.685,10.104c-0.581,11.894,3.745,27.032-2.047,34.808
		c-5.585,7.499-21.589,1.831-33.001,2.241C402.934,464.143,390.565,463.799,378.21,463.798z"/>
</g>
</svg>
