<?xml version="1.0" encoding="utf-8"?>
<!-- Generator: Adobe Illustrator 16.0.3, SVG Export Plug-In . SVG Version: 6.00 Build 0)  -->
<!DOCTYPE svg PUBLIC "-//W3C//DTD SVG 1.1 Tiny//EN" "http://www.w3.org/Graphics/SVG/1.1/DTD/svg11-tiny.dtd">
<svg version="1.1" baseProfile="tiny" id="Layer_1" xmlns="http://www.w3.org/2000/svg" xmlns:xlink="http://www.w3.org/1999/xlink"
	 x="0px" y="0px"  viewBox="0 0 1000 1000" xml:space="preserve">
<g>
	<path display="none" fill-rule="evenodd" fill="#F5F5F5" d="M2.389,543.058c0-27.91,0-55.822,0-83.732
		c4.206-0.482,4.577-3.433,4.816-6.883c2.848-40.97,12.712-80.355,26.287-119.008c31.628-90.055,85.752-164.355,159.875-223.499
		C260.296,56.531,336.603,22.706,421.604,8.941c6.733-1.09,16.367,2.785,20.975-6.552c40.67,0,81.34,0,122.009,0
		c4.614,9.334,14.233,5.423,20.987,6.563c94.925,16.012,178.34,56.179,249.849,120.001
		c52.069,46.473,93.501,101.426,121.827,165.796c23.68,53.814,39.899,109.402,42.727,168.441c0.174,3.629-0.251,7.439,4.801,8.095
		c0,19.937,0,39.872,0,59.809c-5.871,0.895-4.71,5.496-4.748,9.291c-0.079,7.94-1.034,15.73-2.042,23.629
		c-7.872,61.696-26.529,119.743-56.107,174.477c-32.56,60.249-75.91,111.148-129.399,153.782
		c-66.952,53.367-142.666,86.484-226.904,101.154c-6.768,1.179-16.376-2.77-20.989,6.565c-40.669,0-81.339,0-122.009,0
		c-0.606-5.105-4.484-4.437-8.058-4.836c-19.688-2.195-39.023-6.384-58.125-11.445c-61.696-16.349-118.452-43.099-169.734-81.291
		c-36.426-27.129-68.635-58.562-96.774-94.169c-28.756-36.386-51.65-76.311-68.983-119.2
		c-17.728-43.866-29.842-89.335-33.724-136.722C6.871,548.551,8.281,543.933,2.389,543.058z M348.269,466.192
		c2.57-10.059,2.124-19.182,1-28.288c-4.091-33.155-8.005-66.335-12.444-99.443c-2.598-19.382-15.909-31.113-35.54-32.133
		c-5.549-0.289-11.381-0.723-16.652,0.613c-7.323,1.857-10.422,1.417-12.925-7.22c-3.781-13.049-13.935-21.062-28.027-22.42
		c-7.119-0.686-14.318-0.699-21.482-0.712c-16.73-0.033-18.374,1.679-18.375,18.501c-0.005,137.525-0.004,275.052,0.001,412.578
		c0,2.79-0.188,5.608,0.138,8.363c0.561,4.744,2.935,7.943,7.979,9.063c40.961,9.096,72.288-8.438,85.428-48.806
		c2.846-8.743,6.825-11.173,15.902-11.147c124.768,0.35,249.54,0.501,374.308-0.147c13.427-0.07,19.626,3.239,22.97,16.365
		c5.776,22.663,21.229,37.357,43.897,42.51c10.657,2.422,22.223,0.561,33.314,1.44c11.09,0.879,14.843-3.905,14.746-14.559
		c-0.325-35.475-0.016-70.955-0.165-106.433c-0.085-20.446-7.32-30.589-26.604-37.353c-3.453-1.211-5.826-1.752-4.803-6.196
		c3.897-16.93,1.437-34.127,1.677-51.192c0.431-30.754-11.335-42.576-41.975-43.366c-3.868-0.099-7.414,0.716-9.269-4.687
		c-4.082-11.894-13.469-15.27-25.478-15.231c-74.145,0.232-148.289,0.117-222.433,0.117c-28.701,0-57.403,0.133-86.104-0.083
		c-8.426-0.063-14.634,2.223-13.998,11.746c0.491,7.344-2.639,8.775-8.938,8.205C359.69,465.848,354.891,466.192,348.269,466.192z"
		/>
	<path display="none" fill-rule="evenodd" fill="#FFFFFF" d="M564.588,999.994c4.613-9.335,14.222-5.387,20.989-6.565
		c84.238-14.67,159.952-47.787,226.904-101.154c53.489-42.634,96.84-93.533,129.399-153.782
		c29.578-54.733,48.235-112.78,56.107-174.477c1.008-7.898,1.963-15.688,2.042-23.629c0.038-3.795-1.123-8.396,4.748-9.291
		c0,152.908-0.087,305.817,0.232,458.725c0.018,8.568-1.697,10.436-10.368,10.414C851.292,999.896,707.939,999.994,564.588,999.994z
		"/>
	<path display="none" fill-rule="evenodd" fill="#FFFFFF" d="M1004.778,471.287c-5.052-0.656-4.627-4.466-4.801-8.095
		c-2.827-59.04-19.047-114.627-42.727-168.441c-28.326-64.37-69.758-119.324-121.827-165.796
		C763.915,65.132,680.5,24.964,585.575,8.953c-6.754-1.14-16.373,2.771-20.987-6.563c143.541,0,287.081,0.088,430.621-0.231
		c8.193-0.019,9.817,1.608,9.801,9.801C1004.694,165.068,1004.778,318.178,1004.778,471.287z"/>
	<path display="none" fill-rule="evenodd" fill="#FFFFFF" d="M2.389,543.058c5.892,0.875,4.482,5.493,4.792,9.273
		c3.882,47.387,15.997,92.855,33.724,136.722c17.333,42.89,40.227,82.814,68.983,119.2c28.139,35.607,60.348,67.04,96.774,94.169
		c51.282,38.192,108.039,64.942,169.734,81.291c19.103,5.062,38.438,9.25,58.125,11.445c3.573,0.399,7.451-0.27,8.058,4.836
		c-143.349,0-286.699-0.098-430.047,0.239c-8.65,0.02-10.395-1.816-10.376-10.404C2.48,840.906,2.389,691.981,2.389,543.058z"/>
	<path display="none" fill-rule="evenodd" fill="#FFFFFF" d="M442.579,2.389c-4.608,9.336-14.242,5.462-20.975,6.552
		c-85.001,13.765-161.308,47.59-228.237,100.995C119.244,169.079,65.12,243.379,33.492,333.435
		c-13.575,38.653-23.438,78.038-26.287,119.008c-0.239,3.45-0.61,6.4-4.816,6.883c0-148.924,0.091-297.849-0.234-446.771
		C2.137,3.966,3.883,2.129,12.532,2.149C155.88,2.486,299.23,2.389,442.579,2.389z"/>
	<path fill-rule="evenodd" fill="#080808" d="M348.269,466.192c6.622,0,11.422-0.344,16.152,0.085
		c6.299,0.57,9.428-0.861,8.938-8.205c-0.637-9.523,5.572-11.809,13.998-11.746c28.7,0.216,57.402,0.083,86.104,0.083
		c74.144,0,148.288,0.116,222.433-0.117c12.009-0.039,21.396,3.337,25.478,15.231c1.854,5.403,5.4,4.587,9.269,4.687
		c30.64,0.79,42.405,12.611,41.975,43.366c-0.24,17.065,2.221,34.263-1.677,51.192c-1.023,4.444,1.35,4.985,4.803,6.196
		c19.283,6.764,26.519,16.906,26.604,37.353c0.149,35.478-0.16,70.958,0.165,106.433c0.097,10.653-3.656,15.438-14.746,14.559
		c-11.092-0.88-22.657,0.981-33.314-1.44c-22.668-5.152-38.121-19.847-43.897-42.51c-3.344-13.126-9.543-16.436-22.97-16.365
		c-124.768,0.648-249.54,0.497-374.308,0.147c-9.077-0.025-13.056,2.404-15.902,11.147c-13.14,40.368-44.467,57.901-85.428,48.806
		c-5.045-1.12-7.418-4.319-7.979-9.063c-0.326-2.755-0.138-5.573-0.138-8.363c-0.005-137.525-0.006-275.052-0.001-412.578
		c0.001-16.822,1.645-18.534,18.375-18.501c7.164,0.013,14.363,0.027,21.482,0.712c14.092,1.359,24.246,9.371,28.027,22.42
		c2.503,8.637,5.602,9.078,12.925,7.22c5.271-1.336,11.103-0.902,16.652-0.613c19.631,1.02,32.942,12.751,35.54,32.133
		c4.439,33.108,8.354,66.288,12.444,99.443C350.393,447.01,350.838,456.133,348.269,466.192z M527.546,645.617
		c42.661,0,85.322,0,127.984,0c39.073,0,78.147-0.185,117.219,0.166c7.32,0.065,9.894-1.828,9.387-9.326
		c-0.643-9.525-0.145-19.127-0.157-28.697c-0.022-17.48-4.166-21.618-21.79-21.622c-78.545-0.012-157.09-0.004-235.636-0.004
		c-80.14,0-160.281,0.12-240.419-0.184c-8.159-0.032-11.19,1.764-10.658,10.384c0.76,12.312,0.878,24.757-0.021,37.052
		c-0.736,10.045,2.594,12.512,12.476,12.462C366.466,645.439,447.006,645.617,527.546,645.617z M507.188,566.036
		c71.315,0,142.632,0,213.947,0c29.707,0,30.53-0.833,30.53-30.85c-0.001-11.155,0.285-22.321-0.088-33.464
		c-0.388-11.628-7.239-15.939-21.79-15.896c-12.986,0.037-6.521,9.471-6.991,14.534c-0.989,10.666-0.627,21.499-0.204,32.24
		c0.387,9.803-3.766,13.304-13.489,13.285c-107.172-0.2-214.345-0.237-321.517,0.039c-11.246,0.029-14.82-4.696-14.491-15.066
		c0.39-12.338-0.232-24.711,0.226-37.044c0.233-6.307-1.741-8.082-8.042-8.006c-27.885,0.333-55.777,0.324-83.663,0.009
		c-6.443-0.072-8.144,2.191-8.055,8.271c0.289,19.917,0.69,39.864-0.136,59.75c-0.423,10.165,2.86,12.475,12.645,12.421
		C359.775,565.849,433.483,566.036,507.188,566.036z M577.746,466.517c-38.616,0-77.232,0.127-115.846-0.126
		c-6.387-0.042-9.247,1.151-8.969,8.368c0.554,14.31,0.368,28.661,0.066,42.986c-0.124,5.915,1.325,8.407,7.923,8.39
		c78.028-0.208,156.056-0.189,234.084-0.023c5.864,0.012,7.579-2.064,7.474-7.604c-0.256-13.531-0.524-27.089,0.078-40.598
		c0.389-8.714-2.166-11.728-11.354-11.604C653.39,466.812,615.565,466.517,577.746,466.517z M253.57,475.943
		c0-52.203,0.001-104.407-0.001-156.609c0-2.79,0.245-5.608-0.067-8.364c-1.174-10.371-8.442-14.478-22.206-14.139
		c-12.023,0.295-6.604,9.125-6.634,13.859c-0.396,60.569-0.262,121.142-0.262,181.713c0,47.82,0.181,95.642-0.18,143.459
		c-0.059,7.834,2.029,11.033,9.924,9.811c2.335-0.36,4.832-0.394,7.154,0.004c9.68,1.656,12.655-1.674,12.542-11.931
		C253.257,581.151,253.57,528.546,253.57,475.943z M273.669,401.211c0,18.699,0.203,37.401-0.112,56.096
		c-0.107,6.371,1.253,9.448,8.492,9.034c10.31-0.589,20.684,0.055,31.022-0.203c12.138-0.303,18.177-6.937,16.713-19.221
		c-4.087-34.322-8.356-68.628-13.045-102.873c-2.087-15.237-7.024-17.908-26.759-16.763c-11.464,0.666-16.075,6.103-16.255,20.219
		C273.495,365.402,273.67,383.308,273.669,401.211z M394.069,495.284c-0.784,32.066-0.791,31.836,31.218,30.906
		c6.514-0.189,7.999-2.229,7.829-8.243c-0.383-13.539-0.749-27.135,0.102-40.629c0.566-8.992-2.02-12.192-11.017-10.899
		c-9.297,1.336-21.855-4.187-27.216,2.319C390.519,474.157,394.069,486.183,394.069,495.284z M727.886,665.38
		c4.289,24.084,16.758,37.456,36.666,39.932c16.712,2.078,17.428,1.46,17.429-15.045c0.001-5.957-0.209-11.924,0.063-17.87
		c0.224-4.883-1.143-7.207-6.597-7.114C759.639,665.556,743.823,665.38,727.886,665.38z M278.684,665.377
		c-8.507,0-16.045,0-23.583,0c-32.864,0-32.696-0.009-30.855,32.866c0.321,5.738,2.045,7.122,7.605,7.334
		C257.146,706.547,272.805,693.637,278.684,665.377z"/>
	<path fill-rule="evenodd" fill="#F5F5F5" d="M527.546,645.617c-80.54,0-161.08-0.178-241.616,0.23
		c-9.881,0.05-13.212-2.417-12.476-12.462c0.899-12.295,0.781-24.74,0.021-37.052c-0.533-8.62,2.499-10.416,10.658-10.384
		c80.139,0.304,160.28,0.184,240.419,0.184c78.546,0,157.091-0.008,235.636,0.004c17.624,0.004,21.768,4.142,21.79,21.622
		c0.013,9.57-0.485,19.172,0.157,28.697c0.507,7.498-2.066,9.392-9.387,9.326c-39.071-0.351-78.146-0.166-117.219-0.166
		C612.868,645.617,570.207,645.617,527.546,645.617z"/>
	<path fill-rule="evenodd" fill="#F5F5F5" d="M507.188,566.036c-73.706,0-147.414-0.188-221.117,0.223
		c-9.785,0.054-13.068-2.256-12.645-12.421c0.826-19.886,0.424-39.833,0.136-59.75c-0.089-6.079,1.612-8.343,8.055-8.271
		c27.886,0.314,55.778,0.324,83.663-0.009c6.301-0.076,8.275,1.7,8.042,8.006c-0.458,12.333,0.165,24.706-0.226,37.044
		c-0.33,10.37,3.245,15.096,14.491,15.066c107.171-0.276,214.345-0.239,321.517-0.039c9.724,0.019,13.876-3.482,13.489-13.285
		c-0.423-10.741-0.785-21.574,0.204-32.24c0.47-5.063-5.995-14.497,6.991-14.534c14.551-0.043,21.402,4.267,21.79,15.896
		c0.373,11.143,0.087,22.309,0.088,33.464c0,30.017-0.823,30.85-30.53,30.85C649.82,566.036,578.504,566.036,507.188,566.036z"/>
	<path fill-rule="evenodd" fill="#F5F5F5" d="M577.746,466.517c37.819,0,75.644,0.295,113.456-0.213
		c9.188-0.124,11.743,2.89,11.354,11.604c-0.603,13.508-0.334,27.066-0.078,40.598c0.105,5.54-1.609,7.616-7.474,7.604
		c-78.028-0.166-156.056-0.185-234.084,0.023c-6.599,0.018-8.047-2.475-7.923-8.39c0.301-14.325,0.487-28.677-0.066-42.986
		c-0.278-7.217,2.582-8.41,8.969-8.368C500.514,466.644,539.13,466.517,577.746,466.517z"/>
	<path fill-rule="evenodd" fill="#F5F5F5" d="M253.57,475.943c0,52.603-0.313,105.208,0.271,157.803
		c0.113,10.257-2.862,13.587-12.542,11.931c-2.322-0.397-4.819-0.364-7.154-0.004c-7.896,1.223-9.983-1.977-9.924-9.811
		c0.361-47.817,0.18-95.639,0.18-143.459c0-60.571-0.134-121.145,0.262-181.713c0.03-4.733-5.39-13.563,6.634-13.859
		c13.764-0.339,21.032,3.769,22.206,14.139c0.312,2.755,0.067,5.574,0.067,8.364C253.572,371.537,253.57,423.741,253.57,475.943z"/>
	<path fill-rule="evenodd" fill="#F5F5F5" d="M273.669,401.211c0.001-17.903-0.174-35.809,0.056-53.71
		c0.181-14.116,4.792-19.553,16.255-20.219c19.735-1.145,24.671,1.525,26.759,16.763c4.689,34.245,8.958,68.551,13.045,102.873
		c1.464,12.284-4.575,18.918-16.713,19.221c-10.338,0.258-20.712-0.386-31.022,0.203c-7.239,0.414-8.6-2.664-8.492-9.034
		C273.873,438.612,273.669,419.91,273.669,401.211z"/>
	<path fill-rule="evenodd" fill="#F5F5F5" d="M394.069,495.284c0-9.101-3.55-21.127,0.916-26.546
		c5.361-6.505,17.919-0.982,27.216-2.319c8.997-1.293,11.583,1.907,11.017,10.899c-0.851,13.494-0.485,27.09-0.102,40.629
		c0.169,6.014-1.315,8.054-7.829,8.243C393.278,527.12,393.285,527.351,394.069,495.284z"/>
	<path fill-rule="evenodd" fill="#F5F5F5" d="M727.886,665.38c15.938,0,31.753,0.176,47.561-0.098
		c5.454-0.093,6.82,2.231,6.597,7.114c-0.271,5.946-0.062,11.913-0.063,17.87c-0.001,16.505-0.717,17.123-17.429,15.045
		C744.644,702.836,732.175,689.464,727.886,665.38z"/>
	<path fill-rule="evenodd" fill="#F5F5F5" d="M278.684,665.377c-5.879,28.26-21.538,41.17-46.833,40.2
		c-5.56-0.212-7.284-1.596-7.605-7.334c-1.841-32.875-2.009-32.866,30.855-32.866C262.639,665.377,270.177,665.377,278.684,665.377z
		"/>
</g>
</svg>
