<?xml version="1.0" encoding="utf-8"?>
<!-- Generator: Adobe Illustrator 16.0.3, SVG Export Plug-In . SVG Version: 6.00 Build 0)  -->
<!DOCTYPE svg PUBLIC "-//W3C//DTD SVG 1.1 Tiny//EN" "http://www.w3.org/Graphics/SVG/1.1/DTD/svg11-tiny.dtd">
<svg version="1.1" baseProfile="tiny" id="Layer_1" xmlns="http://www.w3.org/2000/svg" xmlns:xlink="http://www.w3.org/1999/xlink"
	 x="0px" y="0px"  viewBox="0 0 1000 1000" xml:space="preserve">
<g>
	<path display="none" fill-rule="evenodd" fill="#F6F5F5" d="M2.389,555.021c0-35.886,0-71.771,0-107.656
		c4.225-0.47,4.484-3.457,4.83-6.879c5.184-51.414,19.549-100.437,41.25-147.058c32.64-70.12,78.696-129.996,139.216-178.792
		c69.591-56.108,148.01-91.49,236.299-105.694c6.736-1.083,16.374,2.785,20.988-6.553c37.479,0,74.96,0,112.439,0
		c0.406,3.375,2.456,4.496,5.691,4.782c40.203,3.544,78.587,14.452,116.315,28.328c56.657,20.837,107.297,51.918,152.097,91.879
		c52.458,46.79,94.964,101.457,123.912,166.112c19.578,43.727,33.122,89.028,40.419,136.445c1.226,7.96-3.459,18.645,6.542,24.606
		c0,31.1,0,62.201,0,93.301c-5.071,0.636-4.764,4.45-4.78,8.078c-0.064,14.346-3.388,28.282-6.169,42.179
		c-10.504,52.481-28.376,102.234-54.989,148.927c-30.411,53.355-68.842,99.91-116.037,138.964
		c-42.767,35.389-89.973,63.457-142.387,82.583c-40.383,14.736-81.564,25.519-124.501,28.999c-3.605,0.293-7.439-0.254-8.074,4.816
		c-29.506,0-59.011,0-88.517,0c-0.48-4.214-3.417-4.901-6.89-4.768c-14.02,0.545-27.671-2.794-41.125-5.524
		c-85.171-17.28-161.865-52.375-228.435-109.142c-52.732-44.968-95.452-97.775-125.883-159.816
		C32.174,677.42,16.373,629.216,8.865,578.416C7.755,570.901,12.162,560.548,2.389,555.021z M598.232,776.077
		c89.138-0.138,161.742-73.265,161.048-162.205c-0.697-89.303-72.201-160.901-161.037-161.249
		c-88.804-0.347-160.877,72.457-160.763,162.392C437.592,704.086,509.582,776.215,598.232,776.077z M373.28,485.958
		c70.94,0.047,129.007-56.574,129.126-125.911c0.129-74.539-56.588-132.935-128.977-132.795
		c-71.079,0.137-129.257,59.152-128.944,130.799C244.793,428.824,302.277,485.911,373.28,485.958z M646.669,389.966
		c44.317-0.054,80.621-36.833,80.617-81.675c-0.003-44.682-36.571-81.154-81.255-81.04c-43.975,0.113-80.113,36.069-80.911,80.502
		C564.321,352.245,601.792,390.021,646.669,389.966z"/>
	<path display="none" fill-rule="evenodd" fill="#FFFFFF" d="M545.451,1002.389c0.635-5.07,4.469-4.523,8.074-4.816
		c42.937-3.48,84.118-14.263,124.501-28.999c52.414-19.126,99.62-47.194,142.387-82.583
		c47.195-39.054,85.626-85.608,116.037-138.964c26.613-46.692,44.485-96.445,54.989-148.927c2.781-13.896,6.104-27.833,6.169-42.179
		c0.017-3.628-0.291-7.442,4.78-8.078c0,148.132-0.093,296.262,0.237,444.393c0.019,8.624-1.778,10.407-10.394,10.389
		C843.306,1002.296,694.378,1002.389,545.451,1002.389z"/>
	<path display="none" fill-rule="evenodd" fill="#FFFFFF" d="M2.389,555.021c9.772,5.527,5.366,15.881,6.476,23.396
		c7.507,50.8,23.309,99.004,45.736,144.723c30.431,62.041,73.151,114.849,125.883,159.816
		c66.569,56.767,143.264,91.861,228.435,109.142c13.455,2.73,27.105,6.069,41.125,5.524c3.473-0.134,6.41,0.554,6.89,4.768
		c-148.129,0-296.258-0.093-444.386,0.235c-8.607,0.019-10.417-1.753-10.398-10.386C2.483,846.499,2.389,700.76,2.389,555.021z"/>
	<path display="none" fill-rule="evenodd" fill="#FFFFFF" d="M1002.389,454.542c-10.001-5.961-5.316-16.646-6.542-24.606
		c-7.297-47.417-20.841-92.718-40.419-136.445c-28.948-64.655-71.454-119.323-123.912-166.112
		c-44.8-39.961-95.439-71.042-152.097-91.879C641.69,21.624,603.307,10.715,563.104,7.171c-3.235-0.286-5.285-1.408-5.691-4.782
		c145.136,0,290.271,0.087,435.407-0.231c8.193-0.019,9.819,1.607,9.801,9.801C1002.302,159.486,1002.389,307.014,1002.389,454.542z
		"/>
	<path display="none" fill-rule="evenodd" fill="#FFFFFF" d="M444.973,2.389c-4.614,9.338-14.252,5.47-20.988,6.553
		c-88.289,14.204-166.708,49.586-236.299,105.694C127.166,163.432,81.11,223.308,48.47,293.428
		c-21.702,46.622-36.066,95.645-41.25,147.058c-0.346,3.422-0.605,6.409-4.83,6.879c0-144.94,0.094-289.88-0.236-434.82
		C2.133,3.93,3.918,2.132,12.541,2.152C156.685,2.485,300.829,2.389,444.973,2.389z"/>
	<path fill-rule="evenodd" fill="#090808" d="M598.232,776.077c-88.65,0.138-160.64-71.991-160.752-161.062
		c-0.114-89.936,71.959-162.739,160.763-162.392c88.836,0.347,160.34,71.946,161.037,161.249
		C759.975,702.813,687.37,775.939,598.232,776.077z M470.818,613.697c-0.062,71.239,57.036,129.287,127.239,129.354
		c69.715,0.067,128.286-58.85,128.222-128.978c-0.064-69.416-58.189-127.676-127.818-128.114
		C528.923,485.523,470.88,543.608,470.818,613.697z"/>
	<path fill-rule="evenodd" fill="#090808" d="M373.28,485.958c-71.003-0.046-128.487-57.133-128.795-127.907
		c-0.313-71.646,57.866-130.662,128.944-130.799c72.389-0.14,129.105,58.256,128.977,132.795
		C502.287,429.384,444.22,486.004,373.28,485.958z M373.894,452.619c52.824,0.002,95.554-42.83,95.352-95.582
		c-0.203-52.837-43.017-96.113-95.23-96.258c-52.576-0.145-96.296,43.828-96.191,96.743
		C277.929,410.073,320.906,452.616,373.894,452.619z"/>
	<path fill-rule="evenodd" fill="#090808" d="M646.669,389.966c-44.877,0.055-82.348-37.721-81.549-82.212
		c0.798-44.434,36.937-80.389,80.911-80.502c44.684-0.114,81.252,36.357,81.255,81.04
		C727.29,353.132,690.986,389.912,646.669,389.966z M644.962,356.437c26.385,0.345,48.215-20.608,48.794-46.835
		c0.587-26.475-20.464-48.515-46.631-48.821c-25.948-0.303-48.61,21.72-48.659,47.291
		C598.416,333.335,620.318,356.117,644.962,356.437z"/>
	<path fill-rule="evenodd" fill="#F6F5F5" d="M470.818,613.697c0.062-70.089,58.104-128.174,127.643-127.737
		c69.629,0.438,127.754,58.698,127.818,128.114c0.064,70.128-58.507,129.045-128.222,128.978
		C527.854,742.984,470.757,684.937,470.818,613.697z"/>
	<path fill-rule="evenodd" fill="#F6F5F5" d="M373.894,452.619c-52.988-0.003-95.965-42.546-96.07-95.097
		c-0.105-52.916,43.616-96.888,96.191-96.743c52.213,0.145,95.027,43.421,95.23,96.258
		C469.447,409.79,426.718,452.622,373.894,452.619z"/>
	<path fill-rule="evenodd" fill="#F6F5F5" d="M644.962,356.437c-24.644-0.32-46.546-23.102-46.496-48.366
		c0.049-25.57,22.711-47.593,48.659-47.291c26.167,0.306,47.218,22.346,46.631,48.821
		C693.177,335.829,671.347,356.782,644.962,356.437z"/>
</g>
</svg>
