<svg id="Layer_1" data-name="Layer 1" xmlns="http://www.w3.org/2000/svg" viewBox="0 0 100 100"><defs><style>.cls-1{fill:#f5f5f5;}.cls-2{fill:none;stroke:#231f20;stroke-miterlimit:10;stroke-width:2px;}</style></defs><circle class="cls-1" cx="50" cy="50" r="50"/><path class="cls-2" d="M70.78,32.5H30.05l-12.19,24v7.18A3.84,3.84,0,0,0,21.7,67.5H78.3a3.84,3.84,0,0,0,3.84-3.84V56.48Z"/><line class="cls-2" x1="17.86" y1="56.48" x2="82.14" y2="56.48"/><path class="cls-2" d="M27.23,38.05s3.12-3.58,5.34-2.06,2.32,2.52,3.83,2.06,3.43-3.72,5-2.44,2.93,2.93,4,2.55,3.51-4,5.73-1.95,2.54,2.26,3.42,2,3.69-3,4.85-2.33,3.18,2.71,4.34,2.42,3.53-3,4.55-2.7,3.92,3.5,5.42,3.23"/><path class="cls-2" d="M23.77,44.88s3.58-3.58,6.11-2.07,2.66,2.52,4.39,2.07,3.92-3.72,5.76-2.44,3.35,2.93,4.62,2.55,4-4,6.55-2,2.9,2.25,3.9,2,4.23-3,5.55-2.33,3.65,2.71,5,2.42,4-3,5.2-2.69,4.48,3.49,6.2,3.22"/><path class="cls-2" d="M20.07,52S24.12,48.46,27,50,30,52.5,32,52s4.45-3.72,6.54-2.44,3.79,2.93,5.23,2.55,4.55-4,7.43-1.95,3.29,2.26,4.43,2,4.79-3,6.29-2.33S66,52.59,67.52,52.3s4.59-3,5.9-2.7,5.08,3.5,7,3.23"/></svg>