<svg id="Layer_1" data-name="Layer 1" xmlns="http://www.w3.org/2000/svg" viewBox="0 0 100 100"><defs><style>.cls-1{fill:#f5f5f5;}</style></defs><circle class="cls-1" cx="50" cy="50" r="50"/><path d="M78.23,68.83h0L74,64.62h0L46.35,37h0l-8.82-8.83a2.15,2.15,0,0,0-3.67,1.52v40.7A2.15,2.15,0,0,0,36,72.5h40.7A2.15,2.15,0,0,0,78.23,68.83Zm-1.52,2H36a.47.47,0,0,1-.46-.46V29.65a.45.45,0,0,1,.78-.32L40,32.94l-1.19,1.19a.85.85,0,1,0,1.2,1.2l1.18-1.19,3.42,3.41-1.19,1.19a.85.85,0,1,0,1.2,1.2l1.18-1.19,3.42,3.41L48,43.35a.85.85,0,1,0,1.2,1.2l1.18-1.19,3.42,3.41L52.59,48a.85.85,0,1,0,1.2,1.2L55,48l3.42,3.41L57.2,52.57a.85.85,0,1,0,1.2,1.2l1.19-1.19L63,56l-1.19,1.19a.85.85,0,1,0,1.2,1.2l1.19-1.19,3.41,3.41-1.19,1.19a.85.85,0,0,0,1.2,1.2l1.19-1.19,3.41,3.42L71,66.4a.85.85,0,1,0,1.2,1.2l1.19-1.19L77,70A.45.45,0,0,1,76.71,70.81Z"/><path d="M58.6,61.19,45.17,47.76a1.66,1.66,0,0,0-2.83,1.17V62.36A1.66,1.66,0,0,0,44,64H57.43a1.66,1.66,0,0,0,1.17-2.83ZM44,62.33V49L57.35,62.33Z"/><path d="M30.08,27.5H22.89a1.76,1.76,0,0,0-1.75,1.75v41.5a1.76,1.76,0,0,0,1.75,1.75h7.19a1.76,1.76,0,0,0,1.75-1.75V29.25A1.76,1.76,0,0,0,30.08,27.5Zm.06,9H29a.85.85,0,1,0,0,1.69h1.18V41.5H29a.85.85,0,1,0,0,1.69h1.18v3.32H29a.85.85,0,1,0,0,1.69h1.18v3.32H29a.85.85,0,0,0-.85.85.84.84,0,0,0,.85.84h1.18v3.32H29a.85.85,0,1,0,0,1.7h1.18v3.32H29a.84.84,0,0,0-.85.84.85.85,0,0,0,.85.85h1.18v3.32H29a.85.85,0,1,0,0,1.69h1.18v2.5a.06.06,0,0,1-.06.06H22.89a.06.06,0,0,1-.06-.06V29.25a.06.06,0,0,1,.06-.06h7.19a.06.06,0,0,1,.06.06v2.23H29a.85.85,0,1,0,0,1.69h1.18Z"/></svg>