<svg id="Layer_1" data-name="Layer 1" xmlns="http://www.w3.org/2000/svg" viewBox="0 0 100 100"><defs><style>.cls-1{fill:#f5f5f5;}</style></defs><circle class="cls-1" cx="50" cy="50" r="50"/><path d="M54.8,52.81V29.72a7.22,7.22,0,1,0-14.43,0V52.8a13.4,13.4,0,0,0,7.18,24.69h.07A13.4,13.4,0,0,0,54.8,52.81ZM42,73.93a11.35,11.35,0,0,1,0-19.66,1,1,0,0,0,.51-.89V29.72a5.17,5.17,0,1,1,10.33,0V53.38a1,1,0,0,0,.51.89A11.35,11.35,0,1,1,42,73.93Z"/><path d="M48.64,56.73V41.17a1,1,0,0,0-2,0V56.73a7.12,7.12,0,1,0,2,0Zm-1,12a5,5,0,1,1,0-10.07h0a5,5,0,0,1,0,10.07Z"/><path d="M64.8,29.55H58.39a1,1,0,1,0,0,2.05H64.8a1,1,0,0,0,0-2.05Z"/><path d="M63.43,34.68H59.67a1,1,0,1,0,0,2h3.76a1,1,0,1,0,0-2Z"/><path d="M64.8,39.81H58.39a1,1,0,1,0,0,2H64.8a1,1,0,0,0,0-2Z"/><path d="M63.43,44.94H59.67a1,1,0,1,0,0,2.05h3.76a1,1,0,1,0,0-2.05Z"/><path d="M64.8,50.06H58.39a1,1,0,0,0,0,2.06H64.8a1,1,0,0,0,0-2.06Z"/></svg>