<svg id="Layer_1" data-name="Layer 1" xmlns="http://www.w3.org/2000/svg" viewBox="0 0 100 100"><defs><style>.cls-1{fill:#f5f5f5;}</style></defs><circle class="cls-1" cx="50" cy="50" r="50"/><path d="M63.33,46.92a2.6,2.6,0,0,0-2.26-1.27h-9.3l2.71-21.16a1.76,1.76,0,0,0-3.3-1.06L36.61,50.48a2.62,2.62,0,0,0,2.32,3.87h9.3L45.52,75.51a1.74,1.74,0,0,0,1.21,1.9,1.74,1.74,0,0,0,2.09-.84l14.57-27A2.62,2.62,0,0,0,63.33,46.92Zm-1.52,1.75L47.32,75.56l2.82-22a.89.89,0,0,0-.21-.71.92.92,0,0,0-.68-.3H38.92a.82.82,0,0,1-.71-.4.85.85,0,0,1,0-.83L52.68,24.44l-2.82,22a.89.89,0,0,0,.21.71.92.92,0,0,0,.68.3H61.08a.82.82,0,0,1,.71.4A.85.85,0,0,1,61.81,48.67Z"/></svg>