<svg id="Layer_1" data-name="Layer 1" xmlns="http://www.w3.org/2000/svg" viewBox="0 0 100 100"><defs><style>.cls-1{fill:#f5f5f5;}</style></defs><circle class="cls-1" cx="50" cy="50" r="50"/><path d="M81.68,50.31A1.25,1.25,0,0,0,81,49.1L69.43,43,80.81,39.5a1.24,1.24,0,0,0,.87-1.07A1.26,1.26,0,0,0,81,37.22L58,25.14a1.23,1.23,0,0,0-.94-.08L19.19,36.75A1.24,1.24,0,0,0,19,39l8,4.17c1.26.66,2.54,1.25,3.84,1.78l-11.6,3.65A1.23,1.23,0,0,0,19,50.9L30.57,57,19.19,60.5a1.25,1.25,0,0,0-.87,1.07A1.26,1.26,0,0,0,19,62.78L42,74.86a1.3,1.3,0,0,0,.57.14,1.15,1.15,0,0,0,.37-.06l14.11-4.36a1.24,1.24,0,1,0-.73-2.36L42.73,72.43,22.79,62l10.89-3.37L42,63a1.18,1.18,0,0,0,.57.15,1.15,1.15,0,0,0,.37-.06l23.1-7.14,11.14,5.84L65.82,65.29a1.24,1.24,0,0,0,.37,2.42,1.49,1.49,0,0,0,.36,0l14.26-4.41A1.24,1.24,0,0,0,81,61L69.43,54.89l11.38-3.51A1.25,1.25,0,0,0,81.68,50.31ZM22.79,38.23,57.27,27.57,77.21,38,58.52,43.8c-.91.28-1.82.53-2.74.74l-2.59-.76a12.37,12.37,0,0,1-7.43-6,1.23,1.23,0,0,0-2.06-.16,11.89,11.89,0,0,1-9.41,4.59H30.64q-1.29-.57-2.55-1.23ZM37.1,44.44a14.25,14.25,0,0,0,7.41-4,14.79,14.79,0,0,0,6,5A39.75,39.75,0,0,1,37.1,44.44Zm5.63,16.12-20-10.47L34.7,46.34c.59.18,1.18.34,1.78.48a1.23,1.23,0,0,0,1,1.94,1.25,1.25,0,0,0,1.24-1.24,1.49,1.49,0,0,0,0-.21c1.34.26,2.7.45,4.08.58s2.62.18,3.92.18a42.17,42.17,0,0,0,7.61-.7.76.76,0,0,0,0,.15,1.24,1.24,0,1,0,2.47,0,1.27,1.27,0,0,0-.17-.63c.88-.21,1.76-.45,2.63-.72l2.58-.8a1.39,1.39,0,0,0,.23.31,1.24,1.24,0,0,0,2.11-.88.76.76,0,0,0,0-.15l1.91-.59L77.21,49.9Z"/><path d="M43.3,55.07a1.26,1.26,0,0,0-.88.37,1.22,1.22,0,1,0,.88-.37Z"/><path d="M36.08,51.42a1.26,1.26,0,0,0-.88.37,1.22,1.22,0,1,0,.88-.37Z"/><path d="M52.6,51.42a1.26,1.26,0,0,0-.88.37,1.24,1.24,0,0,0,1.75,1.75,1.25,1.25,0,0,0-.87-2.12Z"/><path d="M46.1,50.3a1.25,1.25,0,1,0,.88.37A1.25,1.25,0,0,0,46.1,50.3Z"/></svg>