<svg id="Layer_1" data-name="Layer 1" xmlns="http://www.w3.org/2000/svg" viewBox="0 0 100 100"><defs><style>.cls-1{fill:#f5f5f5;}</style></defs><circle class="cls-1" cx="50" cy="50" r="50"/><path d="M46,62.38a1.61,1.61,0,0,0,0,3.22H57.4v1.61a1.61,1.61,0,0,0,3.22,0V41.14a1.61,1.61,0,0,0-3.22,0v1.61H46A1.61,1.61,0,0,0,46,46H57.4v3.32H52.5a1.62,1.62,0,1,0,0,3.23h4.9v3.32H52.5a1.61,1.61,0,1,0,0,3.22h4.9v3.32Z"/><path d="M69.8,22.5a5.86,5.86,0,0,0-5.6,4.19H26a1.61,1.61,0,0,0-1.17,2.72l8.3,8.8V69.35a8.15,8.15,0,0,0,8.13,8.15H59.05a8.15,8.15,0,0,0,8.13-8.15v-41a2.63,2.63,0,1,1,5.25,0v21.5a1.61,1.61,0,0,0,3.22,0V28.36A5.86,5.86,0,0,0,69.8,22.5ZM64,69.35a4.92,4.92,0,0,1-4.9,4.93H41.22a4.92,4.92,0,0,1-4.91-4.93V37.57a1.59,1.59,0,0,0-.44-1.11L29.7,29.91H64Z"/></svg>