<svg id="Layer_1" data-name="Layer 1" xmlns="http://www.w3.org/2000/svg" viewBox="0 0 100 100"><defs><style>.cls-1{fill:#f5f5f5;}</style></defs><circle class="cls-1" cx="50" cy="50" r="50"/><path d="M59.65,45.13A16.19,16.19,0,1,0,75.78,61.26,16.15,16.15,0,0,0,59.65,45.13Zm0,29.07A12.89,12.89,0,1,1,72.49,61.26,12.9,12.9,0,0,1,59.65,74.2Z"/><path d="M37.13,22.5A13,13,0,1,0,50,35.52,13,13,0,0,0,37.13,22.5Zm0,22.63a9.67,9.67,0,1,1,9.61-9.61A9.63,9.63,0,0,1,37.13,45.13Z"/><path d="M64.48,22.5a8.09,8.09,0,0,0-8.08,8.08,8.18,8.18,0,0,0,2.35,5.76,7.95,7.95,0,0,0,11.46,0,8.19,8.19,0,0,0,2.36-5.76A8.1,8.1,0,0,0,64.48,22.5Zm0,13a4.91,4.91,0,0,1-4.79-4.9,4.79,4.79,0,0,1,9.58,0A4.91,4.91,0,0,1,64.48,35.48Z"/></svg>