<svg id="Layer_1" data-name="Layer 1" xmlns="http://www.w3.org/2000/svg" viewBox="0 0 100 100"><defs><style>.cls-1{fill:#f5f5f5;}</style></defs><circle class="cls-1" cx="50" cy="50" r="50"/><path d="M76.66,56.5A3.54,3.54,0,0,0,77,55V50a3.5,3.5,0,0,0-3.5-3.5H72a2.25,2.25,0,0,0-2.24-2H38a1,1,0,0,0-1,1v1H34.33a3.47,3.47,0,0,0,.31-1.93l-1.37-11a3.52,3.52,0,0,0-3.48-3.07H28.5a3.54,3.54,0,0,0-1.5.34,3.51,3.51,0,0,0-3.5-3.34H21a1,1,0,0,0-1,1v43a1,1,0,0,0,1,1h2.4a6,6,0,0,0,5.69-4.1l.63-1.9H70.28l.63,1.9a6,6,0,0,0,5.69,4.1H79a1,1,0,0,0,1-1V60A3.51,3.51,0,0,0,76.66,56.5ZM45,46.5H69.75a.25.25,0,0,1,.25.25V52.5H45Zm-6,0h4v6H39ZM27,34a1.5,1.5,0,0,1,1.5-1.5h1.29a1.49,1.49,0,0,1,1.49,1.31l1.38,11a1.5,1.5,0,0,1-1.31,1.68H27Zm0,14.5H37v5a1,1,0,0,0,1,1H71a1,1,0,0,0,1-1v-5h1.5A1.5,1.5,0,0,1,75,50v5a1.5,1.5,0,0,1-1.5,1.5H27Zm-5-13v-6h1.5A1.5,1.5,0,0,1,25,31V64.5H22v-29Zm5.19,32.26A4,4,0,0,1,23.4,70.5H22v-4h5.61ZM78,70.5H76.6a4,4,0,0,1-3.79-2.74l-.42-1.26H78Zm0-6H27v-6H76.5A1.5,1.5,0,0,1,78,60Z"/></svg>