<svg id="Layer_1" data-name="Layer 1" xmlns="http://www.w3.org/2000/svg" viewBox="0 0 100 100"><defs><style>.cls-1{fill:#f5f5f5;}</style></defs><circle class="cls-1" cx="50" cy="50" r="50"/><path d="M62.37,66.3a48.3,48.3,0,0,1-.55-13.15c.44-3.49.86-7,1.35-10.45.27-1.93,0-3.77-1.8-4.63a3.77,3.77,0,0,1-2.1-3.16c-.15-.71-.35-1.41-.56-2.11-.31-1.07-1-2.08-2.06-2.17-1.82-.15-1.71-1.24-1.63-2.47,0-.24,0-.49,0-.73a5.06,5.06,0,0,0-4.74-4.92A5,5,0,0,0,45,27a19.49,19.49,0,0,0-.08,2.54c0,.53-.13.75-.72.84a3.48,3.48,0,0,0-3.1,3c-.24,1.1-.6,2.18-.83,3.28a1.12,1.12,0,0,1-.79.92,4.11,4.11,0,0,0-2.72,4.61c.16,1.73.41,3.45.63,5.17.58,4.53,1.34,9.05.84,13.63-.38,3.46-.73,6.92-1.36,10.33a5.12,5.12,0,0,0,5.35,6.24c2.54-.16,5.1,0,7.65,0,2.83,0,5.66,0,8.49,0a4.87,4.87,0,0,0,4.79-5.38C62.92,70.14,62.65,68.22,62.37,66.3ZM43.64,36.35a7.62,7.62,0,0,0,.24-.94c.2-1.09.46-1.93,1.91-2.12s2.33-1.75,2.37-3.29c0-.8,0-1.62,0-2.42A1.87,1.87,0,0,1,50,25.7a1.94,1.94,0,0,1,1.8,1.82c.06.8,0,1.62,0,2.43a3.35,3.35,0,0,0,3,3.51c.76.1.88.52,1,1.09.7,2.62.7,2.62-2,2.62h-4c-1.86,0-3.73,0-5.59,0C43.65,37.19,43.43,37,43.64,36.35ZM60,42.24c-.57,5.54-1.75,11-1.57,16.62.13,4,.9,8,1.37,12,.06.52.15,1,.16,1.57a1.56,1.56,0,0,1-1.67,1.78q-8.25,0-16.5,0a1.67,1.67,0,0,1-1.71-2c.18-1.48.45-3,.6-4.44.06-.59.29-.74.83-.73,1,0,2.11,0,3.16,0s1.93-.73,1.81-1.66a1.63,1.63,0,0,0-1.8-1.57c-.93,0-1.87,0-2.79,0-.54,0-.69-.13-.62-.69.17-1.32.31-2.65.36-4,0-.62.25-.73.8-.72,1.49,0,3,0,4.48,0S49,58,49,56.89s-.71-1.63-2.19-1.63-2.92,0-4.37,0c-.64,0-.94-.14-1-.84-.08-1.29-.21-2.58-.4-3.85-.09-.58.09-.71.61-.7,1,0,1.94,0,2.91,0,1.15,0,1.88-.69,1.87-1.63s-.71-1.58-1.9-1.61-2.18,0-3.27,0c-.46,0-.76-.07-.82-.63-.14-1.36-.34-2.72-.5-4.09-.13-1,.37-1.48,1.39-1.47H58.46C59.83,40.46,60.1,40.85,60,42.24Z"/></svg>