<svg id="Layer_1" data-name="Layer 1" xmlns="http://www.w3.org/2000/svg" viewBox="0 0 100 100"><defs><style>.cls-1{fill:#f5f5f5;}</style></defs><circle class="cls-1" cx="50" cy="50" r="50"/><path d="M65.08,40.24A15.08,15.08,0,1,0,50,55.32,15.1,15.1,0,0,0,65.08,40.24Zm-28.39,0A13.31,13.31,0,1,1,50,53.55,13.32,13.32,0,0,1,36.69,40.24Z"/><path d="M76.61,62.42H72.18v-.89a2.67,2.67,0,0,0-2.66-2.66H67.74a2.67,2.67,0,0,0-2.66,2.66v.89h-8V60.65a.89.89,0,0,0-.89-.89h-.89V57.17a17.74,17.74,0,1,0-10.64,0v2.59h-.89a.89.89,0,0,0-.89.89v1.77h-8v-.89a2.67,2.67,0,0,0-2.66-2.66H30.48a2.67,2.67,0,0,0-2.66,2.66v.89H23.39a.89.89,0,0,0-.89.89V74a.89.89,0,0,0,.89.89h4.43a2.67,2.67,0,0,0,2.66,2.66h1.78a2.66,2.66,0,0,0,2.66-2.66H65.08a2.66,2.66,0,0,0,2.66,2.66h1.78a2.67,2.67,0,0,0,2.66-2.66h4.43A.89.89,0,0,0,77.5,74V63.31A.89.89,0,0,0,76.61,62.42ZM34,40.24a16,16,0,1,1,16,16A16,16,0,0,1,34,40.24ZM46.45,57.63a18.18,18.18,0,0,0,7.1,0v2.13h-7.1Zm-1.77,3.9H55.32v2.66a.89.89,0,0,1-.88.89H45.56a.89.89,0,0,1-.88-.89ZM24.27,73.06V64.19h3.55v8.87Zm8.88,1.78a.89.89,0,0,1-.89.89H30.48a.89.89,0,0,1-.88-.89V61.53a.88.88,0,0,1,.88-.88h1.78a.88.88,0,0,1,.89.88Zm1.77-1.78V64.19h8a2.67,2.67,0,0,0,2.66,2.66h8.88a2.67,2.67,0,0,0,2.66-2.66h8v8.87ZM70.4,74.84a.89.89,0,0,1-.88.89H67.74a.89.89,0,0,1-.89-.89V61.53a.88.88,0,0,1,.89-.88h1.78a.88.88,0,0,1,.88.88Zm5.33-1.78H72.18V64.19h3.55Z"/><path d="M43.92,43.81l2.51,2.51a.89.89,0,0,0,.63.26h.07a.92.92,0,0,0,.65-.37l1.9-2.66a3.56,3.56,0,0,0,3-1,3.49,3.49,0,0,0,1-2.45l2.81-4.42A7.94,7.94,0,0,1,58,40.24a.89.89,0,0,0,.89.89h2.66a.89.89,0,0,0,.89-.89A12.43,12.43,0,0,0,50,27.82a.89.89,0,0,0-.89.89v2.66a.89.89,0,0,0,.89.89,8,8,0,0,1,4.57,1.44l-4.43,2.81a3.53,3.53,0,0,0-3.45,4.05L44,42.46a.86.86,0,0,0-.37.65.91.91,0,0,0,.25.7Zm16.69-4.46h-.89a9.8,9.8,0,0,0-2.16-5.28l.29-.45A.89.89,0,0,0,58,33.2,10.61,10.61,0,0,1,60.61,39.35Zm-9.72-8.83v-.89A10.67,10.67,0,0,1,57,32.27a.8.8,0,0,0-.42.13l-.45.28a9.77,9.77,0,0,0-5.28-2.16ZM48.21,41.66a.88.88,0,0,0,.32-1,1.78,1.78,0,0,1,.41-1.85,1.74,1.74,0,0,1,1.39-.5.9.9,0,0,0,.53-.14L54.22,36l-2.13,3.36a.93.93,0,0,0-.14.54,1.75,1.75,0,0,1-2.35,1.79.88.88,0,0,0-1,.32L47,44.32l-1-1Z"/><path d="M52.75,50.53l.46,1.71a11.64,11.64,0,0,0,1.8-.63L54.29,50a10.41,10.41,0,0,1-1.54.54Z"/><path d="M55.74,49.21l.95,1.5a12.37,12.37,0,0,0,1.52-1.15L57,48.23a11.06,11.06,0,0,1-1.3,1Z"/><path d="M59.86,44.26l1.65.67a12.84,12.84,0,0,0,.58-1.82l-1.73-.41A9.76,9.76,0,0,1,59.86,44.26Z"/><path d="M43.69,31.67l-1-1.43a13.27,13.27,0,0,0-1.45,1.25l1.26,1.25A9.72,9.72,0,0,1,43.69,31.67Z"/><path d="M58.18,47.05l1.36,1.14a12.24,12.24,0,0,0,1.11-1.56l-1.52-.91A11.12,11.12,0,0,1,58.18,47.05Z"/><path d="M46.58,30.16,46,28.48a11.24,11.24,0,0,0-1.75.75l.82,1.57A10.4,10.4,0,0,1,46.58,30.16Z"/><path d="M45.69,51.89a12,12,0,0,0,1.84.53l.35-1.74a10.8,10.8,0,0,1-1.57-.45Z"/><path d="M39.76,47.27A11.51,11.51,0,0,0,41,48.76l1.29-1.22a11.43,11.43,0,0,1-1-1.27Z"/><path d="M42.37,50A12.93,12.93,0,0,0,44,51.1l.86-1.55a11.11,11.11,0,0,1-1.36-.91Z"/><path d="M41.39,34l-1.44-1a12.82,12.82,0,0,0-1,1.62l1.58.81A11.07,11.07,0,0,1,41.39,34Z"/><path d="M51.33,52.59l-.19-1.76a10.51,10.51,0,0,1-1.12.06h-.51l-.08,1.77H50a11.38,11.38,0,0,0,1.31-.07Z"/><path d="M39.9,36.88l-1.69-.56a13.29,13.29,0,0,0-.46,1.86l1.75.29a9.74,9.74,0,0,1,.4-1.59Z"/><path d="M39.35,40.24V40.1l-1.78,0v.16A12.61,12.61,0,0,0,37.7,42l1.76-.25A10.56,10.56,0,0,1,39.35,40.24Z"/><path d="M39.81,43.33l-1.7.51a12.37,12.37,0,0,0,.69,1.78l1.6-.77a11.66,11.66,0,0,1-.59-1.52Z"/><path d="M36.69,69.52H59.76v1.77H36.69Z"/><path d="M61.53,69.52h1.78v1.77H61.53Z"/></svg>