<svg id="Layer_1" data-name="Layer 1" xmlns="http://www.w3.org/2000/svg" viewBox="0 0 100 100"><defs><style>.cls-1{fill:#f5f5f5;}</style></defs><circle class="cls-1" cx="50" cy="50" r="50"/><path d="M72.22,74.59h0a7.65,7.65,0,0,1-1.82-1.77c-1.23-1.39-2.77-3.1-5.65-3.1s-4.38,1.66-5.65,3.16-2.1,2.39-4,2.39-2.82-1.06-4-2.39-2.71-3.16-5.65-3.16-4.38,1.66-5.65,3.16-2.1,2.39-4,2.39-2.82-1.06-4-2.39a9.44,9.44,0,0,0-2.94-2.54,1.11,1.11,0,0,0-1.5.5,1.12,1.12,0,0,0,.5,1.51,8.35,8.35,0,0,1,2.28,2c1.28,1.5,2.77,3.16,5.64,3.16s4.39-1.66,5.65-3.16S43.6,72,45.48,72s2.82,1.06,4,2.39,2.71,3.16,5.64,3.16,4.39-1.66,5.65-3.16,2.11-2.39,4-2.39,2.82,1.06,4,2.39A10.13,10.13,0,0,0,71,76.5a1.11,1.11,0,0,0,1.55-.33A1.17,1.17,0,0,0,72.22,74.59Z"/><path d="M72.22,65.73h0A7.65,7.65,0,0,1,70.4,64c-1.23-1.39-2.77-3.1-5.65-3.1S60.37,62.51,59.1,64s-2.1,2.38-4,2.38-2.82-1.05-4-2.38-2.71-3.16-5.65-3.16S41.1,62.51,39.83,64s-2.1,2.38-4,2.38S33,65.35,31.86,64a9.6,9.6,0,0,0-2.94-2.55,1.12,1.12,0,0,0-1,2,8.38,8.38,0,0,1,2.28,2c1.28,1.5,2.77,3.16,5.64,3.16s4.39-1.66,5.65-3.16,2.11-2.39,4-2.39,2.82,1,4,2.39,2.71,3.16,5.64,3.16S59.5,67,60.76,65.48s2.11-2.39,4-2.39,2.82,1,4,2.39A10.13,10.13,0,0,0,71,67.64a1.12,1.12,0,0,0,1.55-.34A1.16,1.16,0,0,0,72.22,65.73Z"/><path d="M27.9,55.14a8.31,8.31,0,0,1,2.27,2c1.28,1.51,2.77,3.16,5.65,3.16s4.38-1.65,5.64-3.16,2.11-2.38,4-2.38,2.82,1,4,2.38,2.71,3.16,5.65,3.16,4.38-1.65,5.64-3.16,2.11-2.38,4-2.38,2.82,1,4,2.38A10.45,10.45,0,0,0,71,59.3a1.12,1.12,0,0,0,1.2-1.88h0a8.05,8.05,0,0,1-1.82-1.77c-1.22-1.39-2.77-3.11-5.65-3.11s-4.38,1.66-5.64,3.16-2.11,2.39-4,2.39-2.83-1.05-4-2.39-2.71-3.16-5.65-3.16-4.37,1.66-5.64,3.16-2.11,2.39-4,2.39S33,57,31.83,55.7a9.44,9.44,0,0,0-2.94-2.54,1.11,1.11,0,0,0-1.5.51A1.07,1.07,0,0,0,27.9,55.14Z"/><path d="M52.15,25c-.66-.85-1.25-1.6-1.71-2.22l-.09-.1a.5.5,0,0,0-.78.1c-.47.63-1.06,1.37-1.72,2.22-2.9,3.71-6.92,8.83-6.92,13.12a10.5,10.5,0,0,0,2.65,7.06A8.76,8.76,0,0,0,50,48.06a8.65,8.65,0,0,0,6.42-2.92,10.51,10.51,0,0,0,2.66-7.06C59.08,33.79,55.06,28.67,52.15,25Zm3.47,19.28A7.58,7.58,0,0,1,50,46.83a7.66,7.66,0,0,1-5.63-2.57A9.21,9.21,0,0,1,42,38.06c0-3.82,3.87-8.76,6.66-12.32.47-.6.9-1.16,1.29-1.7.4.54.83,1.1,1.3,1.68,2.79,3.55,6.65,8.46,6.65,12.31A9.12,9.12,0,0,1,55.62,44.24Z"/><path d="M50,44.06a4.86,4.86,0,0,1-3.46-1.43,4.92,4.92,0,0,1-1.44-3.47.55.55,0,1,0-1.09,0,6,6,0,0,0,6,6,.54.54,0,0,0,.55-.55A.55.55,0,0,0,50,44.06Z"/></svg>