<svg id="Layer_1" data-name="Layer 1" xmlns="http://www.w3.org/2000/svg" viewBox="0 0 100 100"><defs><style>.cls-1{fill:#f5f5f5;}.cls-2{fill:#034fe4;}.cls-3{fill:#0752e4;}</style></defs><circle class="cls-1" cx="50" cy="50" r="50"/><path class="cls-2" d="M68.05,50.43C63.66,41,57.66,32.59,52,24c-1.21-1.83-2.66-2.06-3.92-.14-5.85,9-12.55,17.43-16.44,27.53A19.31,19.31,0,0,0,49.83,77.5C64.45,77.38,73.64,62.46,68.05,50.43ZM50.1,73.49c-11.37.06-18.89-10.59-14.77-21.12C38.57,44.1,43.92,37,48.72,29.65c.92-1.41,1.61-1.26,2.48.05C56,37,61.14,44,64.48,52.07A15.36,15.36,0,0,1,50.1,73.49Z"/><path class="cls-3" d="M61.7,56.46c-1.51-.24-2.08.91-2.23,2.06A9.81,9.81,0,0,1,55,65.73c-1.07.71-1.69,1.72-.93,2.91.9,1.39,2.16,1,3.33.26a12.45,12.45,0,0,0,5.8-9.3C63.25,57.91,63.2,56.7,61.7,56.46Z"/></svg>