<svg id="Layer_1" data-name="Layer 1" xmlns="http://www.w3.org/2000/svg" viewBox="0 0 100 100"><defs><style>.cls-1{fill:#f5f5f5;}.cls-2{fill:#ff3434;}</style></defs><circle class="cls-1" cx="50" cy="50" r="50"/><path class="cls-2" d="M43.24,58.3c-.13-2.79,1.29-5.41,3.5-7.61,5.12-5.08,5.18-5.47,1-11.2-1.29-1.79-.88-3.81.93-4.71a2.91,2.91,0,0,1,3.63.75c5,5.14,6.66,12.12.37,18C48.2,57.8,48.1,59.18,52,64c1.23,1.53,1.52,3.08,0,4.5s-3.06,1.07-4.45-.33A13.2,13.2,0,0,1,43.24,58.3Z"/><path class="cls-2" d="M76,45.93c-.08,2.87-1.83,5.66-4.46,8-3.91,3.47-4.11,5.67-.7,9.71,1.37,1.61,2.14,3.13.37,4.87-1.47,1.44-3.16,1.08-5-1-5.45-6-5.05-12.65,1.07-18,3.25-2.82,3.5-5.37.83-8.79-.32-.42-.72-.79-1-1.22-1.11-1.47-1.23-3,.17-4.29s2.73-1,4.09,0C73.9,37.37,76,41.8,76,45.93Z"/><path class="cls-2" d="M24,58.83a11,11,0,0,1,3.91-8.44c4.62-4.34,4.77-5.8.84-10.66-1.27-1.57-1.41-3.09.06-4.47s2.9-.95,4.29.24c5.67,4.86,5.93,12.56.59,17.82-.44.44-.91.85-1.37,1.27-2.83,2.64-3,5.09-.66,8.17.43.56,1,1,1.41,1.59a2.89,2.89,0,0,1-.21,4.1,2.7,2.7,0,0,1-4.05.11A13.15,13.15,0,0,1,24,58.83Z"/></svg>